<svg id="Capa_1" data-name="Capa 1" xmlns="http://www.w3.org/2000/svg" viewBox="0 0 641 409"><defs><style>.cls-1{fill:none;stroke:#000;}</style></defs><path class="cls-1" d="M609.78,1.54c7.83,0,15.66.1,23.48-.06,2.16-.05,3,.41,2.53,2.57a10.16,10.16,0,0,0,0,2q0,199.35.09,398.71c0,3.75-.84,4.65-4.59,4.6-17.83-.22-35.66-.1-53.48-.1.23-2.65,2.56-2.25,4.13-2.65,13.9-3.57,23.25-12.23,27.54-25.75s9.16-27.13,13.24-40.86c1.19-4,.53-6.37-2.9-8.83a182.86,182.86,0,0,1-44.33-44.94c-4.49-6.49-4.66-7.63,1.12-13.06,22.88-21.46,37.06-47.76,43.09-78.35,5.36-27.18-1-51.41-21.14-71C585,110.77,568.12,104.19,549.65,102c-31.27-3.7-61.1,1.14-88.84,16.54C449.27,125,438.9,133,428.89,141.63c-10.41,8.94-8.42,7.51-14.4-1.94-8-12.67-19.34-21.37-33-27.27-15.17-6.56-31.15-9.43-47.54-10.61-28.12-2-56.27-.51-84.4-.93-10.09-.15-15.42,4.09-18.25,13.63-4.39,14.85-8.59,29.75-13.07,44.58-1.12,3.73-.76,6.65,1.81,9.65,4.87,5.69,9.4,11.67,14.11,17.5,2.36,2.91,4.49,3.09,7.6.89,10.46-7.42,20.74-15.1,31.43-22.18,4.3-2.85,5.75-7.12,7.05-11.65,2.22-7.79,2.76-8.26,10.63-8.21,15.81.09,31.64-.76,47.34,2.12,19.14,3.51,33.21,16,35.47,33.76,2.83,22.19-2,42.71-16.48,60.4-9.83,12-22.15,20-37.34,23.44a39.46,39.46,0,0,1-8.92.92c-11.33,0-22.66.2-34-.1-4.76-.13-6.93,1.68-8,6.14-1.81,7.61-4,15.14-6.11,22.67-1.55,5.44-2.86,11-6.45,15.51,1.39,1.64,3,1,4.33,1,16.14-.19,32.29.52,48.43-.87,11.14-1,22.18-2.23,32.94-5.4,17.52-5.16,32.16-15.06,45.34-27.37.73-.69,1.41-1.42,2.17-2.08,3.73-3.24,5-3.22,8,.91a75.5,75.5,0,0,0,19.53,19.11c13.49,9,28.49,13.18,44.52,14.86,17.13,1.78,33.74-1.5,50.47-3.52a102,102,0,0,1-33.68-17.81c-19.4-15.1-32.46-34.24-36.36-58.84-1.8-11.36,1.22-22.19,5.55-32.58,10.19-24.41,27.35-41.6,53.12-49,17.27-5,34.29-4.83,49.68,6.21a34.31,34.31,0,0,1,14.37,24.26,69.65,69.65,0,0,1-8.34,42.92,91.09,91.09,0,0,1-6.09,9.74c-4.22,5.88-6.44,6-10.18-.06a264.69,264.69,0,0,1-16.6-30.75,229.41,229.41,0,0,1-8.69-21.26c-.94-2.85-2.22-3.32-4.67-1.54-15,10.89-27.61,24.1-36.89,40.18-4.31,7.49-4.28,15.45-.5,23.49,10.74,22.84,27.43,40.72,46.58,56.61,14.43,12,30.39,21.58,46.85,30.43a18.43,18.43,0,0,1,1.76.93c1.41,1,4.05,1.44,3.45,3.58s-3.07,1.49-4.84,1.61c-2,.12-4,0-6,0q-247.38,0-494.74.09c-10.75,0-21.64.2-31.56,5.82A35.63,35.63,0,0,0,17.64,360.3c-5,14.29-9.06,28.91-14.11,43.21C2.77,405.67,2.32,408,0,409.25c-3.41.75-4.1-.56-4.09-4q.17-199.9,0-399.81c0-3.59.95-4,4.18-4,27.3.15,54.59.08,81.89.08A1,1,0,0,1,81.73,3c-6.59,2.23-13.47,3.87-18.3,9.56-6.58,7.76-9.37,17.09-11,26.83-.72,4.4,1.72,7.19,5.91,8.61,5.25,1.8,10.79,2,16.17,3.07,2.72.54,6,.57,6.13,4.49.12,3.13-2.63,5.18-7.17,5.28-7.83.18-15.66.17-23.48,0-4.71-.1-7.56,1.89-8.94,6.3-.75,2.38-1.55,4.75-2.47,7.07-1.24,3.12-.38,4.92,3.13,4.84,12.63-.32,25.32,1.12,37.89-1,10.21-1.68,17.14-7.58,21.18-17A107.07,107.07,0,0,0,105.9,46.5c1.86-6.91-.45-10.87-7.37-12.75-4.66-1.28-9.55-1.36-14.28-2.34-2.71-.56-6.22-.94-5.9-4.76s3.33-5.21,6.77-5.37C92,21,98.78,21,105.6,21.21c4.38.11,6.93-1.68,8.08-5.78s3.37-8,3.64-12.41A3.12,3.12,0,0,1,118,1.54h38A1.43,1.43,0,0,1,156.18,3c-6,10.3-8.69,21.9-13,32.85C140.33,43,138,50.25,135.24,57.4a41,41,0,0,0-2.39,9.15c-.66,5.09,1.37,8.68,6,10.84a20.44,20.44,0,0,0,6.17,2c11.95,1.36,23.9,2,35.52-2,8.89-3,14.89-9.11,18.14-17.94,6.2-16.85,12.21-33.77,18.48-50.6a16.21,16.21,0,0,0,1.12-5.84,2.63,2.63,0,0,1,.6-1.4h37A1.45,1.45,0,0,1,256.15,3c-5.08,9.25-7.72,19.47-11.44,29.25-4.91,12.92-9.46,26-14.12,39-2.75,7.69-2.52,7.92,5.88,7.93h2c10.45,0,10.56-.12,14.07-10.24,2.89-8.34,6.11-16.56,9-24.9a11.12,11.12,0,0,1,1-2.29c.69-1.13,1.44-2.49,3-2.18,1.32.27,1.38,1.73,1.66,2.84s.38,2,.58,2.94c1.47,7.2,7.2,9.26,13.09,4.65a33.15,33.15,0,0,0,5.57-5.72,19.17,19.17,0,0,1,2.24-2.68c1.19-1.06,2.4-2.92,4.15-1.83,1.49.93.6,2.79.13,4.15q-2.78,8-5.77,16c-1.71,4.51-3.31,9.07-4.93,13.61-1.51,4.22-.54,5.41,3.92,5.66a4.13,4.13,0,0,0,.5,0c14.68.54,14.85.6,19.94-13.07,7.13-19.19,13.92-38.51,20.94-57.75A13.77,13.77,0,0,0,328.31,3a2.45,2.45,0,0,1,.57-1.41h38A1.39,1.39,0,0,1,367.1,3c-5,8.38-7.24,17.84-10.64,26.85C351.05,44.17,346,58.61,340.72,73c-1.87,5.12-1.16,6.23,4.44,6.15,15.36-.21,13.67,2.55,19.51-13.78,2.74-7.68,5.45-15.37,8.4-23,.47-1.2.84-2.89,2.38-2.85,1.79,0,2.24,1.73,2.58,3.23.19.81.29,1.64.45,2.46,1.46,7.36,7.45,9.43,13.47,4.63A33.37,33.37,0,0,0,397.36,44a14.81,14.81,0,0,1,4.3-4.12c1.9-1,2.85-.4,2.72,1.74a15.56,15.56,0,0,1-1.27,4.29C399.8,55,396.45,64,393.24,73.14c-1.77,5-1.07,6,4.19,6,16.36-.2,14.25,2.6,20.33-14S429.89,31.63,436,14.92c1.43-3.89,3.22-7.7,3.21-12a2.6,2.6,0,0,1,.6-1.39h38A1.65,1.65,0,0,1,478,3.13c-5.92,11.06-9.11,23.2-13.58,34.83C460.1,49.29,456.12,60.77,452,72.18c-2.11,5.82-1.38,6.85,4.64,6.88,13.65,0,27.3-.1,40.94.07,4.89.07,7.58-1.89,9.34-6.43,4.6-11.85,4.74-11.79-8-11.79-4.5,0-9,.13-13.48-.06-2.49-.1-5.73.65-6.27-3.23-.47-3.29,2.64-7.73,5.87-8.23,4.28-.66,8.63-.24,13-.28,8-.07,13.71-6,13.52-14.18-.06-2.66-2-2.8-3.79-2.9-4.15-.24-8.33.07-12.48-.16-2.15-.13-5,.59-5.63-2.69-.58-3,2.05-7.06,5-7.74a31.14,31.14,0,0,1,7-.32q9.5,0,19,0c3.44,0,5.63-1.41,6.73-4.73,1.47-4.41,3.76-8.56,4-13.34a3.32,3.32,0,0,1,.63-1.51h36A1.46,1.46,0,0,1,568,3c-5.25,7.87-7.31,17.08-10.59,25.76-5.48,14.48-10.6,29.09-15.93,43.63-2,5.38-1.1,6.62,4.5,6.72,2.83,0,5.67-.12,8.49,0,4.75.26,7.44-1.92,8.69-6.44s3.48-9,4.88-13.63c1-3.32,3.17-4.9,6.63-4.9s6.67-.15,10,0c4.63.27,6,2,4.78,6.51s-3.21,8.74-4.61,13.19c-1.31,4.2-.81,5,3.68,5.17,3.66.14,7.33,0,11,0,3.5,0,5.52-1.66,6.72-4.84,2.84-7.47,5.6-15,8.19-22.52,1.69-4.94,1.2-9.18-3.73-12.11-2.48-1.48-2.63-3-.23-5,6.42-5.16,8.37-12.67,9.76-20.21,1-5.41-1-8-6.14-9.88-1.4-.51-2.92-.73-4.16-1.66A1,1,0,0,1,609.78,1.54Z" transform="translate(4.6 -0.96)"/><path class="cls-1" d="M0,409.25c5-15.11,10.05-30.2,15-45.34,6.23-19.26,19.08-29.14,39.33-30,2.66-.12,5.33-.1,8-.1H571.89c-1-2.3-3-2.5-4.41-3.24-29.09-15-55.63-33.33-76.76-58.71a141.14,141.14,0,0,1-19.15-29.67c-4.28-9-3.88-17.65,1.23-26.15,9.87-16.38,27.95-34.9,41.48-42.28a286,286,0,0,0,21.66,47.75c2.3,4.05,4.78,8,7.13,12,1,1.73,2,2.7,3.59.58,12.73-16.77,20.54-35.17,16.46-56.6-3.23-17-16.14-27.93-33.61-30-35.13-4.24-68.34,17.36-81.66,52.46-8.62,22.73-4.39,43.32,8.47,63s31,33.09,52.9,41.4c2,.75,4.21,1,6.17,2.77-26.6,5-52.84,8.2-78.95-.76-17.21-5.9-31.25-16-41.32-31.38-.44-.67-1-1.26-1.52-1.92-26.13,28.79-59.37,39.3-97,39-14.15-.1-28.31,0-42.82,0,8.9-13.31,9.93-29.05,14.72-43.55,1-3,2-3.92,5.07-3.86,10.32.17,20.66-.24,31,.11C342,266,367,235.37,371.85,206.28c1.62-9.76,2.29-19.58-.34-29.23-4.75-17.4-17.67-25.44-34.29-28.56-17-3.2-34.22-1.41-51.35-1.84-1.82,0-2.91.64-3,2.48-.77,12-9.33,17.78-18.27,23.56-8.1,5.23-15.89,10.95-23.62,16.72-2.77,2.07-4.31,2.45-6.65-.71-5.34-7.22-11.08-14.15-16.86-21a6,6,0,0,1-1.36-6.3c4.77-16.06,9.38-32.18,14.14-48.26,2.54-8.55,8.67-13.66,17-13.57,29.47.3,59-1.19,88.42,1,17.17,1.27,33.93,4.61,49.62,12.06s27.47,18.54,34.81,34.48c7-5.75,13.71-11.45,20.64-16.83,34.13-26.52,72.86-35.27,115.13-28.66,34,5.32,58.61,28.51,65.41,60.84,4.09,19.43.11,38-6.82,56.16-8.57,22.39-21.09,42.19-39.46,57.9-2.48,2.13-2,3.42-.51,5.66a180.22,180.22,0,0,0,48.22,49.32c2.61,1.81,3.34,3.16,2.27,6.34-4.94,14.62-9.37,29.41-14.32,44-5.15,15.22-15.84,24.11-31.79,26.61-.38.06-.7.54-1,.83Z" transform="translate(4.6 -0.96)"/><path class="cls-1" d="M175.94,1.54h23A1.25,1.25,0,0,1,199,3c-5.24,7.68-7,16.8-10.32,25.26S182.36,45.41,179.28,54c-2.44,6.8-11.78,10.34-18.22,7-3.4-1.75-3.36-4.63-2.25-7.72,3.24-9.06,6.56-18.1,9.84-27.16,2-5.62,4.11-11.22,6.12-16.86.73-2,1.4-4.1.79-6.31A1.7,1.7,0,0,1,175.94,1.54Z" transform="translate(4.6 -0.96)"/><path class="cls-1" d="M276.9,1.54h31A1.22,1.22,0,0,1,308,3c-6.4,6.26-12.34,13-18.22,19.69-1.46,1.67-3.1,3.18-5.54,2.65-2.61-.58-2.89-2.95-3.43-5-1.49-5.76-1.32-11.92-4.26-17.33A1.47,1.47,0,0,1,276.9,1.54Z" transform="translate(4.6 -0.96)"/><path class="cls-1" d="M387.86,1.54h31a1.13,1.13,0,0,1,0,1.41c-6.68,6-12.1,13.18-18.39,19.54-1.54,1.56-2.87,3.43-5.39,2.8-2.77-.68-3.06-3.15-3.52-5.45-1.13-5.68-1.67-11.5-4.08-16.87A1.53,1.53,0,0,1,387.86,1.54Z" transform="translate(4.6 -0.96)"/><path class="cls-1" d="M477.77,2.46a1.06,1.06,0,0,0,.05-.92h54a1.32,1.32,0,0,0,0,.94c-1.84,1.92-4.27,1.65-6.56,1.66q-20.47.09-40.95,0C482,4.13,479.6,4.4,477.77,2.46Z" transform="translate(4.6 -0.96)"/><path class="cls-1" d="M609.78,1.54a3.81,3.81,0,0,1,.09.82c-1.44,1.77-3.5,1.74-5.45,1.76q-15.61.15-31.23,0c-2,0-4,0-5.48-1.72a2.49,2.49,0,0,0,.08-.86Z" transform="translate(4.6 -0.96)"/><path class="cls-1" d="M118,1.54v1c-1.23,1.33-2.89,1.52-4.54,1.54-9,.14-18.08.17-27.12,0C84.67,4,83,3.84,81.87,2.35a1.6,1.6,0,0,1,.1-.81Z" transform="translate(4.6 -0.96)"/><path class="cls-1" d="M276.9,1.54a1.5,1.5,0,0,1,.1.81c-7,2.89-14.06,2.67-21.12.15l0-1Z" transform="translate(4.6 -0.96)"/><path class="cls-1" d="M307.82,2.43a1.3,1.3,0,0,0,.07-.89h21a3,3,0,0,0,.07.89A28.62,28.62,0,0,1,307.82,2.43Z" transform="translate(4.6 -0.96)"/><path class="cls-1" d="M387.86,1.54a3.91,3.91,0,0,1,.09.83,28.5,28.5,0,0,1-21.12.11,1,1,0,0,0,0-.94Z" transform="translate(4.6 -0.96)"/><path class="cls-1" d="M418.77,2.4a2.49,2.49,0,0,0,.08-.86h21a1.55,1.55,0,0,0,0,.93A28.62,28.62,0,0,1,418.77,2.4Z" transform="translate(4.6 -0.96)"/><path class="cls-1" d="M175.94,1.54a.7.7,0,0,1,.11.77c-6.7,3-13.42,2.76-20.16.15a1.1,1.1,0,0,0,.05-.92Z" transform="translate(4.6 -0.96)"/><path class="cls-1" d="M198.84,2.38a6,6,0,0,1,.09-.84h20v1C212.21,5,205.51,5.21,198.84,2.38Z" transform="translate(4.6 -0.96)"/><path class="cls-1" d="M177,292c-15,10.75-30.94,17.1-48.5,18.72-21.77,2-43.52,3.19-64.37-5.89C21.46,286.28-.31,240.41,12.88,195.65c16.29-55.28,53.88-85.9,110.39-94.29,20.71-3.07,41.56-1.51,62.35-1.86,8.64-.15,17.28,0,26.34,0-4.7,16-9.1,31.61-14,47.1a16,16,0,0,1-15.34,11.67c-16.46.52-32.94.16-49.6.16.41-5.49,2.94-10,5.31-14.55C103.59,147.24,74.1,167.34,68.46,205c-2.84,19-.57,36.51,16.51,48.57,16.73,11.82,35.47,13.49,54.86,8.67,23.44-5.83,41.07-19.72,53.61-40.22a15.85,15.85,0,0,0,.73-2.24c-20.4,15.33-43.32,16.36-66.6,15.58-4.56-.15-10.76,2.07-13.13-1-1.68-2.17,1.59-8.26,2.82-12.54q4.69-16.26,9.57-32.48c2.54-8.45,8.33-13.07,17.2-13.15,17.82-.17,35.64,0,53.46-.12a5.81,5.81,0,0,1,5,2.48q25.32,31.2,50.79,62.3a5.6,5.6,0,0,1,1.15,5.86c-5.26,17.82-10.4,35.69-15.54,53.55-1.91,6.67-6.3,10.4-13.12,11.17-11.62,1.31-23.29.32-34.94.58-4.66.1-9.34-.19-14,.08-3.63.22-4.73-.79-3.67-4.43C174.61,302.75,175.64,297.73,177,292Z" transform="translate(4.6 -0.96)"/><path class="cls-1" d="M247.74,205.61c11.35-8,22.42-16.25,33.91-23.82,6-4,13.06-5.51,20.42-5.47,16.14.1,32.29.14,48.43-.07,3.7-.05,4,1.12,3.1,4.16-4.13,13.83-8.09,27.7-12.22,41.52-2.64,8.86-8.8,13.41-18.06,13.43-16.14,0-32.29,0-48.43,0-2,0-3.66-.11-5.15-2C262.63,224.13,255.3,215.09,247.74,205.61Z" transform="translate(4.6 -0.96)"/><path class="cls-1" d="M307.82,2.43H329c2,1.49.95,3.25.36,4.9Q317,41.25,304.78,75.17c-1.31,3.63-3.54,5.33-7.45,5.17-4.32-.17-8.66,0-13,0-5.09-.07-5.63-.8-3.93-5.58,3.91-10.93,7.9-21.83,11.85-32.74a2.83,2.83,0,0,0,0-2.18c-3.06,3.34-6.25,6.56-9.14,10-3.53,4.26-8.17,3.89-12.83,3.46-2.14-.2-2.92-2-3.26-3.9-.55-3.06-1.05-6.14-1.58-9.31-2.15.49-1.89,2.38-2.34,3.57C259.3,53.9,255.47,64.15,252,74.52c-1.47,4.36-4,6.09-8.51,5.84-4.31-.25-8.65,0-13-.07-3.11,0-4.17-1.26-3-4.41q12.74-34.8,25.33-69.66a6.12,6.12,0,0,1,3.08-3.72L277,2.35c2.51,1,2.43,3.33,2.83,5.37.91,4.53,1.64,9.11,2.61,13.62.25,1.16-.17,2.87,1.55,3.33s2.78-.7,3.79-1.81c4.78-5.27,9.53-10.57,14.33-15.82C303.78,5.23,305.31,3.21,307.82,2.43Z" transform="translate(4.6 -0.96)"/><path class="cls-1" d="M418.77,2.4l21.11.07c2,1.55.83,3.25.23,4.91q-12.27,33.95-24.54,67.89c-1.21,3.37-3.28,5.18-7,5.07-4.66-.14-9.34-.15-14,0-4.2.13-4.83-1.74-3.52-5.27,4.31-11.64,8.54-23.3,12.18-35.36-2.73,3-5.64,5.83-8.14,9-3.12,3.95-7.06,5.09-11.88,4.82-3.2-.17-4.84-1.35-5.39-4.58-.5-3-.43-6.23-2.28-9.56C371.18,51.28,366.86,62.57,363,74c-1.61,4.75-4.24,6.7-9.18,6.35-4.14-.3-8.33-.08-12.49-.07-3.23,0-4.11-1.48-3-4.47Q351,41,363.7,6.14a5.83,5.83,0,0,1,3.13-3.66L388,2.37c2.48,1,2.32,3.45,2.75,5.44.86,4,1.41,8.14,2.27,12.18.35,1.65-.09,4,2,4.65s3.19-1.31,4.39-2.61C403.92,17,408.44,12,413,7,414.69,5.16,416.23,3.14,418.77,2.4Z" transform="translate(4.6 -0.96)"/><path class="cls-1" d="M567.71,2.4l42.16,0c11,1.44,14.27,6.31,10.84,16.71-2.27,6.89-4.14,14.14-11.36,18,7.74,4.8,8.92,8,6,16.47-2.51,7.19-5.24,14.31-7.74,21.51-1.25,3.59-3.42,5.44-7.37,5.29-4.65-.17-9.31-.1-14,0-3.61.06-4.9-1.23-3.49-4.84,1.93-4.94,3.55-10,5.46-14.94,1.45-3.72.83-5.44-3.64-5.54-13.42-.28-13.29-.36-18.13,12.4C561,81.85,564.13,80.25,548,80.3c-10.76,0-10.79,0-7.16-10q11.29-31.08,22.63-62.12C564.36,5.83,564.93,3.32,567.71,2.4Z" transform="translate(4.6 -0.96)"/><path class="cls-1" d="M198.84,2.38l20.09.15c1.84,1.42.72,3,.17,4.48-6.49,17.93-12.92,35.89-19.51,53.8-4,11-12.41,17-23.55,19.32a81.81,81.81,0,0,1-32.25.34C132.67,78.32,129,72,132.7,61.25,139,43.07,145.7,25,152.25,6.93c.68-1.88,1.51-3.73,3.64-4.47l20.16-.15c3.44,1.36,1.31,3.71.7,5.41-5.41,15.15-11,30.25-16.49,45.37-2.16,5.94-1.19,7.28,5.31,7.44,8.56.2,10.3-1,13.21-9L194.56,8.05C195.41,5.72,196,3.17,198.84,2.38Z" transform="translate(4.6 -0.96)"/><path class="cls-1" d="M81.87,2.35,118,2.54c2.32,2.08.34,4.13-.34,5.89-6.55,16.93-2,14.06-20.27,14.34q-6.25.09-12.49,0c-3.06-.05-5.43,1.06-5.77,4.22-.38,3.55,2.88,2.55,4.68,2.9,5.22,1,10.56,1.47,15.72,2.67,7.24,1.68,10.15,6.24,8.12,13.35A111.59,111.59,0,0,1,100.54,65C95.25,75.59,85.62,79.83,74.3,80.18s-22.65.06-34,.14c-3.88,0-5.07-1.19-3.57-5.13C43.81,56.65,39.61,60,58.3,59.64c5.33-.09,10.66-.11,16,0,3.33.08,5.24-1.68,5.36-4.61s-2.71-2.26-4.55-2.56C70,51.65,64.86,51.16,59.85,50c-7.9-1.82-10.77-6.27-8.59-13.93a110.19,110.19,0,0,1,6.92-18.63C62.92,7.84,71.4,3.34,81.87,2.35Z" transform="translate(4.6 -0.96)"/><path class="cls-1" d="M477.77,2.46l54.07,0c2.28,2,.53,4.05-.16,5.86-6.45,17-2.4,13.92-19.83,14.21-5.16.09-10.32,0-15.48,0-3,0-6.61,4.31-6.17,7.22.28,1.87,1.78,1.11,2.73,1.13,5.66.08,11.32.06,17,0,3.38,0,4.44,1.19,3.14,4.63-6.63,17.6-2.91,14.54-20,14.84-1,0-2,0-3,0-8.48,0-8.48,0-10.16,9.2,9,0,18,0,26.95,0,5.45,0,5.94.67,4.07,5.75C504.47,83,508.15,80.08,490,80.28c-12.15.13-24.3.06-36.45,0-5.12,0-5.63-.74-3.9-5.52Q461.75,41.08,474,7.42C474.71,5.4,475.46,3.31,477.77,2.46Z" transform="translate(4.6 -0.96)"/><path class="cls-1" d="M447.8,362.94c1.77-5.16,3.38-9.46,4.68-13.86.86-2.9,2.58-3.82,5.48-3.9,13.85-.41,13.85-.47,9.53,12.44-3.84,11.45-7.87,22.85-11.39,34.4-1.26,4.15-3.37,5.8-7.49,5.26-.16,0-.33,0-.5,0-3.29-.24-7.47,1.41-9.68-.64-2.74-2.55.94-6,1.39-9.09a4.76,4.76,0,0,0-.31-3.36c-2.4-4.07-4.79-8.15-7.68-13.07-2.53,7.61-4.92,14.27-6.92,21-1.12,3.81-3.12,5.58-7.17,5.17a40.63,40.63,0,0,0-7.48,0c-3.88.3-4.6-1.24-3.43-4.7,4.5-13.34,8.77-26.75,13.35-40.06,1-2.88.74-7.31,5.42-7.25,5.18.07,11.08-2,14.26,4.91C441.81,354.48,444.83,358.26,447.8,362.94Z" transform="translate(4.6 -0.96)"/><path class="cls-1" d="M196.93,363c1.51-4.58,3-8.4,4-12.33s3.11-5.94,7.44-5.47c3,.32,6,0,9,.08,2.16,0,3,1,2.25,3.23Q212,371.31,204.4,394.16a4.2,4.2,0,0,1-4.5,3.12c-1,0-2,.08-3,0-3.27-.31-7.43,1.5-9.59-.82s.93-5.74,1.55-8.71a4.91,4.91,0,0,0-.4-3.82c-2.39-3.95-4.69-7.95-7.51-12.78-2.5,7.46-4.94,14.08-6.89,20.84-1.18,4.08-3.33,5.45-7.54,5.39-12.14-.17-12.12,0-8.26-11.63,3.91-11.79,7.76-23.6,11.68-35.38.77-2.32,1.3-5.38,4.55-5,4.35.48,9.53-2.38,12.88,2.69C190.46,352.72,193.43,357.49,196.93,363Z" transform="translate(4.6 -0.96)"/><path class="cls-1" d="M86.55,398.3c-5.82,0-10.62-.26-15.23-1.89-5.47-1.93-7.73-5.37-6.11-10.7q4.44-14.7,9.73-29.15c2.56-6.95,8.68-9.82,15.41-11.15a62.22,62.22,0,0,1,23.79-.31c9.07,1.7,11.65,5.63,8.94,14.31-2.41,7.74-5.22,15.35-7.53,23.11-2.64,8.9-9,13.21-17.59,14.72C93.88,398,89.76,398.71,86.55,398.3Z" transform="translate(4.6 -0.96)"/><path class="cls-1" d="M531.28,364.36c4.48,0,8.8.14,13.11-.05,3.43-.15,4.45.94,3.46,4.35-2.49,8.67-2.4,8.7-11.42,8.7h-5c-5.18,0-5.18,0-6.44,6.05,6.54,0,13,.13,19.45-.05,3.86-.11,4.73,1.34,3.34,4.75-.75,1.83-1.35,3.73-1.92,5.63a4.47,4.47,0,0,1-4.74,3.55q-17.46,0-34.94,0c-2.8,0-3.92-.73-2.86-3.89,5-14.73,9.73-29.53,14.53-44.31.89-2.72,2.51-3.94,5.51-3.91,11.31.12,22.62.15,33.94,0,3.71-.05,4.37,1.4,3.2,4.52a36.5,36.5,0,0,0-1.57,4.7c-.8,3.47-2.78,4.91-6.4,4.76-5.15-.22-10.33.19-15.47-.14C533.33,358.77,531.42,360,531.28,364.36Z" transform="translate(4.6 -0.96)"/><path class="cls-1" d="M288.13,345.23c-2.68,6.89-5.19,13.34-7.69,19.79s-4.85,12.6-7.41,19.23h23.38c.11.5.31.84.23,1.1-4.44,14.13-1.45,11.73-15.91,11.91-8.16.1-16.33-.11-24.48.08-3.64.09-4.45-1.21-3.29-4.42q7.93-22,15.78-43.93c.81-2.26,1.93-3.79,4.56-3.77C278.08,345.26,282.86,345.23,288.13,345.23Z" transform="translate(4.6 -0.96)"/><path class="cls-1" d="M375.26,345.19c-5.87,16.63-11.56,32.63-17.15,48.66a4.51,4.51,0,0,1-4.79,3.43c-3.32,0-6.66-.19-10,.05-4,.29-4.53-1.38-3.31-4.73,4.39-12.1,8.53-24.3,13.07-36.34,5-13.17,1.46-10.74,15.81-11.06C370.74,345.16,372.56,345.19,375.26,345.19Z" transform="translate(4.6 -0.96)"/><path class="cls-1" d="M578.05,35.49c1.3-3.55,2.67-6.58,3.5-9.75s2.37-4.92,5.84-4.14c2.58.58,6.61-1.74,7.17,3,.53,4.46-3.95,10.56-7.68,10.88C584.11,35.68,581.31,35.49,578.05,35.49Z" transform="translate(4.6 -0.96)"/><path class="cls-1" d="M91,384.22c-6.69,0-7-.54-5.12-6.4,1.65-5,3.25-10,5-15,1.43-4,9.25-6.13,12.61-3.63,1.55,1.15.82,2.32.43,3.51-1.9,5.79-4,11.54-5.71,17.37C96.92,384.34,93.59,384.17,91,384.22Z" transform="translate(4.6 -0.96)"/></svg>