<svg xmlns="http://www.w3.org/2000/svg" viewBox="0 0 61.52 50"><defs><style>.cls-1{fill:#fff;}</style></defs><title>Asset 2</title><g id="Layer_2" data-name="Layer 2"><g id="Twitter"><path class="cls-1" d="M19.35,50c23.22,0,35.91-19.23,35.91-35.91,0-.55,0-1.09,0-1.64a25.69,25.69,0,0,0,6.29-6.53,25.43,25.43,0,0,1-7.25,2,12.67,12.67,0,0,0,5.55-7,25.32,25.32,0,0,1-8,3.07A12.63,12.63,0,0,0,30,12.62a12.41,12.41,0,0,0,.33,2.88,35.85,35.85,0,0,1-26-13.19A12.63,12.63,0,0,0,8.19,19.16a12.45,12.45,0,0,1-5.72-1.58v.16A12.63,12.63,0,0,0,12.6,30.12a12.62,12.62,0,0,1-3.33.44,13.14,13.14,0,0,1-2.37-.22A12.62,12.62,0,0,0,18.69,39.1,25.32,25.32,0,0,1,3,44.51a25,25,0,0,1-3-.18A35.75,35.75,0,0,0,19.35,50Z"/></g></g></svg>