<svg xmlns="http://www.w3.org/2000/svg" viewBox="0 0 71.43 50"><defs><style>.cls-1{fill:#fff;}</style></defs><title>youtube</title><g id="Layer_2" data-name="Layer 2"><g id="Youtube"><path class="cls-1" d="M71.43,25s0,11.62-1.49,17.19a9,9,0,0,1-6.32,6.32C58.05,50,35.71,50,35.71,50s-22.33,0-27.9-1.49a8.93,8.93,0,0,1-6.32-6.32C0,36.62,0,25,0,25S0,13.38,1.49,7.81A8.93,8.93,0,0,1,7.81,1.49C13.38,0,35.71,0,35.71,0S58.05,0,63.62,1.49a9,9,0,0,1,6.32,6.32C71.43,13.38,71.43,25,71.43,25ZM28.57,35.71,47.13,25,28.57,14.29Z"/></g></g></svg>