<svg xmlns="http://www.w3.org/2000/svg" xmlns:xlink="http://www.w3.org/1999/xlink" viewBox="0 0 60 35"><defs><style>.cls-1{fill:none;}.cls-2{clip-path:url(#clip-path);}.cls-3{fill:#fff;}.cls-4{fill:#80a7d8;}.cls-5{fill:#f1bd51;}.cls-6{fill:#7a361d;}</style><clipPath id="clip-path"><rect class="cls-1" width="60" height="35"/></clipPath></defs><title>Argentina</title><g id="Layer_2" data-name="Layer 2"><g id="Stream"><g id="Argentina"><g class="cls-2"><rect class="cls-3" y="11.67" width="60" height="11.67"/><rect class="cls-4" width="60" height="11.67"/><rect class="cls-4" y="23.33" width="60" height="11.67"/><g class="cls-2"><path class="cls-5" d="M29.76,17.5l.18,4.77s0,.09.06.09.06-.09.06-.09l.18-4.77Z"/><path class="cls-6" d="M30,22.37c-.06,0-.07-.06-.07-.1l-.18-4.77h0L30,22.27s0,.07,0,.07,0-.07,0-.07l.19-4.77-.16,4.77s0,.1-.07.1Z"/><polygon class="cls-6" points="29.88 17.5 30 20.77 30.12 17.5 29.88 17.5"/><path class="cls-5" d="M29.55,19c-.27.6,0,1.09-.31,1.62a2.06,2.06,0,0,0-.13,1.19c0,.24-.21.31-.16.37s.26-.06.34-.38-.11-.5.21-1.15.07-.93.4-1.5Z"/><path class="cls-6" d="M29,22.24h-.06s0-.07,0-.11a.49.49,0,0,0,.12-.27,2,2,0,0,0,0-.23,1.53,1.53,0,0,1,.13-1,1.64,1.64,0,0,0,.16-.77,2.09,2.09,0,0,1,.16-.85l0,0a2.12,2.12,0,0,0-.15.83,1.68,1.68,0,0,1-.16.78,1.5,1.5,0,0,0-.13,1,2,2,0,0,1,0,.23.46.46,0,0,1-.13.29s-.05.05,0,.07.25-.13.31-.37a1,1,0,0,0,0-.3,1.44,1.44,0,0,1,.2-.85,1.9,1.9,0,0,0,.2-.77,1.42,1.42,0,0,1,.2-.74,1.74,1.74,0,0,0-.17.74,1.91,1.91,0,0,1-.2.78,1.4,1.4,0,0,0-.2.84,1,1,0,0,1,0,.3c-.06.24-.19.38-.29.4Z"/><path class="cls-6" d="M29.63,19.19c-.22.6,0,1-.28,1.5.32-.36.11-.83.39-1.44Z"/><path class="cls-5" d="M30.24,17.5l-.18-4.77s0-.09-.06-.09-.06.09-.06.09l-.18,4.77Z"/><path class="cls-6" d="M30.23,17.5,30,12.73s0-.08,0-.08,0,.08,0,.08l-.18,4.77.15-4.77s0-.11.07-.11.07.07.07.11l.19,4.77Z"/><polygon class="cls-6" points="30.12 17.5 30 14.22 29.88 17.5 30.12 17.5"/><path class="cls-5" d="M30.45,16c.28-.6,0-1.09.31-1.62a2.06,2.06,0,0,0,.13-1.19c0-.25.21-.31.16-.37s-.25.06-.33.38.11.5-.22,1.14-.07.94-.4,1.51Z"/><path class="cls-6" d="M30.47,16h0a2.15,2.15,0,0,0,.15-.83,1.66,1.66,0,0,1,.16-.78,1.59,1.59,0,0,0,.14-1,2.32,2.32,0,0,1,0-.24.43.43,0,0,1,.14-.28s0-.06,0-.07-.25.13-.31.37a1,1,0,0,0,0,.3,1.44,1.44,0,0,1-.2.85,1.9,1.9,0,0,0-.2.77,1.42,1.42,0,0,1-.2.74,2,2,0,0,0,.18-.74,1.63,1.63,0,0,1,.2-.78,1.46,1.46,0,0,0,.19-.84,1.1,1.1,0,0,1,0-.31.53.53,0,0,1,.29-.39h0l.06,0s0,.07,0,.11a.4.4,0,0,0-.13.27c0,.06,0,.14,0,.23a1.54,1.54,0,0,1-.13,1,1.64,1.64,0,0,0-.16.77,2.17,2.17,0,0,1-.15.84Z"/><path class="cls-6" d="M30.38,15.8c.21-.59,0-1,.27-1.5-.32.37-.11.84-.39,1.45Z"/><path class="cls-5" d="M30,17.26l-4.77.18s-.09,0-.09.06.09.06.09.06l4.77.18Z"/><path class="cls-6" d="M30,17.72l-4.77-.15s-.11,0-.11-.07.07-.08.11-.08L30,17.24v0l-4.77.18s-.08,0-.08.05.08,0,.08,0l4.77.18Z"/><polygon class="cls-6" points="30 17.38 26.73 17.5 30 17.62 30 17.38"/><path class="cls-5" d="M28.46,17.05c-.6-.28-1.09,0-1.61-.32a2.17,2.17,0,0,0-1.2-.12c-.24,0-.31-.21-.37-.16s.06.25.38.33.5-.11,1.14.22.94.07,1.51.4Z"/><path class="cls-6" d="M28.32,17.39a1.74,1.74,0,0,0-.74-.17,1.91,1.91,0,0,1-.78-.2,1.41,1.41,0,0,0-.84-.2,1,1,0,0,1-.3,0c-.24-.06-.38-.19-.4-.29h0v-.06s.07,0,.11,0a.4.4,0,0,0,.27.13,1,1,0,0,0,.23,0,1.63,1.63,0,0,1,1,.14,1.66,1.66,0,0,0,.78.16,2.23,2.23,0,0,1,.84.15l0,0a1.79,1.79,0,0,0-.83-.15,1.68,1.68,0,0,1-.78-.16,1.59,1.59,0,0,0-1-.14l-.23,0a.46.46,0,0,1-.29-.14s-.05,0-.07,0,.13.25.37.31a1,1,0,0,0,.3,0,1.44,1.44,0,0,1,.85.2,1.9,1.9,0,0,0,.77.2,1.42,1.42,0,0,1,.74.2Z"/><path class="cls-6" d="M28.31,17.12c-.6-.21-1,0-1.5-.27.36.32.83.11,1.44.38Z"/><path class="cls-5" d="M30,17.74l4.77-.18s.09,0,.09-.06-.09-.06-.09-.06L30,17.26Z"/><path class="cls-6" d="M30,17.75v0l4.77-.18s.08,0,.08,0-.08-.05-.08-.05L30,17.27l4.77.15s.11,0,.11.08-.07.07-.11.07L30,17.75Z"/><polygon class="cls-6" points="30 17.62 33.28 17.5 30 17.38 30 17.62"/><path class="cls-5" d="M31.54,18c.6.27,1.09,0,1.62.31a2.06,2.06,0,0,0,1.19.13c.24,0,.31.21.37.16s-.06-.26-.38-.34-.5.12-1.14-.21-.94-.07-1.51-.4Z"/><path class="cls-6" d="M34.7,18.57s-.05,0-.08,0a.4.4,0,0,0-.27-.13h-.23a1.54,1.54,0,0,1-1-.13,1.64,1.64,0,0,0-.77-.16,2,2,0,0,1-.84-.16v0a2.15,2.15,0,0,0,.83.15,1.72,1.72,0,0,1,.79.16,1.47,1.47,0,0,0,.95.13h.24a.46.46,0,0,1,.28.13s.06.05.07,0-.13-.25-.37-.31a1,1,0,0,0-.3,0,1.44,1.44,0,0,1-.85-.2,1.9,1.9,0,0,0-.77-.2,1.42,1.42,0,0,1-.74-.2,1.77,1.77,0,0,0,.74.17,1.91,1.91,0,0,1,.78.2,1.4,1.4,0,0,0,.84.2,1.1,1.1,0,0,1,.31,0,.51.51,0,0,1,.39.29h0v.06Z"/><path class="cls-6" d="M31.69,17.87c.6.22,1,0,1.51.28-.37-.32-.84-.11-1.45-.39Z"/><path class="cls-5" d="M29.83,17.33l-3.25,3.5s-.06.06,0,.11.11,0,.11,0l3.5-3.24Z"/><path class="cls-6" d="M26.6,21a.08.08,0,0,1,0-.14l3.25-3.5,0,0-3.25,3.5s-.05.05,0,.08.09,0,.09,0l3.5-3.24-3.48,3.26a.1.1,0,0,1-.08,0Z"/><polygon class="cls-6" points="29.91 17.41 27.68 19.81 30.09 17.58 29.91 17.41"/><path class="cls-5" d="M28.59,18.27c-.62.23-.8.74-1.36.92a2,2,0,0,0-.93.76c-.19.16-.37.07-.38.14s.22.14.51,0,.27-.43,1-.65.71-.61,1.35-.79Z"/><path class="cls-6" d="M26.09,20.18a.26.26,0,0,1-.14,0l0-.06S26,20,26,20a.48.48,0,0,0,.28-.1l.15-.17a1.52,1.52,0,0,1,.78-.59,1.7,1.7,0,0,0,.66-.44,2.07,2.07,0,0,1,.71-.48v0a2.06,2.06,0,0,0-.7.48,1.57,1.57,0,0,1-.67.44,1.54,1.54,0,0,0-.77.59l-.15.17a.48.48,0,0,1-.3.11c-.05,0-.07,0-.07,0s.26.09.48,0a.85.85,0,0,0,.22-.2,1.57,1.57,0,0,1,.75-.46,1.93,1.93,0,0,0,.68-.4,1.53,1.53,0,0,1,.66-.38,1.76,1.76,0,0,0-.64.4,1.75,1.75,0,0,1-.7.41,1.53,1.53,0,0,0-.73.45.78.78,0,0,1-.23.21.75.75,0,0,1-.34.1Z"/><path class="cls-6" d="M28.54,18.43c-.58.27-.7.71-1.26.87.48,0,.67-.51,1.3-.75Z"/><path class="cls-5" d="M30.17,17.67l3.25-3.5s.06-.06,0-.11-.11,0-.11,0l-3.5,3.25Z"/><path class="cls-6" d="M30.18,17.68l0,0,3.25-3.5s.05-.06,0-.09-.09,0-.09,0l-3.5,3.25,3.48-3.27s.09-.06.13,0,0,.1,0,.13l-3.25,3.5Z"/><polygon class="cls-6" points="30.09 17.58 32.32 15.18 29.91 17.41 30.09 17.58"/><path class="cls-5" d="M31.41,16.73c.62-.23.8-.75,1.36-.92s.75-.61.94-.76.36-.07.37-.14-.22-.14-.5,0-.28.44-1,.66-.71.61-1.34.79Z"/><path class="cls-6" d="M31.42,16.74v0a2,2,0,0,0,.69-.47,1.76,1.76,0,0,1,.67-.45,1.52,1.52,0,0,0,.77-.58A1.36,1.36,0,0,1,33.7,15a.41.41,0,0,1,.29-.11c.06,0,.07,0,.07,0s-.26-.09-.48,0a1,1,0,0,0-.22.19,1.45,1.45,0,0,1-.74.47,1.65,1.65,0,0,0-.69.4,1.53,1.53,0,0,1-.66.38,1.76,1.76,0,0,0,.64-.4,1.75,1.75,0,0,1,.7-.41,1.41,1.41,0,0,0,.73-.46,1.14,1.14,0,0,1,.23-.2.54.54,0,0,1,.48-.08l0,.07s0,.05-.1.05a.38.38,0,0,0-.27.1,1.36,1.36,0,0,0-.16.17,1.52,1.52,0,0,1-.78.59,1.7,1.7,0,0,0-.66.44,1.93,1.93,0,0,1-.7.48Z"/><path class="cls-6" d="M31.46,16.57c.58-.28.7-.71,1.26-.87-.48,0-.67.51-1.3.75Z"/><path class="cls-5" d="M30.17,17.33l-3.5-3.25s-.06-.06-.11,0,0,.11,0,.11l3.25,3.5Z"/><path class="cls-6" d="M29.84,17.66l-3.27-3.48s-.06-.09,0-.13.1,0,.13,0l3.5,3.25,0,0-3.5-3.25s-.05-.05-.09,0,0,.09,0,.09l3.25,3.5Z"/><polygon class="cls-6" points="30.09 17.41 27.68 15.18 29.91 17.58 30.09 17.41"/><path class="cls-5" d="M29.23,16.09c-.23-.62-.75-.8-.92-1.36a2.15,2.15,0,0,0-.76-.94c-.16-.18-.07-.37-.14-.37s-.14.22,0,.5.43.28.65,1,.61.7.78,1.34Z"/><path class="cls-6" d="M28.89,16.23a1.9,1.9,0,0,0-.4-.65,1.7,1.7,0,0,1-.41-.69,1.48,1.48,0,0,0-.45-.73.93.93,0,0,1-.21-.23.5.5,0,0,1-.07-.48l.06,0s.05,0,.05.1a.43.43,0,0,0,.1.27,1,1,0,0,0,.18.16,1.56,1.56,0,0,1,.58.78,1.78,1.78,0,0,0,.44.66,1.89,1.89,0,0,1,.48.71h0a2.06,2.06,0,0,0-.48-.7,1.76,1.76,0,0,1-.45-.67,1.47,1.47,0,0,0-.57-.77,1,1,0,0,1-.18-.16.46.46,0,0,1-.11-.29s0-.07,0-.08a.41.41,0,0,0,0,.48.74.74,0,0,0,.2.23,1.47,1.47,0,0,1,.46.74,1.77,1.77,0,0,0,.4.69,1.53,1.53,0,0,1,.38.66Z"/><path class="cls-6" d="M29.07,16c-.27-.58-.71-.7-.87-1.26,0,.48.51.67.75,1.3Z"/><path class="cls-5" d="M29.83,17.67l3.5,3.24s.07.07.11,0,0-.11,0-.11l-3.25-3.5Z"/><path class="cls-6" d="M33.4,21s-.08,0-.08,0l-3.5-3.24,0,0,3.5,3.24s.06.06.09,0,0-.08,0-.08l-3.25-3.5,3.27,3.48s.06.09,0,.13Z"/><polygon class="cls-6" points="29.91 17.58 32.32 19.81 30.09 17.41 29.91 17.58"/><path class="cls-5" d="M30.77,18.91c.23.62.75.8.92,1.36a2.11,2.11,0,0,0,.76.93c.16.19.07.37.14.38s.14-.22,0-.5-.44-.28-.66-1-.61-.71-.78-1.35Z"/><path class="cls-6" d="M32.59,21.59s-.05-.05-.05-.1a.42.42,0,0,0-.1-.28,1.38,1.38,0,0,0-.17-.15,1.52,1.52,0,0,1-.59-.78,1.63,1.63,0,0,0-.44-.66,2.07,2.07,0,0,1-.48-.71h0a1.91,1.91,0,0,0,.47.7,1.69,1.69,0,0,1,.45.67,1.52,1.52,0,0,0,.58.77.86.86,0,0,1,.17.15.46.46,0,0,1,.11.3c0,.06,0,.07,0,.07s.09-.26,0-.48a1,1,0,0,0-.19-.22,1.43,1.43,0,0,1-.46-.74,1.77,1.77,0,0,0-.41-.69,1.53,1.53,0,0,1-.38-.66,1.76,1.76,0,0,0,.4.64,1.75,1.75,0,0,1,.41.7,1.41,1.41,0,0,0,.46.73,1.14,1.14,0,0,1,.2.23.5.5,0,0,1,.07.48l-.06,0Z"/><path class="cls-6" d="M30.93,19c.28.57.71.7.87,1.26,0-.48-.51-.67-.75-1.3Z"/><path class="cls-5" d="M29.78,17.41l-1.66,4.47s0,.09,0,.11.09-.06.09-.06l2-4.34Z"/><path class="cls-6" d="M28.18,22c-.1,0-.09-.09-.07-.12l1.66-4.48h0l-1.66,4.48s0,.07,0,.09l.07-.06,2-4.34-2,4.36s0,0-.06.06Z"/><polygon class="cls-6" points="29.89 17.45 28.75 20.52 30.11 17.54 29.89 17.45"/><path class="cls-5" d="M29,18.75c-.48.45-.45,1-.9,1.37a2.08,2.08,0,0,0-.57,1.06c-.11.22-.32.2-.3.27s.26.05.46-.21.09-.51.64-1,.42-.83.94-1.24Z"/><path class="cls-6" d="M27.3,21.5h0l-.06,0s0-.06.07-.09a.39.39,0,0,0,.22-.19,2,2,0,0,0,.08-.23,1.55,1.55,0,0,1,.5-.84,1.7,1.7,0,0,0,.44-.66,2.1,2.1,0,0,1,.46-.71l0,0a2.16,2.16,0,0,0-.46.71,1.67,1.67,0,0,1-.44.66,1.57,1.57,0,0,0-.49.83,2,2,0,0,1-.08.23.48.48,0,0,1-.23.21c-.05,0-.07,0-.06.05a.42.42,0,0,0,.42-.22A1.16,1.16,0,0,0,27.8,21a1.42,1.42,0,0,1,.51-.71,1.94,1.94,0,0,0,.48-.64,1.51,1.51,0,0,1,.46-.6,1.78,1.78,0,0,0-.44.62,1.81,1.81,0,0,1-.48.64,1.53,1.53,0,0,0-.51.7,1,1,0,0,1-.13.28.55.55,0,0,1-.39.25Z"/><path class="cls-6" d="M29,18.92c-.43.47-.38.92-.83,1.28.43-.21.42-.73.91-1.19Z"/><path class="cls-5" d="M30.22,17.59l1.66-4.48s0-.08,0-.1-.09.06-.09.06l-2,4.34Z"/><path class="cls-6" d="M30.24,17.6l0,0,1.66-4.47s0-.07,0-.09l-.08.05-2,4.34,2-4.35a.15.15,0,0,1,.06-.07l.08,0a.12.12,0,0,1,0,.09L30.24,17.6Z"/><polygon class="cls-6" points="30.11 17.54 31.25 14.47 29.89 17.45 30.11 17.54"/><path class="cls-5" d="M31,16.25c.48-.45.45-1,.9-1.37a2.12,2.12,0,0,0,.58-1.06c.1-.22.31-.21.29-.28s-.26,0-.46.22-.09.51-.64,1-.42.83-.94,1.24Z"/><path class="cls-6" d="M31,16.26l0,0a2.1,2.1,0,0,0,.46-.71,1.69,1.69,0,0,1,.45-.67,1.49,1.49,0,0,0,.48-.82,2,2,0,0,1,.08-.23.48.48,0,0,1,.23-.21s.07,0,.06,0-.28,0-.42.22a1.16,1.16,0,0,0-.14.27,1.36,1.36,0,0,1-.51.71,1.74,1.74,0,0,0-.47.63,1.67,1.67,0,0,1-.47.61,2,2,0,0,0,.44-.62,1.81,1.81,0,0,1,.48-.64,1.53,1.53,0,0,0,.51-.7.79.79,0,0,1,.13-.28c.15-.19.32-.27.42-.25l.06,0s0,.06-.07.08a.41.41,0,0,0-.22.2c0,.06,0,.14-.08.22a1.54,1.54,0,0,1-.5.85,1.67,1.67,0,0,0-.44.65,2.13,2.13,0,0,1-.46.72Z"/><path class="cls-6" d="M31,16.08c.42-.47.37-.93.82-1.29-.43.22-.41.73-.91,1.2Z"/><path class="cls-5" d="M30.09,17.28l-4.47-1.66s-.09,0-.11,0,.06.09.06.09l4.34,2Z"/><path class="cls-6" d="M29.92,17.71l-4.36-2s-.09-.05-.06-.11.09,0,.12,0l4.48,1.66v0l-4.48-1.66s-.07,0-.09,0,.05.07.05.07l4.35,2Z"/><polygon class="cls-6" points="30.05 17.39 26.98 16.25 29.96 17.61 30.05 17.39"/><path class="cls-5" d="M28.75,16.49c-.45-.48-1-.45-1.37-.9A2,2,0,0,0,26.32,15c-.22-.11-.2-.32-.28-.3s0,.26.22.46.51.09,1,.64.83.42,1.24.94Z"/><path class="cls-6" d="M28.49,16.75a2,2,0,0,0-.62-.44,1.81,1.81,0,0,1-.64-.48,1.53,1.53,0,0,0-.7-.51.75.75,0,0,1-.27-.13c-.2-.15-.28-.32-.26-.42l0-.06s.06,0,.09.07a.39.39,0,0,0,.19.22l.22.08a1.48,1.48,0,0,1,.85.5A1.72,1.72,0,0,0,28,16a2.17,2.17,0,0,1,.72.47l0,0A2,2,0,0,0,28,16a1.8,1.8,0,0,1-.67-.45,1.5,1.5,0,0,0-.83-.49,1,1,0,0,1-.22-.07.48.48,0,0,1-.21-.23c0-.05,0-.07-.05-.06a.42.42,0,0,0,.22.42,1.16,1.16,0,0,0,.27.14,1.36,1.36,0,0,1,.71.51,1.76,1.76,0,0,0,.64.47,1.62,1.62,0,0,1,.6.47Z"/><path class="cls-6" d="M28.58,16.5c-.47-.42-.93-.37-1.28-.82.21.43.72.41,1.19.91Z"/><path class="cls-5" d="M29.91,17.72l4.48,1.66s.08,0,.1,0-.06-.09-.06-.09l-4.34-2Z"/><path class="cls-6" d="M34.44,19.4h-.06L29.9,17.73v0l4.48,1.66s.07,0,.09,0,0-.07,0-.07l-4.35-2,4.36,2s.09,0,.07.1a.07.07,0,0,1-.07,0Z"/><polygon class="cls-6" points="29.96 17.61 33.03 18.75 30.05 17.39 29.96 17.61"/><path class="cls-5" d="M31.25,18.51c.45.48,1,.45,1.38.9a2,2,0,0,0,1,.57c.22.11.2.32.28.29s0-.25-.22-.45-.51-.09-1-.64-.83-.42-1.24-.94Z"/><path class="cls-6" d="M33.94,20.29s0,0-.07-.08a.4.4,0,0,0-.19-.21l-.22-.08a1.54,1.54,0,0,1-.85-.5A1.67,1.67,0,0,0,32,19a2.13,2.13,0,0,1-.72-.46l0,0A2.16,2.16,0,0,0,32,19a1.77,1.77,0,0,1,.67.44,1.5,1.5,0,0,0,.83.49l.22.08a.41.41,0,0,1,.21.23c0,.05,0,.06.05.06s0-.28-.22-.43a1.66,1.66,0,0,0-.27-.13,1.42,1.42,0,0,1-.71-.51,1.87,1.87,0,0,0-.63-.48,1.53,1.53,0,0,1-.61-.46,2,2,0,0,0,.62.44,1.81,1.81,0,0,1,.64.48,1.41,1.41,0,0,0,.7.5,1.22,1.22,0,0,1,.28.14c.21.16.27.34.25.42l0,.06Z"/><path class="cls-6" d="M31.42,18.49c.47.43.93.37,1.28.83-.21-.43-.72-.42-1.19-.91Z"/><path class="cls-5" d="M29.91,17.28l-4.34,2s-.08,0-.06.09.11,0,.11,0l4.47-1.66Z"/><path class="cls-6" d="M25.57,19.4s-.06,0-.07,0,0-.09.06-.1l4.34-2,0,0-4.34,2s-.07,0-.06.07.09,0,.09,0l4.48-1.66-4.47,1.68Z"/><polygon class="cls-6" points="29.96 17.39 26.98 18.75 30.05 17.61 29.96 17.39"/><path class="cls-5" d="M28.4,17.67c-.66,0-1,.38-1.61.33a2.07,2.07,0,0,0-1.15.35c-.23.07-.37-.08-.4,0s.15.22.48.17.42-.3,1.14-.24.88-.29,1.54-.21Z"/><path class="cls-6" d="M25.59,18.52a.47.47,0,0,1-.35-.12v-.07s.06,0,.11,0a.46.46,0,0,0,.29,0,1,1,0,0,0,.21-.1,1.54,1.54,0,0,1,.95-.24,1.81,1.81,0,0,0,.78-.16,2,2,0,0,1,.83-.17v0a2.06,2.06,0,0,0-.82.17,1.72,1.72,0,0,1-.79.15,1.56,1.56,0,0,0-.93.25,1.38,1.38,0,0,1-.22.1.52.52,0,0,1-.31,0s-.07,0-.08,0a.44.44,0,0,0,.47.14.92.92,0,0,0,.28-.09,1.39,1.39,0,0,1,.86-.14,1.8,1.8,0,0,0,.79-.12,1.46,1.46,0,0,1,.76-.09,1.81,1.81,0,0,0-.76.12,1.9,1.9,0,0,1-.79.12,1.43,1.43,0,0,0-.85.13.72.72,0,0,1-.29.1Z"/><path class="cls-6" d="M28.29,17.8c-.63,0-.91.39-1.49.32.46.16.81-.22,1.48-.2Z"/><path class="cls-5" d="M30.09,17.72l4.34-2s.08,0,.06-.09-.1,0-.1,0l-4.48,1.66Z"/><path class="cls-6" d="M30.1,17.73l0,0,4.35-2s.06,0,0-.07-.09,0-.09,0l-4.48,1.66,4.47-1.69s.1,0,.13,0,0,.1-.07.11l-4.34,2Z"/><polygon class="cls-6" points="30.05 17.61 33.03 16.25 29.96 17.39 30.05 17.61"/><path class="cls-5" d="M31.6,17.33c.66,0,1-.39,1.61-.33a2.07,2.07,0,0,0,1.15-.35c.23-.07.37.08.4,0s-.15-.21-.48-.16-.42.29-1.14.24-.88.29-1.54.2Z"/><path class="cls-6" d="M31.66,17.34H31.6v0a2.06,2.06,0,0,0,.82-.17,1.75,1.75,0,0,1,.79-.16,1.48,1.48,0,0,0,.93-.24l.22-.1a.45.45,0,0,1,.31,0s.07,0,.08,0-.21-.18-.46-.15a1,1,0,0,0-.28.1,1.51,1.51,0,0,1-.87.14,1.74,1.74,0,0,0-.78.11,1.6,1.6,0,0,1-.76.1,2,2,0,0,0,.75-.13,1.77,1.77,0,0,1,.79-.11,1.43,1.43,0,0,0,.85-.14,1.24,1.24,0,0,1,.29-.1.51.51,0,0,1,.48.12v.07s-.06,0-.11,0a.44.44,0,0,0-.29,0,1.08,1.08,0,0,0-.21.11,1.54,1.54,0,0,1-.95.24,1.7,1.7,0,0,0-.78.15,2,2,0,0,1-.77.18Z"/><path class="cls-6" d="M31.71,17.2c.63,0,.91-.39,1.49-.32-.46-.16-.81.22-1.48.19Z"/><path class="cls-5" d="M30.22,17.41l-2-4.34s0-.08-.09-.06,0,.1,0,.1l1.66,4.48Z"/><path class="cls-6" d="M29.79,17.58,28.1,13.12a.12.12,0,0,1,0-.09l.08,0a.15.15,0,0,1,.06.07l2,4.34h0l-2-4.4h0l0,.09,1.66,4.47Z"/><polygon class="cls-6" points="30.11 17.45 28.75 14.47 29.89 17.54 30.11 17.45"/><path class="cls-5" d="M29.83,15.9c0-.66-.39-1-.33-1.61a2.07,2.07,0,0,0-.35-1.15c-.07-.23.08-.37,0-.4s-.22.15-.17.47.29.43.24,1.15.29.88.21,1.54Z"/><path class="cls-6" d="M29.84,15.9h0a1.9,1.9,0,0,0-.17-.82,1.75,1.75,0,0,1-.16-.79,1.48,1.48,0,0,0-.24-.93,1.38,1.38,0,0,1-.1-.22.45.45,0,0,1,0-.31c0-.05,0-.07,0-.08a.43.43,0,0,0-.14.46.84.84,0,0,0,.09.28,1.43,1.43,0,0,1,.14.87,1.73,1.73,0,0,0,.12.78,1.61,1.61,0,0,1,.09.76,2,2,0,0,0-.12-.75,1.75,1.75,0,0,1-.12-.79,1.43,1.43,0,0,0-.13-.85.76.76,0,0,1-.1-.3.5.5,0,0,1,.11-.47h.07s0,.06,0,.11a.46.46,0,0,0,0,.29,1,1,0,0,0,.1.21,1.56,1.56,0,0,1,.24.95,1.71,1.71,0,0,0,.16.78,2.08,2.08,0,0,1,.17.83Z"/><path class="cls-6" d="M29.7,15.79c0-.63-.39-.91-.32-1.49-.16.46.22.81.2,1.48Z"/><path class="cls-5" d="M29.78,17.59l2,4.34s0,.08.09.06,0-.11,0-.11l-1.66-4.47Z"/><path class="cls-6" d="M31.87,22c-.09,0-.11-.06-.11-.06l-2-4.34,0,0,2,4.34s0,.08.08.06,0-.09,0-.09l-1.66-4.48,1.69,4.47s0,.1,0,.12Z"/><polygon class="cls-6" points="29.89 17.54 31.25 20.52 30.11 17.45 29.89 17.54"/><path class="cls-5" d="M30.17,19.09c0,.66.39,1,.33,1.62a2.07,2.07,0,0,0,.35,1.15c.07.23-.08.36,0,.4s.22-.15.17-.48-.29-.42-.24-1.14-.29-.89-.21-1.54Z"/><path class="cls-6" d="M30.83,22.27s0-.06,0-.11a.42.42,0,0,0,0-.3,1,1,0,0,0-.1-.21,1.51,1.51,0,0,1-.24-.94,1.81,1.81,0,0,0-.15-.78,2,2,0,0,1-.18-.84h0a2.06,2.06,0,0,0,.17.82,1.6,1.6,0,0,1,.16.79,1.5,1.5,0,0,0,.24.93,1.38,1.38,0,0,1,.1.22.45.45,0,0,1,0,.31s0,.07,0,.08a.45.45,0,0,0,.15-.46,1,1,0,0,0-.1-.28,1.51,1.51,0,0,1-.14-.87,1.81,1.81,0,0,0-.11-.79,1.43,1.43,0,0,1-.1-.75,2,2,0,0,0,.12.75,1.75,1.75,0,0,1,.12.79,1.34,1.34,0,0,0,.14.85,1.24,1.24,0,0,1,.1.29.54.54,0,0,1-.12.48Z"/><path class="cls-6" d="M30.3,19.21c0,.63.39.91.32,1.49.16-.46-.22-.81-.19-1.48Z"/><path class="cls-5" d="M30,15.56a1.94,1.94,0,1,1-1.94,1.94A1.94,1.94,0,0,1,30,15.56Z"/><path class="cls-6" d="M30,19.46a2,2,0,1,1,2-2,2,2,0,0,1-2,2Zm0-3.89a1.93,1.93,0,1,0,1.93,1.93A1.93,1.93,0,0,0,30,15.57Z"/><path class="cls-6" d="M31.23,17.08a.78.78,0,0,0-1-.12.64.64,0,0,0,0,.79l-.05,0a1,1,0,0,1-.08-.85.72.72,0,0,1,1.11.15Z"/><path class="cls-6" d="M30.69,17a.41.41,0,0,0-.33.12.32.32,0,0,1-.15.07s0,.06,0,.05l.18-.12a.39.39,0,0,1,.27-.07c.27,0,.42.22.45.2S31,17,30.69,17Z"/><path class="cls-6" d="M31,17.24a.45.45,0,0,0-.7,0h.06a.34.34,0,0,1,.54,0v0Z"/><path class="cls-6" d="M30.66,17.09a.14.14,0,0,1,.13.14.13.13,0,0,1-.13.13.14.14,0,0,1-.14-.13.15.15,0,0,1,.14-.14Z"/><path class="cls-6" d="M30.33,17.26a.6.6,0,0,0,.7,0h-.1a.4.4,0,0,1-.54,0v0Z"/><path class="cls-6" d="M31.05,17.32a.6.6,0,0,1-.66.09c-.15-.09-.15-.12-.12-.12s.06,0,.18.09a.74.74,0,0,0,.6-.06Z"/><path class="cls-6" d="M30.32,17.77a.09.09,0,0,1,.05.11.1.1,0,0,1-.12.06.09.09,0,0,1-.05-.08A.24.24,0,0,1,30,18h0l0,0a.35.35,0,0,0,.18,0,.14.14,0,0,0,.22-.16.1.1,0,0,0-.08-.05Z"/><path class="cls-6" d="M30.49,18.4c-.13-.09-.19-.23-.34-.23l-.15,0h0l0,0c.06,0,.15-.07.25,0s.17.12.24.15Z"/><path class="cls-6" d="M30.45,18.4a.8.8,0,0,0-.45,0h0l0,.06c.12,0,.18-.09.45,0Z"/><path class="cls-6" d="M30.49,18.4c-.32,0-.22.16-.49.16h0l0,.05c.33,0,.18-.18.49-.21Z"/><path class="cls-6" d="M30.27,18.87a.27.27,0,0,0-.54,0,.27.27,0,0,1,.33-.2.26.26,0,0,1,.21.2Z"/><path class="cls-6" d="M28.77,17.08a.78.78,0,0,1,1-.12.62.62,0,0,1,0,.79l.06,0a1,1,0,0,0,.07-.85.72.72,0,0,0-1.11.15Z"/><path class="cls-6" d="M29.31,17a.41.41,0,0,1,.33.12.36.36,0,0,0,.15.07,0,0,0,0,1,0,.05l-.18-.12a.39.39,0,0,0-.27-.07c-.27,0-.42.22-.45.2S29,17,29.31,17Z"/><path class="cls-6" d="M29,17.24a.45.45,0,0,1,.7,0h-.06a.34.34,0,0,0-.54,0v0Z"/><path class="cls-6" d="M29.34,17.09a.14.14,0,0,0-.13.14.13.13,0,0,0,.13.13.13.13,0,0,0,.14-.13.14.14,0,0,0-.14-.14Z"/><path class="cls-6" d="M29.67,17.26a.6.6,0,0,1-.7,0h.1a.4.4,0,0,0,.54,0v0Z"/><path class="cls-6" d="M29,17.32a.6.6,0,0,0,.66.09c.15-.09.15-.12.12-.12s-.06,0-.18.09a.74.74,0,0,1-.6-.06Z"/><path class="cls-6" d="M29.69,17.77a.09.09,0,0,0-.06.11.1.1,0,0,0,.12.06s.05-.05.06-.08A.2.2,0,0,0,30,18h0l0,0a.35.35,0,0,1-.18,0,.14.14,0,0,1-.19,0,.14.14,0,0,1,0-.19.11.11,0,0,1,.09-.05Z"/><path class="cls-6" d="M29.51,18.4c.13-.09.19-.23.34-.23l.15,0h0l0,0c-.06,0-.15-.07-.25,0s-.17.12-.24.15Z"/><path class="cls-6" d="M29.55,18.4a.8.8,0,0,1,.45,0h0l0,.06c-.12,0-.18-.09-.45,0Z"/><path class="cls-6" d="M29.51,18.4c.33,0,.22.16.49.16h0l0,.05c-.33,0-.18-.18-.49-.21Z"/><path class="cls-6" d="M29.73,18.87a.27.27,0,0,1,.54,0,.27.27,0,0,0-.33-.2.28.28,0,0,0-.21.2Z"/></g></g></g></g></g></svg>