<svg xmlns="http://www.w3.org/2000/svg" xmlns:xlink="http://www.w3.org/1999/xlink" viewBox="0 0 60 35"><defs><style>.cls-1{fill:none;}.cls-2{clip-path:url(#clip-path);}.cls-3{fill:#fff;}.cls-4{fill:#2530a9;}.cls-5{fill:#c22623;}</style><clipPath id="clip-path"><rect class="cls-1" width="60" height="35"/></clipPath></defs><title>Chile</title><g id="Layer_2" data-name="Layer 2"><g id="Stream"><g id="Chile"><g class="cls-2"><rect class="cls-3" width="60" height="35"/><rect class="cls-4" width="17.5" height="35"/><rect class="cls-5" y="17.5" width="60" height="17.5"/><polygon class="cls-3" points="8.75 4.38 7.4 8.54 9.48 9.21 8.75 4.38"/><polygon class="cls-3" points="8.75 4.38 10.1 8.54 8.02 9.21 8.75 4.38"/><polygon class="cls-3" points="12.91 7.4 8.54 7.4 8.54 9.59 12.91 7.4"/><polygon class="cls-3" points="12.91 7.4 9.37 9.97 8.09 8.2 12.91 7.4"/><polygon class="cls-3" points="4.59 7.4 8.13 9.97 9.41 8.2 4.59 7.4"/><polygon class="cls-3" points="4.59 7.4 8.96 7.4 8.96 9.59 4.59 7.4"/><polygon class="cls-3" points="11.32 12.29 9.97 8.13 7.89 8.8 11.32 12.29"/><polygon class="cls-3" points="11.32 12.29 7.78 9.72 9.07 7.95 11.32 12.29"/><polygon class="cls-3" points="6.18 12.29 9.72 9.72 8.43 7.95 6.18 12.29"/><polygon class="cls-3" points="6.18 12.29 7.53 8.13 9.61 8.8 6.18 12.29"/></g></g></g></g></svg>