<svg xmlns="http://www.w3.org/2000/svg" xmlns:xlink="http://www.w3.org/1999/xlink" viewBox="0 0 60 35"><defs><style>.cls-1{fill:none;}.cls-2{clip-path:url(#clip-path);}.cls-3{fill:#92c5e0;}.cls-4{fill:#fff;}.cls-5{fill:#3e9a13;}.cls-6{fill:#ba0027;}.cls-7{fill:#f5cd28;}.cls-8{fill:#cacaca;}.cls-9{fill:#7dcbc9;}.cls-10{fill:#60350e;}.cls-11{fill:#1f1f1f;}.cls-12{fill:#c0003b;}.cls-13{fill:#f8e629;}.cls-14{fill:#f0f2be;}.cls-15{fill:#fdffcb;}</style><clipPath id="clip-path"><rect class="cls-1" width="60" height="35"/></clipPath></defs><title>Guatemala</title><g id="Layer_2" data-name="Layer 2"><g id="Stream"><g id="Guatemala"><g class="cls-2"><rect class="cls-3" width="20" height="35"/><rect class="cls-4" x="20" width="20" height="35"/><rect class="cls-3" x="40" width="20" height="35"/><g class="cls-2"><path class="cls-5" d="M30.64,23.7a.76.76,0,0,0-.25-.2A5.6,5.6,0,0,0,28.55,23a2.91,2.91,0,0,1-.46-.24c-.38-.19-.8-.25-1.16-.44a.39.39,0,0,1-.16-.12c-.15-.16-.41-.22-.58-.37a6.41,6.41,0,0,1-1.65-2,6.6,6.6,0,0,1-.88-3,10.77,10.77,0,0,1,.11-2.06A8.16,8.16,0,0,1,24.94,12l-.1.06a8,8,0,0,0-1.17,2.76,10.82,10.82,0,0,0-.11,2.06,6.63,6.63,0,0,0,.87,3.06,6.52,6.52,0,0,0,1.66,1.94c.16.16.43.21.57.38a.92.92,0,0,0,.16.12c.37.18.79.25,1.17.43a2.54,2.54,0,0,0,.46.24,6.06,6.06,0,0,1,1.83.55.69.69,0,0,1,.25.2l.11-.06Z"/><path d="M30.53,23.78h0a.66.66,0,0,0-.24-.2A5.68,5.68,0,0,0,28.45,23a1,1,0,0,1-.3-.14.75.75,0,0,0-.17-.1,3.78,3.78,0,0,0-.56-.21,4.31,4.31,0,0,1-.6-.22,1.1,1.1,0,0,1-.17-.12,1,1,0,0,0-.3-.21,1.53,1.53,0,0,1-.27-.17l-.28-.27a5.18,5.18,0,0,1-1.37-1.68l-.17-.36a5.86,5.86,0,0,1-.72-2.7c0-.25,0-.49,0-.73a5,5,0,0,1,.1-1.33A7.9,7.9,0,0,1,24.84,12l.1-.07a8.54,8.54,0,0,0-1.16,2.77,5.31,5.31,0,0,0-.1,1.32c0,.25,0,.49,0,.74a5.74,5.74,0,0,0,.72,2.7l.16.35a5.37,5.37,0,0,0,1.39,1.7l.26.24a1.53,1.53,0,0,0,.27.17,1,1,0,0,1,.3.21.46.46,0,0,0,.16.11,3.23,3.23,0,0,0,.59.22,4.82,4.82,0,0,1,.57.22.81.81,0,0,1,.18.1,1,1,0,0,0,.28.14,5.62,5.62,0,0,1,1.84.55.69.69,0,0,1,.25.2l-.11.09ZM24.94,12l-.09.08a8.06,8.06,0,0,0-1.17,2.76,4.8,4.8,0,0,0-.1,1.31c0,.25,0,.5,0,.74a5.66,5.66,0,0,0,.71,2.69l.16.37a5.45,5.45,0,0,0,1.37,1.67l.29.27a1.64,1.64,0,0,0,.26.16,1.13,1.13,0,0,1,.31.21.51.51,0,0,0,.16.12,4.31,4.31,0,0,0,.6.22,3.78,3.78,0,0,1,.56.21l.17.1a1.09,1.09,0,0,0,.29.14,5.73,5.73,0,0,1,1.84.55.66.66,0,0,1,.24.2l.1-.06a.76.76,0,0,0-.25-.18A5.56,5.56,0,0,0,28.55,23a1,1,0,0,1-.29-.14l-.17-.11c-.19-.08-.38-.14-.57-.21a3.33,3.33,0,0,1-.6-.22.47.47,0,0,1-.16-.12,1,1,0,0,0-.3-.2.85.85,0,0,1-.27-.18l-.26-.23a5.49,5.49,0,0,1-1.4-1.71l-.16-.36a5.71,5.71,0,0,1-.72-2.7c0-.25,0-.49,0-.74a5.31,5.31,0,0,1,.1-1.32A8,8,0,0,1,24.94,12Z"/><path class="cls-6" d="M30.55,23.75l-.28-.17A6.17,6.17,0,0,0,28.45,23a.79.79,0,0,1-.31-.14l-.16-.1a5.31,5.31,0,0,0-.56-.2,4.49,4.49,0,0,1-.61-.23.91.91,0,0,1-.17-.12.9.9,0,0,0-.29-.21,1,1,0,0,1-.28-.17l-.28-.26a5.49,5.49,0,0,1-1.38-1.69l-.16-.36a5.78,5.78,0,0,1-.72-2.71c0-.25,0-.49,0-.73a5.35,5.35,0,0,1,.1-1.33A7.94,7.94,0,0,1,24.82,12l0,0a8,8,0,0,0-1.17,2.75,5.23,5.23,0,0,0-.1,1.31c0,.25,0,.5,0,.74a5.66,5.66,0,0,0,.72,2.68l.16.37a5.17,5.17,0,0,0,1.37,1.67l.28.26a1.17,1.17,0,0,0,.26.17,1.13,1.13,0,0,1,.31.21.55.55,0,0,0,.15.11,3.37,3.37,0,0,0,.6.23,4.77,4.77,0,0,1,.57.2l.17.11a.78.78,0,0,0,.28.13,6,6,0,0,1,1.84.56.59.59,0,0,1,.26.21Z"/><path class="cls-5" d="M28.36,23a4.29,4.29,0,0,0-2,1c1.37,0,2.18-.66,2-1Z"/><path class="cls-5" d="M27.66,22.63a4.3,4.3,0,0,0-2,1c1.37,0,2.18-.67,2-1Z"/><path class="cls-5" d="M28.68,23a4.45,4.45,0,0,0-1-2.05c0,1.42.65,2.25,1,2.05Z"/><path class="cls-5" d="M28.15,22.73A4.4,4.4,0,0,0,27,20.78c.11,1.41.84,2.18,1.17,1.95Z"/><path class="cls-5" d="M27.06,22.26a4.11,4.11,0,0,0-.58-2c-.22,1.25.23,2.09.58,2Z"/><path class="cls-5" d="M26.67,22.21a4.28,4.28,0,0,0-2.22.07c1.23.61,2.24.35,2.22-.07Z"/><path class="cls-5" d="M26.1,21.89a4.2,4.2,0,0,0-2.16-.53c1,.92,2.08.94,2.16.53Z"/><path class="cls-5" d="M26.22,21.65a4.2,4.2,0,0,0-.24-2c-.43,1.19-.13,2.1.24,2Z"/><path class="cls-5" d="M25.66,21.19a3.78,3.78,0,0,0-.22-1.84c-.39,1.07-.11,1.89.22,1.84Z"/><path class="cls-5" d="M25.51,21.34a4.42,4.42,0,0,0-1.75-1.41c.57,1.28,1.5,1.75,1.75,1.41Z"/><path class="cls-5" d="M25.08,20.52a3.7,3.7,0,0,0,.1-1.86c-.56,1-.43,1.85-.1,1.86Z"/><path class="cls-5" d="M24.61,19.76a4,4,0,0,0,.11-2.06c-.62,1.1-.48,2.05-.11,2.06Z"/><path class="cls-5" d="M24.48,19.94a3.52,3.52,0,0,0-1.71-.58c.77.82,1.61.91,1.71.58Z"/><path class="cls-5" d="M24.19,19a4.25,4.25,0,0,0,.29-2c-.72,1-.65,2-.29,2Z"/><path class="cls-5" d="M23.77,17.37a3.63,3.63,0,0,0,.85-1.64c-.91.65-1.15,1.49-.85,1.64Z"/><path class="cls-5" d="M23.68,17.81a3.61,3.61,0,0,0-1.42-1.15c.46,1,1.22,1.42,1.42,1.15Z"/><path class="cls-5" d="M23.59,16.88a3.64,3.64,0,0,0-.95-1.59c.09,1.15.68,1.77.95,1.59Z"/><path class="cls-5" d="M23.68,15.38a3.07,3.07,0,0,0,1.38-.88c-1,.08-1.54.63-1.38.88Z"/><path class="cls-5" d="M23.85,14.31a3.8,3.8,0,0,0-.52-1.78c-.2,1.12.21,1.88.52,1.78Z"/><path class="cls-5" d="M23.82,14.8a4,4,0,0,0,1.59-1.22c-1.21.2-1.82.93-1.59,1.22Z"/><path class="cls-5" d="M23.93,14.16a4,4,0,0,0,1.36-1.49c-1.15.42-1.63,1.24-1.36,1.49Z"/><path class="cls-5" d="M24.13,13.09a3.81,3.81,0,0,0,.1-1.86c-.56,1-.43,1.85-.1,1.86Z"/><path class="cls-5" d="M24.58,12.38a3.05,3.05,0,0,0,.08-1.5c-.45.8-.35,1.5-.08,1.5Z"/><path class="cls-5" d="M24.73,12.81a4.05,4.05,0,0,0,1.48-1.36c-1.18.31-1.73,1.09-1.48,1.36Z"/><path class="cls-5" d="M24.94,12a3,3,0,0,0,.69-1.32c-.74.52-.93,1.2-.69,1.32Z"/><path class="cls-5" d="M27.13,22.44a4.21,4.21,0,0,0-2,1c1.37,0,2.17-.67,2-1Z"/><path class="cls-5" d="M23.62,16.65a3.17,3.17,0,0,0,.6-1.47c-.86.73-.91,1.35-.6,1.47Z"/><path class="cls-5" d="M24.25,19.32A4.31,4.31,0,0,0,22.5,17.9c.57,1.28,1.5,1.75,1.75,1.42Z"/><path class="cls-5" d="M23.68,15.25a3,3,0,0,0-.95-1.58c.09,1.14.67,1.77.95,1.58Z"/><path class="cls-5" d="M27.05,22.25c-.34.12-.79-.71-.57-2a7,7,0,0,0,.57,2Z"/><path d="M27,22.27a.36.36,0,0,1-.25-.14,2.42,2.42,0,0,1-.26-1.85,7.25,7.25,0,0,0,.59,2H27Zm-.51-2a2.42,2.42,0,0,0,.27,1.82.33.33,0,0,0,.24.15h0l.07,0a6.31,6.31,0,0,1-.58-2Z"/><path class="cls-5" d="M28.35,23c.19.37-.61,1-2,1a7.41,7.41,0,0,0,2-1Z"/><path d="M26.4,24h0l0,0h0a7.63,7.63,0,0,0,1.92-1,.31.31,0,0,1,0,.33A2.32,2.32,0,0,1,26.4,24Zm1.94-1a6.68,6.68,0,0,1-1.92,1,2.24,2.24,0,0,0,1.88-.7.32.32,0,0,0,0-.31Z"/><path class="cls-5" d="M27.65,22.63c.19.37-.61,1-2,1a7.62,7.62,0,0,0,2-1Z"/><path d="M25.7,23.67h0l0,0h0a7.28,7.28,0,0,0,1.92-1,.31.31,0,0,1,0,.33,2.29,2.29,0,0,1-1.92.72Zm1.94-1a6.42,6.42,0,0,1-1.92,1,2.24,2.24,0,0,0,1.88-.7.32.32,0,0,0,0-.31Z"/><path class="cls-5" d="M28.68,23c-.36.2-1-.62-1-2a7.47,7.47,0,0,0,1,2Z"/><path d="M28.56,23a.48.48,0,0,1-.32-.17,2.85,2.85,0,0,1-.57-1.91,7.93,7.93,0,0,0,1,2,.13.13,0,0,1-.12.05Zm-.89-2.07a2.87,2.87,0,0,0,.59,1.89c.15.15.3.2.41.13a6.82,6.82,0,0,1-1-2Z"/><path class="cls-5" d="M28.15,22.72c-.34.23-1.06-.53-1.17-1.94a7.58,7.58,0,0,0,1.17,1.94Z"/><path d="M28,22.77c-.36,0-.94-.71-1-2a8,8,0,0,0,1.18,1.93.16.16,0,0,1-.14.06Zm-1-2c.13,1.38.84,2.15,1.17,1.93A7,7,0,0,1,27,20.78Z"/><path class="cls-5" d="M26.67,22.21c0,.41-1,.67-2.21.07a7,7,0,0,0,2.21-.07Z"/><path d="M25.85,22.65a3.33,3.33,0,0,1-1.4-.36h1.11a3.24,3.24,0,0,0,1.1-.1.23.23,0,0,1-.06.22,1.13,1.13,0,0,1-.75.23Zm-1.39-.36a3.47,3.47,0,0,0,1.39.33,1,1,0,0,0,.73-.22.25.25,0,0,0,.08-.19,2.75,2.75,0,0,1-1.1.11h0l-1.1,0Z"/><path class="cls-5" d="M26.09,21.88c-.08.41-1.11.39-2.16-.53a6.85,6.85,0,0,0,2.16.53Z"/><path d="M25.61,22.15a2.77,2.77,0,0,1-1.68-.79,9.84,9.84,0,0,0,2.08.52h.07c0,.18-.2.28-.47.28Zm-1.68-.79a2.9,2.9,0,0,0,1.68.77c.26,0,.43-.09.47-.25,0,0,0,0-.07,0h0a9.2,9.2,0,0,1-2.08-.54Z"/><path class="cls-5" d="M26.21,21.64c-.36.06-.66-.85-.23-2a7.16,7.16,0,0,0,.23,2Z"/><path d="M26.18,21.66a.32.32,0,0,1-.24-.16,2.29,2.29,0,0,1,0-1.9,7.32,7.32,0,0,0,.25,2l0,0ZM26,19.6a2.32,2.32,0,0,0,0,1.89.27.27,0,0,0,.22.15h0a6.51,6.51,0,0,1-.24-2Z"/><path class="cls-5" d="M25.65,21.19c-.33,0-.6-.76-.21-1.84a6.53,6.53,0,0,0,.21,1.84Z"/><path d="M25.62,21.2a.27.27,0,0,1-.21-.13,2.07,2.07,0,0,1,0-1.72,7.38,7.38,0,0,0,.22,1.83l0,0Zm-.19-1.85a2.16,2.16,0,0,0,0,1.71.26.26,0,0,0,.2.12h0a5.78,5.78,0,0,1-.22-1.83Z"/><path class="cls-5" d="M25.48,21.35c-.24.33-1.16-.13-1.73-1.42a7.65,7.65,0,0,0,1.73,1.42Z"/><path d="M25.25,21.46c-.4,0-1.07-.53-1.51-1.53a8.12,8.12,0,0,0,1.74,1.41.22.22,0,0,1-.23.12Zm-1.51-1.52c.56,1.21,1.5,1.74,1.74,1.4a6.63,6.63,0,0,1-1.74-1.4Z"/><path class="cls-5" d="M25.08,20.51c-.33,0-.46-.86.1-1.84a6.11,6.11,0,0,0-.1,1.84Z"/><path d="M25.09,20.52h0a.26.26,0,0,1-.21-.14,2.08,2.08,0,0,1,.3-1.72,7.3,7.3,0,0,0-.09,1.85Zm.08-1.85a2,2,0,0,0-.28,1.7.2.2,0,0,0,.17.13,7.55,7.55,0,0,1,.11-1.83Z"/><path class="cls-5" d="M24.61,19.75c-.37,0-.51-.95.11-2.05a6.93,6.93,0,0,0-.11,2.05Z"/><path d="M24.62,19.76h0a.28.28,0,0,1-.23-.16,2.26,2.26,0,0,1,.33-1.9,7.57,7.57,0,0,0-.1,2.05Zm.09-2.06a2.27,2.27,0,0,0-.31,1.9.24.24,0,0,0,.19.14,7.86,7.86,0,0,1,.12-2Z"/><path class="cls-5" d="M24.46,19.94c-.09.32-.92.23-1.7-.58a6.32,6.32,0,0,0,1.7.58Z"/><path d="M24.13,20.12a2.11,2.11,0,0,1-1.37-.76,7.2,7.2,0,0,0,1.67.57h0a6.85,6.85,0,0,1-1.67-.57c.77.77,1.48.84,1.65.64,0,.07-.14.11-.28.11Z"/><path class="cls-5" d="M24.19,19c-.37,0-.43-1,.28-2a6.92,6.92,0,0,0-.28,2Z"/><path d="M24.2,19h0a.26.26,0,0,1-.2-.18,2.22,2.22,0,0,1,.49-1.87,7.57,7.57,0,0,0-.28,2Zm.26-2A2.31,2.31,0,0,0,24,18.78a.27.27,0,0,0,.18.17,7.78,7.78,0,0,1,.29-2Z"/><path class="cls-5" d="M23.77,17.37c-.3-.15-.07-1,.85-1.63a6,6,0,0,0-.85,1.63Z"/><path d="M23.78,17.38h0a.28.28,0,0,1-.12-.23,2,2,0,0,1,1-1.42,6.67,6.67,0,0,0-.84,1.64Zm.83-1.65a2,2,0,0,0-1,1.42.24.24,0,0,0,.11.2,7,7,0,0,1,.85-1.62Z"/><path class="cls-5" d="M23.67,17.8c-.2.27-1-.11-1.41-1.14a5.92,5.92,0,0,0,1.41,1.14Z"/><path d="M23.48,17.89c-.33,0-.87-.43-1.23-1.23a6.67,6.67,0,0,0,1.41,1.13.18.18,0,0,1-.18.1Zm-1.23-1.23c.46,1,1.21,1.41,1.41,1.14a6.25,6.25,0,0,1-1.41-1.14Z"/><path class="cls-5" d="M23.58,16.87c-.27.19-.85-.43-.94-1.58a6.49,6.49,0,0,0,.94,1.58Z"/><path d="M23.47,16.91c-.3,0-.76-.61-.83-1.62a6.41,6.41,0,0,0,.95,1.57.15.15,0,0,1-.12.05Zm-.83-1.61c.1,1.11.67,1.74.94,1.56a5.51,5.51,0,0,1-.94-1.56Z"/><path class="cls-5" d="M23.67,15.38c-.16-.25.38-.79,1.38-.87-.93.48-1.32.66-1.38.87Z"/><path d="M23.68,15.4h0a.23.23,0,0,1,0-.24,1.73,1.73,0,0,1,1.38-.65l-.24.14c-.76.39-1.07.55-1.13.74v0ZM25,14.5a1.74,1.74,0,0,0-1.35.65.23.23,0,0,0,0,.21c.07-.19.39-.35,1.13-.73L25,14.5Z"/><path class="cls-5" d="M23.84,14.3c-.31.11-.71-.64-.51-1.77a6.59,6.59,0,0,0,.51,1.77Z"/><path d="M23.78,14.32a.31.31,0,0,1-.23-.14,2.14,2.14,0,0,1-.23-1.65,6.2,6.2,0,0,0,.53,1.76l-.07,0Zm-.46-1.79a2.25,2.25,0,0,0,.24,1.64.29.29,0,0,0,.22.13h0l.06,0a5.54,5.54,0,0,1-.52-1.76Z"/><path class="cls-5" d="M23.82,14.8c-.23-.29.37-1,1.58-1.21a6.43,6.43,0,0,0-1.58,1.21Z"/><path d="M23.82,14.82h0a.31.31,0,0,1,0-.3,2.13,2.13,0,0,1,1.61-.93,7.09,7.09,0,0,0-1.57,1.22v0Zm1.57-1.24a2.17,2.17,0,0,0-1.58.94.26.26,0,0,0,0,.26,7.55,7.55,0,0,1,1.57-1.2Z"/><path class="cls-5" d="M23.93,14.16c-.27-.25.2-1.06,1.35-1.48a6.61,6.61,0,0,0-1.35,1.48Z"/><path d="M23.94,14.18h0a.28.28,0,0,1-.06-.29,2.14,2.14,0,0,1,1.42-1.21,7,7,0,0,0-1.34,1.49v0Zm1.34-1.51a2.2,2.2,0,0,0-1.41,1.22.29.29,0,0,0,.05.25,7.71,7.71,0,0,1,1.36-1.47Z"/><path class="cls-5" d="M24.12,13.08c-.33,0-.46-.85.1-1.84a6.51,6.51,0,0,0-.1,1.84Z"/><path d="M24.14,13.09h0a.23.23,0,0,1-.2-.14,2,2,0,0,1,.3-1.72,6.8,6.8,0,0,0-.09,1.85Zm.08-1.85a2,2,0,0,0-.28,1.7.2.2,0,0,0,.17.13,6.58,6.58,0,0,1,.11-1.83Z"/><path class="cls-5" d="M24.57,12.38c-.26,0-.37-.69.09-1.49a5.55,5.55,0,0,0-.09,1.49Z"/><path d="M24.59,12.39h0a.19.19,0,0,1-.16-.12,1.61,1.61,0,0,1,.24-1.39,5.56,5.56,0,0,0-.07,1.49v0Zm.06-1.51a1.69,1.69,0,0,0-.23,1.38.21.21,0,0,0,.14.11,5.93,5.93,0,0,1,.09-1.49Z"/><path class="cls-5" d="M24.73,12.81c-.25-.27.29-1,1.47-1.36a6.44,6.44,0,0,0-1.47,1.36Z"/><path d="M24.74,12.83l0,0a.27.27,0,0,1,0-.28,2.11,2.11,0,0,1,1.52-1.08,6.49,6.49,0,0,0-1.46,1.36v0Zm1.45-1.38a2.18,2.18,0,0,0-1.5,1.08.25.25,0,0,0,0,.26,7,7,0,0,1,1.46-1.34Z"/><path class="cls-5" d="M24.94,12c-.24-.12-.06-.79.68-1.32A4.64,4.64,0,0,0,24.94,12Z"/><path d="M25,12.06h0a.22.22,0,0,1-.1-.19,1.6,1.6,0,0,1,.79-1.14A5.47,5.47,0,0,0,24.94,12v0Zm.67-1.34a1.62,1.62,0,0,0-.77,1.14.19.19,0,0,0,.08.17,5.31,5.31,0,0,1,.69-1.31Z"/><path class="cls-5" d="M27.11,22.44c.2.37-.6,1-2,1a7.26,7.26,0,0,0,2-1Z"/><path d="M25.17,23.48h0l0,0h0a7.35,7.35,0,0,0,1.92-1,.27.27,0,0,1,0,.32,2.32,2.32,0,0,1-1.92.72Zm1.93-1a6.24,6.24,0,0,1-1.91,1,2.29,2.29,0,0,0,1.88-.7.28.28,0,0,0,0-.3Z"/><path class="cls-5" d="M23.61,16.65c-.3-.13-.25-.74.61-1.47a4.53,4.53,0,0,0-.61,1.47Z"/><path d="M23.63,16.66h0a.3.3,0,0,1-.17-.23c0-.25.14-.71.78-1.25a4.64,4.64,0,0,0-.6,1.47Zm.58-1.48c-.61.55-.79,1-.75,1.25a.23.23,0,0,0,.14.2,4.88,4.88,0,0,1,.61-1.45Z"/><path class="cls-5" d="M24.22,19.32c-.24.34-1.16-.13-1.73-1.42a7.57,7.57,0,0,0,1.73,1.42Z"/><path d="M24,19.44c-.4,0-1.07-.54-1.51-1.53a8.17,8.17,0,0,0,1.74,1.4.23.23,0,0,1-.23.13Zm-1.51-1.53c.56,1.21,1.5,1.74,1.74,1.4a6.8,6.8,0,0,1-1.74-1.4Z"/><path class="cls-5" d="M23.71,15.39c-.36.24-.89-.57-1-1.69a7.81,7.81,0,0,0,1,1.69Z"/><path d="M23.57,15.44c-.33,0-.76-.71-.85-1.74a8.27,8.27,0,0,0,1,1.68.16.16,0,0,1-.14.06Zm-.84-1.74c.1,1.12.64,1.91,1,1.68a6.94,6.94,0,0,1-1-1.68Z"/><path d="M23.63,16.66h0a.29.29,0,0,1-.18-.23c0-.26.14-.72.77-1.26a2.59,2.59,0,0,1-.58,1.49Zm.58-1.47c-.6.53-.78,1-.74,1.23a.26.26,0,0,0,.15.21,2.74,2.74,0,0,0,.59-1.44Z"/><path d="M26.41,24h0a4.24,4.24,0,0,1,2-1.06.31.31,0,0,1,0,.34,2.32,2.32,0,0,1-1.92.72Zm1.94-1a4.64,4.64,0,0,0-2,1l0,0a2.29,2.29,0,0,0,1.9-.71.31.31,0,0,0,0-.3Z"/><path d="M25.71,23.67h0a4.2,4.2,0,0,1,2-1.05.27.27,0,0,1,0,.33,2.32,2.32,0,0,1-1.92.72Zm1.93-1a4.65,4.65,0,0,0-2,1l0,0a2.32,2.32,0,0,0,1.9-.71.3.3,0,0,0,0-.31Z"/><path d="M28.57,23h0a.44.44,0,0,1-.32-.17,2.82,2.82,0,0,1-.58-1.92,4.41,4.41,0,0,1,1,2,.2.2,0,0,1-.13,0Zm-.89-2.07a2.83,2.83,0,0,0,.59,1.89.47.47,0,0,0,.3.16h0a.2.2,0,0,0,.11,0,4.85,4.85,0,0,0-1-2Z"/><path d="M28,22.77h0c-.37,0-.95-.76-1.05-2a4.44,4.44,0,0,1,1.2,1.95.23.23,0,0,1-.15.05Zm-1-2c.11,1.21.68,2,1,2h0a.28.28,0,0,0,.13,0A4.9,4.9,0,0,0,27,20.78Z"/><path d="M27,22.28a.36.36,0,0,1-.26-.15,2.48,2.48,0,0,1-.26-1.85,4,4,0,0,1,.6,2H27Zm-.51-2a2.44,2.44,0,0,0,.27,1.82.34.34,0,0,0,.24.14v0l.07,0a4.5,4.5,0,0,0-.58-1.95Z"/><path d="M25.83,22.65h0a3.12,3.12,0,0,1-1.39-.36,3.83,3.83,0,0,1,1.42-.22,2.16,2.16,0,0,1,.81.12.27.27,0,0,1-.08.23,1,1,0,0,1-.76.23Zm0-.55a4.7,4.7,0,0,0-1.41.19,3.4,3.4,0,0,0,1.38.33h0a1.07,1.07,0,0,0,.75-.22.24.24,0,0,0,.07-.19,2.21,2.21,0,0,0-.79-.11Z"/><path d="M25.63,22.15h0a2.76,2.76,0,0,1-1.69-.79.16.16,0,0,1,.11,0,4.44,4.44,0,0,1,2.07.54c0,.18-.22.28-.49.28Zm-1.58-.79H24a2.9,2.9,0,0,0,1.68.75h0c.26,0,.44-.09.47-.24a4.57,4.57,0,0,0-2.05-.52Z"/><path d="M26.19,21.66a.3.3,0,0,1-.24-.15,2.33,2.33,0,0,1,0-1.92,3.87,3.87,0,0,1,.26,2.06ZM26,19.6a2.33,2.33,0,0,0,0,1.89.27.27,0,0,0,.22.14v0l0,0a4.56,4.56,0,0,0-.24-2Z"/><path d="M25.63,21.2a.28.28,0,0,1-.22-.13,2.14,2.14,0,0,1,0-1.73,3.57,3.57,0,0,1,.24,1.85Zm-.19-1.85a2.13,2.13,0,0,0,0,1.7.25.25,0,0,0,.2.13h0a4,4,0,0,0-.22-1.83Z"/><path d="M25.28,21.47h0c-.41,0-1.09-.54-1.53-1.53a4.21,4.21,0,0,1,1.77,1.41.27.27,0,0,1-.24.12Zm-1.52-1.53c.45,1,1.11,1.5,1.52,1.5h0a.25.25,0,0,0,.22-.1,4.88,4.88,0,0,0-1.74-1.4Z"/><path d="M25.09,20.53h0a.27.27,0,0,1-.21-.15,2,2,0,0,1,.29-1.73,3.56,3.56,0,0,1-.07,1.87Zm.08-1.87a2.09,2.09,0,0,0-.27,1.71.23.23,0,0,0,.18.13,3.72,3.72,0,0,0,.09-1.84Z"/><path d="M24.62,19.77h0a.29.29,0,0,1-.23-.17,2.25,2.25,0,0,1,.32-1.92,4,4,0,0,1-.08,2.08Zm.09-2.07a2.31,2.31,0,0,0-.3,1.89.25.25,0,0,0,.2.15,4.32,4.32,0,0,0,.1-2Z"/><path d="M24.15,20.12h0a2.14,2.14,0,0,1-1.39-.76,3.49,3.49,0,0,1,1.73.56c0,.14-.15.2-.34.2Zm-1.35-.76a2.1,2.1,0,0,0,1.35.74c.17,0,.29-.06.32-.17a3.72,3.72,0,0,0-1.67-.57Z"/><path d="M24.2,19h0a.27.27,0,0,1-.21-.18,2.24,2.24,0,0,1,.49-1.88A4,4,0,0,1,24.21,19Zm.27-2A2.27,2.27,0,0,0,24,18.78a.25.25,0,0,0,.18.17,4.46,4.46,0,0,0,.28-2Z"/><path d="M23.78,17.38h0a.28.28,0,0,1-.13-.23,2,2,0,0,1,1-1.43,3.61,3.61,0,0,1-.84,1.66Zm.83-1.65a2,2,0,0,0-.94,1.42.23.23,0,0,0,.1.2,3.78,3.78,0,0,0,.84-1.62Z"/><path d="M23.5,17.9h0c-.33,0-.88-.43-1.24-1.24h0A3.45,3.45,0,0,1,23.7,17.8a.21.21,0,0,1-.2.1Zm-1.23-1.23c.37.78.9,1.21,1.23,1.21h0a.22.22,0,0,0,.18-.08,3.76,3.76,0,0,0-1.41-1.13Z"/><path d="M23.5,16.92h0c-.31,0-.78-.62-.86-1.63a3.63,3.63,0,0,1,1,1.58.16.16,0,0,1-.12.05Zm-.85-1.62c.1,1,.55,1.6.85,1.6h0a.19.19,0,0,0,.1,0,4,4,0,0,0-1-1.57Z"/><path d="M23.68,15.4h0a.23.23,0,0,1,0-.24,1.72,1.72,0,0,1,1.38-.66,3,3,0,0,1-1.37.91Zm1.37-.9a1.73,1.73,0,0,0-1.35.66.23.23,0,0,0,0,.21,3.33,3.33,0,0,0,1.36-.87Z"/><path d="M23.8,14.33a.32.32,0,0,1-.24-.13,2.21,2.21,0,0,1-.23-1.67,3.66,3.66,0,0,1,.54,1.78H23.8Zm-.47-1.79a2.26,2.26,0,0,0,.25,1.64.32.32,0,0,0,.22.13h0l.06,0a4.11,4.11,0,0,0-.53-1.76Z"/><path d="M23.82,14.82h0a.29.29,0,0,1,0-.3,2.13,2.13,0,0,1,1.61-.94,3.63,3.63,0,0,1-1.58,1.24Zm1.58-1.24a2.15,2.15,0,0,0-1.58.94.31.31,0,0,0,0,.27,4.25,4.25,0,0,0,1.57-1.21Z"/><path d="M23.94,14.17h0a.3.3,0,0,1-.07-.29,2.19,2.19,0,0,1,1.43-1.22,3.79,3.79,0,0,1-1.35,1.51Zm1.34-1.5a2.18,2.18,0,0,0-1.39,1.22.25.25,0,0,0,.05.25,4.14,4.14,0,0,0,1.34-1.47Z"/><path d="M24.14,13.11h0a.23.23,0,0,1-.2-.15,2,2,0,0,1,.3-1.72,3.66,3.66,0,0,1-.08,1.86Zm.09-1.86A2.09,2.09,0,0,0,24,13a.23.23,0,0,0,.18.13,4.12,4.12,0,0,0,.1-1.83Z"/><path d="M24.6,12.4h0a.19.19,0,0,1-.17-.12,1.63,1.63,0,0,1,.24-1.4,2.86,2.86,0,0,1-.06,1.52Zm.06-1.51a1.71,1.71,0,0,0-.22,1.38.21.21,0,0,0,.14.11,3.44,3.44,0,0,0,.08-1.49Z"/><path d="M24.73,12.82h0a.29.29,0,0,1-.05-.29,2.16,2.16,0,0,1,1.53-1.1,3.87,3.87,0,0,1-1.47,1.39Zm1.48-1.38a2.19,2.19,0,0,0-1.5,1.09.28.28,0,0,0,0,.26,4.27,4.27,0,0,0,1.47-1.35Z"/><path d="M25,12.07h0a.21.21,0,0,1-.11-.18,1.63,1.63,0,0,1,.8-1.17A2.83,2.83,0,0,1,25,12.06Zm.67-1.35a1.67,1.67,0,0,0-.76,1.15.21.21,0,0,0,.08.17,3.16,3.16,0,0,0,.68-1.32Z"/><path d="M25.17,23.49h0a4.29,4.29,0,0,1,2-1.07.3.3,0,0,1,0,.34,2.3,2.3,0,0,1-1.93.73Zm1.94-1a4.59,4.59,0,0,0-2,1l0,0a2.35,2.35,0,0,0,1.91-.71.3.3,0,0,0,0-.31Z"/><path d="M24,19.44h0c-.41,0-1.08-.54-1.52-1.54a4.29,4.29,0,0,1,1.77,1.41.28.28,0,0,1-.25.13ZM22.5,17.91c.45,1,1.11,1.5,1.51,1.5h0a.26.26,0,0,0,.23-.1,4.88,4.88,0,0,0-1.74-1.4Z"/><path d="M23.57,15.43h0c-.3,0-.75-.54-.85-1.74a2.66,2.66,0,0,1,1,1.69.18.18,0,0,1-.13,0Zm-.84-1.73c.11,1.16.56,1.7.84,1.7h0a.2.2,0,0,0,.11,0,2.82,2.82,0,0,0-.95-1.67Z"/><path class="cls-5" d="M29.37,23.7a.55.55,0,0,1,.25-.2A5.47,5.47,0,0,1,31.45,23a2.54,2.54,0,0,0,.46-.24c.38-.19.8-.25,1.17-.44a.59.59,0,0,0,.16-.12c.14-.16.41-.22.57-.37a6.27,6.27,0,0,0,1.65-2,6.6,6.6,0,0,0,.88-3,10.77,10.77,0,0,0-.11-2.06A8,8,0,0,0,35.06,12l.1.06a7.78,7.78,0,0,1,1.17,2.76,11.7,11.7,0,0,1,.12,2.06,6.76,6.76,0,0,1-.88,3.06,6.52,6.52,0,0,1-1.66,1.94c-.16.16-.42.21-.57.38a.66.66,0,0,1-.16.12c-.37.18-.79.25-1.16.43a2.61,2.61,0,0,1-.47.24,6.06,6.06,0,0,0-1.83.55.69.69,0,0,0-.25.2l-.1-.06Z"/><path d="M29.47,23.78l-.11-.07a.58.58,0,0,1,.25-.22,5.69,5.69,0,0,1,1.84-.55.92.92,0,0,0,.28-.14.81.81,0,0,1,.18-.1,5.59,5.59,0,0,1,.57-.22,3.23,3.23,0,0,0,.59-.22.46.46,0,0,0,.16-.11,1.08,1.08,0,0,1,.3-.21,1,1,0,0,0,.27-.17l.27-.25a5.22,5.22,0,0,0,1.38-1.69l.16-.35a5.62,5.62,0,0,0,.72-2.7c0-.25,0-.49,0-.74a4.87,4.87,0,0,0-.1-1.32A8.09,8.09,0,0,0,35.05,12l.11,0a7.84,7.84,0,0,1,1.18,2.77,5.32,5.32,0,0,1,.11,1.32,6.09,6.09,0,0,0,0,.74,5.86,5.86,0,0,1-.72,2.7l-.16.36a5.34,5.34,0,0,1-1.38,1.68l-.28.27a1.24,1.24,0,0,1-.27.17,1.08,1.08,0,0,0-.3.21.67.67,0,0,1-.17.12,4.31,4.31,0,0,1-.6.22,3.78,3.78,0,0,0-.56.21.75.75,0,0,0-.17.1.91.91,0,0,1-.3.14,5.55,5.55,0,0,0-1.82.55.55.55,0,0,0-.25.2ZM35.05,12a7.62,7.62,0,0,1,1.19,2.75,4.87,4.87,0,0,1,.1,1.32c0,.25,0,.49,0,.74a5.66,5.66,0,0,1-.72,2.71l-.16.35a5.49,5.49,0,0,1-1.38,1.69l-.27.25a1,1,0,0,1-.28.18,1,1,0,0,0-.3.2.47.47,0,0,1-.16.12,3.23,3.23,0,0,1-.59.22c-.2.07-.39.13-.57.21l-.18.11a.86.86,0,0,1-.29.14,5.56,5.56,0,0,0-1.83.55.58.58,0,0,0-.24.2l.08,0a.73.73,0,0,1,.26-.2A5.61,5.61,0,0,1,31.55,23a.86.86,0,0,0,.29-.14l.17-.1a3.78,3.78,0,0,1,.56-.21,4.31,4.31,0,0,0,.6-.22.66.66,0,0,0,.16-.12,1.13,1.13,0,0,1,.31-.21,1.53,1.53,0,0,0,.27-.17l.28-.26a5.45,5.45,0,0,0,1.37-1.67l.16-.37a5.79,5.79,0,0,0,.72-2.69c0-.25,0-.49,0-.74a4.77,4.77,0,0,0-.1-1.31A7.7,7.7,0,0,0,35.15,12l-.1-.06Z"/><path class="cls-6" d="M29.49,23.78a.33.33,0,0,1,.22-.24A6,6,0,0,1,31.55,23a.71.71,0,0,0,.28-.13l.17-.11c.19-.08.38-.14.57-.2a4.36,4.36,0,0,0,.6-.23.4.4,0,0,0,.15-.11,1.13,1.13,0,0,1,.31-.21,1.24,1.24,0,0,0,.27-.17l.28-.26a5.27,5.27,0,0,0,1.36-1.67l.17-.37a5.77,5.77,0,0,0,.71-2.68c0-.24,0-.49,0-.73a5.31,5.31,0,0,0-.1-1.32A8,8,0,0,0,35.14,12l0,0a8,8,0,0,1,1.18,2.77,5,5,0,0,1,.1,1.33c0,.24,0,.48,0,.73a5.66,5.66,0,0,1-.72,2.71l-.16.36a5.49,5.49,0,0,1-1.38,1.69l-.28.26a1.11,1.11,0,0,1-.27.17.85.85,0,0,0-.3.21.67.67,0,0,1-.17.12,4,4,0,0,1-.61.23c-.18.06-.37.12-.55.2l-.17.1a.81.81,0,0,1-.3.14,6.23,6.23,0,0,0-1.83.55.66.66,0,0,0-.24.2Z"/><path class="cls-5" d="M31.64,23a4.29,4.29,0,0,1,2,1c-1.37,0-2.18-.66-2-1Z"/><path class="cls-5" d="M32.34,22.63a4.39,4.39,0,0,1,2,1c-1.38,0-2.19-.67-2-1Z"/><path class="cls-5" d="M31.31,23a4.65,4.65,0,0,1,1-2.05c0,1.42-.65,2.25-1,2.05Z"/><path class="cls-5" d="M31.85,22.73A4.49,4.49,0,0,1,33,20.78c-.11,1.41-.83,2.18-1.17,1.95Z"/><path class="cls-5" d="M32.94,22.26a4.22,4.22,0,0,1,.58-2c.23,1.25-.23,2.09-.58,2Z"/><path class="cls-5" d="M33.34,22.21a4.29,4.29,0,0,1,2.22.07c-1.24.61-2.25.35-2.22-.07Z"/><path class="cls-5" d="M33.9,21.89a4.23,4.23,0,0,1,2.17-.53c-1,.92-2.09.94-2.17.53Z"/><path class="cls-5" d="M33.78,21.65a4.2,4.2,0,0,1,.24-2c.43,1.19.13,2.1-.24,2Z"/><path class="cls-5" d="M34.35,21.19a3.68,3.68,0,0,1,.21-1.84c.39,1.07.11,1.89-.21,1.84Z"/><path class="cls-5" d="M34.5,21.34a4.4,4.4,0,0,1,1.74-1.41c-.57,1.28-1.5,1.75-1.74,1.41Z"/><path class="cls-5" d="M34.92,20.52a3.7,3.7,0,0,1-.1-1.86c.56,1,.43,1.85.1,1.86Z"/><path class="cls-5" d="M35.39,19.76a4.28,4.28,0,0,1-.11-2.06c.63,1.1.48,2.05.11,2.06Z"/><path class="cls-5" d="M35.53,19.94a3.49,3.49,0,0,1,1.71-.58c-.78.82-1.62.91-1.71.58Z"/><path class="cls-5" d="M35.81,19a4.1,4.1,0,0,1-.28-2c.71,1,.65,2,.28,2Z"/><path class="cls-5" d="M36.23,17.37a3.74,3.74,0,0,1-.85-1.64c.91.65,1.15,1.49.85,1.64Z"/><path class="cls-5" d="M36.33,17.81a3.52,3.52,0,0,1,1.41-1.15c-.46,1-1.22,1.42-1.41,1.15Z"/><path class="cls-5" d="M36.41,16.88a3.64,3.64,0,0,1,1-1.59c-.09,1.15-.68,1.77-1,1.59Z"/><path class="cls-5" d="M36.32,15.38a3.19,3.19,0,0,1-1.38-.88c1,.08,1.55.63,1.38.88Z"/><path class="cls-5" d="M36.15,14.31a3.69,3.69,0,0,1,.52-1.78c.2,1.12-.21,1.88-.52,1.78Z"/><path class="cls-5" d="M36.18,14.8a4,4,0,0,1-1.59-1.22c1.21.2,1.82.93,1.59,1.22Z"/><path class="cls-5" d="M36.07,14.16a4,4,0,0,1-1.36-1.49c1.15.42,1.63,1.24,1.36,1.49Z"/><path class="cls-5" d="M35.87,13.09a3.94,3.94,0,0,1-.1-1.86c.57,1,.43,1.85.1,1.86Z"/><path class="cls-5" d="M35.42,12.38a3.05,3.05,0,0,1-.08-1.5c.46.8.35,1.5.08,1.5Z"/><path class="cls-5" d="M35.27,12.81a4.05,4.05,0,0,1-1.48-1.36c1.19.31,1.73,1.09,1.48,1.36Z"/><path class="cls-5" d="M35.06,12a2.9,2.9,0,0,1-.69-1.32c.74.52.93,1.2.69,1.32Z"/><path class="cls-5" d="M32.87,22.44a4.2,4.2,0,0,1,2,1c-1.37,0-2.18-.67-2-1Z"/><path class="cls-5" d="M36.39,16.65a3,3,0,0,1-.61-1.47c.86.73.91,1.35.61,1.47Z"/><path class="cls-5" d="M35.75,19.32A4.44,4.44,0,0,1,37.5,17.9c-.57,1.28-1.5,1.75-1.75,1.42Z"/><path class="cls-5" d="M36.33,15.25a2.91,2.91,0,0,1,1-1.58c-.09,1.14-.68,1.77-1,1.58Z"/><path class="cls-5" d="M33,22.25c.35.12.8-.71.57-2a6.63,6.63,0,0,1-.57,2Z"/><path d="M33,22.27H33a8,8,0,0,0,.57-2,2.38,2.38,0,0,1-.25,1.85.34.34,0,0,1-.25.14Zm.5-2a6.79,6.79,0,0,1-.56,2H33a.33.33,0,0,0,.24-.15,2.38,2.38,0,0,0,.26-1.82Z"/><path class="cls-5" d="M31.66,23c-.2.37.6,1,2,1a7.23,7.23,0,0,1-2-1Z"/><path d="M33.6,24a2.32,2.32,0,0,1-1.92-.71.33.33,0,0,1,0-.33,8,8,0,0,0,2,1l0,0Zm-2-1a.36.36,0,0,0,.05.31,2.28,2.28,0,0,0,1.9.7h0a6.71,6.71,0,0,1-2-1Z"/><path class="cls-5" d="M32.36,22.63c-.2.37.6,1,2,1a7.42,7.42,0,0,1-2-1Z"/><path d="M34.3,23.67A2.29,2.29,0,0,1,32.38,23a.33.33,0,0,1,0-.33,7.51,7.51,0,0,0,2,1l0,0Zm-1.95-1a.36.36,0,0,0,0,.31,2.28,2.28,0,0,0,1.9.7v0l0,0a6.46,6.46,0,0,1-2-1Z"/><path class="cls-5" d="M31.33,23c.35.2,1-.62,1-2a8,8,0,0,1-1,2Z"/><path d="M31.44,23a.27.27,0,0,1-.12,0,8.25,8.25,0,0,0,1-2.05,2.66,2.66,0,0,1-.55,1.91.48.48,0,0,1-.32.17Zm-.11,0a.52.52,0,0,0,.42-.15,2.79,2.79,0,0,0,.56-1.9,7,7,0,0,1-1,2.05Z"/><path class="cls-5" d="M31.86,22.72c.34.23,1-.53,1.16-1.94a7.7,7.7,0,0,1-1.16,1.94Z"/><path d="M32,22.77h0a.23.23,0,0,1-.14,0,8.27,8.27,0,0,0,1.16-2c-.08,1.29-.66,2-1,2Zm1-2a7.24,7.24,0,0,1-1.15,1.95l.13,0c.36,0,.92-.75,1-2Z"/><path class="cls-5" d="M33.33,22.21c0,.41,1,.67,2.21.07a7,7,0,0,1-2.21-.07Z"/><path d="M34.16,22.65a1.09,1.09,0,0,1-.76-.23.26.26,0,0,1-.08-.21,8.39,8.39,0,0,0,2.22.05,3,3,0,0,1-1.38.39Zm-.84-.44a.39.39,0,0,0,.1.19,1,1,0,0,0,.74.22,3.24,3.24,0,0,0,1.38-.35,5.39,5.39,0,0,1-2.22-.06Z"/><path class="cls-5" d="M33.91,21.88c.09.41,1.11.39,2.16-.53a6.85,6.85,0,0,1-2.16.53Z"/><path d="M34.39,22.15c-.27,0-.45-.1-.49-.27H34a9.22,9.22,0,0,0,2.07-.54,2.7,2.7,0,0,1-1.68.81Zm-.48-.26c0,.14.22.24.48.24a2.81,2.81,0,0,0,1.67-.78,6.7,6.7,0,0,1-2.15.54Z"/><path class="cls-5" d="M33.79,21.64c.36.06.66-.85.23-2a7.16,7.16,0,0,1-.23,2Z"/><path d="M33.82,21.66h0a7.41,7.41,0,0,0,.22-2,2.24,2.24,0,0,1,.05,1.9.31.31,0,0,1-.24.16Zm.2-2.05a6.33,6.33,0,0,1-.23,2h0a.27.27,0,0,0,.22-.15,2.28,2.28,0,0,0,0-1.88Z"/><path class="cls-5" d="M34.35,21.19c.33,0,.6-.76.21-1.84a5.79,5.79,0,0,1-.21,1.84Z"/><path d="M34.38,21.2h0a6.76,6.76,0,0,0,.2-1.85,2,2,0,0,1,0,1.71.26.26,0,0,1-.21.14Zm.17-1.85a5.83,5.83,0,0,1-.19,1.85l0,0h0a.26.26,0,0,0,.2-.12,2.06,2.06,0,0,0,0-1.71Z"/><path class="cls-5" d="M34.52,21.35c.24.33,1.17-.13,1.73-1.42a7.65,7.65,0,0,1-1.73,1.42Z"/><path d="M34.75,21.46a.26.26,0,0,1-.24-.11,8,8,0,0,0,1.74-1.43c-.42,1-1.09,1.54-1.5,1.54Zm1.5-1.53a7.54,7.54,0,0,1-1.73,1.43.32.32,0,0,0,.23.08c.4,0,1.06-.53,1.5-1.51Z"/><path class="cls-5" d="M34.93,20.51c.32,0,.46-.86-.11-1.84a6.72,6.72,0,0,1,.11,1.84Z"/><path d="M34.91,20.52h0a6.51,6.51,0,0,0-.1-1.84,2,2,0,0,1,.31,1.71.23.23,0,0,1-.2.14Zm-.09-1.85a6.75,6.75,0,0,1,.12,1.83.2.2,0,0,0,.17-.13,2,2,0,0,0-.29-1.7Z"/><path class="cls-5" d="M35.4,19.75c.36,0,.51-.95-.12-2.05a6.74,6.74,0,0,1,.12,2.05Z"/><path d="M35.38,19.76h0a7.35,7.35,0,0,0-.11-2.05,2.2,2.2,0,0,1,.34,1.9.27.27,0,0,1-.22.16Zm-.1-2.05a7.51,7.51,0,0,1,.13,2,.25.25,0,0,0,.2-.14,2.27,2.27,0,0,0-.33-1.89Z"/><path class="cls-5" d="M35.54,19.94c.09.32.92.23,1.7-.58a6.32,6.32,0,0,1-1.7.58Z"/><path d="M35.87,20.12c-.18,0-.31-.06-.34-.18a7.26,7.26,0,0,0,1.71-.59,2.09,2.09,0,0,1-1.37.77Zm1.37-.77a7,7,0,0,1-1.66.6c0,.25.81.28,1.66-.6Z"/><path class="cls-5" d="M35.82,19c.36,0,.42-1-.29-2a7.54,7.54,0,0,1,.29,2Z"/><path d="M35.8,19h0a7.22,7.22,0,0,0-.29-2A2.23,2.23,0,0,1,36,18.79a.27.27,0,0,1-.21.18Zm-.28-2a7.15,7.15,0,0,1,.31,2,.25.25,0,0,0,.18-.17,2.18,2.18,0,0,0-.49-1.85Z"/><path class="cls-5" d="M36.24,17.37c.29-.15.06-1-.85-1.63a6.38,6.38,0,0,1,.85,1.63Z"/><path d="M36.22,17.38h0a6.35,6.35,0,0,0-.85-1.63,2,2,0,0,1,1,1.41.28.28,0,0,1-.13.23Zm-.84-1.63a7,7,0,0,1,.87,1.6.23.23,0,0,0,.1-.2,2,2,0,0,0-1-1.4Z"/><path class="cls-5" d="M36.34,17.8c.19.27.94-.11,1.4-1.14a6,6,0,0,1-1.4,1.14Z"/><path d="M36.52,17.89a.24.24,0,0,1-.19-.08,7.21,7.21,0,0,0,1.41-1.16c-.34.81-.89,1.24-1.22,1.24Zm1.21-1.24a5.74,5.74,0,0,1-1.39,1.16.25.25,0,0,0,.18.07c.33,0,.86-.43,1.21-1.23Z"/><path class="cls-5" d="M36.41,16.87c.28.19.86-.43,1-1.58a6,6,0,0,1-1,1.58Z"/><path d="M36.53,16.91h0a.21.21,0,0,1-.12,0,7.07,7.07,0,0,0,.94-1.59c-.06,1-.53,1.62-.82,1.62Zm.82-1.62a5.91,5.91,0,0,1-.93,1.59h.11c.29,0,.74-.61.82-1.6Z"/><path class="cls-5" d="M36.33,15.38c.16-.25-.38-.79-1.37-.87.92.48,1.31.66,1.37.87Z"/><path d="M36.32,15.4v0c0-.19-.37-.35-1.12-.74L35,14.52a1.66,1.66,0,0,1,1.38.63.21.21,0,0,1,0,.24ZM35,14.52l.25.11c.73.38,1,.54,1.12.73a.26.26,0,0,0,0-.21A1.75,1.75,0,0,0,35,14.52Z"/><path class="cls-5" d="M36.16,14.3c.31.11.71-.64.51-1.77a6.59,6.59,0,0,1-.51,1.77Z"/><path d="M36.22,14.32h-.06a7.16,7.16,0,0,0,.51-1.78,2.1,2.1,0,0,1-.22,1.65.31.31,0,0,1-.23.14Zm.45-1.79a5.68,5.68,0,0,1-.51,1.78h.06a.29.29,0,0,0,.22-.13,2.16,2.16,0,0,0,.23-1.64Z"/><path class="cls-5" d="M36.18,14.8c.23-.29-.37-1-1.58-1.21a6.43,6.43,0,0,1,1.58,1.21Z"/><path d="M36.18,14.82v0a7.07,7.07,0,0,0-1.58-1.21,2.08,2.08,0,0,1,1.61.93.27.27,0,0,1,0,.29ZM34.6,13.6a7.38,7.38,0,0,1,1.59,1.18.32.32,0,0,0,0-.26,2.15,2.15,0,0,0-1.6-.92Z"/><path class="cls-5" d="M36.07,14.16c.27-.25-.2-1.06-1.35-1.48a6.34,6.34,0,0,1,1.35,1.48Z"/><path d="M36.07,14.18v0a6.74,6.74,0,0,0-1.35-1.48,2.15,2.15,0,0,1,1.44,1.2.31.31,0,0,1-.07.29Zm-1.36-1.5a7.32,7.32,0,0,1,1.37,1.46.29.29,0,0,0,.05-.25,2.14,2.14,0,0,0-1.42-1.21Z"/><path class="cls-5" d="M35.88,13.08c.33,0,.46-.85-.11-1.84a6.3,6.3,0,0,1,.11,1.84Z"/><path d="M35.86,13.09h0a6.11,6.11,0,0,0-.1-1.84A2,2,0,0,1,36.08,13a.23.23,0,0,1-.2.14Zm-.09-1.85a6.34,6.34,0,0,1,.12,1.83.23.23,0,0,0,.18-.13,2,2,0,0,0-.3-1.7Z"/><path class="cls-5" d="M35.43,12.38c.27,0,.37-.69-.09-1.49a4.75,4.75,0,0,1,.09,1.49Z"/><path d="M35.41,12.39v0a4.69,4.69,0,0,0-.09-1.48,1.55,1.55,0,0,1,.26,1.38.18.18,0,0,1-.16.12Zm-.07-1.5a5.56,5.56,0,0,1,.1,1.48.19.19,0,0,0,.14-.11,1.64,1.64,0,0,0-.24-1.37Z"/><path class="cls-5" d="M35.27,12.81c.26-.27-.29-1-1.47-1.36a6.2,6.2,0,0,1,1.47,1.36Z"/><path d="M35.27,12.83v0a6.25,6.25,0,0,0-1.47-1.35,2.08,2.08,0,0,1,1.53,1.07.27.27,0,0,1,0,.28v0ZM33.8,11.46a7.41,7.41,0,0,1,1.48,1.33.28.28,0,0,0,0-.26,2.15,2.15,0,0,0-1.51-1.07Z"/><path class="cls-5" d="M35.07,12c.23-.12,0-.79-.69-1.32A5.16,5.16,0,0,1,35.07,12Z"/><path d="M35.05,12.06v0a5.15,5.15,0,0,0-.69-1.31,1.53,1.53,0,0,1,.8,1.13.2.2,0,0,1-.1.19Zm-.68-1.33a5.5,5.5,0,0,1,.71,1.3.21.21,0,0,0,.07-.17,1.58,1.58,0,0,0-.78-1.13Z"/><path class="cls-5" d="M32.89,22.44c-.19.37.61,1,2,1a7.23,7.23,0,0,1-2-1Z"/><path d="M34.83,23.48a2.32,2.32,0,0,1-1.92-.72.31.31,0,0,1,0-.32,7.79,7.79,0,0,0,2,1l0,0Zm-1.95-1a.4.4,0,0,0,0,.31,2.32,2.32,0,0,0,1.9.7h0a6.46,6.46,0,0,1-2-1Z"/><path class="cls-5" d="M36.39,16.65c.31-.13.25-.74-.61-1.47a4.28,4.28,0,0,1,.61,1.47Z"/><path d="M36.38,16.66h0a4.43,4.43,0,0,0-.61-1.46c.65.53.83,1,.79,1.24a.28.28,0,0,1-.17.23Zm-.6-1.47a4.64,4.64,0,0,1,.62,1.44.26.26,0,0,0,.15-.2c0-.25-.15-.7-.77-1.24Z"/><path class="cls-5" d="M35.77,19.32c.25.34,1.18-.13,1.75-1.42a7.24,7.24,0,0,1-1.75,1.42Z"/><path d="M36,19.44a.28.28,0,0,1-.24-.11,8.69,8.69,0,0,0,1.74-1.43c-.42,1-1.09,1.54-1.5,1.54Zm1.5-1.54a7.26,7.26,0,0,1-1.73,1.43.32.32,0,0,0,.23.09c.4,0,1.06-.54,1.5-1.52Z"/><path class="cls-5" d="M36.29,15.39c.36.24.89-.57,1-1.69a7.81,7.81,0,0,1-1,1.69Z"/><path d="M36.43,15.44h0a.23.23,0,0,1-.14,0,9,9,0,0,0,1-1.7c-.06,1-.49,1.74-.83,1.74Zm.83-1.74a7.5,7.5,0,0,1-1,1.7l.13,0c.33,0,.75-.73.83-1.72Z"/><path d="M36.38,16.66h0a2.9,2.9,0,0,1-.6-1.48c.65.53.83,1,.79,1.25a.29.29,0,0,1-.18.23Zm-.61-1.47a3.22,3.22,0,0,0,.61,1.44.23.23,0,0,0,.15-.21c0-.25-.14-.7-.76-1.23Z"/><path d="M33.59,24a2.34,2.34,0,0,1-1.92-.72.31.31,0,0,1,0-.33,4.38,4.38,0,0,1,2,1l0,0Zm-2-1a.32.32,0,0,0,.05.29,2.29,2.29,0,0,0,1.9.71v0l0,0a5,5,0,0,0-2-1Z"/><path d="M34.3,23.67A2.3,2.3,0,0,1,32.37,23a.31.31,0,0,1,0-.33,4.47,4.47,0,0,1,2,1l0,0Zm-2-1a.35.35,0,0,0,0,.3,2.35,2.35,0,0,0,1.91.71h0a4.81,4.81,0,0,0-2-1Z"/><path d="M31.43,23a.27.27,0,0,1-.12,0,4.67,4.67,0,0,1,1-2.07,2.74,2.74,0,0,1-.56,1.93.44.44,0,0,1-.32.17Zm.87-2.09a5.33,5.33,0,0,0-1,2,.41.41,0,0,0,.4-.14,2.76,2.76,0,0,0,.57-1.91Z"/><path d="M32,22.77a.23.23,0,0,1-.14,0,4.63,4.63,0,0,1,1.17-2c-.07,1.25-.66,2-1,2Zm1-2a5.14,5.14,0,0,0-1.15,1.95.35.35,0,0,0,.12,0c.36,0,.93-.76,1-2Z"/><path d="M33,22.28h-.07a4.34,4.34,0,0,1,.57-2,2.38,2.38,0,0,1-.24,1.86.34.34,0,0,1-.26.15Zm.49-2a5.17,5.17,0,0,0-.55,2H33a.34.34,0,0,0,.24-.14,2.38,2.38,0,0,0,.25-1.83Z"/><path d="M34.17,22.65a1,1,0,0,1-.76-.23.3.3,0,0,1-.09-.21,1.88,1.88,0,0,1,.83-.14,5.17,5.17,0,0,1,1.42.19,2.93,2.93,0,0,1-1.4.39Zm0-.55a2.16,2.16,0,0,0-.81.12.31.31,0,0,0,.09.18,1,1,0,0,0,.74.22,3.09,3.09,0,0,0,1.38-.36,6.49,6.49,0,0,0-1.4-.16Z"/><path d="M34.37,22.15c-.27,0-.46-.1-.49-.27a4.4,4.4,0,0,1,2.18-.54,2.67,2.67,0,0,1-1.69.81ZM36,21.36a4.47,4.47,0,0,0-2.05.53c0,.14.21.23.47.23A2.75,2.75,0,0,0,36,21.36Z"/><path d="M33.81,21.66h0A4.34,4.34,0,0,1,34,19.58a2.3,2.3,0,0,1,0,1.93.3.3,0,0,1-.24.15ZM34,19.6a5,5,0,0,0-.21,2h0a.29.29,0,0,0,.22-.14,2.27,2.27,0,0,0,0-1.89Z"/><path d="M34.37,21.2h0a3.94,3.94,0,0,1,.21-1.87,2.06,2.06,0,0,1,0,1.74.28.28,0,0,1-.22.13Zm.18-1.85a4.32,4.32,0,0,0-.19,1.84h0a.25.25,0,0,0,.2-.13,2.1,2.1,0,0,0,0-1.7Z"/><path d="M34.73,21.47a.3.3,0,0,1-.25-.11,4.47,4.47,0,0,1,1.76-1.44c-.43,1-1.1,1.55-1.51,1.55Zm1.5-1.55a5.19,5.19,0,0,0-1.73,1.44.32.32,0,0,0,.23.08c.4,0,1.06-.53,1.5-1.52Z"/><path d="M34.91,20.53h0a3.9,3.9,0,0,1-.11-1.87,2,2,0,0,1,.32,1.73.27.27,0,0,1-.2.15Zm-.11-1.87a4.59,4.59,0,0,0,.12,1.84.23.23,0,0,0,.18-.13,2,2,0,0,0-.3-1.71Z"/><path d="M35.38,19.77h0a4.25,4.25,0,0,1-.11-2.08,2.21,2.21,0,0,1,.34,1.92.27.27,0,0,1-.22.17Zm-.11-2.07a4.84,4.84,0,0,0,.12,2,.25.25,0,0,0,.2-.15,2.22,2.22,0,0,0-.32-1.89Z"/><path d="M35.85,20.12c-.18,0-.31-.06-.34-.18a3.57,3.57,0,0,1,1.69-.6h0a3.87,3.87,0,0,0-1.67.59c.08.23.7.28,1.46-.37a1.76,1.76,0,0,1-1.14.55Z"/><path d="M35.8,19h0a4.33,4.33,0,0,1-.29-2.06A2.2,2.2,0,0,1,36,18.79a.27.27,0,0,1-.21.18Zm-.29-2a4.82,4.82,0,0,0,.3,2,.29.29,0,0,0,.19-.17,2.24,2.24,0,0,0-.49-1.86Z"/><path d="M36.23,17.38h0a4,4,0,0,1-.86-1.65,2,2,0,0,1,1,1.42.26.26,0,0,1-.13.23Zm-.87-1.64a4.45,4.45,0,0,0,.87,1.61.21.21,0,0,0,.1-.2,2,2,0,0,0-1-1.41Z"/><path d="M36.5,17.9a.22.22,0,0,1-.19-.09,3.6,3.6,0,0,1,1.42-1.17c-.35.83-.89,1.26-1.23,1.26Zm1.22-1.25a4.09,4.09,0,0,0-1.39,1.16.21.21,0,0,0,.17.07c.33,0,.87-.43,1.22-1.23Z"/><path d="M36.51,16.92a.21.21,0,0,1-.12,0,3.92,3.92,0,0,1,1-1.61c-.06,1-.53,1.64-.83,1.64Zm.82-1.63a4.46,4.46,0,0,0-.92,1.59l.1,0c.29,0,.75-.61.82-1.61Z"/><path d="M36.33,15.4h0a3.28,3.28,0,0,1-1.39-.89,1.67,1.67,0,0,1,1.39.64.23.23,0,0,1,0,.24Zm-1.39-.89a3.58,3.58,0,0,0,1.37.86.2.2,0,0,0,0-.21,1.69,1.69,0,0,0-1.36-.65Z"/><path d="M36.2,14.33h-.06a3.87,3.87,0,0,1,.51-1.8,2.07,2.07,0,0,1-.21,1.67.31.31,0,0,1-.24.14Zm.45-1.8a4.55,4.55,0,0,0-.5,1.78h.05a.32.32,0,0,0,.22-.13,2.2,2.2,0,0,0,.23-1.65Z"/><path d="M36.18,14.82h0a4.1,4.1,0,0,1-1.6-1.23,2.09,2.09,0,0,1,1.63.93.29.29,0,0,1,0,.3Zm-1.6-1.23a4.68,4.68,0,0,0,1.59,1.2.28.28,0,0,0,0-.27,2.11,2.11,0,0,0-1.6-.93Z"/><path d="M36.07,14.17h0a4.2,4.2,0,0,1-1.37-1.5,2.13,2.13,0,0,1,1.45,1.21.3.3,0,0,1-.07.29ZM34.7,12.68a4.66,4.66,0,0,0,1.36,1.46.23.23,0,0,0,0-.25,2.14,2.14,0,0,0-1.41-1.21Z"/><path d="M35.86,13.11h0a3.86,3.86,0,0,1-.11-1.86A2,2,0,0,1,36.07,13a.23.23,0,0,1-.2.15Zm-.11-1.86a4.54,4.54,0,0,0,.12,1.83.23.23,0,0,0,.18-.13,2,2,0,0,0-.3-1.7Z"/><path d="M35.41,12.4h0a3.42,3.42,0,0,1-.08-1.52,1.59,1.59,0,0,1,.26,1.4.19.19,0,0,1-.16.12Zm-.09-1.51a3.69,3.69,0,0,0,.1,1.49.19.19,0,0,0,.14-.11,1.59,1.59,0,0,0-.24-1.38Z"/><path d="M35.27,12.82h0a4.29,4.29,0,0,1-1.49-1.37,2.1,2.1,0,0,1,1.55,1.08.29.29,0,0,1,0,.29Zm-1.49-1.36a4.75,4.75,0,0,0,1.48,1.33.28.28,0,0,0,0-.26,2.1,2.1,0,0,0-1.51-1.07Z"/><path d="M35.05,12.07h0a3.1,3.1,0,0,1-.69-1.34,1.59,1.59,0,0,1,.81,1.15.22.22,0,0,1-.11.19Zm-.69-1.34a3.75,3.75,0,0,0,.7,1.31.19.19,0,0,0,.08-.17,1.61,1.61,0,0,0-.78-1.14Z"/><path d="M34.83,23.49a2.3,2.3,0,0,1-1.93-.73.33.33,0,0,1,0-.33,4.37,4.37,0,0,1,2,1l0,0Zm-1.95-1a.31.31,0,0,0,0,.3,2.36,2.36,0,0,0,1.91.71h0a4.79,4.79,0,0,0-2-1Z"/><path d="M36,19.44a.29.29,0,0,1-.25-.12,4.57,4.57,0,0,1,1.76-1.44c-.43,1-1.1,1.56-1.51,1.56Zm1.5-1.55a5.13,5.13,0,0,0-1.73,1.43.29.29,0,0,0,.23.09c.4,0,1.06-.53,1.5-1.52Z"/><path d="M36.43,15.43a.19.19,0,0,1-.12,0,2.75,2.75,0,0,1,.95-1.71c-.08,1.21-.53,1.75-.83,1.75Zm.82-1.74a2.92,2.92,0,0,0-.92,1.69l.1,0c.28,0,.73-.54.82-1.71Z"/><path class="cls-7" d="M32.09,22a2.88,2.88,0,0,0,1.74,1.35c.3.06.88-.27.11-.7-.25.25-1.24-.71-1.41-1.1l-.44.45Z"/><path d="M33.91,23.33h-.08A2.88,2.88,0,0,1,32.08,22l.44-.47c.2.41,1.19,1.32,1.41,1.1.38.21.43.38.4.48a.44.44,0,0,1-.42.25Zm-1.39-1.81L32.1,22a2.9,2.9,0,0,0,1.74,1.33h.07c.16,0,.36-.08.39-.22s0-.26-.37-.46c0,0,0,0-.1,0-.36,0-1.17-.82-1.31-1.14Z"/><path class="cls-8" d="M32.09,22c-1.43-1.85-2.3-3.65-5.5-5.46,2.83.94,3.76,2.38,5.95,5l-.45.42Z"/><path d="M32.09,22h0c-.26-.34-.5-.67-.74-1a13.26,13.26,0,0,0-4.76-4.45c2.55.83,3.53,2,5.32,4.23l.65.79L32.1,22Zm-5.51-5.47A13,13,0,0,1,31.36,21c.24.33.48.66.74,1l.43-.41-.65-.78c-1.78-2.19-2.77-3.39-5.3-4.24Z"/><path class="cls-9" d="M32.13,21.5h0l-.33-.42a15.25,15.25,0,0,0-3.92-3.9,14.06,14.06,0,0,1,4,3.87l.33.42a0,0,0,0,1,0,0Z"/><path class="cls-7" d="M34,23.23a2.05,2.05,0,0,1,.07-.91.58.58,0,0,0-.25-.57l-.65-.2a.75.75,0,0,0-.71.19c-.27.15-.32.14-.43.1-.37,0-.25.31-.09.35a.6.6,0,0,0,.58-.13,3.56,3.56,0,0,1,.64-.41c.4,0,.64.15.71.3a3.36,3.36,0,0,1-.15,1c-.08.15-.09.32,0,.34s.25.07.29.05,0-.14,0-.12Z"/><path d="M33.91,23.38a.49.49,0,0,1-.22-.07.47.47,0,0,1,0-.36,3,3,0,0,0,.16-1c-.08-.15-.33-.26-.7-.29a3.63,3.63,0,0,0-.63.41.73.73,0,0,1-.6.13.24.24,0,0,1-.16-.23s.05-.14.26-.14.17,0,.42-.1a.8.8,0,0,1,.73-.2l.64.21a.59.59,0,0,1,.27.58,2.08,2.08,0,0,0-.07.91.14.14,0,0,1,0,.13l-.09,0Zm-.73-1.74c.38,0,.64.14.72.3a3,3,0,0,1-.15,1,.52.52,0,0,0-.06.31c.17.1.25.09.29.07s0-.06,0-.09a2.3,2.3,0,0,1,.08-.94.54.54,0,0,0-.25-.54l-.64-.21a.73.73,0,0,0-.7.19c-.27.15-.33.15-.45.1s-.21,0-.22.12a.23.23,0,0,0,.14.21.69.69,0,0,0,.57-.13,3.19,3.19,0,0,1,.65-.41Z"/><path d="M32.79,22.67a.46.46,0,0,1,0-.44.39.39,0,0,0,.06-.22h0a.43.43,0,0,1,0,.24.5.5,0,0,0-.05.43Z"/><path d="M33,22.82a.37.37,0,0,1,0-.4.43.43,0,0,0,0-.21h0a.31.31,0,0,1-.05.22.45.45,0,0,0,0,.39Z"/><path d="M33.21,23a.36.36,0,0,1,0-.39.3.3,0,0,0,0-.2h0a.34.34,0,0,1,0,.22.41.41,0,0,0,0,.38Z"/><path d="M33.45,23.1a.33.33,0,0,1,0-.36.28.28,0,0,0,0-.18h0a.27.27,0,0,1,0,.2.4.4,0,0,0,0,.35Z"/><path d="M32.14,22.15a.45.45,0,0,1-.2,0,.6.6,0,0,0,.58-.13,2.45,2.45,0,0,1,.58-.34v0a2.6,2.6,0,0,0-.57.34c-.09.07-.13.1-.15.1a.57.57,0,0,1-.24,0Z"/><path class="cls-7" d="M33.74,21.84a.08.08,0,0,1-.09-.08.09.09,0,0,1,.09-.08.11.11,0,0,1,.09.1s0,.06-.09.06Z"/><path d="M33.74,21.86a.11.11,0,0,1-.11-.1c0-.1.22-.08.22,0s0,.08-.11.08Z"/><path class="cls-7" d="M33.55,21.77c-.06,0-.11,0-.11-.08s.05-.07.11-.07.11,0,.11.07,0,.08-.11.08Z"/><path d="M33.55,21.78c-.07,0-.12,0-.12-.09s.24-.09.24,0-.06.09-.12.09Z"/><path class="cls-7" d="M33.35,21.74a.09.09,0,1,1,0-.18.09.09,0,1,1,0,.18Z"/><path d="M33.35,21.75c-.07,0-.12,0-.12-.1s.23-.11.23,0a.1.1,0,0,1-.11.1Z"/><path d="M34.2,23.26a.28.28,0,0,1,0-.29.18.18,0,0,0,0-.22l0,0a.2.2,0,0,1,0,.24.32.32,0,0,0,0,.29Z"/><path class="cls-10" d="M27.9,13.25l5.55,5.47c.07.19-.14.24-.13.29a1.54,1.54,0,0,1,.14.58.67.67,0,0,0,.54.31c.28-.06.34.33.42.34s0,.3.12.42c0,0,.8.82,1,1a8.59,8.59,0,0,0,.66.73c-.09.23-1.09.88-1.08.91-.74-.88-1.7-2.67-1.79-2.68-.54-.61-1-1.44-.95-1.67-.07-.42-.53-.79-.67-.77a.62.62,0,0,0,0-.49l-2.95-2.91c0-.2.15-.17.19-.18s-1.11-1.23-1.13-1.23a.13.13,0,0,1,.15-.16Z"/><path d="M35.11,23.41l0-.06a18.41,18.41,0,0,1-1.32-2,6.11,6.11,0,0,0-.46-.69c-.54-.61-1.06-1.45-1-1.7a1.08,1.08,0,0,0-.64-.74.83.83,0,0,0-.06-.48l-3-2.93c0-.2.13-.21.19-.21-.42-.44-1.08-1.16-1.12-1.19a.15.15,0,0,1,0-.15.14.14,0,0,1,.11-.06l5.58,5.49a.21.21,0,0,1-.09.27,1.89,1.89,0,0,1,.09.5.77.77,0,0,0,0,.1.64.64,0,0,0,.51.3h.08c.16,0,.24.16.3.26s0,.09.06.09a.28.28,0,0,1,.07.23.19.19,0,0,0,.06.2l.35.37c.24.24.53.55.63.67s.41.47.65.73a3.11,3.11,0,0,1-.9.79c-.08.07-.17.12-.18.14v.06Zm-1.8-2.76a3.63,3.63,0,0,1,.47.7,18.06,18.06,0,0,0,1.31,2l.17-.13a3.8,3.8,0,0,0,.89-.76,4.94,4.94,0,0,1-.65-.71c-.09-.12-.39-.42-.63-.67s-.36-.36-.35-.38a.19.19,0,0,1-.07-.21.2.2,0,0,0-.05-.19s0-.05-.08-.11-.12-.24-.26-.24H34a.7.7,0,0,1-.54-.32.71.71,0,0,1,0-.12A1,1,0,0,0,33.3,19h0l.06-.06c0-.05.13-.1.08-.22l-5.55-5.47a.12.12,0,0,0-.11.15h0s.13.11,1.13,1.22c-.1,0-.19,0-.19.19l2.95,2.9a.78.78,0,0,1,0,.51c.16,0,.6.35.67.75-.09.22.36,1,.94,1.67Z"/><path class="cls-11" d="M33.61,20.76a3.52,3.52,0,0,0,.6-.31l1.66,1.92-.73.63-1.53-2.24Z"/><path class="cls-8" d="M26.49,12.56c.11.11.14,0,.18,0l.07-.1c.06-.14.16-.18.21-.16l6.5,6.42c.07.19-.14.27-.13.32l-4.44-4.4s-1.52-1.61-2-2.06l-.25.25q-.11.12-.24,0l-2.21-2.5,2.23,2.19,0,0Z"/><path d="M33.3,19.05l-4.43-4.4s-1.52-1.61-2-2.06l-.23.25q-.11.13-.27,0L24.2,10.35l2.26,2.16c.08.07.1.09.13.09l.08,0h0l.08-.1a.22.22,0,0,1,.2-.17l6.53,6.43a.23.23,0,0,1-.08.28V19Zm-6.39-6.48c.47.45,2,2.06,2,2.06L33.31,19l0,0a.2.2,0,0,0,.08-.24l-6.49-6.42a.22.22,0,0,0-.18.15l-.08.11a.12.12,0,0,1-.09.06.19.19,0,0,1-.11-.05L24.2,10.35l2.24,2.46c.08.08.15.08.21,0l.26-.25Z"/><path d="M33.18,20.76a.33.33,0,0,1-.27-.12.43.43,0,0,1,0-.44l0,0a.38.38,0,0,0,0,.39.4.4,0,0,0,.42.11.39.39,0,0,1-.18,0Z"/><path class="cls-1" d="M33.13,20.47a.15.15,0,0,1-.11.18Z"/><path d="M35.35,21.73,34,20.18a2.21,2.21,0,0,1-.87-.81l-.09-.1a5.1,5.1,0,0,0-1-1l0,0a4.92,4.92,0,0,1,1,1l.09.1a2.15,2.15,0,0,0,.86.8l1.36,1.58Z"/><path class="cls-8" d="M33.47,18.75c-.11.12-.81.41-.9.93.35.55.76,1,.8,1.06a5.2,5.2,0,0,0,1-.58.46.46,0,0,0-.15-.19.17.17,0,0,0-.23-.06.59.59,0,0,1-.39-.63.87.87,0,0,0,0-.24.82.82,0,0,0-.17-.29Z"/><path d="M33.36,20.77v0a1.06,1.06,0,0,0-.16-.2,9.6,9.6,0,0,1-.64-.86c.07-.41.49-.67.73-.83a.84.84,0,0,0,.18-.13.58.58,0,0,1,.19.31s0,0,0,.24a.57.57,0,0,0,.38.61.17.17,0,0,1,.24.07h0a.54.54,0,0,1,.15.2,5.11,5.11,0,0,1-1,.6Zm.1-2s-.07.08-.16.13-.64.41-.71.79a7.56,7.56,0,0,0,.63.84l.16.2a6,6,0,0,0,1-.57.59.59,0,0,0-.15-.16.18.18,0,0,0-.21-.06.6.6,0,0,1-.41-.66c0-.17,0-.2,0-.2a.78.78,0,0,0-.16-.31Z"/><path class="cls-8" d="M33.3,19.24a.58.58,0,0,0,.14.66l-.14-.66Z"/><path d="M33.45,19.89a.53.53,0,0,1-.17-.66l0,0a.57.57,0,0,0,.13.64Z"/><path d="M33.37,20.35a.12.12,0,0,1-.12-.12c0-.14.25-.13.25,0a.12.12,0,0,1-.13.12Zm0-.22a.1.1,0,0,0-.09.1c0,.11.19.11.19,0a.11.11,0,0,0-.1-.1Z"/><path d="M33,19.9a.12.12,0,0,1-.11-.12c0-.14.24-.14.24,0a.12.12,0,0,1-.13.12Zm0-.22a.09.09,0,0,0-.09.1c0,.11.19.1.19,0a.09.09,0,0,0-.1-.1Z"/><path class="cls-10" d="M32.25,13.16l-5.56,5.48c-.07.19.14.24.14.29a1.59,1.59,0,0,0-.15.58.61.61,0,0,1-.54.3c-.28-.06-.38.36-.46.37s0,.34-.12.45c0,0-.87.9-1,1a8.33,8.33,0,0,1-.62.72c.09.23,1.09.88,1.08.9.74-.88,1.7-2.66,1.8-2.67.53-.61,1-1.44.94-1.68.08-.41.53-.78.67-.76a.67.67,0,0,1,0-.49l4-4c0-.2-.07-.15-.21-.16s.11-.17.13-.17-.09-.19-.14-.17Z"/><path d="M25,23.32v-.06l-.17-.13a3.75,3.75,0,0,1-.91-.78,8.92,8.92,0,0,0,.63-.73c.14-.14.94-.95,1-1a.27.27,0,0,0,.07-.23.33.33,0,0,1,.05-.22s.06-.06.08-.11.17-.27.34-.27h.07a.64.64,0,0,0,.51-.29s0-.06,0-.11a1,1,0,0,1,.13-.47c-.1-.07-.19-.14-.14-.29l5.56-5.48a.14.14,0,0,1,.14,0,.15.15,0,0,1,0,.14l-.13.17h0c.11-.18.13-.18.14-.18a.26.26,0,0,0,0-.09.09.09,0,0,0-.07,0L26.7,18.65a.19.19,0,0,0,.09.21l.06.07a1,1,0,0,0-.13.47.37.37,0,0,1,0,.12.68.68,0,0,1-.54.31h-.07c-.15,0-.24.15-.31.25s-.06.11-.09.12a.27.27,0,0,0,0,.19.31.31,0,0,1-.08.26s-.92,1-1,1a8.42,8.42,0,0,1-.62.72,4.71,4.71,0,0,0,.89.74l.17.12a19.28,19.28,0,0,0,1.3-1.94c.34-.54.45-.72.5-.72.5-.59,1-1.42.93-1.65a1.1,1.1,0,0,1,.67-.79.66.66,0,0,1,0-.46l4-4c0-.12,0-.12-.08-.12h-.08l.08,0c.09,0,.12,0,.12.18l-4,4a.67.67,0,0,0,0,.47,1.15,1.15,0,0,0-.67.78c.1.23-.42,1.08-.95,1.68a4.46,4.46,0,0,0-.47.71,20.3,20.3,0,0,1-1.32,2l-.05.06Z"/><path class="cls-11" d="M26.53,20.68a3.51,3.51,0,0,1-.6-.34l-1.66,1.94.73.64,1.53-2.24Z"/><path class="cls-8" d="M33.65,12.48c-.11.1-.14,0-.17,0l-.08-.11c-.06-.13-.16-.17-.21-.16l-6.5,6.43c-.07.19.14.26.13.31l4.44-4.39s1.53-1.63,2-2.06l.26.24c.06.09.14.09.23,0l2.21-2.49-2.23,2.19,0,0Z"/><path d="M26.8,19V19l0,0a.24.24,0,0,1-.1-.28l6.5-6.43a.23.23,0,0,1,.24.16l.15.15s0,0,.08,0l2.27-2.22-2.18,2.52c-.11.09-.2.09-.27,0l-.25-.24-1.94,2.06L26.8,19Zm6.41-6.77L26.7,18.65c0,.11,0,.18.09.23l0,0,4.41-4.38s1.53-1.62,2-2.06l.28.25c.06.08.13.07.21,0l2.21-2.49-2.2,2.21c-.09.08-.12.1-.15.1h0l-.07,0-.1-.13a.22.22,0,0,0-.17-.15Z"/><path d="M26.91,20.69h-.14a.51.51,0,0,0,.43-.15.36.36,0,0,0,0-.4h0a.41.41,0,0,1,0,.43.39.39,0,0,1-.32.14Z"/><path class="cls-1" d="M27,20.38a.15.15,0,0,0,.12.18Z"/><path d="M24.82,21.68l1.32-1.6a2.38,2.38,0,0,0,.87-.81l.11-.13a5.29,5.29,0,0,1,1-1l0,0a5.52,5.52,0,0,0-1,.95l-.11.13a2.17,2.17,0,0,1-.89.82l-1.33,1.57Z"/><path class="cls-8" d="M26.67,18.66c.11.13.81.41.9.93a11,11,0,0,1-.8,1.07,6.68,6.68,0,0,1-1-.58.4.4,0,0,1,.15-.19.18.18,0,0,1,.23-.07.57.57,0,0,0,.39-.63c-.07-.26,0-.2,0-.23a.79.79,0,0,1,.16-.3Z"/><path d="M26.78,20.68h0a5.21,5.21,0,0,1-1-.58c0-.12.15-.21.15-.22a.18.18,0,0,1,.25-.06.58.58,0,0,0,.36-.61c-.06-.21,0-.22,0-.24a.71.71,0,0,1,.17-.31l.2.12c.25.16.66.42.73.82a6.71,6.71,0,0,1-.65.88,1,1,0,0,0-.15.2Zm-.72-.86a.14.14,0,0,0-.12.08s-.13.1-.15.18a7.9,7.9,0,0,0,1,.55,1.15,1.15,0,0,1,.15-.19,6.44,6.44,0,0,0,.63-.86c-.06-.36-.47-.62-.71-.77l-.18-.13a1.36,1.36,0,0,0-.14.28.57.57,0,0,0,0,.23.6.6,0,0,1-.4.65l-.1,0Z"/><path class="cls-8" d="M26.84,19.16a.6.6,0,0,1-.13.66l.13-.66Z"/><path d="M26.72,19.83a.66.66,0,0,0,.1-.67h0a.6.6,0,0,1-.14.68Z"/><path d="M26.77,20.27a.12.12,0,0,1-.12-.12c0-.14.24-.15.24,0a.12.12,0,0,1-.12.12Zm0-.22a.1.1,0,0,0-.1.1c0,.1.19.11.19,0a.09.09,0,0,0-.09-.1Z"/><path d="M27.1,19.82a.13.13,0,0,1-.13-.13c0-.13.25-.14.25,0a.13.13,0,0,1-.12.13Zm0-.23a.1.1,0,0,0-.1.1c0,.11.19.12.19,0a.1.1,0,0,0-.09-.1Z"/><path class="cls-8" d="M31.59,13.71a.21.21,0,0,1,.22-.19l.41.45a.23.23,0,0,1,0,.15.13.13,0,0,1-.15,0l-.43-.45Z"/><path d="M32.07,14.19l-.06,0-.43-.45a.21.21,0,0,1,.23-.21l.43.44a.27.27,0,0,1-.05.18.15.15,0,0,1-.12.06Zm-.27-.65a.19.19,0,0,0-.19.17l.46.44s.06,0,.09-.05a.19.19,0,0,0,0-.13l-.4-.43Z"/><path class="cls-12" d="M29.48,10.69a1,1,0,0,1,.25-.25c0-.54.25-.47.25-.47.34-.06.64,0,.63.46a.46.46,0,0,0,.16.56,4.83,4.83,0,0,1,1.71,1.52c-1.08.31-2.15.38-2.76-.81a1.43,1.43,0,0,1,.14-.9.62.62,0,0,0,0-.12,1.31,1.31,0,0,1-.39,0Z"/><path d="M31.33,12.72a1.71,1.71,0,0,1-1.62-1,1.36,1.36,0,0,1,.14-.9.62.62,0,0,0,0-.12c-.05.06-.38,0-.38,0a.7.7,0,0,1,.25-.28c0-.43.16-.48.22-.48.31,0,.46,0,.56.09a.49.49,0,0,1,.11.39.45.45,0,0,0,.16.55,5.12,5.12,0,0,1,1.66,1.45s0,.06.05.07a3.81,3.81,0,0,1-1.16.22Zm-1.46-2.05s0,.1,0,.13a1.45,1.45,0,0,0-.13.89,1.66,1.66,0,0,0,1.59,1,4.27,4.27,0,0,0,1.15-.19s0,0-.07-.06A5,5,0,0,0,30.76,11a.49.49,0,0,1-.17-.57.45.45,0,0,0-.1-.37A.58.58,0,0,0,30,10c-.1,0-.22,0-.23.46a1.2,1.2,0,0,0-.26.25h.18l.2,0Z"/><path class="cls-7" d="M28.39,21.73a2.83,2.83,0,0,1-1.74,1.35c-.51.25-1-.35-.1-.76.24.24,1.23-.66,1.4-1l.44.45Z"/><path d="M26.41,23.15a.34.34,0,0,1-.35-.24c0-.21.13-.44.48-.6a.25.25,0,0,0,.12,0c.34,0,1.13-.74,1.28-1.08l.46.45a2.86,2.86,0,0,1-1.75,1.37.53.53,0,0,1-.24.06Zm.13-.82c-.33.16-.5.37-.46.57a.38.38,0,0,0,.56.17,2.93,2.93,0,0,0,1.74-1.34L28,21.29c-.16.39-1.17,1.28-1.41,1Z"/><path class="cls-8" d="M28.39,21.73c1.43-1.85,2.31-3.65,5.51-5.46-2.83.94-3.76,2.38-6,5l.45.42Z"/><path d="M28.39,21.75h0l-.45-.42.65-.81c1.79-2.2,2.77-3.41,5.31-4.26a13.7,13.7,0,0,0-4.75,4.48c-.24.34-.48.67-.74,1Zm5.5-5.49c-2.52.87-3.5,2.07-5.29,4.26l-.65.8.44.39c.26-.33.5-.66.73-1a13.32,13.32,0,0,1,4.77-4.46Z"/><path class="cls-9" d="M28.35,21.27h0a0,0,0,0,1,0,0l.35-.43a14.76,14.76,0,0,1,3.91-3.9,16.08,16.08,0,0,0-3.87,3.93l-.35.43Z"/><path class="cls-7" d="M26.46,23a2.08,2.08,0,0,0-.07-.92.57.57,0,0,1,.25-.56l.65-.21a.79.79,0,0,1,.71.19c.27.16.32.15.44.11.37,0,.24.31.09.35a.64.64,0,0,1-.59-.13,3.56,3.56,0,0,0-.64-.41c-.4,0-.63.15-.71.29a3.41,3.41,0,0,0,.16,1c.07.14.09.32,0,.33s-.26.08-.3.06,0-.14,0-.12Z"/><path d="M26.57,23.15l-.08,0a.11.11,0,0,1,0-.12,2.08,2.08,0,0,0-.07-.92.57.57,0,0,1,.26-.58l.65-.21a.78.78,0,0,1,.72.19c.25.15.3.15.42.11s.25.09.26.14a.25.25,0,0,1-.16.23.71.71,0,0,1-.59-.13,3.19,3.19,0,0,0-.65-.41.88.88,0,0,0-.69.29,3.33,3.33,0,0,0,.16,1,.56.56,0,0,1,.06.33.45.45,0,0,1-.25.1Zm.9-1.85a.57.57,0,0,0-.18,0l-.64.2a.56.56,0,0,0-.25.55,2.11,2.11,0,0,1,.07.92c0,.05,0,.08,0,.11s.13,0,.28-.06,0-.19,0-.32a3.12,3.12,0,0,1-.16-1c.08-.16.34-.28.72-.31a4.07,4.07,0,0,1,.65.42.7.7,0,0,0,.57.12.19.19,0,0,0,.14-.2c0-.08-.09-.12-.22-.12s-.18.05-.44-.11a.92.92,0,0,0-.53-.21Z"/><path d="M27.72,22.45a.7.7,0,0,0-.07-.44.43.43,0,0,1-.06-.24h0a.32.32,0,0,0,.05.22.53.53,0,0,1,0,.45Z"/><path d="M27.51,22.6a.47.47,0,0,0-.07-.4.37.37,0,0,1-.05-.22h0a.29.29,0,0,0,0,.21.47.47,0,0,1,0,.41Z"/><path d="M27.3,22.73a.53.53,0,0,0-.06-.39.44.44,0,0,1,0-.22h0a.3.3,0,0,0,0,.2.45.45,0,0,1,0,.4Z"/><path d="M27.06,22.88a.45.45,0,0,0-.06-.36.27.27,0,0,1,0-.2h0a.29.29,0,0,0,.05.18.44.44,0,0,1,0,.37Z"/><path d="M28.33,21.92a.8.8,0,0,1-.23-.05L28,21.78a2.3,2.3,0,0,0-.58-.35v0a2.54,2.54,0,0,1,.58.36l.14.09a.6.6,0,0,0,.42,0,.34.34,0,0,1-.2.06Z"/><path class="cls-7" d="M26.74,21.61a.1.1,0,0,0,.1-.08.09.09,0,0,0-.1-.08.1.1,0,0,0-.09.1c0,.05,0,.06.09.06Z"/><path d="M26.74,21.62c-.09,0-.1,0-.1-.07s.21-.12.21,0a.1.1,0,0,1-.11.09Z"/><path class="cls-7" d="M26.94,21.53c.06,0,.1,0,.1-.07s0-.07-.1-.07-.11,0-.11.07.05.07.11.07Z"/><path d="M26.94,21.55c-.07,0-.13,0-.13-.09s.25-.1.25,0-.06.09-.12.09Z"/><path class="cls-7" d="M27.14,21.51a.09.09,0,1,0,0-.18.09.09,0,1,0,0,.18Z"/><path d="M27.14,21.52a.11.11,0,0,1-.12-.1c0-.11.23-.12.23,0a.1.1,0,0,1-.11.1Z"/><path d="M26.31,23a.45.45,0,0,0,0-.3.2.2,0,0,1,0-.24h0a.21.21,0,0,0,0,.22.35.35,0,0,1,0,.31Z"/><path class="cls-13" d="M32.06,12.22c1.81,2.34,2.47,5.2-3.35,13,2.94-4.22,5.95-9.12,3.13-12.87l.22-.16Z"/><path d="M28.71,25.25h0c3-4.27,5.93-9.14,3.13-12.86l.23-.17c1.64,2.12,2.73,4.87-3.35,13Zm3.35-13-.22.16c2.73,3.62,0,8.33-2.88,12.51,5.79-7.89,4.71-10.59,3.1-12.67Z"/><path class="cls-13" d="M32.08,12.54c1.35,1.54,2,3.84.07,5.71a4.37,4.37,0,0,0-.27-5.63l.2-.08Z"/><path d="M32.15,18.26h0a4.35,4.35,0,0,0-.28-5.62l.2-.1c1.35,1.52,2.07,3.82.09,5.73Zm-.08-5.72-.19.09c1.85,2.44,1.18,4.1.3,5.58,1.94-1.89,1.22-4.17-.11-5.67Z"/><path class="cls-13" d="M32.13,12.4c1.7,1.93,2.95,4.73.51,7.07,1.35-2.27,1.82-3.54-.76-7l.25-.11Z"/><path d="M32.64,19.48h0C34,17.22,34.5,16,31.88,12.52l.25-.12c1.09,1.23,3.32,4.38.52,7.08Zm-.51-7.07-.24.11c2.6,3.44,2.1,4.68.78,6.92,2.74-2.68.54-5.81-.54-7Z"/><path class="cls-13" d="M32.25,12.05c2.15,2.21,3.32,5.86-1.35,12.56,1.8-3.53,4.54-8.85,1.13-12.44l.22-.12Z"/><path d="M30.9,24.61h0l0-.05C32.71,21,35.41,15.75,32,12.18l.23-.14c2.91,3,2.47,7.11-1.34,12.57Zm1.35-12.56-.22.13c3.39,3.55.71,8.84-1.08,12.35,3.76-5.42,4.18-9.5,1.3-12.48Z"/><path class="cls-5" d="M32.25,12.4c1.7,1.93,3,4.73.51,7.07,1.36-2.27,1.83-3.54-.75-7l.24-.11Z"/><path d="M32.76,19.48h0A7.25,7.25,0,0,0,33.83,17a6.88,6.88,0,0,1-1,2.41c2.75-2.68.54-5.81-.54-7l-.24.11A11,11,0,0,1,33.53,15,11.15,11.15,0,0,0,32,12.52l.25-.12c1.1,1.23,3.32,4.38.52,7.08Z"/><path class="cls-5" d="M32.17,12.54A4.46,4.46,0,0,1,32,18.71c1.08-1.82,2-3.35,0-6.09l.19-.08Z"/><path d="M32,18.72h0l.05-.08c1.05-1.77,2-3.31-.07-6l.2-.1A4.47,4.47,0,0,1,32,18.72Zm.17-6.18-.19.09c2,2.69,1.13,4.23.07,6l0,0a4.46,4.46,0,0,0,.14-6.13Z"/><path class="cls-5" d="M32.3,12C34.45,14.2,35.65,17.81,31,24.5c1.91-3.74,4.89-8.46,1.13-12.43L32.3,12Z"/><path d="M31,24.51h0c.15-.31.32-.62.48-.94,1.83-3.49,4.1-7.85.64-11.49l.2-.09c2.91,3,2.48,7.09-1.31,12.52ZM32.3,12l-.19.08c3.47,3.64,1.19,8-.64,11.5l-.44.85C34.77,19,35.18,15,32.3,12Z"/><path class="cls-5" d="M32.36,12.12c1.81,2.34,2.75,5.27-3.36,13,2.91-4.16,6.07-9,3.13-12.87l.23-.16Z"/><path d="M29,25.15h0c2.6-3.72,6.17-8.82,3.13-12.86l.22-.16c1.75,2.24,2.91,5.08-3.34,13Zm3.35-13-.21.15c3,4-.41,9-3,12.68,6.09-7.8,4.93-10.62,3.21-12.83Z"/><path class="cls-13" d="M29.74,10.45c0-.54.25-.47.25-.47.34-.05.64,0,.62.46a.48.48,0,0,0,.16.56c1.47.95,1.46,1.33,1.56,1.42a4.66,4.66,0,0,1-.71.25h-.26c-.06,0-.12,0-.18,0,.4,0-.92-1.59-1.42-1.64l.1-.29s0-.08,0-.08l-.14-.25Z"/><path class="cls-5" d="M32.12,12.8c-.29-.42-.86-1.32-.86-1.32l0-.05c.84.71.94.68.86,1.33l0,0Z"/><path d="M32.12,12.81h0c-.3-.43-.86-1.32-.86-1.32l.06,0c.13.25.56.92.8,1.27l0,0c.06-.56,0-.6-.55-1.06l-.06,0,.07,0c.55.45.62.51.55,1.08l0,0h0Z"/><path class="cls-5" d="M30.94,11.11a3.25,3.25,0,0,1,1.73,1.26c-1.52-.65-1.31-.67-1.79-1.17l.06-.09Z"/><path d="M32.67,12.37h0c-1.23-.52-1.32-.63-1.57-.93l-.22-.24.06-.09a3.2,3.2,0,0,1,1.74,1.25Zm-1.73-1.25-.06.08.22.24c.25.28.34.39,1.55.91a3.23,3.23,0,0,0-1.71-1.23Z"/><path class="cls-5" d="M31.84,12.81a3.75,3.75,0,0,1-.65-1.42l0-.05c.62.75.82,1,.62,1.47Z"/><path d="M31.84,12.82h0a3.88,3.88,0,0,1-.65-1.43l0,0a3.35,3.35,0,0,0,.62,1.36.71.71,0,0,0-.06-.71.67.67,0,0,1,.06.73Z"/><path class="cls-5" d="M31.57,12.85a3.13,3.13,0,0,1-.43-1.21l0,0c.28.41.6.85.4,1.25Z"/><path d="M31.57,12.85h0a3.08,3.08,0,0,1-.43-1.21l0,0a2.61,2.61,0,0,0,.39,1.14.78.78,0,0,0-.08-.72.74.74,0,0,1,.09.74Z"/><path class="cls-5" d="M31.31,12.81A2.7,2.7,0,0,1,31,11.75l0,0c.29.5.42.81.25,1.09Z"/><path d="M31.31,12.82h0A2.81,2.81,0,0,1,31,11.75l0,0a2.29,2.29,0,0,0,.25,1,.64.64,0,0,0,0-.6.63.63,0,0,1,0,.62Z"/><path class="cls-5" d="M31.1,12.76a2.56,2.56,0,0,1-.17-1l0,0c.22.47.28.76.14,1Z"/><path d="M31.1,12.77h0a2.39,2.39,0,0,1-.18-1l0,0a2.3,2.3,0,0,0,.16.93.74.74,0,0,0,0-.59.66.66,0,0,1,0,.6Z"/><path class="cls-5" d="M30.89,12.73a2.23,2.23,0,0,1-.08-.89l0,0a.77.77,0,0,1,.06.91Z"/><path d="M30.89,12.73h0a2.23,2.23,0,0,1-.08-.89h0a2,2,0,0,0,.07.87.71.71,0,0,0,.07-.66.68.68,0,0,1-.07.67Z"/><path class="cls-5" d="M31.79,12a2.38,2.38,0,0,1-.69-.66v0c.5.26.72.47.68.69Z"/><path d="M31.79,12h0a2.63,2.63,0,0,1-.7-.66l0,0a2.11,2.11,0,0,0,.66.63c0-.14-.06-.27-.27-.43.22.15.31.29.28.44Z"/><path class="cls-5" d="M31.56,12a1.64,1.64,0,0,1-.52-.71l0,0c.42.32.6.53.5.74Z"/><path d="M31.56,12h0a1.68,1.68,0,0,1-.52-.72l0,0a1.56,1.56,0,0,0,.49.68c.06-.13,0-.26-.17-.45.19.16.25.31.18.46Z"/><path class="cls-5" d="M31.34,12a1.23,1.23,0,0,1-.34-.6l0,0c.31.28.43.46.32.62Z"/><path d="M31.34,12h0A1.21,1.21,0,0,1,31,11.4l0,0a1.1,1.1,0,0,0,.32.58c.07-.11,0-.23-.1-.39.14.14.19.27.11.4Z"/><path class="cls-5" d="M31.14,12a1,1,0,0,1-.22-.53v0c.23.25.32.41.21.55Z"/><path d="M31.14,12h0a1,1,0,0,1-.23-.53l0,0a.93.93,0,0,0,.21.5c.07-.09.06-.19-.06-.35.12.14.15.26.07.36Z"/><path class="cls-5" d="M31,12a.79.79,0,0,1-.14-.48l0,0c.18.24.23.38.12.5Z"/><path d="M31,12h0a.83.83,0,0,1-.14-.49h0A.78.78,0,0,0,31,12c.07-.09.07-.18,0-.32.09.13.1.23,0,.33Z"/><path class="cls-5" d="M30.79,12a.67.67,0,0,1-.06-.45h0c.13.22.16.36,0,.46Z"/><path d="M30.79,12h0a.73.73,0,0,1-.06-.45l0,0a.59.59,0,0,0,.05.42c.08-.07.09-.16,0-.29.07.12.07.22,0,.3Z"/><path class="cls-5" d="M31.39,11.76a2.19,2.19,0,0,1-.7-.65v0c.5.27.73.46.69.68Z"/><path d="M31.39,11.76h0a2.3,2.3,0,0,1-.71-.64h0a1.86,1.86,0,0,0,.67.62c0-.14-.07-.27-.3-.43.22.14.34.28.31.44h0Z"/><path class="cls-5" d="M31.15,11.78a1.64,1.64,0,0,1-.52-.71l0,0c.42.32.6.52.5.74Z"/><path d="M31.15,11.78h0a1.67,1.67,0,0,1-.52-.71l0,0a1.62,1.62,0,0,0,.49.68c.07-.14,0-.29-.17-.45.18.16.25.31.18.46Z"/><path class="cls-5" d="M30.92,11.8a1.15,1.15,0,0,1-.33-.61h0c.31.27.42.45.31.62Z"/><path d="M30.92,11.8h0a1.18,1.18,0,0,1-.34-.6h0a1.07,1.07,0,0,0,.31.58c.06-.11,0-.22-.07-.37.13.15.15.27.08.38Z"/><path class="cls-5" d="M30.74,11.79a1,1,0,0,1-.24-.54l0,0c.24.25.33.42.22.56Z"/><path d="M30.74,11.79h0a1.08,1.08,0,0,1-.23-.54l0,0a1,1,0,0,0,.22.51c.07-.1,0-.21,0-.34.11.13.13.25,0,.35Z"/><path class="cls-5" d="M30.56,11.75a.81.81,0,0,1-.14-.49h0c.18.24.23.38.12.5Z"/><path d="M30.56,11.76h0a.89.89,0,0,1-.14-.5l0,0a.76.76,0,0,0,.13.46c.07-.08.07-.18,0-.33.1.14.11.25,0,.35Z"/><path class="cls-5" d="M30.39,11.74a.69.69,0,0,1-.07-.45h0c.13.22.16.35.05.46Z"/><path d="M30.39,11.74h0a.66.66,0,0,1-.06-.45v0a.67.67,0,0,0,.06.42.25.25,0,0,0,0-.29.23.23,0,0,1,0,.3Z"/><path class="cls-5" d="M31.3,11.46a2.08,2.08,0,0,1-.7-.65v0c.5.27.73.46.69.68Z"/><path d="M31.3,11.47h0a2.08,2.08,0,0,1-.7-.66l0,0a2,2,0,0,0,.66.62c0-.13-.05-.25-.25-.4.21.14.29.27.26.41Z"/><path class="cls-5" d="M31.05,11.48a2,2,0,0,1-.52-.72l0,0c.43.31.61.52.51.74Z"/><path d="M31.06,11.48h0a1.9,1.9,0,0,1-.52-.71l0,0a1.78,1.78,0,0,0,.49.68c.07-.14,0-.28-.16-.44.18.16.24.3.17.45Z"/><path class="cls-5" d="M30.85,11.48a1.37,1.37,0,0,1-.35-.59l0,0c.31.27.44.44.33.61Z"/><path d="M30.85,11.49h0a1.34,1.34,0,0,1-.36-.6l0,0a1.17,1.17,0,0,0,.34.57h0Zm0,0c.06-.12,0-.23-.11-.37.14.14.18.25.11.37Z"/><path class="cls-5" d="M30.64,11.47a1,1,0,0,1-.23-.53h0c.23.25.32.4.21.54Z"/><path d="M30.64,11.48h0a1,1,0,0,1-.23-.54l0,0a.83.83,0,0,0,.21.5c.07-.09.05-.19-.06-.35.11.14.15.26.06.37Z"/><path class="cls-5" d="M30.46,11.45a.87.87,0,0,1-.13-.49l0,0c.17.24.23.39.11.51Z"/><path d="M30.46,11.45h0a.81.81,0,0,1-.14-.49l0,0a.83.83,0,0,0,.12.46c.07-.08.08-.17,0-.31.09.12.1.23,0,.32Z"/><path class="cls-5" d="M30.29,11.44a.69.69,0,0,1-.06-.46h0c.13.23.15.37,0,.47Z"/><path d="M30.29,11.45h0a.76.76,0,0,1-.06-.46l0,0a.62.62,0,0,0,.05.43.23.23,0,0,0,0-.27.21.21,0,0,1,0,.28Z"/><path class="cls-5" d="M30.24,11.64a.74.74,0,0,1-.06-.45h0c.14.24.17.35,0,.45Z"/><path d="M30.24,11.65h0a.71.71,0,0,1-.07-.46l0,0a.59.59,0,0,0,0,.42c.09-.07.1-.14,0-.27.07.13.06.21,0,.29Z"/><path class="cls-5" d="M30.16,11.33a.74.74,0,0,1-.06-.45h0c.13.22.17.35.05.45Z"/><path d="M30.16,11.33h0a.73.73,0,0,1-.06-.45h0a.69.69,0,0,0,.06.43Zm0,0c.07-.08.07-.16,0-.29.07.13.06.22,0,.29Z"/><path class="cls-5" d="M30.12,11.58a.69.69,0,0,1-.07-.45h0c.12.22.16.36,0,.46Z"/><path d="M30.12,11.59h0a.72.72,0,0,1-.07-.46v0a.66.66,0,0,0,.06.42c.08-.07.08-.16,0-.28.06.12.06.22,0,.29Z"/><path class="cls-5" d="M30,11.49a.66.66,0,0,1-.07-.44h0c.13.22.17.36.05.46Z"/><path d="M30,11.5h0a.66.66,0,0,1-.06-.45v0a.67.67,0,0,0,.06.42c.08-.07.08-.16,0-.28.06.12.06.22,0,.29Z"/><path class="cls-5" d="M29.8,11.43a.72.72,0,0,1,.05-.45h0c.07.25.07.39-.07.45Z"/><path d="M29.8,11.44h0a.61.61,0,0,1,.05-.45v0a.63.63,0,0,0,0,.42c.09,0,.12-.12.1-.27,0,.14,0,.24-.11.29Z"/><path class="cls-5" d="M29.89,11.46a.72.72,0,0,1,.05-.45h0c.07.25.06.39-.08.45Z"/><path d="M29.89,11.47h0a.67.67,0,0,1,.05-.45v0a.62.62,0,0,0-.05.42c.09,0,.12-.12.1-.27,0,.14,0,.24-.1.29Z"/><path class="cls-5" d="M29.73,11.38a.72.72,0,0,1,.05-.45h0c.07.25.07.38-.07.45Z"/><path d="M29.73,11.38h0a.74.74,0,0,1,.05-.45v0a.67.67,0,0,0-.05.42c.1,0,.13-.13.1-.27a.21.21,0,0,1-.1.28Z"/><path class="cls-5" d="M30.16,11.33a.74.74,0,0,1-.06-.45h0c.13.22.17.35.05.45Z"/><path d="M30.16,11.33h0a.73.73,0,0,1-.06-.45h0a.69.69,0,0,0,.06.43Zm0,0c.07-.08.07-.16,0-.29.07.13.06.22,0,.29Z"/><path class="cls-5" d="M30.07,11.24a.69.69,0,0,1-.07-.45h0c.13.23.18.35.06.45Z"/><path d="M30.07,11.25h0a.76.76,0,0,1-.06-.46v0a.7.7,0,0,0,.06.43Zm0,0a.22.22,0,0,0,0-.29c.07.12.07.21,0,.29Z"/><path class="cls-5" d="M29.84,11.18a.72.72,0,0,1,.05-.45h0c.06.25.07.39-.07.46Z"/><path d="M29.84,11.18h0a.72.72,0,0,1,.06-.45v0a.62.62,0,0,0,0,.42Z"/><path class="cls-5" d="M29.93,11.21a.78.78,0,0,1,.06-.45h0c.07.25.08.38-.06.44Z"/><path d="M29.93,11.21h0a.74.74,0,0,1,.05-.45v0a.64.64,0,0,0,0,.43h0Z"/><path class="cls-5" d="M31.29,11.43c.84.71,1.17.58,1.09,1.24l0,0a14,14,0,0,0-1.09-1.23l0-.05Z"/><path d="M32.38,12.67l0,0c0-.43-.08-.51-.41-.73a4.91,4.91,0,0,1-.67-.49h0a4.91,4.91,0,0,0,.67.49c.35.23.48.31.42.76Zm-.54-.58-.58-.6h0s.29.28.58.6Z"/><path class="cls-14" d="M29.12,17.26c-.78-.36-1.37-.44-1.51.44,0,.72.2,1.1,1,.85a2.86,2.86,0,0,0,.55-1.29Z"/><path d="M28.16,18.63h0c-.39,0-.56-.29-.56-.93s.52-.91,1.53-.44a2.83,2.83,0,0,1-.56,1.29,1.4,1.4,0,0,1-.41.08ZM28.25,17c-.36,0-.56.23-.64.69,0,.64.17.92.55.92h0a1.46,1.46,0,0,0,.41-.08,3,3,0,0,0,.55-1.28,2.3,2.3,0,0,0-.87-.25Z"/><path class="cls-15" d="M28.06,18.62s4.24.14,4.34-.18A2.63,2.63,0,0,0,32.58,16a11.55,11.55,0,0,0-1.19-2.28c.25-.06.45-.69.27-1a18.69,18.69,0,0,1-3.52-.11h-.06c-.43-.06-.56.15-.56.15a1.78,1.78,0,0,0,.05,2.09,14,14,0,0,1,1.17,2.33c.22,1.29-.23,1.34-.66,1.48Z"/><path d="M30,18.66c-.91,0-1.76,0-1.92,0l.09,0c.39-.13.77-.25.56-1.44a1.48,1.48,0,0,1-.12-.29,11.58,11.58,0,0,0-1.05-2c-.58-1.13-.33-1.71,0-2.09,0,0,.13-.21.56-.15.07,0,1.27.15,2.5.15.4,0,.76,0,1.08-.05a.89.89,0,0,1,0,.73.5.5,0,0,1-.26.3h0A10.22,10.22,0,0,1,32.59,16a2.66,2.66,0,0,1-.19,2.48c0,.14-.85.21-2.4.21Zm-1.82,0H30c1.93,0,2.36-.11,2.39-.2A2.62,2.62,0,0,0,32.58,16a12.34,12.34,0,0,0-1.19-2.28.6.6,0,0,0,.25-.3.86.86,0,0,0,0-.72,8.64,8.64,0,0,1-1.07.05,22.92,22.92,0,0,1-2.44-.15h-.22a.46.46,0,0,0-.39.15c-.3.41-.53,1,0,2.09a10.19,10.19,0,0,1,1.05,2,2.36,2.36,0,0,0,.12.28c.21,1.21-.17,1.33-.57,1.46l-.08,0Z"/><path d="M28,13.71a.38.38,0,0,0,.11-.14.8.8,0,0,0,.12-.32.76.76,0,0,0,0-.34.48.48,0,0,0-.24-.29.23.23,0,0,0-.11,0h0a.18.18,0,0,1,.11,0,.46.46,0,0,1,.25.29.66.66,0,0,1,0,.31,1,1,0,0,1-.13.37c-.05.08-.09.13-.12.13Z"/><path d="M28.44,18.38h-.08a.82.82,0,0,0,.2-.5.7.7,0,0,0,0-.45l0-.09a.55.55,0,0,0-.08-.15.29.29,0,0,0-.27-.15h0a.29.29,0,0,1,.28.15.6.6,0,0,1,.08.16l0,.09a.69.69,0,0,1,.06.41.83.83,0,0,1-.21.54h.12a.11.11,0,0,1,.08,0h-.13Z"/><path d="M28.28,18.4l-.16,0a.36.36,0,0,1-.19-.25.48.48,0,0,1,0-.41.37.37,0,0,1,.09-.14s.05-.05.09-.05a2.06,2.06,0,0,1,.44,0h0a1.91,1.91,0,0,0-.43,0,.19.19,0,0,0-.09,0,.44.44,0,0,0-.09.13.6.6,0,0,0,0,.42.39.39,0,0,0,.18.24.55.55,0,0,0,.28,0l-.12,0Z"/><path d="M28.48,17.92h-.3c0-.1,0-.29-.09-.34h0c.12.05.1.25.08.34a.55.55,0,0,1,.18,0,.66.66,0,0,0,.2,0Z"/><path class="cls-1" d="M28,17.11h0Z"/><path class="cls-1" d="M28.07,17.16h0Z"/><path class="cls-1" d="M28.12,17.21h0Z"/><path class="cls-1" d="M28.15,17.28h0Z"/><path class="cls-1" d="M28.19,17.34l.29,0Z"/><path class="cls-1" d="M28.2,17.4h0Z"/><path class="cls-1" d="M28.23,17.46l.3,0Z"/><path d="M27.93,13.7c-.15,0-.27,0-.32-.17a.84.84,0,0,1-.05-.17.87.87,0,0,1,.11-.46c.15-.13.36-.06.54,0-.18-.07-.38-.14-.53,0a.82.82,0,0,0-.1.45.53.53,0,0,0,0,.17c.05.12.18.14.3.16Z"/><path d="M28.05,13.36a.33.33,0,0,1-.17,0,.5.5,0,0,0,.06-.35.17.17,0,0,0-.06-.08s-.06,0-.1,0h0s.07,0,.1,0A.23.23,0,0,1,28,13a.5.5,0,0,1-.06.35.62.62,0,0,0,.28,0Z"/><path d="M28,13.71h0a19.48,19.48,0,0,1,3.38,0s-.75-.06-1.72-.06c-.51,0-1.09,0-1.66.07Z"/><path class="cls-12" d="M29.14,15l-.27,0h0s0,0,0,0l-.11-.28s0,0-.06,0v0h.16v0s-.05,0,0,0L29,15s0,0,.05,0,.08-.06.07-.12h0l0,.13Z"/><path class="cls-12" d="M29.36,15h-.17v0s0,0,0,0l-.11-.29s0,0-.06,0h.16s0,0,0,.05l.11.28s0,0,.06,0v0Z"/><path class="cls-12" d="M29.38,15s0,0,0,0l-.12-.29a.05.05,0,0,0-.06,0h0l.14,0a.17.17,0,0,1,.17.09c0,.07,0,.09,0,.09h0a.15.15,0,0,1,.13.1s0,.11-.09.11l-.15,0v0Z"/><path class="cls-12" d="M29.55,14.56l.28,0,.05.13h0a.13.13,0,0,0-.15-.1s0,0,0,0l0,.14c.05,0,.07,0,.05-.09h0l.08.2h0c0-.07-.07-.09-.12-.09l.06.14s0,0,.05,0,.09,0,.09-.11h0l0,.12-.28,0h0s0,0,0,0l-.11-.28s0,0-.06,0v0Z"/><path class="cls-12" d="M30.37,14.92h-.09l-.17-.18h0l.05.11c0,.05,0,.06.06.06H30s0,0,0-.06l-.1-.26s0,0-.07,0v0H30a.17.17,0,0,1,.18.1.08.08,0,0,1,0,.11l.17.16h0Z"/><path class="cls-12" d="M30.64,14.91h-.18v0s0,0,0-.05l-.12-.32s-.08,0-.05.11h0l0-.12h.29l0,.12h0c-.05-.1-.1-.1-.13-.1l.12.31c0,.05,0,.05.07.05v0Z"/><path class="cls-12" d="M31.05,14.89h-.16v0s0,0,0,0l-.06-.08h-.1v.08a.07.07,0,0,0,0,0h-.1s0,0,0-.07v-.33h0l.23.3c0,.07.06.09.08.09Z"/><path class="cls-12" d="M31.07,14.88s0,0,0,0l-.11-.3a.05.05,0,0,0,0,0h.14a.26.26,0,0,1,.25.19c0,.11,0,.2-.1.21h-.16Z"/><path class="cls-12" d="M29.89,15.7l-.17,0v0c.06,0,.05,0,0-.06l-.09-.23s0,0,0,0l0,0v0l.09-.07h0l.14.34s0,0,.07,0Z"/><path class="cls-12" d="M29.88,15.42a.23.23,0,0,1,.12,0,.21.21,0,0,1,.09.11c0,.08,0,.14-.08.15a.1.1,0,0,1-.09,0s0,0,0,0,.08,0,.11,0,0,0,0-.06a.13.13,0,0,0-.08-.08.23.23,0,0,0-.11,0l0-.2H30v.07h-.13v.05Z"/><path class="cls-12" d="M30.31,15.66s0,0,0,0l-.11-.29s0,0-.06,0h.14a.26.26,0,0,1,.26.18c0,.11,0,.21-.09.22h-.16v0Z"/><path class="cls-12" d="M30.51,15.26l.28,0,.05.12h0c0-.08-.08-.1-.14-.09s0,0,0,0l.06.14s.06,0,0-.09h0l.08.2h0c0-.07-.07-.09-.12-.08l.06.14a0,0,0,0,0,.05,0c.05,0,.09,0,.09-.11h0l0,.12-.28,0v0s0,0,0,0l-.11-.29s0,0-.06,0Z"/><path class="cls-12" d="M29.07,16.29a.19.19,0,0,0-.14-.1s0,0,0,.06,0,.05.07.07l.09,0a.23.23,0,0,1,.1.1c0,.05,0,.13-.07.13s-.07,0-.09,0,0,0,0,0h0l-.06-.15h0c0,.06.08.13.15.12s0-.06,0-.07a.12.12,0,0,0-.08-.06l0,0c-.1,0-.13-.09-.14-.12s0-.12.06-.12a.15.15,0,0,1,.08,0s0,0,0,0h0l.06.13Z"/><path class="cls-12" d="M29.09,16.17l.28,0,0,.12h0c0-.08-.08-.09-.15-.09s0,0,0,0l.05.14s.07,0,0-.1h0l.08.2h0c0-.07-.06-.09-.11-.08l.06.14a0,0,0,0,0,0,0c.05,0,.09,0,.09-.11h0l0,.13-.28,0v0s.05,0,0,0l-.11-.29a.06.06,0,0,0-.06,0v0Z"/><path class="cls-12" d="M30.17,16.49H30v0s0,0,0-.05l-.13-.31s-.08,0-.05.1h0l0-.12.29,0,.05.13h0c0-.1-.1-.1-.13-.1l.13.31s0,0,.06,0v0Z"/><path class="cls-12" d="M30.43,16.47h-.17s0,0,0,0l-.11-.28s0,0-.06,0v0h.17v0s0,0,0,0l.11.29s0,0,.06,0Z"/><path class="cls-12" d="M30.3,16.07h.27l.05.11h0a.15.15,0,0,0-.15-.09s0,0,0,0l.06.14s.06,0,0-.1h0l.08.2h0c0-.08-.07-.1-.11-.09l.05.14s0,0,.06,0,.09,0,.08-.11h0l0,.12-.27,0h0s0,0,0-.05l-.11-.29a.05.05,0,0,0-.06,0Z"/><path class="cls-12" d="M31.21,16.43h-.16s0,0,0-.05l-.11-.3,0,.37h0l-.25-.34.1.27c0,.05,0,.06.08.06h-.11v0s0,0,0,0l-.11-.29s0,0-.06,0v0h.12l.2.28V16h.12s0,0,0,.06l.11.26s0,.05.06.05v0Z"/><path class="cls-12" d="M31.23,16h-.14s.05,0,.06,0l.11.28a0,0,0,0,1,0,0h.12a.19.19,0,0,0,.09,0,.08.08,0,0,0,0-.08.17.17,0,0,0-.13-.1l0,0a0,0,0,0,0,0-.06.13.13,0,0,0-.16-.09Zm0,0h0a.05.05,0,0,1,0,.05s0,0,0,0h0l-.05-.11h0Zm.05.18h0s.05,0,.06.07l0,.05h-.07Z"/><path class="cls-12" d="M31.58,16h-.11v0l0,0,.09.26a0,0,0,0,1,0,0h0v0h.17v0l0,0s0,0,0,0l0-.11h0l.17.18h.09v0h0l-.16-.16s0,0,0,0h0s0,0,0-.06,0,0,0,0a.19.19,0,0,0-.16-.08Zm0,0h.07s0,0,0,.05a.06.06,0,0,1,0,0h-.06l0-.13h0Z"/><path class="cls-12" d="M31.81,16l.29,0,0,.12h0c0-.08-.08-.1-.14-.1s0,0,0,0l0,.14c.05,0,.07,0,.06-.08h0l.06.2h0c0-.08-.05-.1-.1-.1l0,.14s0,0,0,0,.09,0,.1-.1h0v.13l-.3,0v0s0,0,0,0l-.07-.29s0,0-.06,0v0Z"/><path class="cls-12" d="M30,17.3s0,0,0,0L29.94,17s0,0-.05,0H30a.21.21,0,0,1,.22.18c0,.11,0,.2-.12.22H30v0Z"/><path class="cls-12" d="M30.25,16.89h.28l0,.11h0c0-.09-.07-.1-.13-.09s0,0,0,0l0,.14c.05,0,.07,0,.06-.09h0l.05.2h0c0-.08-.06-.09-.1-.09l0,.14s0,0,.05,0,.09,0,.1-.12h0v.13h-.28s0,0,0-.05L30.3,17s0,0-.05,0v0Z"/><path class="cls-12" d="M31,17.25h-.18c.05,0,.05,0,0-.07L30.82,17s0,0,0,0h0l.11-.07h0l.07.33c0,.05,0,.06.07.06Z"/><path class="cls-12" d="M31.2,16.92a.07.07,0,0,1-.05.08.19.19,0,0,1,.1.13c0,.07,0,.12-.09.12a.12.12,0,0,1-.12-.09.09.09,0,0,1,.05-.11A.15.15,0,0,1,31,17c0-.06,0-.11.08-.11a.1.1,0,0,1,.12.08Z"/><path class="cls-12" d="M31.51,17.22l-.21,0v0c.06-.11.1-.19.08-.26s0-.07-.07-.07,0,0,0,.06h0s0-.12.08-.12.09,0,.11.1,0,.06,0,.13l-.05.09h.07c.05,0,.05,0,.06,0h0v.12Z"/><path class="cls-12" d="M31.76,17.21h-.19c.06,0,.06,0,.05-.06l-.05-.23s0,0,0,0h0l.1-.07h0l.07.34s0,.05.07.05Z"/><path class="cls-5" d="M30.29,11.11a.47.47,0,0,1,0-.31h0c.09.15.12.24,0,.32Z"/><path class="cls-1" d="M30.29,11.11a.47.47,0,0,1,0-.31h0c.09.15.12.24,0,.32Z"/><path class="cls-5" d="M30.23,11.05a.5.5,0,0,1-.05-.31h0c.09.16.12.24,0,.31Z"/><path class="cls-1" d="M30.23,11.05a.5.5,0,0,1-.05-.31h0c.09.16.12.24,0,.31Z"/><path class="cls-5" d="M30.07,11a.52.52,0,0,1,0-.32h0c.05.17.06.27,0,.31Z"/><path class="cls-1" d="M30.07,11a.52.52,0,0,1,0-.32h0c.05.17.06.27,0,.31Z"/><path class="cls-5" d="M30.13,11a.58.58,0,0,1,0-.32h0c0,.18,0,.27-.05.32Z"/><path class="cls-1" d="M30.13,11a.58.58,0,0,1,0-.32h0c0,.18,0,.27-.05.32Z"/><path class="cls-5" d="M30.36,11.05a.47.47,0,0,0,0-.31h0c-.09.16-.13.24,0,.31Z"/><path d="M30.35,11c-.09-.06-.06-.15,0-.31h0c-.09.15-.12.23,0,.3Z"/><path class="cls-5" d="M30.51,11a.52.52,0,0,0,0-.32h0c-.05.17-.05.27.05.31Z"/><path d="M30.51,11c-.11,0-.1-.13-.05-.31h0c0,.17-.06.25,0,.3Z"/><path class="cls-5" d="M30.45,11a.5.5,0,0,0,0-.32h0c0,.18-.06.27,0,.32Z"/><path d="M30.44,11c-.1,0-.1-.13-.05-.31h0c-.05.17-.06.25,0,.3Z"/><path class="cls-5" d="M30.57,10.9a.24.24,0,0,0-.07-.19h0c0,.12,0,.17.08.19Z"/><path class="cls-1" d="M30.57,10.9a.24.24,0,0,0-.07-.19h0C30.48,10.83,30.5,10.88,30.57,10.9Z"/><path class="cls-5" d="M30.67,10.79a.3.3,0,0,0-.11-.19h0c0,.13,0,.19.12.19Z"/><path d="M30.67,10.79h0c-.08,0-.11,0-.12-.18h0c0,.11,0,.17.11.17a.29.29,0,0,0-.11-.17.23.23,0,0,1,.12.18Z"/><path class="cls-5" d="M30.64,10.82a.3.3,0,0,0-.11-.19h0c0,.12,0,.18.12.18Z"/><path d="M30.64,10.83h0c-.07,0-.1-.06-.12-.18h0c0,.13.05.18.11.18a.3.3,0,0,0-.1-.18.28.28,0,0,1,.12.18Z"/><path class="cls-5" d="M30.73,10.73c-.09,0-.18-.11-.18-.11h0c.12,0,.18,0,.18.12Z"/><path class="cls-1" d="M30.73,10.73c-.09,0-.18-.11-.18-.11h0c.12,0,.18,0,.18.12Z"/><path class="cls-5" d="M30.73,10.67c0-.09-.14-.16-.14-.16h0c0,.12.07.18.15.16Z"/><path d="M30.73,10.68h0c-.08,0-.11,0-.15-.16h0c0,.13.07.17.13.16a.32.32,0,0,0-.13-.16.26.26,0,0,1,.15.16Z"/><path class="cls-5" d="M30.78,10.56a.37.37,0,0,0-.18-.12h0c.07.11.12.15.18.12Z"/><path class="cls-1" d="M30.78,10.56a.37.37,0,0,0-.18-.12h0c.07.11.12.15.18.12Z"/><path class="cls-5" d="M30.76,10.61c0-.08-.18-.12-.18-.12h0c.07.1.12.15.19.11Z"/><path class="cls-1" d="M30.76,10.61c0-.08-.18-.12-.18-.12h0c.07.1.12.15.19.11Z"/><path class="cls-5" d="M30.76,10.46a.3.3,0,0,1-.21,0h0c.12,0,.18,0,.21,0Z"/><path class="cls-1" d="M30.76,10.46a.3.3,0,0,1-.21,0h0c.12,0,.18,0,.21,0Z"/><path class="cls-5" d="M30.82,10.43a.31.31,0,0,0-.2-.09h0c.09.09.14.13.2.08Z"/><path class="cls-1" d="M30.82,10.43a.31.31,0,0,0-.2-.09h0c.09.09.14.13.2.08Z"/><path class="cls-5" d="M30.77,10.35c-.05-.07-.2-.08-.2-.08h0c.08.09.14.13.2.09Z"/><path d="M30.71,10.38s-.09,0-.15-.1h0c.08.09.13.12.19.08a.33.33,0,0,0-.18-.08.23.23,0,0,1,.2.08h0a.05.05,0,0,1-.05,0Z"/><path class="cls-5" d="M30.79,10.25a.4.4,0,0,0-.22,0h0c.11.07.16.09.21,0Z"/><path d="M30.71,10.3a.3.3,0,0,1-.14-.06.21.21,0,0,1,.22,0h0a.33.33,0,0,0-.2,0c.1.06.15.08.2,0a.08.08,0,0,1-.07,0Z"/><path class="cls-5" d="M30.74,10.13a.31.31,0,0,0-.21,0h0c.12,0,.18,0,.21,0Z"/><path d="M30.63,10.2h-.1c.12,0,.18,0,.2,0a.32.32,0,0,0-.19,0,.23.23,0,0,1,.2-.05h0a.09.09,0,0,1-.1.07Z"/><path class="cls-5" d="M30.68,10.1a.3.3,0,0,0-.2,0h0c.13,0,.19,0,.21-.05Z"/><path class="cls-1" d="M30.68,10.1a.3.3,0,0,0-.2,0h0c.13,0,.19,0,.21-.05Z"/><path class="cls-5" d="M30.59,10c-.09,0-.19.09-.19.09v0c.12,0,.19,0,.19-.11Z"/><path class="cls-1" d="M30.59,10c-.09,0-.19.09-.19.09v0c.12,0,.19,0,.19-.11Z"/><path class="cls-5" d="M30.65,10c-.09,0-.19.1-.19.1h0c.12,0,.19,0,.19-.11Z"/><path d="M30.46,10.15h0c.12,0,.18,0,.18-.1s-.15.08-.17.1a.21.21,0,0,1,.18-.11h0c0,.09-.07.1-.18.11Z"/><path class="cls-5" d="M30.52,9.9a.31.31,0,0,1-.12.17h0c0-.12.05-.18.13-.17Z"/><path class="cls-1" d="M30.52,9.9a.31.31,0,0,1-.12.17h0c0-.12.05-.18.13-.17Z"/><path class="cls-5" d="M30.53,10a.36.36,0,0,1-.13.18h0c0-.12.06-.18.13-.17Z"/><path class="cls-1" d="M30.53,10a.36.36,0,0,1-.13.18h0c0-.12.06-.18.13-.17Z"/><path class="cls-5" d="M30.46,9.89a.37.37,0,0,0-.17.14h0c.11,0,.17-.06.17-.14Z"/><path class="cls-1" d="M30.46,9.89a.37.37,0,0,0-.17.14h0c.11,0,.17-.06.17-.14Z"/><path class="cls-5" d="M30.36,9.84a.37.37,0,0,0-.13.17h0c.1-.06.16-.1.13-.18Z"/><path class="cls-1" d="M30.36,9.84a.37.37,0,0,0-.13.17h0c.1-.06.16-.1.13-.18Z"/><path class="cls-5" d="M30.41,9.86c-.09,0-.15.19-.15.19v0c.07,0,.19-.09.15-.21Z"/><path class="cls-1" d="M30.41,9.86c-.09,0-.15.19-.15.19v0c.07,0,.19-.09.15-.21Z"/><path class="cls-5" d="M29.84,9.86a.33.33,0,0,0,.09.2h0c0-.13,0-.19-.1-.2Z"/><path d="M30,10.06h0c0-.12,0-.18-.1-.19a.34.34,0,0,0,.09.19.29.29,0,0,1-.1-.19h0c.08,0,.09.07.1.2Z"/><path class="cls-5" d="M29.74,10a.36.36,0,0,0,.13.18h0c0-.12-.06-.18-.13-.18Z"/><path class="cls-1" d="M29.74,10a.36.36,0,0,0,.13.18h0c0-.12-.06-.18-.13-.18Z"/><path class="cls-5" d="M29.77,9.93a.37.37,0,0,0,.13.17h0c0-.12-.05-.18-.13-.18Z"/><path class="cls-1" d="M29.77,9.93a.37.37,0,0,0,.13.17h0c0-.12-.05-.18-.13-.18Z"/><path class="cls-5" d="M30,9.8a.36.36,0,0,1,.08.21h0C30,9.93,30,9.87,30,9.81Z"/><path class="cls-1" d="M30,9.8a.36.36,0,0,1,.08.21h0C30,9.93,30,9.87,30,9.81Z"/><path class="cls-5" d="M30,9.81a.36.36,0,0,1,.08.21h0c-.09-.09-.12-.14-.08-.2Z"/><path class="cls-1" d="M30,9.81a.36.36,0,0,1,.08.21h0c-.09-.09-.12-.14-.08-.2Z"/><path class="cls-5" d="M30.07,9.76a.33.33,0,0,0,0,.22h0c.05-.12.07-.18,0-.22Z"/><path d="M30.07,10h0c.05-.11.06-.17,0-.21a.52.52,0,0,0,0,.21.25.25,0,0,1,0-.22h0c.08,0,.05.12,0,.22Z"/><path class="cls-5" d="M29.92,9.84a.41.41,0,0,0,0,.22h0c0-.13,0-.19-.05-.22Z"/><path d="M30,10.06h0c0-.11,0-.18,0-.2a.31.31,0,0,0,0,.2.27.27,0,0,1,0-.21h0c.08,0,.08.08.05.21Z"/><path class="cls-5" d="M30.12,9.79a.37.37,0,0,1,.05.22h0c-.07-.1-.1-.16,0-.21Z"/><path class="cls-1" d="M30.12,9.79a.37.37,0,0,1,.05.22h0c-.07-.1-.1-.16,0-.21Z"/><path class="cls-5" d="M30.24,9.8a.35.35,0,0,1,0,.22h0c0-.12-.06-.18,0-.22Z"/><path class="cls-1" d="M30.24,9.8a.35.35,0,0,1,0,.22h0c0-.12-.06-.18,0-.22Z"/><path class="cls-5" d="M30.2,9.78a.35.35,0,0,1,0,.22h0c0-.11-.05-.18,0-.22Z"/><path class="cls-1" d="M30.2,9.78a.35.35,0,0,1,0,.22h0c0-.11-.05-.18,0-.22Z"/><path class="cls-5" d="M29.63,10.31a.32.32,0,0,0,.21,0h0c-.1-.08-.16-.11-.21,0Z"/><path class="cls-1" d="M29.63,10.31a.32.32,0,0,0,.21,0h0c-.1-.08-.16-.11-.21,0Z"/><path class="cls-5" d="M29.71,10.46a.25.25,0,0,0,.21,0h0c-.12,0-.19,0-.21.05Z"/><path class="cls-1" d="M29.71,10.46a.25.25,0,0,0,.21,0h0c-.12,0-.19,0-.21.05Z"/><path class="cls-5" d="M29.66,10.4a.35.35,0,0,0,.22,0h0c-.11-.05-.18-.06-.21,0Z"/><path class="cls-1" d="M29.66,10.4a.35.35,0,0,0,.22,0h0c-.11-.05-.18-.06-.21,0Z"/><path class="cls-5" d="M29.67,10.19a.3.3,0,0,1,.21.05h0c-.12,0-.19,0-.21-.05Z"/><path class="cls-1" d="M29.67,10.19a.3.3,0,0,1,.21.05h0c-.12,0-.19,0-.21-.05Z"/><path class="cls-5" d="M29.68,10.07a.3.3,0,0,0,.17.13h0c-.06-.11-.1-.16-.17-.14Z"/><path class="cls-1" d="M29.68,10.07a.3.3,0,0,0,.17.13h0c-.06-.11-.1-.16-.17-.14Z"/><path class="cls-5" d="M29.69,10.13a.42.42,0,0,0,.17.14h0c-.06-.11-.1-.16-.17-.13Z"/><path d="M29.87,10.26h0c-.05-.11-.09-.15-.16-.13a.35.35,0,0,0,.16.13.27.27,0,0,1-.17-.13h0c.07,0,.12,0,.18.12Z"/><path class="cls-5" d="M29.68,10.27a.34.34,0,0,0,.2.06h0c-.1-.09-.15-.12-.21-.07Z"/><path d="M29.84,10.33a.24.24,0,0,1-.17-.06h0a.31.31,0,0,0,.2.07c-.09-.08-.14-.11-.19-.06s.1,0,.2.05Z"/><path class="cls-5" d="M29.78,10.07c.09,0,.19.11.19.11h0c-.13,0-.19,0-.19-.12Z"/><path class="cls-1" d="M29.78,10.07c.09,0,.19.11.19.11h0c-.13,0-.19,0-.19-.12Z"/><path class="cls-5" d="M29.85,10.8a.35.35,0,0,0,.18-.12h0c-.13,0-.19,0-.19.12Z"/><path class="cls-1" d="M29.85,10.8a.35.35,0,0,0,.18-.12h0c-.13,0-.19,0-.19.12Z"/><path class="cls-5" d="M29.89,10.82a.35.35,0,0,0,.18-.12h0c-.12,0-.18,0-.18.12Z"/><path d="M29.89,10.82h0c0-.08.05-.11.18-.13v0c-.12,0-.18,0-.18.11a.29.29,0,0,0,.17-.11.21.21,0,0,1-.17.12Z"/><path class="cls-5" d="M30,10.9c.09,0,.15-.16.15-.16h0c-.11,0-.16.09-.14.17Z"/><path class="cls-1" d="M30,10.9c.09,0,.15-.16.15-.16h0c-.11,0-.16.09-.14.17Z"/><path class="cls-5" d="M29.91,10.88c.09,0,.14-.16.14-.16h0c-.11,0-.16.09-.15.16Z"/><path d="M29.91,10.88h0a.31.31,0,0,0,.14-.16c-.12.06-.15.09-.14.16s0-.12.14-.17a.24.24,0,0,1-.14.18Z"/><path class="cls-5" d="M29.8,10.74a.34.34,0,0,0,.2-.08h0c-.12,0-.19,0-.2.08Z"/><path class="cls-1" d="M29.8,10.74a.34.34,0,0,0,.2-.08h0c-.12,0-.19,0-.2.08Z"/><path class="cls-5" d="M29.81,10.61a.35.35,0,0,0,.21,0h0c-.12,0-.18,0-.21,0Z"/><path class="cls-1" d="M29.81,10.61a.35.35,0,0,0,.21,0h0c-.12,0-.18,0-.21,0Z"/><path class="cls-5" d="M29.82,10.67a.36.36,0,0,0,.2-.09h0c-.13,0-.19,0-.2.09Z"/><path d="M29.83,10.67h0c0-.08.06-.1.19-.1h0c-.11,0-.17,0-.18.09a.37.37,0,0,0,.18-.09.23.23,0,0,1-.18.1Z"/><path class="cls-5" d="M29.74,10.57a.34.34,0,0,1,.19-.09h0c-.08.09-.13.13-.2.09Z"/><path class="cls-1" d="M29.74,10.57a.34.34,0,0,1,.19-.09h0c-.08.09-.13.13-.2.09Z"/><path class="cls-5" d="M30.76,10.15a.24.24,0,0,1-.15.16h0c0-.12.08-.17.16-.15Z"/><path class="cls-1" d="M30.76,10.15a.24.24,0,0,1-.15.16h0c0-.12.08-.17.16-.15Z"/><path class="cls-5" d="M29.73,10.52a.27.27,0,0,0,.21,0h0c-.12,0-.18,0-.21,0Z"/><path d="M29.78,10.54h-.05c0-.08.1-.08.21,0h0c-.13,0-.18,0-.21,0a.35.35,0,0,0,.2,0,.26.26,0,0,1-.15,0Z"/><path class="cls-5" d="M30.56,10.78a.39.39,0,0,1-.12-.19h0c.1.07.15.12.11.19Z"/><path class="cls-1" d="M30.56,10.78a.39.39,0,0,1-.12-.19h0c.1.07.15.12.11.19Z"/><path class="cls-5" d="M30.47,10.83a.35.35,0,0,1-.07-.21h0c.08.1.11.15.06.21Z"/><path class="cls-1" d="M30.47,10.83a.35.35,0,0,1-.07-.21h0c.08.1.11.15.06.21Z"/><path class="cls-5" d="M30.6,10.68a.38.38,0,0,0-.15-.16h0c0,.12.07.18.15.16Z"/><path class="cls-1" d="M30.6,10.68a.38.38,0,0,0-.15-.16h0c0,.12.07.18.15.16Z"/><path class="cls-5" d="M30.61,10.61a.34.34,0,0,1-.2-.08h0c.13,0,.19,0,.2.08Z"/><path class="cls-1" d="M30.61,10.61a.34.34,0,0,1-.2-.08h0c.13,0,.19,0,.2.08Z"/><path class="cls-5" d="M30.46,10c-.09,0-.17.13-.17.13h0c.12,0,.18-.06.17-.14Z"/><path d="M30.29,10.14h0c.11,0,.17-.06.16-.13s-.15.11-.16.12a.25.25,0,0,1,.17-.14h0c0,.08,0,.11-.16.14Z"/><path class="cls-5" d="M30.31,9.93a.36.36,0,0,1-.09.2h0c0-.13,0-.19.09-.2Z"/><path class="cls-1" d="M30.31,9.93a.36.36,0,0,1-.09.2h0c0-.13,0-.19.09-.2Z"/><path class="cls-5" d="M30.3,9.79a.35.35,0,0,1,0,.22h0c0-.12,0-.19,0-.22Z"/><path class="cls-1" d="M30.3,9.79a.35.35,0,0,1,0,.22h0c0-.12,0-.19,0-.22Z"/><path class="cls-5" d="M29.93,9.92a.38.38,0,0,1,.13.18h0c-.11-.07-.15-.11-.13-.18Z"/><path class="cls-1" d="M29.93,9.92a.38.38,0,0,1,.13.18h0c-.11-.07-.15-.11-.13-.18Z"/><path class="cls-5" d="M29.85,10.58c0-.09.14-.16.14-.16h0c0,.11-.07.17-.14.16Z"/><path class="cls-1" d="M29.85,10.58c0-.09.14-.16.14-.16h0c0,.11-.07.17-.14.16Z"/><path class="cls-5" d="M30,10.82c0-.09.14-.16.14-.16h0c0,.12-.07.18-.15.16Z"/><path class="cls-1" d="M30,10.82c0-.09.14-.16.14-.16h0c0,.12-.07.18-.15.16Z"/><path class="cls-5" d="M30.3,11a.55.55,0,0,0,0-.31h0c-.09.15-.12.24,0,.31Z"/><path d="M30.29,11c-.09-.07-.06-.16,0-.31h0c-.09.15-.11.23,0,.3Z"/><path class="cls-5" d="M30.71,10.42a.33.33,0,0,1-.21,0h0c.12,0,.18,0,.22,0Z"/><path class="cls-1" d="M30.71,10.42a.33.33,0,0,1-.21,0h0c.12,0,.18,0,.22,0Z"/><path class="cls-5" d="M30.68,10.19a.34.34,0,0,1-.19.11h0c.08-.1.13-.14.19-.1Z"/><path class="cls-1" d="M30.68,10.19a.34.34,0,0,1-.19.11h0c.08-.1.13-.14.19-.1Z"/><path class="cls-5" d="M29.88,10.06c0,.1.19.09.19.09h0c-.09-.09-.14-.13-.2-.08Z"/><path d="M30,10.15c-.06,0-.14,0-.16-.09h0c0,.09.19.08.19.08s-.13-.12-.19-.08.12,0,.2.08Z"/><path class="cls-5" d="M30,10c0,.1.18.12.18.12h0C30.12,10,30.07,10,30,10Z"/><path d="M30.17,10.13c-.06,0-.17,0-.17-.11h0c.07,0,.12,0,.18.11h0C30.11,10,30.07,10,30,10s.15.11.17.11Z"/><path class="cls-5" d="M29.82,10.22c.05.09.22,0,.22,0h0c-.1-.07-.16-.09-.21,0Z"/><path class="cls-1" d="M29.82,10.22c.05.09.22,0,.22,0h0c-.1-.07-.16-.09-.21,0Z"/><path class="cls-5" d="M29.83,10.33c.07.07.21,0,.21,0h0c-.12,0-.19,0-.22,0Z"/><path d="M29.89,10.36a.07.07,0,0,1-.06,0h0c.06.06.2,0,.2,0s-.17,0-.2,0,.08-.08.21-.05a.24.24,0,0,1-.16.08Z"/><path class="cls-5" d="M29.87,10.44c.09,0,.2-.1.2-.1h0c-.13,0-.19,0-.2.1Z"/><path d="M29.91,10.45h0c.08,0,.18-.1.18-.1s-.17,0-.18.09c0-.08.07-.09.18-.11s-.07.13-.15.13Z"/><path class="cls-5" d="M30,10.67c.1,0,.1-.19.1-.19h0c-.09.08-.13.13-.09.2Z"/><path d="M30,10.68h0c.09,0,.09-.19.09-.19s-.12.12-.09.19,0-.13.09-.21,0,.2-.09.22Z"/><path class="cls-5" d="M30,10.73c.09,0,.1-.2.1-.2h0c-.1.08-.13.13-.1.19Z"/><path class="cls-1" d="M30,10.73c.09,0,.1-.2.1-.2h0c-.1.08-.13.13-.1.19Z"/><path class="cls-5" d="M30.08,10.73c.09,0,.12-.18.12-.18h0c-.11.07-.15.11-.12.18Z"/><path d="M30.08,10.74h0c.09,0,.11-.17.11-.17s-.13.11-.11.17,0-.12.11-.18,0,.19-.11.2Z"/><path class="cls-5" d="M30.13,10.77c.1,0,.12-.18.12-.18h0c-.11.07-.15.11-.12.19Z"/><path d="M30.13,10.78h0c0-.07,0-.12.11-.18h0c-.1.07-.14.11-.12.17s.11-.15.12-.17,0,.18-.12.19Z"/><path class="cls-5" d="M30.21,10.82c.09,0,.05-.21.05-.21h0c-.07.11-.1.16,0,.22Z"/><path class="cls-1" d="M30.21,10.82c.09,0,.05-.21.05-.21h0c-.07.11-.1.16,0,.22Z"/><path class="cls-5" d="M30.27,10.81c.08,0,.05-.21.05-.21h0c-.07.1-.1.16,0,.22Z"/><path class="cls-1" d="M30.27,10.81c.08,0,.05-.21.05-.21h0c-.07.1-.1.16,0,.22Z"/><path class="cls-5" d="M30.36,10.78c.08-.06,0-.22,0-.22h0c-.05.11-.06.18,0,.22Z"/><path class="cls-1" d="M30.36,10.78c.08-.06,0-.22,0-.22h0c-.05.11-.06.18,0,.22Z"/><path class="cls-5" d="M30.44,10.65c0-.08-.07-.21-.07-.21h0c0,.13,0,.19.07.21Z"/><path class="cls-1" d="M30.44,10.65c0-.08-.07-.21-.07-.21h0c0,.13,0,.19.07.21Z"/><path class="cls-5" d="M30.6,10.51c0-.09-.2-.07-.2-.07h0c.1.08.15.11.21.06Z"/><path class="cls-1" d="M30.6,10.51c0-.09-.2-.07-.2-.07h0c.1.08.15.11.21.06Z"/><path class="cls-5" d="M30.62,10.33c-.06-.08-.21,0-.21,0h0c.11.05.18.06.21,0Z"/><path class="cls-1" d="M30.62,10.33c-.06-.08-.21,0-.21,0h0c.11.05.18.06.21,0Z"/><path class="cls-5" d="M30.58,10.2c-.06-.08-.22,0-.22,0h0c.11,0,.18.06.21,0Z"/><path d="M30.49,10.25l-.13,0s.16-.11.22,0h0c-.05-.07-.2,0-.2,0s.17,0,.2,0a.07.07,0,0,1-.08.05Z"/><path class="cls-5" d="M30.49,10.14c-.08,0-.2.09-.2.09h0c.12,0,.19,0,.2-.09Z"/><path class="cls-1" d="M30.49,10.14c-.08,0-.2.09-.2.09h0c.12,0,.19,0,.2-.09Z"/><path class="cls-5" d="M30.37,10.08c-.09,0-.15.16-.15.16h0c.12,0,.17-.08.15-.15Z"/><path class="cls-1" d="M30.37,10.08c-.09,0-.15.16-.15.16h0c.12,0,.17-.08.15-.15Z"/><path class="cls-5" d="M30.11,10c0,.08.1.19.1.19h0c0-.12,0-.19-.1-.19Z"/><path d="M30.22,10.14s-.15-.11-.11-.2h0c0,.08.09.19.09.19s0-.18-.09-.19c.1,0,.1.07.1.19Z"/><path class="cls-5" d="M29.93,10.15c0,.09.2.08.2.08h0c-.09-.09-.14-.12-.2-.08Z"/><path d="M30.08,10.23c-.06,0-.14,0-.16-.08h0c0,.08.19.08.19.08s-.13-.13-.19-.08.11,0,.2.07Z"/><path class="cls-5" d="M30,10.25c.06.08.22,0,.22,0h0c-.11-.05-.18-.07-.21,0Z"/><path class="cls-1" d="M30,10.25c.06.08.22,0,.22,0h0c-.11-.05-.18-.07-.21,0Z"/><path class="cls-5" d="M30,10.33c.07.07.21,0,.21,0v0c-.11,0-.18,0-.21,0Z"/><path class="cls-1" d="M30,10.33c.07.07.21,0,.21,0v0c-.11,0-.18,0-.21,0Z"/><path class="cls-5" d="M30,10.51c.09,0,.18-.12.18-.12h0c-.12,0-.18,0-.18.12Z"/><path class="cls-1" d="M30,10.51c.09,0,.18-.12.18-.12h0c-.12,0-.18,0-.18.12Z"/><path class="cls-5" d="M30.09,10.59c.1,0,.14-.17.14-.17h0c-.1.06-.15.1-.13.17Z"/><path class="cls-1" d="M30.09,10.59c.1,0,.14-.17.14-.17h0c-.1.06-.15.1-.13.17Z"/><path class="cls-5" d="M30.18,10.62c.1,0,.09-.2.09-.2h0c-.09.09-.12.15-.08.21Z"/><path class="cls-1" d="M30.18,10.62c.1,0,.09-.2.09-.2h0c-.09.09-.12.15-.08.21Z"/><path class="cls-5" d="M30.36,10.59c.06-.08,0-.21,0-.21h0c0,.13,0,.19.05.22Z"/><path class="cls-1" d="M30.36,10.59c.06-.08,0-.21,0-.21h0c0,.13,0,.19.05.22Z"/><path class="cls-5" d="M30.53,10.46c0-.1-.19-.09-.19-.09h0c.08.09.13.13.19.08Z"/><path d="M30.47,10.48s-.09,0-.15-.1.19,0,.22.08h0c0-.09-.19-.09-.19-.09s.13.13.18.09a.06.06,0,0,1-.05,0Z"/><path class="cls-5" d="M30.46,10.37c-.05-.09-.21,0-.21,0v0c.11.06.17.08.22,0Z"/><path d="M30.38,10.41a.3.3,0,0,1-.14-.06h0c.1.06.15.09.2,0h0c0-.07-.17,0-.2,0s.17-.05.21,0h0a.08.08,0,0,1-.07,0Z"/><path class="cls-5" d="M30.52,10.27c-.06-.07-.21,0-.21,0h0c.11,0,.18.05.21,0Z"/><path d="M30.44,10.33l-.14,0s.17-.11.23,0h0c-.06-.07-.2,0-.21,0s.17.05.21,0,0,.06-.08.06Z"/><path class="cls-5" d="M30.07,10.09c0,.09.12.18.12.18h0c0-.13-.05-.19-.13-.18Z"/><path class="cls-1" d="M30.07,10.09c0,.09.12.18.12.18h0c0-.13-.05-.19-.13-.18Z"/><path class="cls-5" d="M30.24,10.08c-.08.05,0,.22,0,.22h0c.07-.1.09-.17,0-.22Z"/><path d="M30.22,10.31s-.07-.19,0-.24h0c-.07.05,0,.21,0,.22s.09-.16,0-.21.05.11,0,.22Z"/><path class="cls-5" d="M30.42,10.22c-.09-.05-.19.09-.19.09h0c.12,0,.18,0,.19-.1Z"/><path d="M30.23,10.33h0c.12,0,.17,0,.18-.1s-.16.07-.18.09.11-.14.19-.1h0c0,.08-.06.1-.18.11Z"/><path class="cls-5" d="M30.28,10.49c.06-.07-.05-.21-.05-.21h0c0,.13,0,.19.07.21Z"/><path d="M30.28,10.5h0c-.09,0-.08-.09-.07-.21h0c0,.12,0,.18.06.2s-.05-.19-.06-.2.12.14.07.21Z"/><path class="cls-5" d="M30,10.55c.1,0,.13-.18.13-.18h0c-.09.06-.15.11-.12.18Z"/><path class="cls-1" d="M30,10.55c.1,0,.13-.18.13-.18h0c-.09.06-.15.11-.12.18Z"/><path class="cls-5" d="M30.29,10.62c.07-.06,0-.22,0-.22h0c0,.12-.05.18,0,.22Z"/><path class="cls-1" d="M30.29,10.62c.07-.06,0-.22,0-.22h0c0,.12-.05.18,0,.22Z"/><path class="cls-13" d="M30.14,10.47a.11.11,0,1,0,0-.22.11.11,0,0,0,0,.22Z"/><path d="M30.14,10.49a.13.13,0,0,1-.12-.13c0-.13.24-.13.24,0a.12.12,0,0,1-.12.13Zm0-.23a.1.1,0,0,0-.09.1c0,.11.19.11.19,0a.1.1,0,0,0-.1-.1Z"/><path d="M30.14,10.39a0,0,0,0,0,0,0s0,0,0,0a0,0,0,0,0,0,0s0,0,0,0Z"/><path class="cls-15" d="M30.09,17.23s0,0,0,0,.08,0,.05-.16,0-.15-.12-.15,0,0,0,0l.05.25Z"/><path class="cls-15" d="M29.48,14.91s0,0,0,0,0,0,0-.08-.07-.08-.09-.08h0l.05.12Z"/><path class="cls-15" d="M29.42,14.74s0,0,0-.07,0-.07-.06-.07,0,0,0,0l.05.11Z"/><polygon class="cls-15" points="30.84 14.75 30.75 14.63 30.76 14.75 30.84 14.75"/><path class="cls-15" d="M30.09,14.72c.05,0,.07,0,0-.08a.08.08,0,0,0-.08-.07s0,0,0,0l.05.13Z"/><path class="cls-15" d="M31.16,17.21s0,0,0-.06,0-.06-.07-.08a.11.11,0,0,0,0,.08s0,.06.05.06Z"/><path class="cls-15" d="M31.13,17a.06.06,0,0,0,0-.06s0-.06-.05-.05,0,0,0,0,.07.07.07.07Z"/><path class="cls-15" d="M31.17,14.81s0,0,0,0,.08,0,0-.15-.06-.16-.13-.15,0,0,0,0l.09.25Z"/><path class="cls-15" d="M30.41,15.58s0,0,0,0,.07,0,0-.15-.06-.14-.13-.13,0,0,0,0l.09.23Z"/><path class="cls-12" d="M29.66,16.35l.05.11s0,0,0,0a0,0,0,0,0,0,0h-.1a.08.08,0,0,0,0,0l-.11-.26s0,0,0,0,0,0,0,0,0,0,0,0h.14a.18.18,0,0,1,.11,0,.12.12,0,0,1,.06.08,0,0,0,0,1,0,.06.07.07,0,0,1,0,.05Zm-.08-.2.07.18h0s0,0,0,0a.23.23,0,0,0,0-.07s0-.05-.05-.06l-.05,0Z"/></g></g></g></g></g></svg>