<svg xmlns="http://www.w3.org/2000/svg" xmlns:xlink="http://www.w3.org/1999/xlink" viewBox="0 0 60 35"><defs><style>.cls-1{fill:none;}.cls-2{clip-path:url(#clip-path);}.cls-3{fill:#fff;}.cls-4{fill:#2a43b6;}</style><clipPath id="clip-path"><rect class="cls-1" width="60" height="35"/></clipPath></defs><title>Honduras</title><g id="Layer_2" data-name="Layer 2"><g id="Stream"><g id="Honduras"><g class="cls-2"><rect class="cls-3" width="60" height="35"/><polygon class="cls-4" points="30 15.56 29.4 17.41 30.32 17.71 30 15.56"/><polygon class="cls-4" points="30 15.56 30.6 17.41 29.68 17.71 30 15.56"/><polygon class="cls-4" points="31.85 16.9 29.9 16.9 29.9 17.87 31.85 16.9"/><polygon class="cls-4" points="31.85 16.9 30.28 18.04 29.7 17.25 31.85 16.9"/><polygon class="cls-4" points="28.15 16.9 29.72 18.04 30.29 17.25 28.15 16.9"/><polygon class="cls-4" points="28.15 16.9 30.09 16.9 30.09 17.87 28.15 16.9"/><polygon class="cls-4" points="31.14 19.07 30.54 17.22 29.62 17.52 31.14 19.07"/><polygon class="cls-4" points="31.14 19.07 29.57 17.93 30.14 17.14 31.14 19.07"/><polygon class="cls-4" points="28.86 19.07 30.43 17.93 29.86 17.14 28.86 19.07"/><polygon class="cls-4" points="28.86 19.07 29.46 17.22 30.38 17.52 28.86 19.07"/><polygon class="cls-4" points="39.72 18.47 39.12 20.32 40.05 20.62 39.72 18.47"/><polygon class="cls-4" points="39.72 18.47 40.32 20.32 39.4 20.62 39.72 18.47"/><polygon class="cls-4" points="41.57 19.82 39.63 19.82 39.63 20.79 41.57 19.82"/><polygon class="cls-4" points="41.57 19.82 40 20.96 39.43 20.17 41.57 19.82"/><polygon class="cls-4" points="37.87 19.82 39.45 20.96 40.02 20.17 37.87 19.82"/><polygon class="cls-4" points="37.87 19.82 39.82 19.82 39.82 20.79 37.87 19.82"/><polygon class="cls-4" points="40.86 21.99 40.26 20.14 39.34 20.44 40.86 21.99"/><polygon class="cls-4" points="40.86 21.99 39.29 20.85 39.86 20.06 40.86 21.99"/><polygon class="cls-4" points="38.58 21.99 40.15 20.85 39.58 20.06 38.58 21.99"/><polygon class="cls-4" points="38.58 21.99 39.18 20.14 40.1 20.44 38.58 21.99"/><polygon class="cls-4" points="39.72 12.64 39.12 14.49 40.05 14.79 39.72 12.64"/><polygon class="cls-4" points="39.72 12.64 40.32 14.49 39.4 14.79 39.72 12.64"/><polygon class="cls-4" points="41.57 13.98 39.63 13.98 39.63 14.96 41.57 13.98"/><polygon class="cls-4" points="41.57 13.98 40 15.13 39.43 14.34 41.57 13.98"/><polygon class="cls-4" points="37.87 13.98 39.45 15.13 40.02 14.34 37.87 13.98"/><polygon class="cls-4" points="37.87 13.98 39.82 13.98 39.82 14.96 37.87 13.98"/><polygon class="cls-4" points="40.86 16.16 40.26 14.31 39.34 14.61 40.86 16.16"/><polygon class="cls-4" points="40.86 16.16 39.29 15.01 39.86 14.23 40.86 16.16"/><polygon class="cls-4" points="38.58 16.16 40.15 15.01 39.58 14.23 38.58 16.16"/><polygon class="cls-4" points="38.58 16.16 39.18 14.31 40.1 14.61 38.58 16.16"/><polygon class="cls-4" points="20.28 18.47 19.68 20.32 20.6 20.62 20.28 18.47"/><polygon class="cls-4" points="20.28 18.47 20.88 20.32 19.95 20.62 20.28 18.47"/><polygon class="cls-4" points="22.13 19.82 20.18 19.82 20.18 20.79 22.13 19.82"/><polygon class="cls-4" points="22.13 19.82 20.55 20.96 19.98 20.17 22.13 19.82"/><polygon class="cls-4" points="18.43 19.82 20 20.96 20.57 20.17 18.43 19.82"/><polygon class="cls-4" points="18.43 19.82 20.37 19.82 20.37 20.79 18.43 19.82"/><polygon class="cls-4" points="21.42 21.99 20.82 20.14 19.89 20.44 21.42 21.99"/><polygon class="cls-4" points="21.42 21.99 19.85 20.85 20.42 20.06 21.42 21.99"/><polygon class="cls-4" points="19.13 21.99 20.71 20.85 20.14 20.06 19.13 21.99"/><polygon class="cls-4" points="19.13 21.99 19.74 20.14 20.66 20.44 19.13 21.99"/><polygon class="cls-4" points="20.28 12.64 19.68 14.49 20.6 14.79 20.28 12.64"/><polygon class="cls-4" points="20.28 12.64 20.88 14.49 19.95 14.79 20.28 12.64"/><polygon class="cls-4" points="22.13 13.98 20.18 13.98 20.18 14.96 22.13 13.98"/><polygon class="cls-4" points="22.13 13.98 20.55 15.13 19.98 14.34 22.13 13.98"/><polygon class="cls-4" points="18.43 13.98 20 15.13 20.57 14.34 18.43 13.98"/><polygon class="cls-4" points="18.43 13.98 20.37 13.98 20.37 14.96 18.43 13.98"/><polygon class="cls-4" points="21.42 16.16 20.82 14.31 19.89 14.61 21.42 16.16"/><polygon class="cls-4" points="21.42 16.16 19.85 15.01 20.42 14.23 21.42 16.16"/><polygon class="cls-4" points="19.13 16.16 20.71 15.01 20.14 14.23 19.13 16.16"/><polygon class="cls-4" points="19.13 16.16 19.74 14.31 20.66 14.61 19.13 16.16"/><rect class="cls-4" width="60" height="11.67"/><rect class="cls-4" y="23.33" width="60" height="11.67"/></g></g></g></g></svg>