<svg xmlns="http://www.w3.org/2000/svg" xmlns:xlink="http://www.w3.org/1999/xlink" viewBox="0 0 60 35"><defs><style>.cls-1{fill:none;}.cls-2{clip-path:url(#clip-path);}.cls-3{fill:#3564c2;}.cls-4{fill:#fff;}.cls-5{fill:#f5cd28;}.cls-6{fill:#95d4fd;}.cls-7{fill:#487ba2;}.cls-8{fill:#c0003b;}.cls-9{fill:#5b7133;}.cls-10{fill:#263732;}.cls-11{fill:#93c438;}.cls-12{fill:#b0008a;}.cls-13{fill:#f3cd2d;}.cls-14{fill:#6091be;}.cls-15{fill:#2f4791;}</style><clipPath id="clip-path"><rect class="cls-1" width="60" height="35"/></clipPath></defs><title>Nicaragua</title><g id="Layer_2" data-name="Layer 2"><g id="Stream"><g id="Nicaragua"><g class="cls-2"><rect class="cls-3" y="23.33" width="60" height="11.67"/><rect class="cls-3" width="60" height="11.67"/><rect class="cls-4" y="11.67" width="60" height="11.67"/><polygon class="cls-5" points="26.48 19.53 30 13.44 33.52 19.53 26.48 19.53"/><polygon class="cls-6" points="26.83 19.33 30 13.84 33.17 19.33 26.83 19.33"/><g class="cls-2"><path class="cls-6" d="M27.46,18.82h-.13l-.1,0v-.06l.12,0a2.36,2.36,0,0,0,.29,0,.38.38,0,0,1-.17,0Z"/><path class="cls-6" d="M27.16,19.21l-.07,0s.06-.05.11-.11a.32.32,0,0,1,.17,0l.11,0a.24.24,0,0,0,.22,0h.09l-.07.07a.27.27,0,0,1-.26,0,.17.17,0,0,1-.1,0,.29.29,0,0,0-.13,0l-.07.1Z"/><path class="cls-6" d="M27.78,19.27h-.25l-.09,0v0h-.12v0l.12,0h.09a.3.3,0,0,1,.25.07Z"/><path class="cls-6" d="M28.66,18.8c-.13,0-.16,0-.19-.17a.33.33,0,0,0-.19,0h-.1l0,0h.1a.28.28,0,0,1,.25,0c0,.13.07.15.16.15s0,0,.08-.06l.08,0c-.08.05-.12.06-.14.09Z"/><polygon class="cls-1" points="28.22 18.84 28.24 18.84 28.33 18.84 28.52 18.84 28.22 18.84"/><path class="cls-6" d="M28.46,19.12l-.08,0s.07-.06.12-.11a.28.28,0,0,1,.28-.07c.11.09.14.11.23.12h.13l.1,0c0,.06-.06.07-.09.07l-.14,0a.32.32,0,0,1-.21-.1c-.14-.05-.18,0-.26,0l-.08.11Z"/><path class="cls-6" d="M29.09,19.32a.48.48,0,0,1-.22-.06l-.08,0-.08.05,0-.05h0s0,0,.07-.05l.11,0a.46.46,0,0,0,.2.05h.08l.11,0a.13.13,0,0,1-.1.08Z"/><path class="cls-6" d="M29.86,18.68a.86.86,0,0,0-.28,0h-.11l0,0h.11a1,1,0,0,1,.31,0h.28l-.29.05Z"/><path class="cls-6" d="M30,19.05a.41.41,0,0,1-.22-.09l-.06,0a.38.38,0,0,0-.24-.08l-.08,0,0,0h0s0,0,.07-.06a.46.46,0,0,1,.29.1l.06,0A.38.38,0,0,0,30,19l.14-.06-.05.09a.19.19,0,0,1-.09,0Z"/><path class="cls-6" d="M30.13,19.2a.78.78,0,0,1-.22,0,.21.21,0,0,0-.21,0l0,0a.25.25,0,0,1,.27,0,1,1,0,0,0,.25,0l.11,0,.13-.07h.08l-.06.06a.37.37,0,0,1-.13.07l-.09.05Z"/><path class="cls-6" d="M30.9,18.84a.61.61,0,0,0-.29,0l0,0,0,0a.81.81,0,0,1,.3,0,.33.33,0,0,0,.15-.12l.05-.05a.46.46,0,0,1,.24,0,.57.57,0,0,1-.22,0c-.08.11-.13.17-.23.19Z"/><path class="cls-6" d="M31,19.17l0-.06.16,0c.06-.08.11,0,.15,0a.1.1,0,0,0,.07,0,.37.37,0,0,0,.18-.19.23.23,0,0,1-.18.25.23.23,0,0,1-.11-.05s0,0-.09,0l-.16,0Z"/><path class="cls-6" d="M31.24,18.94l0,0h0s0,0,.06-.08l.06-.05a.2.2,0,0,1,.15-.08c0-.07.11,0,.15,0s-.1,0-.13,0a.15.15,0,0,0-.13.07l-.06.05-.1.08Z"/><path class="cls-6" d="M31.69,19.18h-.06L31.7,19a.19.19,0,0,1,.16-.06s.07.05.1.12a.26.26,0,0,1,.1,0,.67.67,0,0,0,.12.06.12.12,0,0,1-.15,0l-.1-.05c-.05-.07-.07-.1-.09-.1s-.05,0-.1,0a1.94,1.94,0,0,0,0,.2Z"/><path class="cls-6" d="M32.21,18.84c-.07-.14-.1-.2-.18-.22a.42.42,0,0,1,0,.13l-.07,0a.48.48,0,0,0,.09-.14c.13,0,.17.1.21.18a.22.22,0,0,0,.2,0c0,.1-.11.11-.22.11Z"/><path class="cls-6" d="M32.88,19.12a.22.22,0,0,1-.16-.07.2.2,0,0,0-.09-.06c-.05,0-.08,0-.13.1l-.06,0c0-.06.08-.15.15-.16l.07,0a.23.23,0,0,1,.1.07l.1.07s0,0,.07-.06a.88.88,0,0,0,0,.1Z"/><path class="cls-6" d="M30.62,19.21l0,0h0s0,0,.07-.05a.6.6,0,0,0,.18-.21.74.74,0,0,1,.15,0l.15,0A.15.15,0,0,1,31,19H30.9a.38.38,0,0,1-.15.18.32.32,0,0,1-.13.07Z"/><path class="cls-6" d="M27.91,18.84h-.06s0-.06.15-.12.08,0,.12,0l.06.08-.08,0H28l-.11.07Z"/><path class="cls-6" d="M28.24,19.14l-.06,0a.18.18,0,0,0-.09,0l-.08.05,0-.05h0s0,0,.07-.06a.39.39,0,0,1,.13.05l.1,0-.07,0Z"/><polygon class="cls-4" points="30.01 18.08 29.98 13.89 30.01 13.89 30.01 18.08 30.01 18.08"/><polygon class="cls-4" points="28.48 16.49 28.48 16.46 31.51 16.46 28.48 16.49 28.48 16.49"/><polygon class="cls-4" points="32.27 17.78 28.88 15.85 28.89 15.82 32.27 17.78 32.27 17.78"/><polygon class="cls-4" points="27.73 17.81 31.14 15.81 31.16 15.84 27.73 17.81 27.73 17.81"/><polygon class="cls-4" points="29.33 17.68 29.3 17.67 30.59 15.45 29.33 17.68 29.33 17.68"/><polygon class="cls-4" points="30.81 17.85 29.36 15.38 29.38 15.37 30.81 17.85 30.81 17.85"/><path class="cls-6" d="M30.47,16.47A.47.47,0,1,1,30,16a.47.47,0,0,1,.47.46Z"/><path class="cls-7" d="M32.6,18.34l-1.57,0s0,.23.11.24a7.58,7.58,0,0,1,1.45.09c.06.11-1.26.16-1.26.16a5.94,5.94,0,0,1,1.23.08c.06.09-.65.11-.59.12a4.57,4.57,0,0,1,.89.07c.08.09-.34.15-.34.15l.65.06-.57-1Z"/><path class="cls-8" d="M29.77,16.17c-.05,0,.11,0,.1.16a.94.94,0,0,1-.14.26c0,.07.18.34.38.19a.33.33,0,0,0,.12-.45c-.17-.1-.28-.27-.46-.16Z"/><path d="M30.06,16.77a.32.32,0,0,0-.13-.13c-.05,0-.13-.06-.16,0v0s0,0,0,0v-.05s.13,0,.18,0,.13.11.12.15Z"/><path class="cls-9" d="M28.65,17.12c.19,0,.24.17.3.21s.22.05.26.08l.2.13s.07-.19.16-.21.44.23.44.23,0-.23.13-.2a5,5,0,0,1,.57.39s0-.13.13-.16.45.18.45.18,0-.18.11-.18.88.74,1,.75-.25.1-.25.1.06,0,0,.09a7.74,7.74,0,0,1-1,0s0,.06,0,.08-4.06.06-4.06.06a4.35,4.35,0,0,1,1.45-1.56Z"/><path class="cls-10" d="M30.24,18.65c.14,0,0-.43-.73-1,1.23.84.45,1,1.7,1l-1,0Z"/><path class="cls-10" d="M30.05,17.6s1.15.89,1.2.94h.25a7.48,7.48,0,0,1-1.45-.95Z"/><path class="cls-10" d="M30.74,17.77s1,.77.81.77a4.21,4.21,0,0,0,.65,0c-.63,0-.5-.07-1.46-.77Z"/><path class="cls-10" d="M31.32,17.8l.86.64.21-.07c-.26,0-.3-.07-1.07-.57Z"/><path class="cls-11" d="M28.8,17.2c.07.05.09.14.13.16a2.64,2.64,0,0,1,.66.44c.22.23.55.52.43.55s-.23-.09-.23-.09.17.27-.05.29-.76-.8-.76-.8.26.74-.07.71-.3-.56-.3-.56-.09.25-.16.25,0-.33,0-.33-.38.63-.53.56.59-1.23.88-1.18Z"/><path class="cls-11" d="M29.6,17.42c0-.06,0,0,.16,0a5.61,5.61,0,0,1,1,.88c0,.07-1.16-.55-1.21-.9Z"/><path class="cls-11" d="M30.3,17.54c-.07,0,.76.83,1,.78s-.9-.76-1-.78Z"/><path class="cls-11" d="M30.88,17.62c-.09,0,.81.8,1,.76s-.86-.75-1-.76Z"/><path class="cls-11" d="M31.41,17.66c-.1,0,.67.61.76.61s-.53-.65-.76-.61Z"/><path class="cls-12" d="M28.75,16a1.68,1.68,0,0,1,2.5,0l-.19-.33A1.55,1.55,0,0,0,30,15.29a1.57,1.57,0,0,0-1.06.38Z"/><path class="cls-8" d="M30.94,15.47a1.52,1.52,0,0,0-.94-.29,1.51,1.51,0,0,0-.95.3l-.15.26a1.68,1.68,0,0,1,2.2,0Z"/><path class="cls-13" d="M30.83,15.24A1.44,1.44,0,0,0,30,15a1.41,1.41,0,0,0-.8.21L29,15.5a1.69,1.69,0,0,1,1.92,0Z"/><path class="cls-11" d="M30.68,15l.15.25a1.53,1.53,0,0,0-.83-.22,1.49,1.49,0,0,0-.84.24l.15-.26a1.2,1.2,0,0,1,.69-.16,1.24,1.24,0,0,1,.68.15Z"/><path class="cls-14" d="M30.58,14.84l.12.22a1.55,1.55,0,0,0-1.43,0l.13-.2a1.22,1.22,0,0,1,.6-.13,1.64,1.64,0,0,1,.58.08Z"/><path class="cls-15" d="M30.51,14.72l.1.18a1.61,1.61,0,0,0-1.22,0l.1-.18a1.61,1.61,0,0,1,.51-.07,1.54,1.54,0,0,1,.51.07Z"/><path class="cls-4" d="M29.23,18.74l1.58,0s-.27,0-.27.06a3.77,3.77,0,0,0,.57.05,1.48,1.48,0,0,0-.35.05s.16,0,.16,0-.31,0-.31.07a1.65,1.65,0,0,0,.36,0,2.14,2.14,0,0,0-.52.05s.35.13.35.13l-2.08,0s.33-.05.33-.11-.23-.08-.23-.08a6.61,6.61,0,0,0,.88,0s-.17-.07-.17-.07.33,0,.36,0-.45-.11-.45-.11.27,0,.31,0-.52-.1-.52-.1Z"/><path class="cls-7" d="M28.93,18.78a12.36,12.36,0,0,0-1.7.14c-.13.08.88.17.88.17A4.6,4.6,0,0,0,27,19.2c-.08.09.62.08.62.08l-.78,0,.37-.64Z"/><path class="cls-13" d="M25.46,18.88a.1.1,0,0,1-.07.13.1.1,0,0,1-.13-.07.1.1,0,1,1,.2-.06Z"/><path class="cls-1" d="M25.46,18.88a.1.1,0,0,1-.07.13.1.1,0,0,1-.13-.07.1.1,0,1,1,.2-.06Z"/><path class="cls-13" d="M25.62,19.88c-.06.05-.11.09-.07.18l0,0-.17-.36,0,0c0,.07.05.08.08.06a.1.1,0,0,0,.05,0l.1-.09-.12-.26h-.07a.18.18,0,0,0-.1,0s0,.08,0,.13h0l-.13-.27h0c.08.08.13.07.23.07l.62-.06.11.13Zm.32-.55-.38,0,.1.22Z"/><path d="M25.52,20.08l-.17-.36,0,0,.13.33,0,0c0-.08,0-.12.06-.17l.52-.49L26,19.28l-.68.06a.23.23,0,0,1-.11,0h.11l.69-.05.12.12-.52.49c-.06.06-.1.09-.06.18h0Zm-.07-.31a.06.06,0,0,1-.05,0h.05l.17-.14-.12-.25h-.07l-.09,0a.09.09,0,0,0,0,.12l0,0a.11.11,0,0,1,0-.09l.08,0h.09l.13.26-.18.14Z"/><path class="cls-13" d="M26.18,20.76c-.07,0-.07.08,0,.14l0,0-.24-.33,0,0c0,.07.08.07.15,0l.47-.35h0l-.73.23,0,0,.42-.62h0l-.37.27c-.14.1-.15.13-.1.21l0,0-.17-.23,0,0c.07.07.09.08.24,0l.34-.26c.07,0,.06-.08,0-.14l0,0,.19.27-.3.45.51-.16.19.26,0,0c-.05-.06-.07-.08-.14,0Z"/><path d="M26.12,20.93l-.23-.32h.05l.19.3,0,0c0-.06,0-.1,0-.15l.43-.32c.06,0,.09,0,.13,0l-.06,0-.49.35c-.06,0-.06.08,0,.14l0,0ZM26,20.64s0,0-.05,0H26l.5-.35-.43.33-.07,0Zm-.19-.15,0,0,.69-.19h0l-.72.23Zm1,0h-.05l-.15-.25-.51.16.3-.45,0,0,0,0-.31.45.51-.16.2.26Zm-1.06-.13,0,0c0-.06,0-.1.14-.18l.36-.27h0l-.36.27c-.14.11-.15.13-.1.21Zm-.09-.17-.05,0c.07,0,.08,0,.2-.07l.35-.26c.06-.05.06-.09,0-.14l0,0a.13.13,0,0,1-.06.11l-.34.26a.33.33,0,0,1-.16.08Z"/><path class="cls-13" d="M26.31,21.05c.06.05.09.05.15,0l.35-.41c.05-.06.05-.09,0-.15l0,0,.5.46-.08.2h0a.43.43,0,0,0-.11-.35c-.08-.07-.1,0-.16,0l-.14.16,0,0c.08.07.13.09.23,0l0,0-.21.24,0,0c.05-.1,0-.16-.06-.23v0l-.16.18c0,.05-.07.09,0,.14a.47.47,0,0,0,.38.1v0l-.2.1-.5-.45Z"/><path d="M26.78,21.54h0l-.5-.45h0l.45.44,0,0,0,0Zm.16-.13h-.05a.45.45,0,0,1-.3-.11.1.1,0,0,1,0-.14l.15-.18c.07.06.11.1.11.16a.24.24,0,0,0-.09-.14l-.17.16a.09.09,0,0,0,0,.13.39.39,0,0,0,.37.1l0,0Zm-.56-.31,0,0c.06,0,.07,0,.11,0l.36-.4a.13.13,0,0,0,0-.07.09.09,0,0,0,0-.07l.05,0v0a.13.13,0,0,1,0,.07l-.36.41s-.05.05-.08.05ZM27.2,21a.56.56,0,0,0-.12-.2c-.07-.06-.09,0-.14,0l-.06.07.05-.07c.06-.07.08-.09.16,0a.39.39,0,0,1,.11.2Z"/><path class="cls-13" d="M27.59,21.84a.24.24,0,0,0,.06.23l0,0L27.4,22s0-.07,0-.11l0-.15c0-.16,0-.19-.05-.22l-.13.22a.09.09,0,0,0,0,.14v0l-.34-.21,0,0a.09.09,0,0,0,.14,0l.29-.46c0-.07,0-.1,0-.15l0,0,.4.26c.14.09.18.22.12.32a.23.23,0,0,1-.29,0,.29.29,0,0,1,0,.13Zm-.17-.4c.16.1.24.08.3,0s0-.16-.07-.22-.08,0-.12,0l-.12.21Z"/><path d="M27.63,22.1,27.4,22v-.09l0-.17c0-.16,0-.19,0-.21l-.13.21c0,.06,0,.09,0,.14l-.06,0a.11.11,0,0,1,0-.12l.13-.21c.05,0,.08.06.06.22v.16a.38.38,0,0,0,0,.1l.22.14,0,0c-.08,0-.07-.13-.07-.22v-.13a.24.24,0,0,0,0-.12c.14,0,.23,0,.29-.07s0-.22-.12-.31l-.09-.06.1.05c.13.09.18.22.11.33s-.16.11-.29.06a.18.18,0,0,1,0,.1l0,.15c0,.09,0,.17.07.22l0,0ZM27,21.65h0s0,0,.07-.05l.28-.46c0-.07,0-.1,0-.14l.06,0a.12.12,0,0,1,0,.11l-.28.46s-.05.06-.08.06Zm.57-.14h0a.32.32,0,0,1-.17-.07h0a.43.43,0,0,0,.17.06h0c.05,0,.09,0,.13-.09s0-.15-.08-.22l0,0s0,0-.06.06l-.05.08,0-.09s0-.06.07-.06l0,0c.11.07.13.15.08.24a.16.16,0,0,1-.14.09Z"/><path class="cls-13" d="M28.05,21.53c0-.08,0-.11-.05-.14v0l.37.17,0,0c-.07,0-.11,0-.14.05l-.22.5c0,.07,0,.1.05.13v0l-.36-.17v0c.08,0,.11,0,.14-.05Z"/><path d="M28,22.27l-.36-.16h0l.35.16v0c-.07,0-.09-.06-.06-.14l.23-.49c0-.05,0-.07.08-.07h.05l-.05,0s-.05,0-.07.06l-.23.5c0,.07,0,.1.06.13l0,0Zm-.34-.17.06,0s0,0,.07-.06l.22-.5c0-.06,0-.1-.05-.13l.06,0a.13.13,0,0,1,0,.12l-.22.49c0,.05-.05.07-.08.07H27.7Z"/><path class="cls-13" d="M28.94,22h-.05a.32.32,0,0,0-.19-.29c-.16-.06-.26.14-.3.26s0,.41.13.45a.3.3,0,0,0,.27-.08l0,0a.4.4,0,0,1-.4.11.38.38,0,0,1-.23-.5.42.42,0,0,1,.5-.32.19.19,0,0,1,.09.05l.06,0a.27.27,0,0,0,.09,0h0Z"/><path d="M28.54,22.45a.23.23,0,0,1-.11,0,.39.39,0,0,1-.24-.5.44.44,0,0,1,.51-.33l.09,0,.06.05h0l-.06,0-.09-.05a.43.43,0,0,0-.5.32.38.38,0,0,0,.23.49.31.31,0,0,0,.28,0,.26.26,0,0,1-.17.05Zm-.13-.19a.42.42,0,0,1,0-.34c0-.06.11-.28.26-.28l.05,0h0c-.19,0-.27.2-.29.26a.47.47,0,0,0,0,.34Z"/><path class="cls-13" d="M29.5,22.46c0,.08,0,.14.11.16v0l-.39-.06v0c.07,0,.09,0,.09,0v-.07l0-.13L29,22.27l0,.07a.24.24,0,0,0,0,.09c0,.05,0,.08.08.09v0l-.3,0v0a.25.25,0,0,0,.19-.15l.3-.54.17,0Zm-.26-.57-.19.33.24,0Z"/><path d="M29.6,22.66l-.38-.06.1-.08s0,0-.06,0l.34.09v0c-.1,0-.1-.07-.11-.15l-.11-.71-.16,0-.3.54a.28.28,0,0,1-.11.13.36.36,0,0,0,.1-.14l.31-.54.17,0,.1.71c0,.09,0,.14.11.15v.05ZM29,22.52H29a.15.15,0,0,1,0-.09.3.3,0,0,1,0-.1l0-.06.29,0,0,.14v.07h0l0-.2-.27,0,0,.06a.36.36,0,0,0,0,.09c0,.06.06.08.08.09Z"/><path class="cls-13" d="M30.64,22l-.05,0a.31.31,0,0,0-.28-.21c-.17,0-.19.23-.18.36s.15.38.28.37a.29.29,0,0,0,.22-.18l0,0a.37.37,0,0,1-.32.25.38.38,0,0,1-.4-.38.42.42,0,0,1,.35-.48.2.2,0,0,1,.11,0h.07a.13.13,0,0,0,.08,0h0Z"/><path d="M30.31,22.67a.4.4,0,0,1-.38-.39.45.45,0,0,1,.36-.49.31.31,0,0,1,.11,0l.07,0,.07,0h0a.11.11,0,0,1-.07,0l-.08,0h-.08a.43.43,0,0,0-.37.48.39.39,0,0,0,.37.37h0a.29.29,0,0,0,.21-.09.24.24,0,0,1-.21.1Zm.1-.1c-.13,0-.27-.1-.29-.37s0-.36.19-.36h0a.29.29,0,0,1,.21.09.36.36,0,0,0-.19-.08c-.21,0-.2.29-.2.35,0,.27.15.36.26.36a.26.26,0,0,0,.24-.17.64.64,0,0,1,0,.07.27.27,0,0,1-.2.11Z"/><path class="cls-13" d="M30.8,22.56c.07,0,.1,0,.08-.12l-.12-.53c0-.08-.05-.09-.13-.08v0l.65-.16.12.19,0,0a.42.42,0,0,0-.35-.11c-.1,0-.09.06-.07.14l0,.21h0c.11,0,.15-.06.16-.18h0l.08.32h0c-.06-.11-.12-.12-.23-.09h0l.05.23c0,.07,0,.11.11.09a.48.48,0,0,0,.3-.26h0l0,.23-.66.15Z"/><path d="M30.8,22.61v-.05s.07,0,.08,0a.11.11,0,0,0,0-.08l-.12-.53c0-.06,0-.08-.07-.08h0s.05,0,.06.08l.12.53a.11.11,0,0,1,0,.08.12.12,0,0,1-.08.05v0l.66-.18v0l-.66.16Zm.35-.13c-.08,0-.09-.05-.1-.09L31,22.15c.18,0,.17,0,.22,0a.24.24,0,0,0-.19,0l0,.23c0,.06,0,.09.07.09a.43.43,0,0,0,.32-.26v.05a.54.54,0,0,1-.3.21ZM31,22l0-.08c0-.08,0-.12.08-.14a.58.58,0,0,1,.24,0l-.17,0c-.16,0-.15.06-.14.14L31,22Z"/><path class="cls-13" d="M32.19,21.88,32,21.54c0-.09-.07-.14-.17-.1l0,0,.27-.12,0,0c-.09.06-.08.1,0,.19l.25.58-.09,0-.66-.41.17.4c0,.11.07.13.19.1v0l-.29.13v0c.09-.06.09-.1.05-.19l-.2-.47a.2.2,0,0,0-.15,0v0l.25-.11Z"/><path d="M31.67,22.39l0,0c.09-.06.1-.1.06-.19l-.21-.47a.15.15,0,0,0-.1,0l0,0,.14,0,.21.48c0,.09,0,.13-.06.2v0l.06,0-.06,0Zm.24-.15h0c-.06,0-.08,0-.12-.12l-.17-.39.67.39.09,0-.25-.56c0-.07,0-.11,0-.15a.19.19,0,0,0,0,.14l.25.58-.1,0-.67-.4.18.39c0,.11.06.13.18.1l0,0Zm.29-.36-.6-.36-.25.11h0l.26-.12.59.37L32,21.54c0-.06-.05-.11-.11-.11h0c.06,0,.09,0,.12.12l.15.34Z"/><path class="cls-13" d="M32.71,20.87l.18.16,0,0a.36.36,0,0,0-.32,0l.36.52c0,.07.08.07.14,0l0,0-.32.23,0,0a.09.09,0,0,0,0-.14l-.36-.53a.39.39,0,0,0-.1.31h0l-.08-.22Z"/><path d="M32.73,21.86l0,0c.07,0,.07-.09,0-.15l-.35-.53a.45.45,0,0,0-.1.31l0-.05a.53.53,0,0,1,.13-.26l.36.53c0,.06,0,.1,0,.15v0l.08-.05-.08.06Zm.24-.23s0,0-.08-.05l-.35-.53a.27.27,0,0,1,.25,0,.48.48,0,0,0-.25,0l.36.52c.05.07.08.07.14,0l0,0Zm-.79-.35,0,0,.55-.39.18.15h0l-.13-.15-.54.38v0Z"/><path class="cls-13" d="M33.67,20.83a.21.21,0,0,0,.23,0l0,0-.19.2-.1,0L33.48,21c-.15-.06-.18,0-.22,0l.18.18c.05.05.09.05.15,0l0,0-.28.28,0,0c.06-.06.06-.1,0-.15l-.38-.39c0-.06-.09-.05-.15,0l0,0,.34-.34c.12-.12.25-.13.33,0a.23.23,0,0,1,0,.3.17.17,0,0,1,.12,0Zm-.43.06c.13-.12.13-.21,0-.29s-.16-.07-.24,0,0,.07,0,.12l.17.17Z"/><path d="M33.33,21.44l0,0c.05-.06.05-.1,0-.15l-.37-.39c-.06-.05-.09-.05-.14,0l0-.05s.07,0,.12,0l.37.38c.06.06,0,.1,0,.16l0,0,.07-.06-.06.07Zm.18-.27a.1.1,0,0,1-.08,0L33.26,21c0-.05.09-.06.22,0l.25.09h0l.05,0,0,.05L33.48,21c-.13,0-.18,0-.21,0l.17.17c.05.06.08.06.14,0l0,.05Zm-.27-.27h0c.13-.15.11-.23,0-.3s-.14-.07-.23,0,0,.07,0,.11l.07.07-.08-.06s-.06-.07,0-.13.16-.1.24,0,.08.19,0,.31Zm.55,0-.13,0-.12-.05-.1,0h0l.08,0,.13,0c.08,0,.16,0,.22,0l0,0Zm-.33-.16a.22.22,0,0,0,0-.23.23.23,0,0,0-.33,0l-.07.08.06-.09a.26.26,0,0,1,.35,0,.21.21,0,0,1,0,.24Z"/><path class="cls-13" d="M34.23,20.1c.08,0,.14,0,.19,0l0,0-.22.32,0,0c0-.06,0-.08,0-.1l-.06,0-.13,0-.17.23,0,.06a.24.24,0,0,0,.06.08s.09,0,.13,0l0,0-.17.24,0,0c0-.1,0-.15,0-.23L33.52,20l0-.16Zm-.62,0,.21.32.15-.2Z"/><path d="M34,20.82l0,0a.23.23,0,0,0,0-.24L33.51,20l.06-.16.66.21c.11,0,.14,0,.19,0l0,0a.19.19,0,0,1-.15,0l-.67-.23,0,.16.35.52c.06.08.09.13.05.23l0,0,0,0,0,.06Zm0-.22a.21.21,0,0,1-.11-.09l0-.06.16-.24.14.05.06,0L34,20.22l-.16.23,0,.06.06.07c.07,0,.1,0,.12,0l0,0Zm-.17-.2-.23-.33.37.13-.14.2Z"/><path class="cls-13" d="M34.44,20c0-.07,0-.11,0-.14l-.48-.24c-.07,0-.11,0-.14.05l0,0,.17-.36,0,0c0,.07,0,.11,0,.14l.48.24c.06,0,.09.05.12,0a.48.48,0,0,0,0-.39l0,0,.17.16-.3.61Z"/><path d="M34.48,20.05l0,0c0-.08,0-.11,0-.15l-.48-.24c-.09,0-.11,0-.14.05l0-.06,0,0,.54.26a.1.1,0,0,1,.05.15l0,0,.3-.61,0,0,0,0-.29.62Zm.06-.31L34,19.48s-.07-.05-.07-.09a.11.11,0,0,0,.07.08l.48.24c.08,0,.1,0,.12,0a.49.49,0,0,0,0-.39l0,0a.55.55,0,0,1,0,.36s0,.06-.07.06Z"/><path class="cls-13" d="M34.52,18.88a.1.1,0,0,1,.13-.06c.06,0,.08.07.07.13a.1.1,0,0,1-.13.06.11.11,0,0,1-.07-.13Z"/><path d="M34.62,19h0a.11.11,0,0,1-.07-.14.1.1,0,0,1,.1-.07c.09,0,.12.08.1.14a.1.1,0,0,1-.1.07Z"/><path class="cls-13" d="M25.46,17.87a.24.24,0,0,0,.13-.2h0l.05.27-.09.07-.13.08c-.13.09-.13.14-.13.18l.25,0c.08,0,.1,0,.08-.13h0l.06.39h0c0-.08,0-.1-.12-.09l-.53.08c-.08,0-.1.05-.09.12h0l-.08-.48c0-.16.05-.28.17-.3s.19.09.23.19a.26.26,0,0,1,.09-.09Zm-.19.39c0-.18-.1-.23-.21-.21s-.14.09-.13.21,0,.07.11.06l.23,0Z"/><path d="M24.94,18.63l-.07-.48c0-.16,0-.28.17-.3s.21.12.23.19a.18.18,0,0,1,.08-.09l.11-.08c.07-.05.13-.1.12-.19l0,.05a.38.38,0,0,1-.13.15l-.11.08a.18.18,0,0,0-.09.08c0-.07-.09-.18-.2-.18s-.21.14-.19.29l.07.47h0a.13.13,0,0,1,0-.09s0,0,.08,0l.53-.09a.09.09,0,0,1,.1,0,.09.09,0,0,0-.07,0l-.56.09s-.06,0-.07,0a.1.1,0,0,0,0,.08Zm.08-.3c-.07,0-.08,0-.09-.07a.21.21,0,0,1,0-.16.13.13,0,0,1,.11-.05h0c.1,0,.15.07.17.22h0c0-.15-.08-.21-.17-.21h0a.11.11,0,0,0-.1.05s0,.08,0,.15,0,.06,0,.06l.15,0-.1,0Zm.3,0c0-.05,0-.1.13-.19l.13-.09.08-.06v-.05l0,.05a.13.13,0,0,1-.06,0l-.15.11c-.13.08-.14.13-.13.17l.24,0c.07,0,.09,0,.08-.12l0,.07a.14.14,0,0,1-.1.06l-.25,0Z"/><path class="cls-13" d="M25.59,17.63c0-.08,0-.11-.1-.11l-.53,0c-.08,0-.1,0-.11.1h0l0-.68.21-.06v0a.47.47,0,0,0-.19.32c0,.1,0,.1.11.1h.22v0a.17.17,0,0,0-.12-.21v0h.32v.05c-.11,0-.14.08-.14.19v0h.24c.06,0,.11,0,.11-.08a.49.49,0,0,0-.17-.36l0,0,.2.09,0,.68Z"/><path d="M25.63,17.64h0c0-.09,0-.12-.1-.12l-.53,0a.09.09,0,0,0-.1.1v-.07s0,0,.09,0l.54,0c.08,0,.11,0,.11.12h0l0-.68h0l0,.69Zm-.13-.3h-.25c0-.09,0-.15.06-.19a.22.22,0,0,0,0,.16l.23,0h0c.07,0,.1,0,.1-.08a.51.51,0,0,0-.16-.36l.05,0a.55.55,0,0,1,.12.34c0,.08-.05.09-.1.09Zm-.52,0c-.08,0-.11,0-.11-.11A.33.33,0,0,1,25,17a.42.42,0,0,0-.08.22c0,.09,0,.09.1.1h0Z"/><path class="cls-13" d="M25.36,16.46l.23.06c.08,0,.11,0,.12-.09h0l-.09.39h0c0-.07,0-.11-.08-.12L25,16.58c-.08,0-.11,0-.13.08h0l.09-.39c.05-.25.17-.32.28-.29s.18.24.14.4Zm0,0v-.07c0-.13,0-.2-.13-.23a.16.16,0,0,0-.21.13c0,.09,0,.1.09.11Z"/><path d="M25.67,16.84h-.05s0-.07,0-.09,0,0-.07,0L25,16.58c-.09,0-.11,0-.12.08V16.6a.09.09,0,0,1,.07,0l.56.12a.15.15,0,0,1,.08,0,.16.16,0,0,1,0,.1h0l0-.09v.1Zm0-.31h0l-.27-.06,0-.1c0-.17.05-.35-.14-.4s-.24.1-.28.29l0,.09v-.09c0-.19.13-.3.25-.3s.23.23.19.41l0,.1.22,0c.09,0,.1,0,.12-.08v.07a.09.09,0,0,1-.07,0Zm-.55-.12c-.07,0-.11,0-.09-.12s.07-.14.15-.14h.06c.13,0,.17.1.14.24h0c0-.15,0-.2-.13-.23h-.06c-.07,0-.12,0-.14.13s0,.09.08.11h0Z"/><path class="cls-13" d="M25.65,15.78c.18.08.26,0,.31-.07s0-.24-.16-.3l-.36-.15c-.08,0-.11,0-.14.06h0l.11-.26,0,0c0,.07,0,.11.06.14l.37.15a.26.26,0,0,1,.15.4c-.08.2-.21.27-.37.2l-.39-.16c-.07,0-.11,0-.14.06h0l.15-.37h0c0,.07,0,.11.06.14Z"/><path d="M25.72,16l-.11,0-.4-.17c-.08,0-.1,0-.12.06V15.8l.06,0,.45.18c.16.06.29,0,.37-.21a.3.3,0,0,0,0-.24.27.27,0,0,0-.18-.14l-.37-.16a.1.1,0,0,1-.06-.05,0,0,0,0,1,0-.05s0,0,0,0,0,0,.06,0l.37.16a.31.31,0,0,1,.18.15.32.32,0,0,1,0,.25c-.06.15-.15.23-.27.23Zm.09-.16h0a.41.41,0,0,1-.16-.05l-.37-.15s-.07,0-.07-.08a.1.1,0,0,0,.08.07l.36.15a.47.47,0,0,0,.16.05h0c.07,0,.11,0,.14-.11s0-.22-.16-.29l-.36-.15c-.08,0-.1,0-.12.06v-.06l.06,0,.42.17c.17.07.22.16.16.3a.16.16,0,0,1-.15.12Z"/><path class="cls-13" d="M26.1,15.41l0,0c0-.07,0-.1,0-.15L25.59,15c-.07,0-.1,0-.14,0l0,0,.22-.34c.15-.25.26-.25.34-.2s.08.19.05.29h0c.09-.1.19-.18.32-.1s.13.2,0,.39Zm-.2-.55c.08-.12.07-.2,0-.26s-.16,0-.22.06,0,.06,0,.08a.07.07,0,0,0,0,0l.2.12Zm.21.21c.08,0,.11.08.18,0a.18.18,0,0,0-.07-.27c-.08,0-.16-.07-.27.11l0,0Z"/><path d="M26.1,15.42l0,0c0-.08,0-.11,0-.15L25.59,15c-.09,0-.11,0-.14,0l0-.05,0,0,.07,0,.45.29c.07,0,.08.08,0,.15l0,0,.25-.41c.11-.17.1-.3,0-.37s-.24,0-.32.09h0c.07-.08.19-.17.31-.09s.13.21,0,.39l-.26.41Zm.11-.3a.26.26,0,0,1-.1,0l-.2-.13c.14-.25.2-.25.31-.17a.17.17,0,0,1,.07.27s-.06.07-.08.07Zm-.09-.37c-.05,0-.11,0-.17.14l.16.17c.09.06.12.07.17,0a.17.17,0,0,0-.06-.26l-.1,0Zm-.21.11h0c.07-.14.05-.2,0-.26s-.15,0-.22.07l0,.05a.08.08,0,0,1,0-.06.15.15,0,0,1,.23-.07c.1.07.1.15,0,.27Zm-.32-.15,0-.09c.13-.2.23-.27.35-.19s.07.21.05.27,0-.2-.06-.26-.21,0-.33.19l-.05.08Z"/><path class="cls-13" d="M26.52,14.69c.05-.06.06-.1,0-.15l-.4-.36c-.06-.06-.09,0-.15,0l0,0,.26-.29,0,0c-.06.06-.06.1,0,.15l.4.36c.05,0,.07.07.13,0a.47.47,0,0,0,.08-.38l0,0,.12.2-.45.51Z"/><path d="M26.55,14.72l0,0a.2.2,0,0,0,0-.08.13.13,0,0,0,0-.06l-.39-.37c-.06,0-.09,0-.14,0l0,0a.1.1,0,0,1,.11,0l.4.37a.15.15,0,0,1,.05.07s0,.05-.05.08l0,0,.45-.5,0,0,0,0-.45.51Zm.16-.27a.08.08,0,0,1-.07,0l-.4-.36a.11.11,0,0,1,0-.11.11.11,0,0,0,.05.1l.39.36s.05,0,.07,0a.43.43,0,0,0,.14-.41l0,0a.5.5,0,0,1-.1.35l-.06,0Z"/><path class="cls-13" d="M26.71,13.57c-.05-.06-.09-.06-.15,0l0,0,.3-.26,0,0c-.06,0-.07.09,0,.15l.34.41c0,.06.09.06.15,0l0,0-.3.26,0,0c.06-.05.06-.09,0-.15Z"/><path d="M27.06,14.18l0,0c.06-.06.07-.09,0-.15l-.34-.41c-.05-.06-.08-.06-.14,0l0,0s.08,0,.11,0l.35.42c.05.06,0,.1,0,.15l0,0,.06-.05-.06.07Zm.21-.25s-.05,0-.08,0l-.34-.42s-.05-.07,0-.11a.13.13,0,0,0,0,.1l.34.42c0,.06.07.06.14,0l0,0Z"/><path class="cls-13" d="M27.67,13l0,0a.31.31,0,0,0-.34-.05c-.15.09-.06.3,0,.41s.31.25.42.18a.29.29,0,0,0,.11-.26h0a.37.37,0,0,1-.7.24.44.44,0,0,1,.08-.6l.09,0,.08,0,0-.06v0Z"/><path d="M27.51,13.77a.38.38,0,0,1-.34-.2.43.43,0,0,1,.08-.6l.09,0,.07,0,.05-.06h0s0,.05,0,.06l-.07,0-.1,0a.44.44,0,0,0-.08.59.39.39,0,0,0,.53.13.36.36,0,0,0,.15-.19.3.3,0,0,1-.15.2.35.35,0,0,1-.19.06Zm.09-.14a.39.39,0,0,1-.31-.22c-.09-.14-.14-.33,0-.41a.31.31,0,0,1,.28,0,.36.36,0,0,0-.27,0c-.16.1,0,.35,0,.4.19.3.33.23.41.18a.31.31,0,0,0,.12-.26.17.17,0,0,1,0,.07.32.32,0,0,1-.12.2.21.21,0,0,1-.12,0Z"/><path class="cls-13" d="M28.57,13.07c.05.06.08.11.18.08v0l-.36.15v0c.06,0,.07,0,.06-.08l0-.05-.09-.11-.26.11v.07a.31.31,0,0,0,0,.1c0,.05.08.05.13,0v0l-.28.12v0a.2.2,0,0,0,.08-.22v-.63l.13-.11Zm-.52-.35v.38l.23-.09Z"/><path d="M27.94,13.52v0a.24.24,0,0,0,.08-.22l0-.63.13-.11.45.54c.05.06.08.09.12.09l0,0a.19.19,0,0,1-.15-.09l-.46-.56-.12.12,0,.62c0,.09,0,.16-.09.22v0l.28-.11c-.09,0-.13,0-.14-.07a.15.15,0,0,1,0-.09v-.08l.26-.11.1.1a.25.25,0,0,1,0,.07l-.12-.17-.26.11v.07a.3.3,0,0,0,0,.1.06.06,0,0,0,.06,0h0l.06,0-.28.12Zm.13-.41,0-.41.24.31-.22.1Z"/><path class="cls-13" d="M29.09,13.06c.08,0,.1,0,.09-.11l-.06-.54c0-.08,0-.1-.11-.09v0l.39,0a.41.41,0,0,1,.19,0,.4.4,0,0,1,.29.36.39.39,0,0,1-.2.39.42.42,0,0,1-.19.06l-.39,0Zm.27-.15c0,.09,0,.11.11.1s.23-.1.2-.41-.14-.33-.29-.32-.08.05-.07.12Z"/><path d="M29.09,13.1v0c.09,0,.11,0,.1-.11l-.06-.54c0-.07,0-.09-.08-.09h0s.05,0,.06.1l.06.54c0,.08,0,.11-.1.12v0h0l.39,0a.43.43,0,0,0,.18-.05.38.38,0,0,0,.2-.39.4.4,0,0,0-.28-.36h-.27l.07,0a.64.64,0,0,1,.2,0,.41.41,0,0,1,.29.37.4.4,0,0,1-.2.4.48.48,0,0,1-.19.05l-.39,0Zm.37-.08c-.09,0-.1,0-.1-.11l-.06-.51c0-.07,0-.11.08-.12h0c.15,0,.23.1.26.32s0,.4-.21.42Zm0-.74h0c-.08,0-.08,0-.07.1l.06.52c0,.07,0,.1.06.1s.27-.07.23-.41-.09-.31-.24-.31Z"/><path class="cls-13" d="M29.92,13c.08,0,.11,0,.12-.09l0-.54c0-.08,0-.11-.1-.11v0l.67.05.06.21h0a.4.4,0,0,0-.3-.2c-.1,0-.1,0-.11.11v.22h0a.17.17,0,0,0,.21-.12h0l0,.33h0c0-.11-.08-.14-.19-.15h0l0,.24c0,.06,0,.11.08.11a.49.49,0,0,0,.36-.15h0l-.1.21L29.92,13Z"/><path d="M30.59,13.06h0L29.92,13l0,0,.62.07,0-.05,0,.06ZM30.32,13c-.11,0-.11-.06-.11-.12l0-.24a.22.22,0,0,1,.18.06.2.2,0,0,0-.15,0l0,.23c0,.06,0,.1.08.11h0a.46.46,0,0,0,.35-.16v.05a.6.6,0,0,1-.32.12ZM30,13a.09.09,0,0,0,.05-.09l0-.54c0-.08,0-.1-.1-.11H30a.14.14,0,0,1,0,.11l0,.54A.08.08,0,0,1,30,13Zm.28-.57v0c0-.08,0-.12.09-.12a.43.43,0,0,1,.23.1.48.48,0,0,0-.21-.09h0c-.09,0-.1,0-.1.11v0Z"/><path class="cls-13" d="M31.7,13.1l.12-.36c0-.09,0-.14-.07-.19l0,0,.27.09v0c-.11,0-.13,0-.16.11l-.2.59-.09,0-.22-.75-.14.41c0,.12,0,.14.07.2v0l-.3-.1v0c.11,0,.14,0,.17-.1l.16-.49a.22.22,0,0,0-.09-.12v0l.27.09Z"/><path d="M31.68,13.36l-.1,0-.23-.76-.13.41c0,.11,0,.14.07.2h-.06c-.05-.06-.05-.1,0-.19l.14-.41.23.75.09,0,.2-.59c0-.07,0-.11.1-.12a.14.14,0,0,0-.09.12l-.2.6Zm-.51-.2-.19,0h0l.07,0c.05,0,.08,0,.1-.1l.17-.49a.18.18,0,0,0-.1-.11h.05a.33.33,0,0,1,.06.1l-.17.49c0,.08-.05.11-.11.11l.12.07Zm.53-.06-.2-.67h0l.19.68.11-.36c0-.09,0-.14-.06-.18h.06c.05,0,0,.1,0,.17l-.12.36Z"/><path class="cls-13" d="M32.17,12.84c0-.07,0-.1-.05-.14v0l.36.18,0,0c-.07,0-.1,0-.14,0l-.24.48c0,.07,0,.1,0,.14l0,0-.35-.18,0,0c.07,0,.1,0,.14,0Z"/><path d="M32.12,13.59l-.35-.18.05,0,.3.19,0,0c-.08,0-.09-.07,0-.14l.24-.49s0-.06.08-.06h0s0,0-.07.06l-.24.48c0,.07,0,.1,0,.14l0,0Zm-.27-.19h0s0,0,.07-.06l.24-.48c0-.07,0-.1,0-.13l.06,0a.09.09,0,0,1,0,.11l-.24.49s0,.07-.08.07Z"/><path class="cls-13" d="M33.07,13.5H33a.34.34,0,0,0-.09-.34c-.14-.1-.29.06-.37.17s-.1.39,0,.46a.3.3,0,0,0,.29,0v0a.36.36,0,0,1-.41,0,.38.38,0,0,1-.08-.54.41.41,0,0,1,.57-.17l.07.08,0,.05.08,0h0Z"/><path d="M32.64,13.88a.36.36,0,0,1-.2-.06.39.39,0,0,1-.09-.55.43.43,0,0,1,.58-.17.15.15,0,0,1,.07.07l.06.06.07,0h0s-.06,0-.08,0l0-.06h0l-.07-.07a.43.43,0,0,0-.57.16.38.38,0,0,0,.09.54.31.31,0,0,0,.31,0,.18.18,0,0,1-.12,0Zm0-.05a.2.2,0,0,1-.13,0c-.11-.07-.15-.25,0-.47s.25-.26.37-.17a.26.26,0,0,1,.11.21.3.3,0,0,0-.12-.21c-.11-.08-.27,0-.35.17s-.11.39,0,.46a.28.28,0,0,0,.28,0l0,0Z"/><path class="cls-13" d="M33.37,14.36c0,.08-.07.13,0,.2l0,0-.28-.28,0,0s.08,0,.1,0,0,0,0-.06l.07-.12-.2-.2L33,14a.14.14,0,0,0-.08,0s0,.09,0,.13l0,0-.22-.2,0,0a.21.21,0,0,0,.24,0l.56-.26.15.08Zm.11-.62-.34.17.17.17Z"/><path d="M33.34,14.59l-.28-.27h0l.24.27,0,0c-.07-.07,0-.12,0-.19l.32-.64-.15-.07-.55.27a.23.23,0,0,1-.21,0h.07a.51.51,0,0,0,.14,0l.55-.27.16.08-.31.63c-.05.09-.07.13,0,.2l0,0h0Zm-.18-.26,0,0h0l.12-.19-.2-.2L33,14l-.08,0a.08.08,0,0,0,0,.12l-.05,0a.18.18,0,0,1,0-.1L33,14l.07,0,.21.2-.13.2Z"/><path class="cls-13" d="M33.9,15.07a.21.21,0,0,0,0,.23l0,0-.16-.23a.31.31,0,0,0,0-.1l.08-.13c.08-.14.07-.18,0-.22l-.2.14c-.07.05-.07.09,0,.15l0,0-.22-.33,0,0c0,.07.08.08.14,0l.45-.3a.09.09,0,0,0,0-.15l0,0,.27.4a.23.23,0,0,1,0,.34c-.1.07-.21,0-.29-.07A.28.28,0,0,1,34,15Zm0-.44c.1.15.18.16.28.1s.09-.14,0-.24-.07-.05-.12,0l-.2.13Z"/><path d="M33.83,15.32l-.15-.23,0-.07.1-.16c.08-.13.06-.18,0-.22l-.2.15c-.06,0-.07.07,0,.14l-.05,0a.12.12,0,0,1,.06-.1l.21-.14s0,.09,0,.22l-.08.14-.05.09.15.22,0,0c-.06-.08,0-.15,0-.23l.07-.12a.25.25,0,0,0,0-.11c.11.09.21.12.29.06a.23.23,0,0,0,0-.33l-.06-.09.07.08c.09.14.09.28,0,.35s-.19,0-.29-.07,0,.07,0,.11l-.07.13a.22.22,0,0,0,0,.22l0,0Zm.25-.55c-.06,0-.11,0-.18-.14h0c.11.14.17.16.28.09s.09-.13,0-.23l-.06,0-.13.08.14-.09.05.05c.08.1.07.18,0,.24a.17.17,0,0,1-.11,0Zm-.6-.11a.07.07,0,0,1-.06,0h.06l.5-.33s.05,0,.05-.06,0,0,0-.08l0,.05v0s0,.05,0,.07l-.44.31a.11.11,0,0,1-.07,0Z"/><path class="cls-13" d="M34.3,16c-.06.05-.11.09-.08.18h0L34,15.81h0c0,.06,0,.07.08.06l.06,0,.1-.09-.1-.26h-.08l-.09,0s0,.07,0,.12l0,0-.12-.28,0,0c.06.09.12.09.22.09l.62,0,.11.13Zm.34-.52h-.38l.1.23Z"/><path d="M34.18,16.18,34,15.81l0,0,.11.34h0c0-.09,0-.13.07-.17l.54-.46-.11-.13-.61,0c-.09,0-.13,0-.17,0a.3.3,0,0,0,.13,0l.66,0,.11.14L34.3,16c-.07.06-.1.09-.07.18l0,0Zm0-.31,0,0,0,0,.18-.13-.11-.26H34a.09.09,0,0,0,0,.12l0,0a.1.1,0,0,1,.06-.08h.17l.11.27-.19.14Z"/><path class="cls-13" d="M34.91,16.76l0,0c.11-.13.17-.21.15-.31s-.14-.2-.42-.14-.36.16-.34.28.12.12.22.1.09,0,.08-.13h0l.08.37h0c0-.09-.06-.09-.14-.08l-.16,0a.34.34,0,0,0-.06-.15.52.52,0,0,1-.06-.16.38.38,0,0,1,.31-.47.45.45,0,0,1,.53.31v.09s0,.05,0,.07,0,.06.05.09Z"/><path d="M34.65,16.91c0-.06,0-.08-.07-.08l-.22,0a.45.45,0,0,0-.06-.14,1.22,1.22,0,0,1-.07-.17.42.42,0,0,1,.05-.3.39.39,0,0,1,.27-.17.43.43,0,0,1,.53.31.25.25,0,0,1,0,.08v.08a.22.22,0,0,0,.05.08l-.22.13,0-.06.18-.07a.16.16,0,0,1,0-.08v-.07a.14.14,0,0,0,0-.09.42.42,0,0,0-.52-.3.37.37,0,0,0-.31.46,1.11,1.11,0,0,0,.07.16.34.34,0,0,1,0,.14l.16,0c.1,0,.12,0,.14.07h0v0Zm-.23-.23a.13.13,0,0,1-.14-.12c0-.14.08-.23.34-.29s.41.09.42.15a.24.24,0,0,1,0,.18.3.3,0,0,0,0-.18c0-.06-.11-.2-.41-.14s-.36.15-.33.28.1.12.21.1.09,0,.08-.12l0,.06s0,.06-.1.07Z"/><path class="cls-13" d="M34.62,17.2c-.2,0-.25.07-.25.19s.1.21.26.21H35c.08,0,.1,0,.1-.11h0v.28h0c0-.08,0-.11-.11-.11h-.4c-.19,0-.29-.08-.3-.3s.1-.34.27-.34H35c.08,0,.1,0,.1-.11h0v.4h0c0-.08,0-.11-.1-.1Z"/><path d="M35.12,17.76c0-.08,0-.1-.09-.1h-.41a.26.26,0,0,1-.3-.3.36.36,0,0,1,.08-.27.3.3,0,0,1,.19-.08H35c.07,0,.1,0,.1-.11V17A.11.11,0,0,1,35,17h-.42a.24.24,0,0,0-.18.06.36.36,0,0,0-.08.27c0,.2.09.29.28.29H35c.08,0,.11,0,.11.11h0v0h-.05Zm-.49-.15c-.19,0-.26-.07-.27-.22a.17.17,0,0,1,0-.13.3.3,0,0,1,.22-.06H35s.08,0,.09,0a.1.1,0,0,0-.09,0h-.4a.29.29,0,0,0-.21.06s0,.06,0,.12.08.2.25.2H35c.08,0,.1,0,.1-.11v.06a.11.11,0,0,1-.11.06Z"/><path class="cls-13" d="M34.41,18.47c-.08,0-.14,0-.16.12h0l.06-.39h0c0,.07,0,.09,0,.09s0,0,.07,0l.13,0L34.6,18l-.07,0-.09,0s-.08,0-.09.08h0l0-.3h0a.23.23,0,0,0,.15.18l.54.32,0,.16Zm.57-.26L34.65,18l0,.24Z"/><path d="M34.26,18.59h0l.05-.4,0,0-.08.34h0c0-.1.07-.11.15-.12l.7-.1,0-.16-.53-.31a.36.36,0,0,1-.13-.11l.13.1.54.31,0,.17-.7.11c-.08,0-.14,0-.15.11Zm.16-.29h-.07l.2,0,0-.28-.06,0-.09,0a.14.14,0,0,0-.09.08v0a.09.09,0,0,1,.08-.05l.1,0,.07,0,0,.29-.14,0Z"/></g></g></g></g></g></svg>