<svg xmlns="http://www.w3.org/2000/svg" xmlns:xlink="http://www.w3.org/1999/xlink" viewBox="0 0 60 35"><defs><style>.cls-1{fill:none;}.cls-2{clip-path:url(#clip-path);}.cls-3{fill:#fff;}.cls-4{fill:#3564c2;}.cls-5{fill:#c0003b;}</style><clipPath id="clip-path"><rect class="cls-1" width="60" height="35"/></clipPath></defs><title>Panama</title><g id="Layer_2" data-name="Layer 2"><g id="Stream"><g id="Panama"><g class="cls-2"><rect class="cls-3" width="60" height="35"/><polygon class="cls-4" points="16.87 4.38 15.52 8.54 17.6 9.21 16.87 4.38"/><polygon class="cls-4" points="16.87 4.38 18.23 8.54 16.15 9.21 16.87 4.38"/><polygon class="cls-4" points="21.04 7.4 16.66 7.4 16.66 9.59 21.04 7.4"/><polygon class="cls-4" points="21.04 7.4 17.5 9.97 16.21 8.2 21.04 7.4"/><polygon class="cls-4" points="12.71 7.4 16.25 9.97 17.54 8.2 12.71 7.4"/><polygon class="cls-4" points="12.71 7.4 17.09 7.4 17.09 9.59 12.71 7.4"/><polygon class="cls-4" points="19.45 12.29 18.09 8.13 16.01 8.8 19.45 12.29"/><polygon class="cls-4" points="19.45 12.29 15.91 9.72 17.19 7.95 19.45 12.29"/><polygon class="cls-4" points="14.3 12.29 17.84 9.72 16.56 7.95 14.3 12.29"/><polygon class="cls-4" points="14.3 12.29 15.65 8.13 17.73 8.8 14.3 12.29"/><rect class="cls-4" y="17.5" width="30" height="17.5"/><rect class="cls-5" x="30" width="30" height="17.5"/><polygon class="cls-5" points="43.12 21.88 41.77 26.04 43.85 26.71 43.12 21.88"/><polygon class="cls-5" points="43.12 21.88 44.48 26.04 42.4 26.71 43.12 21.88"/><polygon class="cls-5" points="47.28 24.9 42.91 24.9 42.91 27.09 47.28 24.9"/><polygon class="cls-5" points="47.28 24.9 43.74 27.47 42.46 25.7 47.28 24.9"/><polygon class="cls-5" points="38.96 24.9 42.5 27.47 43.79 25.7 38.96 24.9"/><polygon class="cls-5" points="38.96 24.9 43.34 24.9 43.34 27.09 38.96 24.9"/><polygon class="cls-5" points="45.7 29.79 44.34 25.63 42.26 26.3 45.7 29.79"/><polygon class="cls-5" points="45.7 29.79 42.16 27.22 43.44 25.45 45.7 29.79"/><polygon class="cls-5" points="40.55 29.79 44.09 27.22 42.81 25.45 40.55 29.79"/><polygon class="cls-5" points="40.55 29.79 41.9 25.63 43.98 26.3 40.55 29.79"/></g></g></g></g></svg>