<svg xmlns="http://www.w3.org/2000/svg" xmlns:xlink="http://www.w3.org/1999/xlink" viewBox="0 0 60 35"><defs><style>.cls-1{fill:none;}.cls-2{clip-path:url(#clip-path);}.cls-3{fill:#fff;}.cls-4{fill:#2534a4;}.cls-5{fill:#bc0030;}.cls-6{fill:#2a690b;}.cls-7{fill:#3e60bd;}.cls-8{fill:#f5cd28;}.cls-9{fill:#f8e72a;}</style><clipPath id="clip-path"><rect class="cls-1" width="60" height="35"/></clipPath></defs><title>Paraguay</title><g id="Layer_2" data-name="Layer 2"><g id="Stream"><g id="Paraguay"><g class="cls-2"><rect class="cls-3" y="11.67" width="60" height="11.67"/><rect class="cls-4" y="23.33" width="60" height="11.67"/><rect class="cls-5" width="60" height="11.67"/><g class="cls-2"><path class="cls-3" d="M34.44,17.5A4.45,4.45,0,1,1,30,13.06a4.44,4.44,0,0,1,4.44,4.44Z"/><path d="M30,22a4.52,4.52,0,1,1,4.52-4.52A4.53,4.53,0,0,1,30,22Zm0-8.89a4.37,4.37,0,1,0,4.37,4.37A4.37,4.37,0,0,0,30,13.13Z"/><path class="cls-5" d="M30,13.69a3.81,3.81,0,1,0,3.81,3.81A3.82,3.82,0,0,0,30,13.69Zm0,6.67a2.86,2.86,0,1,1,2.86-2.86A2.86,2.86,0,0,1,30,20.36Z"/><path d="M30,21.32a3.82,3.82,0,1,1,3.81-3.82A3.83,3.83,0,0,1,30,21.32Zm0-7.63a3.81,3.81,0,1,0,3.81,3.81A3.82,3.82,0,0,0,30,13.69Zm0,6.67a2.86,2.86,0,1,1,2.86-2.86A2.86,2.86,0,0,1,30,20.36Zm0-5.71a2.85,2.85,0,1,0,2.85,2.85A2.86,2.86,0,0,0,30,14.65Z"/><path class="cls-6" d="M30.6,15.42s1.71.74,1.41,2.27a1.89,1.89,0,0,1-1.62,1.68c-.38.17-.64.41-.78.38a2,2,0,0,1-.35-.15.29.29,0,0,0,.29.29c.3.05.7-.39.89-.44a1.93,1.93,0,0,0,1.63-1.73c.33-1.65-1.46-2.25-1.47-2.3Z"/><path d="M29.59,19.9h0a.31.31,0,0,1-.29-.3h0a2.16,2.16,0,0,0,.35.14.71.71,0,0,0,.37-.15,3.81,3.81,0,0,1,.41-.22,1,1,0,0,1,.23-.08A1.77,1.77,0,0,0,32,17.69a2.09,2.09,0,0,0-1.18-2.14l-.14-.07-.09-.06a1.61,1.61,0,0,1,.23.12h0a2,2,0,0,1-.34,3.89,1,1,0,0,0-.33.18,1.13,1.13,0,0,1-.57.28Zm-.33-.3a.31.31,0,0,0,.29.29h0a1.15,1.15,0,0,0,.57-.27.72.72,0,0,1,.27-.17,2,2,0,0,0,1.64-1.73,1.94,1.94,0,0,0-1.24-2.17A2.08,2.08,0,0,1,32,17.69a1.77,1.77,0,0,1-1.4,1.61l-.23.07a3.6,3.6,0,0,0-.4.22.91.91,0,0,1-.35.16,1.31,1.31,0,0,1-.38-.15Z"/><path class="cls-6" d="M31.47,15.75c0,.12,0,.23,0,.23s-.09-.1-.12-.22,0-.23,0-.24.08.1.12.23Z"/><path d="M31.47,16s-.09-.11-.12-.22a.36.36,0,0,1,0-.23h0s0,.12,0,.23.08.22.11.22h0a.33.33,0,0,0,0-.22.46.46,0,0,0-.09-.21.41.41,0,0,1,.1.21.33.33,0,0,1,0,.22Z"/><path class="cls-6" d="M31.41,15.76c.06.12.08.23.05.24s-.1-.08-.16-.2-.08-.22-.05-.24.1.08.16.2Z"/><path d="M31.46,16s-.11-.1-.16-.2-.08-.19-.06-.23h0s0,.12.06.23.12.2.15.2h0a.34.34,0,0,0-.06-.23.69.69,0,0,0-.12-.19.52.52,0,0,1,.13.18c.05.1.08.2.06.23Z"/><path class="cls-6" d="M31.24,15.88c.12,0,.21.09.21.12s-.1,0-.23,0S31,15.9,31,15.87s.1,0,.23,0Z"/><path d="M31.39,16l-.17,0c-.11,0-.22-.09-.21-.13h0s0,.09.17.13l.16,0h0l.06,0s-.09-.08-.22-.12l-.12,0,.13,0c.11,0,.22.09.21.13l-.06,0Z"/><path class="cls-6" d="M31.26,15.81c.11.08.19.16.18.19s-.12,0-.23-.09-.19-.15-.17-.18.11,0,.22.08Z"/><path d="M31.42,16a.56.56,0,0,1-.21-.09c-.1-.07-.2-.16-.18-.19h0s0,.1.15.18a.64.64,0,0,0,.21.09h0s-.06-.1-.17-.18a.53.53,0,0,0-.2-.09.37.37,0,0,1,.2.08c.1.07.2.16.18.19Z"/><path class="cls-6" d="M31.33,15.78c.1.1.16.2.14.22s-.12,0-.21-.14-.16-.19-.13-.21.11,0,.2.13Z"/><path d="M31.45,16a.53.53,0,0,1-.2-.15c-.08-.08-.15-.19-.13-.22s.13.06.22.14.15.2.13.22Zm-.31-.36s0,.11.12.21a.53.53,0,0,0,.19.14h0s0-.11-.13-.21-.16-.14-.19-.14Z"/><path class="cls-6" d="M31.45,16l-.08,0s0,0-.08,0a.3.3,0,0,0-.08.09s0,0,.06,0,.07-.07.1-.08l.09,0,.06-.1s.09-.08.11-.13,0-.08,0-.07a.29.29,0,0,0-.09.1s0,.07,0,.1-.05.09-.06.09Z"/><path d="M31.22,16.16h0a.17.17,0,0,1,.09-.11h.08l.08,0,.06-.09h0l0-.11a.26.26,0,0,1,.09-.09l0,.07a.24.24,0,0,1-.08.09L31.5,16l0,.06-.09,0c0,.05-.06.07-.09.08l-.06,0Z"/><path class="cls-6" d="M32,16.18c0,.19,0,.34-.07.33s-.08-.18-.09-.37,0-.35.08-.34.08.18.08.38Z"/><path d="M31.91,16.51h0c-.06,0-.09-.2-.09-.37a.71.71,0,0,1,.05-.33h0a.55.55,0,0,0-.06.33c0,.21,0,.36.08.36h0a.72.72,0,0,0,.05-.32.78.78,0,0,0-.05-.32.87.87,0,0,1,.06.32.53.53,0,0,1-.06.32Z"/><path class="cls-6" d="M31.89,16.17c.05.2.05.36,0,.36s-.11-.15-.15-.35,0-.36,0-.36.11.15.15.35Z"/><path d="M31.89,16.54c-.05,0-.12-.18-.15-.36a.65.65,0,0,1,0-.36h0a.54.54,0,0,0,0,.36c0,.21.11.35.14.35h0a.73.73,0,0,0,0-.35,1.13,1.13,0,0,0-.11-.32.82.82,0,0,1,.12.32.62.62,0,0,1,0,.36Z"/><path class="cls-6" d="M31.62,16.26c.16.1.27.22.26.27s-.16,0-.31-.11-.27-.23-.26-.27.15,0,.31.11Z"/><path d="M31.84,16.55a.71.71,0,0,1-.28-.13c-.16-.11-.27-.23-.25-.27h0c0,.06.07.17.23.27a.63.63,0,0,0,.27.13h0s-.08-.16-.25-.27l-.21-.11a.57.57,0,0,1,.21.1c.16.11.28.23.26.28l0,0Z"/><path class="cls-6" d="M31.68,16.18c.12.15.21.31.18.34s-.16-.07-.29-.22-.2-.31-.18-.34.16.06.29.22Z"/><path d="M31.84,16.53a.64.64,0,0,1-.27-.23c-.11-.14-.21-.31-.18-.35s.18.09.29.23.21.3.18.34ZM31.41,16s0,.18.17.34a.63.63,0,0,0,.26.23h0s0-.17-.18-.34-.22-.23-.26-.23Z"/><path class="cls-6" d="M31.79,16.17c.09.18.14.35.11.37s-.14-.11-.24-.3-.15-.34-.12-.36.15.11.25.29Z"/><path d="M31.89,16.54s-.14-.12-.24-.29-.15-.35-.11-.38.16.12.25.3.15.34.11.37Zm-.34-.66s0,.17.11.36.2.29.23.29h0s0-.16-.12-.36-.19-.29-.23-.29Z"/><path class="cls-6" d="M31.88,16.53l-.13,0s0,0-.11,0a.21.21,0,0,0-.14.09s0,.05.09,0,.11-.06.15-.08l.14,0,.12-.12a1,1,0,0,0,.2-.13c0-.06,0-.12,0-.11a.44.44,0,0,0-.15.1s0,.1-.06.14l-.11.1Z"/><path d="M31.54,16.66l-.05,0s0,0,0,0l0,0h.05a.23.23,0,0,0,.1,0,.62.62,0,0,1,.19-.06l.09-.08a.37.37,0,0,1,.1-.07.64.64,0,0,0,.13-.1.09.09,0,0,0,0-.06s0,.05,0,.07a.71.71,0,0,1-.14.1l-.06,0a1.2,1.2,0,0,0-.12.12l-.15,0a.56.56,0,0,1-.15.08Zm0-.06a.22.22,0,0,1,.13-.08l.09,0a.62.62,0,0,0,.15,0l.11-.11,0-.06s0-.05,0-.07a.36.36,0,0,1,.15-.1,0,0,0,0,1,0,0,.24.24,0,0,0-.16.08.11.11,0,0,0,0,.07.16.16,0,0,1,0,.07l-.11.1-.13,0-.08,0a.32.32,0,0,0-.16.08Z"/><path class="cls-6" d="M32.26,16.89c0,.19-.09.33-.13.31s-.05-.19,0-.38.09-.34.14-.32,0,.19,0,.39Z"/><path d="M32.14,17.21h0c-.05,0-.05-.21,0-.38s.08-.32.13-.32.06.21,0,.39-.09.32-.13.32Zm.1-.7s-.09.12-.12.31a.58.58,0,0,0,0,.38h0s.09-.12.12-.32,0-.36,0-.37Z"/><path class="cls-6" d="M32.18,16.86c0,.21,0,.37-.07.36s-.08-.17-.09-.38,0-.36.07-.36.08.18.09.38Z"/><path d="M32.11,17.23h0S32,17,32,16.84a.78.78,0,0,1,0-.35h0a.52.52,0,0,0-.06.35c0,.23,0,.37.08.38h0a.69.69,0,0,0,0-.35,1.16,1.16,0,0,0-.05-.34.8.8,0,0,1,.06.34.61.61,0,0,1,0,.36Z"/><path class="cls-6" d="M31.89,16.9c.14.13.23.27.2.31s-.14,0-.28-.16-.22-.28-.2-.32.15,0,.28.17Z"/><path d="M32.07,17.23a.56.56,0,0,1-.26-.18c-.14-.14-.23-.28-.2-.32s0,0,0,0,0,.18.18.32a.62.62,0,0,0,.26.18h0l0,0s-.06-.17-.2-.31a1.19,1.19,0,0,0-.21-.17,1.19,1.19,0,0,1,.22.16c.13.14.22.28.2.33Z"/><path class="cls-6" d="M32,16.83c.1.18.15.35.12.37s-.14-.09-.24-.27-.15-.35-.12-.37.14.09.24.27Z"/><path d="M32.07,17.21s-.14-.12-.23-.28-.16-.35-.12-.38.16.11.24.28.16.34.12.38Zm-.33-.65s0,.17.11.37.18.27.22.27h0a.71.71,0,0,0-.12-.37c-.09-.16-.18-.27-.22-.27Z"/><path class="cls-6" d="M32.07,16.84c.06.2.08.37,0,.39s-.12-.14-.18-.34-.08-.37,0-.38.12.13.18.33Z"/><path d="M32.11,17.23s-.13-.17-.18-.34-.09-.37,0-.39h0c.05,0,.13.15.19.34s.08.37,0,.39Zm-.22-.72s0,.17.05.38.14.33.17.33h0s0-.17,0-.38-.14-.33-.18-.33Z"/><path class="cls-6" d="M32.1,17.22H32s0-.06-.1-.06a.3.3,0,0,0-.16.06s0,.06.08.06a.43.43,0,0,0,.16-.05h.15l.14-.09a1.13,1.13,0,0,0,.22-.09c0-.05.06-.11,0-.1a.35.35,0,0,0-.17.06s0,.1-.09.13a.81.81,0,0,0-.12.08Z"/><path d="M32,17.24h0s-.06,0-.1,0h0a.26.26,0,0,0-.14,0,.17.17,0,0,1,.22,0H32a.18.18,0,0,0,.13,0c.08-.05.09-.07.1-.1s0-.05.05-.06a.36.36,0,0,1,.17-.07s0,0,0,0a.24.24,0,0,0-.18.05.16.16,0,0,0,0,.07s0,.05,0,.06l-.07,0,0,0,0,0,.13-.06a.31.31,0,0,0,.14-.07l0-.05s0,0,0,.06a.41.41,0,0,1-.15.07l-.07,0-.14.09Z"/><path class="cls-6" d="M32.28,17.68c-.1.16-.21.27-.24.23s0-.19.14-.36.21-.27.24-.23,0,.19-.14.36Z"/><path d="M32.05,17.93h0s0-.22.13-.37.19-.24.23-.24h0a.52.52,0,0,0-.23.24.62.62,0,0,0-.14.35h0s.13-.09.23-.24a.94.94,0,0,0,.14-.32.76.76,0,0,1-.13.32c-.1.14-.19.25-.24.25Z"/><path class="cls-6" d="M32.21,17.62c-.07.2-.16.33-.2.31s0-.2.07-.39.17-.33.2-.31,0,.2-.07.39Z"/><path d="M32,17.94h0s0-.22.07-.39.15-.31.2-.31,0,.22-.06.4-.15.31-.2.31Zm.26-.7s-.12.11-.19.3-.1.37-.07.39h0s.12-.12.19-.31.1-.36.07-.38Z"/><path class="cls-6" d="M31.94,17.54c.07.18.1.35.06.37s-.12-.09-.19-.27a.6.6,0,0,1-.06-.38s.12.1.19.28Z"/><path d="M32,17.92s-.12-.12-.18-.28-.1-.35-.06-.38h0c.06,0,.14.12.2.28a.6.6,0,0,1,.06.38Zm-.22-.66s0,.19.05.38.14.27.17.27h0s0-.18-.06-.37-.14-.28-.17-.28Z"/><path class="cls-6" d="M32,17.5c0,.21,0,.38,0,.4s-.09-.15-.1-.36,0-.38,0-.39.09.15.11.35Z"/><path d="M32,17.9s-.09-.18-.11-.36,0-.38,0-.39h0c.06,0,.1.18.12.35s0,.39-.05.4Zm-.06-.75s-.06.17,0,.39.07.35.1.35h0s.06-.17,0-.39-.07-.35-.1-.35Z"/><path class="cls-6" d="M32.13,17.56c0,.21-.07.38-.11.37s-.06-.17,0-.38.07-.38.11-.38.06.18,0,.39Z"/><path d="M32,17.94h0a.79.79,0,0,1,0-.38c0-.19.06-.38.11-.38a.59.59,0,0,1,0,.39c0,.19-.06.38-.11.38Zm.08-.76s-.09.14-.12.37a.82.82,0,0,0,0,.37h0s.08-.14.1-.37a.79.79,0,0,0,0-.38Z"/><path class="cls-6" d="M32,17.92l-.12-.06s0-.06-.07-.09a.25.25,0,0,0-.17,0s0,0,.05.09a.62.62,0,0,0,.17,0l.13.06.16,0a1.76,1.76,0,0,0,.23,0c.07,0,.1-.07.06-.09a.25.25,0,0,0-.17,0c-.05,0-.08.07-.13.07l-.14,0Z"/><path d="M32,17.94h0l-.13-.06a.34.34,0,0,1,.13.05l.11,0h.22a.2.2,0,0,0,.13-.05s0,0-.06.05a.43.43,0,0,1-.17,0h-.07l-.16,0Zm0,0-.12-.05c0-.05,0-.08-.07-.09a.22.22,0,0,0-.1,0l-.08,0s0,0,.06.06l.1,0h.07a.46.46,0,0,1-.17,0c-.05,0-.07-.05-.07-.07l.09,0a.22.22,0,0,1,.1,0,.13.13,0,0,1,.06.07.42.42,0,0,0,.13.07s0,0,.07,0,.11,0,.13,0l.07,0a.32.32,0,0,1,.17,0s0,0,0,0a.23.23,0,0,0-.18,0,.42.42,0,0,1-.13.08l-.14,0Z"/><path class="cls-6" d="M32.07,18.48c-.17.15-.32.22-.35.18s.1-.21.27-.35.32-.23.35-.18-.1.21-.27.35Z"/><path d="M31.75,18.67h0c0-.05.1-.21.27-.36a.75.75,0,0,1,.32-.19s0,0,0,0a.78.78,0,0,0-.33.18c-.18.15-.28.3-.26.34l0,0a.75.75,0,0,0,.32-.19,1.53,1.53,0,0,0,.23-.25,1,1,0,0,1-.23.26.7.7,0,0,1-.32.18Z"/><path class="cls-6" d="M32,18.4c-.14.18-.29.3-.32.26s.06-.22.21-.4.28-.31.31-.27-.05.22-.2.41Z"/><path d="M31.71,18.67h0s.07-.24.2-.4.25-.28.31-.28,0,0,0,0h0c-.07,0-.19.11-.31.26s-.23.37-.2.4h0c.05,0,.17-.11.3-.27a1.19,1.19,0,0,0,.2-.34.85.85,0,0,1-.2.35c-.12.16-.25.27-.3.27Z"/><path class="cls-6" d="M31.74,18.2c0,.23,0,.42-.06.44s-.1-.15-.11-.37,0-.42.05-.44.11.15.12.37Z"/><path d="M31.68,18.65c-.05,0-.1-.16-.12-.38s0-.42.06-.44h0c.07,0,.11.19.13.37s0,.43-.06.45Zm-.05-.81c-.05,0-.08.19-.06.43s.07.37.11.37h0a.67.67,0,0,0,.06-.44c0-.23-.07-.36-.11-.36Z"/><path class="cls-6" d="M31.85,18.2c-.05.23-.12.42-.17.42s-.05-.2,0-.43.12-.42.17-.42,0,.19,0,.43Z"/><path d="M31.68,18.62h0a.83.83,0,0,1,0-.42c0-.21.12-.42.18-.42h0a.75.75,0,0,0-.18.41.83.83,0,0,0,0,.42h0s.12-.16.17-.41a1.1,1.1,0,0,0,0-.39.87.87,0,0,1,0,.39c-.05.21-.12.42-.18.42Z"/><path class="cls-6" d="M31.94,18.29c-.09.23-.2.39-.25.38s0-.22.09-.44.2-.39.24-.38,0,.22-.08.44Z"/><path d="M31.7,18.67h0c0-.07,0-.24.09-.44s.19-.38.24-.38,0,.24-.08.44-.19.38-.24.38Zm.32-.81s-.14.14-.24.37a.85.85,0,0,0-.09.42h0s.14-.14.23-.37.13-.42.09-.43Z"/><path class="cls-6" d="M31.69,18.65l-.12-.1s0-.08,0-.13a.26.26,0,0,0-.18-.07s-.05,0,0,.11.14.06.18.09a.65.65,0,0,1,.12.11l.19,0a1,1,0,0,0,.26.09c.08,0,.13,0,.09-.08a.54.54,0,0,0-.19-.07c-.06,0-.11.05-.17,0l-.16,0Z"/><path d="M32.12,18.78h0a.53.53,0,0,1-.18-.05l-.08,0-.19,0a.46.46,0,0,0-.12-.12.88.88,0,0,1,.13.11l.13,0a.28.28,0,0,1,.13,0,.53.53,0,0,0,.18.05h.08a.11.11,0,0,1-.08,0Zm.09-.05a.28.28,0,0,0-.19-.09s-.06,0-.08,0l-.07,0-.1,0h-.09l-.11-.1a.19.19,0,0,0-.05-.13.27.27,0,0,0-.14-.07.25.25,0,0,1,.15.06.13.13,0,0,1,0,.1.52.52,0,0,0,.12.13l.08,0h.08a.15.15,0,0,0,.08,0l.08,0a.32.32,0,0,1,.2.07v0Z"/><path class="cls-6" d="M31.52,19.19c-.24,0-.44,0-.43,0s.21-.14.45-.18S32,19,32,19s-.21.14-.45.18Z"/><path d="M31.27,19.21a.26.26,0,0,1-.18,0h0c0,.06.21.05.42,0a1.61,1.61,0,0,0,.4-.12,1.24,1.24,0,0,1-.4.13l-.25,0Zm-.12-.11a.93.93,0,0,1,.39-.13A.66.66,0,0,1,32,19v0c-.05-.06-.21-.06-.42,0a.94.94,0,0,0-.39.12Z"/><path class="cls-6" d="M31.51,19.07c-.24.09-.45.12-.45.07s.17-.18.41-.27.45-.12.46-.06-.18.17-.42.26Z"/><path d="M31.12,19.17s-.06,0-.07,0,.18-.18.42-.27.45-.12.46-.07-.17.18-.42.27a1.24,1.24,0,0,1-.39.1Zm.71-.37a1,1,0,0,0-.36.08c-.25.1-.42.21-.41.26l.06,0a1.23,1.23,0,0,0,.39-.09c.26-.1.42-.22.41-.26Z"/><path class="cls-6" d="M31.36,18.73c-.11.22-.24.4-.3.39s0-.21.09-.43.23-.39.29-.38,0,.2-.08.42Z"/><path d="M31.07,19.12h0s0,0,0,0h0c.05,0,.18-.17.28-.38a1.1,1.1,0,0,0,.11-.32.78.78,0,0,1-.1.32c-.1.22-.23.39-.29.39ZM31,19a1,1,0,0,1,.1-.35c.11-.22.23-.39.3-.39v0h0c-.08,0-.2.16-.3.36A1.48,1.48,0,0,0,31,19Z"/><path class="cls-6" d="M31.46,18.79c-.17.19-.35.33-.39.3s.06-.21.23-.41.35-.33.39-.3-.05.21-.23.41Z"/><path d="M31.08,19.1h0s0,0,0,0l0,0c.07,0,.23-.13.38-.3a2.86,2.86,0,0,0,.21-.29,1.17,1.17,0,0,1-.2.29c-.16.18-.32.31-.39.31Zm0-.08a1.06,1.06,0,0,1,.23-.34c.15-.18.31-.31.38-.31a0,0,0,0,0,0,0h0c-.08,0-.23.12-.38.28a1.68,1.68,0,0,0-.23.34Z"/><path class="cls-6" d="M31.49,18.93c-.21.16-.4.26-.43.21s.11-.2.32-.36.4-.26.44-.22-.12.21-.33.37Z"/><path d="M31.08,19.16h0a0,0,0,0,1,0,0h0l0,0a1,1,0,0,0,.41-.22,1.47,1.47,0,0,0,.25-.23.37.37,0,0,0,.07-.1.18.18,0,0,1-.06.1,1.94,1.94,0,0,1-.25.23,1,1,0,0,1-.42.23Zm0-.06a1.13,1.13,0,0,1,.31-.33,1.11,1.11,0,0,1,.42-.22h0a1.43,1.43,0,0,0-.43.22,1.33,1.33,0,0,0-.32.32Z"/><path class="cls-6" d="M31.06,19.12A1,1,0,0,1,31,19s0-.06,0-.15a.3.3,0,0,0-.13-.17s-.07,0,0,.12.1.14.12.19a1.27,1.27,0,0,1,.06.18.91.91,0,0,1,.16.13c.05,0,.11.18.2.23s.15,0,.13,0a.55.55,0,0,0-.14-.17c-.06,0-.14,0-.19-.06l-.14-.12Z"/><path d="M31.49,19.53l-.09,0a.7.7,0,0,1-.14-.16.22.22,0,0,0-.06-.07L31,19.13A1.77,1.77,0,0,0,31,19a.38.38,0,0,1,.06.17.61.61,0,0,1,.12.09l.11.11a.43.43,0,0,0,.14.16l.08,0h0Zm0,0a.34.34,0,0,0-.14-.19.11.11,0,0,0-.08,0,.18.18,0,0,1-.1,0l-.07,0-.07-.07h0L31,19a.21.21,0,0,0,0-.15.33.33,0,0,0-.09-.13.21.21,0,0,1,.09.13.15.15,0,0,1,0,.12,1.18,1.18,0,0,0,0,.19l.08.06.07.06s.05,0,.09,0l.09,0a.41.41,0,0,1,.15.17l0,0ZM31,19c-.06-.09-.1-.12-.11-.19a.17.17,0,0,1,0-.12h0s0,.06,0,.11a.49.49,0,0,0,.08.13A.09.09,0,0,1,31,19Z"/><path class="cls-6" d="M30.79,19.58c-.24,0-.45,0-.44-.12s.2-.14.45-.14.45.05.45.12-.21.14-.46.14Z"/><path d="M30.77,19.58a.63.63,0,0,1-.41-.09v0a.63.63,0,0,0,.41.1h0c.25,0,.45-.06.45-.13s-.19-.12-.42-.12a1.13,1.13,0,0,0-.39.07.71.71,0,0,1,.37-.07h0c.26,0,.45.05.45.12s-.2.14-.46.14Z"/><path class="cls-6" d="M30.74,19.17c-.16.21-.33.34-.39.29s0-.24.19-.45.33-.33.38-.28,0,.24-.18.44Z"/><path d="M30.38,19.48h0c-.05,0,0-.25.19-.46s.28-.3.36-.3,0,0,0,0-.23.12-.36.29-.24.4-.19.44h0c.07,0,.22-.13.35-.3a1,1,0,0,0,.2-.35.84.84,0,0,1-.19.36c-.14.17-.28.3-.36.3Z"/><path class="cls-6" d="M30.8,19.38c-.23.1-.44.13-.47.06s.15-.2.38-.3.44-.12.46-.06-.14.2-.37.3Z"/><path d="M30.43,19.48c-.06,0-.09,0-.1,0s.14-.2.38-.3.44-.13.47-.06-.14.2-.38.31a1,1,0,0,1-.37.09Zm.65-.43a1.08,1.08,0,0,0-.37.1c-.23.1-.4.23-.37.29s.24,0,.46-.06.39-.23.37-.3,0,0-.09,0Z"/><path class="cls-6" d="M30.92,15.46c.12.1.18.2.15.22a.6.6,0,0,1-.25-.16c-.12-.1-.19-.2-.16-.22a.55.55,0,0,1,.26.16Z"/><path d="M31.06,15.68a.59.59,0,0,1-.25-.16c-.1-.09-.16-.17-.16-.21h0s0,.11.15.21a.63.63,0,0,0,.24.16h0s0-.11-.15-.2a.93.93,0,0,0-.2-.15.56.56,0,0,1,.2.14c.1.09.17.17.17.21Z"/><path class="cls-6" d="M30.78,15.58c.16,0,.29.06.29.09s-.11,0-.27,0a.55.55,0,0,1-.29-.09s.12,0,.27,0Z"/><path d="M31,15.71H30.8c-.14,0-.28-.06-.29-.1s.17,0,.27,0,.29.06.3.1-.09,0-.13,0Zm-.31-.14a.22.22,0,0,0-.12,0s.12.08.29.1a.47.47,0,0,0,.26,0s-.12-.08-.29-.1Z"/><path class="cls-6" d="M30.84,15.51c.14.07.25.15.23.18s-.14,0-.29-.09-.25-.16-.23-.18.14,0,.29.09Z"/><path d="M31.05,15.7a.76.76,0,0,1-.27-.1.72.72,0,0,1-.24-.17h0c0,.05.1.11.21.17a.83.83,0,0,0,.27.1h0Zm0,0a.55.55,0,0,0-.23-.17l-.21-.09a.69.69,0,0,1,.21.08.72.72,0,0,1,.24.17Z"/><path class="cls-6" d="M28.81,19.14a5.65,5.65,0,0,1,.7.2c.33.12.83.53,1,.55a.41.41,0,0,0,.44-.26c-.23.06-.37.16-.59,0a5.21,5.21,0,0,0-.61-.39,6.33,6.33,0,0,0-.85-.27Z"/><path d="M30.5,19.9h0a1.52,1.52,0,0,1-.35-.21,3.42,3.42,0,0,0-.61-.34,5.65,5.65,0,0,0-.7-.2l.05-.14h0a6.92,6.92,0,0,1,.85.26,2.43,2.43,0,0,1,.46.29l.15.1a.53.53,0,0,0,.46,0l.13,0a.41.41,0,0,1-.41.27Zm-1.69-.76a4.43,4.43,0,0,1,.71.2,3.36,3.36,0,0,1,.6.34,1.52,1.52,0,0,0,.36.21h0a.42.42,0,0,0,.41-.26l-.13.05a.53.53,0,0,1-.46,0l-.15-.1a2.54,2.54,0,0,0-.47-.29,6.43,6.43,0,0,0-.84-.26l-.05.12Z"/><polygon class="cls-6" points="29.21 15.73 29.64 15.5 29.17 15.62 29.11 15.71 29.21 15.73"/><path d="M29.21,15.73l-.1,0,.05-.09.48-.12-.43.23Zm.43-.23-.47.13-.06.08h.1l.43-.22Z"/><path class="cls-6" d="M29.62,15.83l-.59-.1a5.9,5.9,0,0,0,.37-.47,3.07,3.07,0,0,0-.2.41,2.61,2.61,0,0,0,.42.16Z"/><path d="M29.62,15.84l-.13,0L29,15.74c.11-.13.27-.35.36-.48l-.05.12c-.05.1-.11.21-.14.29a1.49,1.49,0,0,0,.28.11l.14.05Zm-.23-.58a3.16,3.16,0,0,1-.36.48,3,3,0,0,1,.47.07h.06l-.08,0-.29-.11a2.63,2.63,0,0,1,.14-.3l.06-.12Z"/><polygon class="cls-6" points="29.13 15.76 29.52 15.46 29.07 15.66 29.03 15.75 29.13 15.76"/><path d="M29.13,15.76H29l0-.09.45-.21s-.37.3-.38.31Zm.39-.31-.45.21,0,.09h.1l.39-.3Z"/><path class="cls-6" d="M29.54,15.83c-.16,0-.42-.09-.59-.11.11-.13.27-.35.36-.48-.06.13-.16.3-.2.42a3.2,3.2,0,0,0,.43.17Z"/><path d="M29.54,15.83l-.13,0a4.46,4.46,0,0,0-.46-.08c.11-.13.25-.35.35-.48h0a5.92,5.92,0,0,1-.35.48,2.71,2.71,0,0,1,.46.07h.08l-.09,0a1.6,1.6,0,0,1-.29-.11,1.73,1.73,0,0,1,.14-.32l0-.08,0,.09a1.51,1.51,0,0,0-.13.3,1.49,1.49,0,0,0,.28.11l.15.06Z"/><polygon class="cls-6" points="29.07 15.78 29.52 15.59 29.03 15.67 28.97 15.75 29.07 15.78"/><path d="M29.07,15.78l-.1,0,.06-.08.49-.08-.45.19Zm.45-.19-.49.08-.06.08.1,0a3.18,3.18,0,0,1,.45-.19Z"/><path class="cls-6" d="M29.49,15.83c-.17,0-.43,0-.6,0a5.54,5.54,0,0,0,.3-.53,2.89,2.89,0,0,0-.14.45,3.17,3.17,0,0,0,.44.12Z"/><path d="M29.49,15.84l-.15,0-.42,0h0a2.86,2.86,0,0,1,.42,0h.1l-.1,0a2.63,2.63,0,0,1-.3-.09,2.44,2.44,0,0,1,.1-.33l0-.07,0,.07c0,.12-.08.24-.1.33l.29.08.16,0ZM29,15.63l.18-.35h0l-.18.35Z"/><polygon class="cls-6" points="29.02 15.78 29.33 15.41 28.94 15.7 28.92 15.8 29.02 15.78"/><path d="M28.92,15.8l0-.1.39-.3-.3.38-.11,0Zm.41-.4-.39.3v.09H29l.31-.38Z"/><path class="cls-6" d="M29.49,15.86c-.18,0-.47,0-.64,0,.08-.16.19-.43.26-.6,0,.16-.1.36-.11.5a3.88,3.88,0,0,0,.49.11Z"/><path d="M29.49,15.86h-.64c.08-.16.18-.42.25-.59h0a5.31,5.31,0,0,1-.25.58,2,2,0,0,1,.49,0h.1l-.11,0a2.36,2.36,0,0,1-.33-.07,2.7,2.7,0,0,1,.07-.35l0-.1v.1a1.72,1.72,0,0,0-.07.34,2.21,2.21,0,0,0,.32.07l.16,0Z"/><polygon class="cls-6" points="28.96 15.87 29.33 15.51 28.88 15.76 28.85 15.87 28.96 15.87"/><path d="M29,15.88h-.11l0-.11.45-.25-.37.36Zm.37-.37-.45.26,0,.1H29a3.89,3.89,0,0,1,.37-.36Z"/><path class="cls-6" d="M29.41,15.87c-.2,0-.5,0-.69,0,.12-.18.3-.48.41-.67-.07.17-.18.4-.23.56a4.18,4.18,0,0,0,.51.1Z"/><path d="M28.71,15.89h0c.13-.18.3-.48.41-.66h0c-.1.19-.27.48-.39.66l.34,0h.32l-.15,0a1.54,1.54,0,0,1-.34-.08,3.45,3.45,0,0,1,.15-.4l.06-.14-.05.15a2.79,2.79,0,0,0-.15.39,2.36,2.36,0,0,0,.33.07l.17,0h-.34l-.35,0Z"/><polygon class="cls-6" points="28.83 15.9 29.31 15.49 28.77 15.78 28.72 15.9 28.83 15.9"/><path d="M28.71,15.9l.06-.12.54-.29-.47.41Zm.6-.41-.54.29-.05.11h.11l.48-.4Z"/><path class="cls-6" d="M29.34,15.88c-.2,0-.5.06-.69.11.1-.2.23-.51.31-.71,0,.18-.12.41-.14.57a4.41,4.41,0,0,0,.52,0Z"/><path d="M28.64,16h0c.1-.19.22-.5.3-.69h0c-.08.21-.2.5-.29.68l.52-.08.16,0h-.18a1.83,1.83,0,0,1-.34,0,2.53,2.53,0,0,1,.1-.42l0-.11,0,.11a2.82,2.82,0,0,0-.09.41,1.67,1.67,0,0,0,.33,0h.18l-.16,0a3.89,3.89,0,0,0-.53.09Z"/><polygon class="cls-6" points="28.77 15.98 29.14 15.47 28.68 15.88 28.66 16.01 28.77 15.98"/><path d="M28.65,16l0-.14.47-.42-.37.52-.12,0Zm.49-.56-.46.43,0,.11.11,0,.37-.51Z"/><path class="cls-6" d="M29.23,15.94c-.2,0-.5,0-.69.08.11-.19.26-.51.35-.7a3.62,3.62,0,0,0-.17.57,4,4,0,0,0,.51,0Z"/><path d="M28.53,16h0c.11-.19.25-.5.34-.69l0,.18a2.43,2.43,0,0,0-.12.39,1.61,1.61,0,0,0,.33,0l.18,0-.16,0c-.18,0-.39,0-.53.06Zm.35-.7a7.21,7.21,0,0,1-.33.69c.14,0,.34,0,.51-.06h0a1.11,1.11,0,0,1-.33,0,1.87,1.87,0,0,1,.11-.4l.05-.17Z"/><polygon class="cls-6" points="28.7 16.03 29.17 15.63 28.64 15.91 28.59 16.03 28.7 16.03"/><path d="M28.58,16l.06-.13.53-.29-.46.41Zm.59-.42-.53.3-.05.11h.11a6,6,0,0,1,.47-.41Z"/><path class="cls-6" d="M29.17,16c-.19.05-.5.1-.69.16a7.12,7.12,0,0,0,.28-.72c0,.17-.1.41-.11.57a4.56,4.56,0,0,0,.52,0Z"/><path d="M28.48,16.13h0c.09-.19.19-.48.26-.68h0a6.13,6.13,0,0,1-.25.66c.15,0,.35-.09.53-.12l.15,0L29,16a1.87,1.87,0,0,1-.34,0,2.35,2.35,0,0,1,.07-.41l0-.07v.07a4.18,4.18,0,0,0-.08.41h.52L29,16a5.29,5.29,0,0,0-.53.12Z"/><polygon class="cls-6" points="28.63 16.05 28.93 15.5 28.52 15.98 28.51 16.1 28.63 16.05"/><path d="M28.51,16.11V16l.4-.49c-.09.19-.29.55-.29.56l-.12.06Zm.41-.62-.4.49v.12l.1-.05s0-.06.3-.56Z"/><path class="cls-6" d="M29.17,16a5.59,5.59,0,0,0-.73.2c.07-.23.16-.6.21-.82a5,5,0,0,0,0,.65c.16,0,.4,0,.57,0Z"/><path d="M28.43,16.2h0c.08-.23.17-.6.22-.82v.19a4.09,4.09,0,0,0,0,.46.27.27,0,0,1,.09,0L29,16l.19,0L29,16a5.48,5.48,0,0,0-.56.16Zm.22-.82c0,.22-.13.58-.21.81A4,4,0,0,1,29,16l.18,0L29,16a2.5,2.5,0,0,1-.38,0,2.53,2.53,0,0,1,0-.46l0-.19Z"/><path class="cls-6" d="M28.57,16.18s.37-.56.37-.56l-.48.45,0,.14Z"/><path d="M28.44,16.22l0-.15.48-.45-.37.56-.13,0Zm.5-.6-.48.46v.13l.12,0s0-.07.37-.56Z"/><path class="cls-6" d="M29.09,16.06a5.53,5.53,0,0,0-.72.24c.06-.23.13-.6.17-.82a4.66,4.66,0,0,0,0,.64,3.81,3.81,0,0,0,.57-.06Z"/><path d="M28.36,16.31h0c.07-.23.14-.6.18-.82v.19c0,.1,0,.2,0,.29a1.38,1.38,0,0,1,0-.29v-.19a6.16,6.16,0,0,1-.17.81l.54-.18.18-.06-.19,0-.34,0h0l.34,0,.2,0-.18.07a4.87,4.87,0,0,0-.54.18Z"/><path class="cls-6" d="M28.49,16.26l.29-.61-.41.53v.14Z"/><path d="M28.37,16.33v-.15l.4-.54c-.07.17-.27.61-.27.62l-.13.07Zm.4-.68-.4.53v.13l.11,0s0-.07.28-.61Z"/><path class="cls-6" d="M29,16.14c-.21.05-.54.11-.74.18.08-.22.19-.58.25-.8a4.86,4.86,0,0,0-.08.64,3.66,3.66,0,0,0,.57,0Z"/><path d="M28.26,16.33h0a8,8,0,0,0,.25-.79h0a6.41,6.41,0,0,1-.23.78,5,5,0,0,1,.55-.13l.18,0-.2,0a2.28,2.28,0,0,1-.37,0,2,2,0,0,1,0-.46l0-.16v.16a2.77,2.77,0,0,0-.06.46H29l-.18.05a3.81,3.81,0,0,0-.56.14Z"/><polygon class="cls-6" points="28.42 16.32 28.89 15.84 28.34 16.2 28.29 16.33 28.42 16.32"/><path d="M28.29,16.34l0-.14.56-.36-.46.48-.14,0Zm.6-.5-.55.36,0,.13h.12a6.49,6.49,0,0,1,.47-.48Z"/><path class="cls-6" d="M28.92,16.23a6,6,0,0,0-.74.1c.1-.21.22-.57.3-.79a5.89,5.89,0,0,0-.12.64,4.86,4.86,0,0,0,.56.05Z"/><path d="M28.17,16.34h0c.09-.2.2-.53.28-.75h0c-.08.25-.19.55-.27.74.15,0,.36-.06.55-.09l.17,0a1.2,1.2,0,0,1-.19,0,2,2,0,0,1-.36,0,3.09,3.09,0,0,1,.07-.48l0-.08v.08c0,.17-.07.34-.08.47a2.05,2.05,0,0,0,.37,0h.19l-.18,0c-.19,0-.41.05-.56.09Z"/><path class="cls-6" d="M28.33,16.27l.32-.6-.43.51v.14Z"/><path d="M28.2,16.33v-.15l.44-.51c-.08.17-.31.59-.32.6l-.13.06Zm.44-.66-.42.51v.13l.12,0s0-.07.31-.6Z"/><path class="cls-6" d="M28.94,16.15c-.23.1-.58.23-.8.34.07-.27.15-.7.19-1a6.26,6.26,0,0,0,0,.74,3.5,3.5,0,0,0,.63-.12Z"/><path d="M28.14,16.5h0c.07-.27.14-.7.19-1v.21a3.21,3.21,0,0,0,0,.53,2.51,2.51,0,0,0,.41-.07l.21-.05-.19.09a4.31,4.31,0,0,0-.6.26Zm.19-1c0,.26-.11.68-.18,1,.16-.08.39-.17.59-.25l.2-.08-.21.06-.42.07a5,5,0,0,1,0-.54v-.21Z"/><path class="cls-6" d="M28.29,16.46s.38-.7.38-.7l-.51.59v.16Z"/><path d="M28.15,16.52v-.17l.51-.59-.38.7-.14.06Zm.52-.76-.5.59v.16l.12-.06s0-.06.39-.69Z"/><path class="cls-6" d="M28.85,16.24a8,8,0,0,0-.78.38c.06-.27.12-.7.15-1a5.84,5.84,0,0,0,0,.73,5.06,5.06,0,0,0,.62-.15Z"/><path d="M28.06,16.63h0c.06-.27.11-.69.14-1h0c0,.27-.08.67-.13.94a6.52,6.52,0,0,1,.59-.29l.18-.08-.21.06a2.43,2.43,0,0,1-.41.1,4.52,4.52,0,0,1,0-.54v0a4.18,4.18,0,0,0,0,.52,2.59,2.59,0,0,0,.4-.1l.21-.05-.18.09c-.2.09-.44.2-.6.29Z"/><path class="cls-6" d="M28.21,16.56s.28-.74.28-.74l-.42.66v.16Z"/><path d="M28.08,16.65v-.17l.41-.67c-.08.26-.26.73-.27.75l-.13.09Zm.4-.84-.41.67v.15l.12-.07s0-.07.28-.75Z"/><path class="cls-6" d="M28.76,16.3a8.1,8.1,0,0,0-.78.39c.05-.27.11-.7.14-1,0,.22,0,.53,0,.73a4.85,4.85,0,0,0,.63-.16Z"/><path d="M28,16.7h0c.06-.27.11-.7.14-1V16a4,4,0,0,0,0,.51l.4-.1.22-.06-.18.09a4.79,4.79,0,0,0-.6.3Zm.14-1a8,8,0,0,1-.13.95,5.4,5.4,0,0,1,.59-.3l.18-.08-.2.07a2.82,2.82,0,0,1-.41.09,2.69,2.69,0,0,1,0-.51v-.22Z"/><path class="cls-6" d="M28.15,16.65s.43-.66.43-.66l-.55.54,0,.16Z"/><path d="M28,16.7l0-.17.54-.54-.42.66L28,16.7Zm.57-.71-.53.54,0,.16.13-.05.43-.65Z"/><path class="cls-6" d="M28.73,16.27c-.19.16-.51.39-.69.56,0-.27,0-.69-.06-.95a6.52,6.52,0,0,0,.17.7,6.45,6.45,0,0,0,.58-.31Z"/><path d="M28,16.84h0c0-.25,0-.62-.05-.88h0c0,.3.06.63.06.86a6.27,6.27,0,0,1,.52-.43l.16-.13-.19.12a2.07,2.07,0,0,1-.39.2,4.5,4.5,0,0,1-.13-.5V16l0,.06a4,4,0,0,0,.13.5,3.28,3.28,0,0,0,.37-.19l.2-.12-.16.14c-.18.14-.39.31-.53.44Z"/><path class="cls-6" d="M28.17,16.68s0-.79,0-.79l-.21.77.06.14Z"/><path d="M28.07,16.81,28,16.66l.2-.77c0,.22,0,.77,0,.79l-.1.13Zm.14-.92-.2.77.06.13.09-.11s0-.06.05-.79Z"/><path class="cls-6" d="M28.68,16.34c-.2.16-.52.39-.7.56,0-.27,0-.69-.05-.95a7.16,7.16,0,0,0,.17.7c.17-.07.4-.22.58-.31Z"/><path d="M28,16.91h0c0-.26,0-.66-.05-.92h0c0,.28.06.66.06.91.13-.12.33-.28.51-.42l.18-.13-.2.11a2.35,2.35,0,0,1-.38.2,2.14,2.14,0,0,1-.13-.5l0-.12,0,.12a2.51,2.51,0,0,0,.12.49,3.36,3.36,0,0,0,.38-.19l.2-.11-.17.14a6.27,6.27,0,0,0-.52.43Z"/><path class="cls-6" d="M28.12,16.81s.2-.76.2-.76l-.35.7,0,.16Z"/><path d="M28,16.92l0-.17.34-.71c-.06.26-.19.76-.19.77l-.12.11Zm.31-.88-.34.71,0,.15.11-.09.2-.77Z"/><path class="cls-6" d="M28.66,16.36c-.19.18-.49.46-.66.66,0-.28-.11-.71-.16-1a5.54,5.54,0,0,0,.25.69c.17-.08.39-.27.57-.38Z"/><path d="M28,17h0c0-.27-.11-.69-.16-.95h0A8,8,0,0,1,28,17c.13-.15.32-.34.49-.5l.16-.15-.18.14c-.13.09-.27.19-.38.25a3.51,3.51,0,0,1-.19-.5l0-.14.05.14a4.37,4.37,0,0,0,.18.49,3,3,0,0,0,.37-.25l.2-.13-.16.16c-.17.16-.37.35-.5.5Z"/><path class="cls-6" d="M28.12,16.91s0-.82,0-.82l-.21.8L28,17Z"/><path d="M28,17.05,28,16.89l.2-.8c0,.28,0,.8,0,.82l-.11.14Zm.14-1-.19.8L28,17l.09-.12s0-.08,0-.82Z"/><path class="cls-6" d="M28.6,16.49c-.2.17-.52.42-.7.6,0-.29-.06-.72-.09-1,.06.22.12.53.19.72a6,6,0,0,0,.6-.33Z"/><path d="M27.89,17.1h0c0-.29-.05-.72-.08-1l.06.21a2.86,2.86,0,0,0,.14.51,3.31,3.31,0,0,0,.39-.22l.19-.11-.16.15a6.5,6.5,0,0,0-.53.45Zm-.08-1c0,.26.08.69.09,1a6.26,6.26,0,0,1,.52-.45l.17-.14-.19.12a3.24,3.24,0,0,1-.4.22,3.25,3.25,0,0,1-.14-.52l-.05-.21Z"/><path class="cls-7" d="M31.44,17.33A1.44,1.44,0,1,1,30,15.89a1.43,1.43,0,0,1,1.44,1.44Z"/><path class="cls-6" d="M28.06,17s.28-.76.28-.76l-.43.68,0,.17Z"/><path d="M27.92,17.09v-.17l.43-.69c-.09.27-.28.76-.28.77l-.14.09Zm.42-.85-.42.68v.16l.12-.08.29-.76Z"/><path class="cls-6" d="M28.59,16.5c-.17.19-.46.47-.62.67,0-.29-.1-.72-.15-1,.07.22.15.53.23.71.17-.09.38-.28.54-.39Z"/><path d="M28,17.18h0c0-.27-.1-.68-.15-1h0c.06.3.13.67.16.93a6.83,6.83,0,0,1,.46-.51l.15-.16-.18.15a2.11,2.11,0,0,1-.35.25,2.63,2.63,0,0,1-.18-.5l0-.11,0,.1c.06.18.12.38.18.51a3.13,3.13,0,0,0,.35-.26l.18-.14-.14.16c-.16.17-.35.37-.47.52Z"/><path class="cls-6" d="M28.07,17s0-.81,0-.81L27.9,17l.08.14Z"/><path d="M28,17.19,27.9,17l.13-.81c0,.27,0,.8,0,.81l-.09.15Zm.05-1-.12.81.07.13.08-.13s0-.07,0-.81Z"/><path class="cls-6" d="M28.51,16.56a7.68,7.68,0,0,0-.6.68c0-.29-.13-.72-.19-1,.08.22.17.52.26.7a4.48,4.48,0,0,0,.53-.39Z"/><path d="M27.9,17.25h0a9.48,9.48,0,0,0-.18-1h0c.07.27.15.68.19,1a6.34,6.34,0,0,1,.45-.51l.14-.16a1.29,1.29,0,0,1-.17.15A2.42,2.42,0,0,1,28,17a3.51,3.51,0,0,1-.19-.5l-.06-.19.07.19c.06.17.12.36.18.49a3.13,3.13,0,0,0,.35-.26l.17-.14-.13.17a5.21,5.21,0,0,0-.46.52Z"/><path class="cls-6" d="M28,17.12l.09-.82-.24.78.05.16Z"/><path d="M27.92,17.25l-.05-.17.24-.78c0,.28-.08.81-.08.82l-.11.13Zm.19-.95-.23.78,0,.15.1-.11s0-.07.09-.82Z"/><path class="cls-6" d="M28.47,16.59c-.16.21-.41.51-.55.73-.06-.28-.18-.7-.26-1,.1.21.21.51.31.67a5.08,5.08,0,0,0,.5-.44Z"/><path d="M27.92,17.33h0c-.06-.27-.18-.68-.26-.94h0c.08.28.2.67.25.93.11-.16.27-.37.41-.55l.14-.17-.16.16A2.19,2.19,0,0,1,28,17a2.82,2.82,0,0,1-.23-.49l-.06-.13.07.13A3.08,3.08,0,0,0,28,17a3.82,3.82,0,0,0,.32-.29l.17-.15-.13.17c-.15.19-.31.4-.41.56Z"/><path class="cls-6" d="M28,17.2s-.05-.82-.05-.82l-.11.81.08.15Z"/><path d="M27.94,17.35l-.08-.15.1-.83c0,.28.06.81.06.83l-.08.15Zm0-1-.09.82.07.13L28,17.2s0-.07-.05-.82Z"/><path class="cls-6" d="M28.45,16.64c-.14.21-.38.54-.51.76-.07-.27-.22-.69-.31-.95a6.75,6.75,0,0,0,.35.66,5.21,5.21,0,0,0,.47-.47Z"/><path d="M27.94,17.42h0c-.07-.26-.2-.63-.29-.89l0-.07.1.19a4,4,0,0,0,.25.47c.09-.08.2-.2.31-.31l.16-.17-.12.19c-.13.19-.29.42-.39.59Zm-.31-1,0,.07c.09.26.21.62.28.87.1-.17.25-.39.38-.58l.13-.17-.15.17c-.11.11-.22.23-.32.31a3,3,0,0,1-.26-.48l-.09-.19Z"/><path class="cls-6" d="M28.07,17.28l.09-.83-.24.78,0,.16Z"/><path d="M28,17.4l-.06-.17.24-.78c0,.28-.08.81-.07.83L28,17.4Zm.18-.95-.23.78,0,.15.1-.1s0-.08.08-.83Z"/><path class="cls-6" d="M28.42,16.71c-.12.24-.33.59-.44.84-.09-.27-.28-.67-.39-.91a5.86,5.86,0,0,0,.4.61,4.85,4.85,0,0,0,.43-.54Z"/><path d="M28,17.56h0c-.1-.26-.28-.66-.39-.9h0c.12.25.3.63.39.89.08-.18.21-.42.32-.62l.12-.21-.13.19a4.1,4.1,0,0,1-.29.36,4,4,0,0,1-.3-.43l-.1-.16.11.15a2.67,2.67,0,0,0,.29.43l.28-.35.14-.19-.11.21c-.11.21-.25.45-.32.63Z"/><path class="cls-6" d="M28,17.35l-.23-.79.08.83.1.12Z"/><path d="M28,17.52l-.11-.13-.08-.83c.08.26.23.77.24.78l-.05.18Zm-.19-1,.08.83.1.11.05-.15s0-.07-.23-.79Z"/><path class="cls-6" d="M28.42,16.81c-.13.23-.35.58-.46.83-.1-.27-.28-.66-.4-.91.13.19.28.46.41.61a6,6,0,0,0,.45-.53Z"/><path d="M28,17.65h0c-.09-.27-.28-.66-.39-.91l.12.18a4,4,0,0,0,.3.43,3.89,3.89,0,0,0,.28-.35,1.25,1.25,0,0,0,.15-.19L28.3,17c-.12.21-.26.45-.34.63Zm-.4-.92c.12.24.3.63.4.9A6.54,6.54,0,0,1,28.3,17l.11-.21a2.43,2.43,0,0,1-.14.2,3.85,3.85,0,0,1-.29.35,3.35,3.35,0,0,1-.31-.44l-.11-.18Z"/><path class="cls-6" d="M28.05,17.5,28,16.67l-.08.83.08.14Z"/><path d="M28,17.65l-.08-.15.07-.83c0,.28.09.81.1.82l-.09.16Zm0-1-.06.83.07.13.08-.14s0-.07-.09-.82Z"/><path class="cls-6" d="M28.43,16.88c-.14.23-.36.58-.47.82-.09-.27-.27-.67-.38-.92a5.11,5.11,0,0,0,.4.62,6,6,0,0,0,.45-.52Z"/><path d="M28,17.71h0c-.09-.27-.27-.67-.38-.91h0a8.13,8.13,0,0,1,.39.9c.09-.19.24-.43.36-.64l.11-.17-.15.19c-.1.12-.21.25-.3.34a3.35,3.35,0,0,1-.3-.44l-.1-.18.11.18c.1.15.2.32.29.43a2.67,2.67,0,0,0,.29-.34l.16-.18-.1.17c-.13.21-.28.46-.37.65Z"/><path class="cls-6" d="M28,17.56l-.15-.81v.83l.1.13Z"/><path d="M28,17.72l-.1-.14v-.83c.06.27.15.79.16.81l-.07.16Zm-.09-1v.83l.09.12.06-.14s0-.07-.15-.81Z"/><path class="cls-6" d="M28.37,17c-.15.22-.38.55-.51.78-.08-.27-.24-.68-.34-.94.12.2.25.49.37.65a5.55,5.55,0,0,0,.48-.49Z"/><path d="M27.86,17.79h0c-.08-.26-.23-.64-.32-.9h0a8,8,0,0,1,.32.88c.1-.17.25-.4.38-.59l.13-.19c0,.06-.1.12-.15.18a3.21,3.21,0,0,1-.32.32,2.43,2.43,0,0,1-.28-.46l-.05-.09.06.09a4.68,4.68,0,0,0,.27.46c.09-.08.2-.21.31-.32l.16-.18-.12.19a6.41,6.41,0,0,0-.38.6Z"/><path class="cls-6" d="M28,17.65l.07-.83-.22.79.05.16Z"/><path d="M27.87,17.78l-.06-.17.23-.79c0,.28-.06.81-.06.83l-.11.13Zm.17-1-.22.79.05.15.1-.11s0-.08.07-.83Z"/><path class="cls-6" d="M28.38,17c-.12.24-.33.6-.43.85-.11-.27-.31-.65-.43-.89.13.18.3.45.43.59.14-.14.3-.39.43-.55Z"/><path d="M28,17.88h0a8.93,8.93,0,0,0-.39-.83h0a8.57,8.57,0,0,1,.4.81c.07-.18.2-.41.31-.62l.12-.22a2.43,2.43,0,0,1-.14.2,2.17,2.17,0,0,1-.29.36,2.92,2.92,0,0,1-.31-.41l0-.07,0,.06a2.54,2.54,0,0,0,.31.42c.08-.09.18-.23.28-.36s.09-.14.14-.2l-.11.22c-.11.21-.24.46-.32.64Z"/><path class="cls-6" d="M28,17.72s-.26-.77-.26-.77l.1.82.11.11Z"/><path d="M27.9,17.89l-.11-.12-.1-.82.26.77-.05.17ZM27.69,17l.1.82.11.1,0-.15L27.69,17Z"/><path class="cls-6" d="M28.35,17.08c-.09.26-.24.66-.3.93-.15-.24-.4-.57-.55-.78a4.67,4.67,0,0,0,.51.49c.11-.17.23-.45.34-.64Z"/><path d="M28.05,18h0c-.13-.21-.34-.51-.5-.72l-.05-.06.15.14a2.73,2.73,0,0,0,.37.34,3,3,0,0,0,.22-.41l.11-.22-.06.21c-.08.24-.18.52-.23.72Zm-.55-.79.05.06c.15.2.36.5.5.71a6.27,6.27,0,0,1,.22-.71l.07-.21c0,.07-.06.15-.1.23a3.76,3.76,0,0,1-.23.41,2.86,2.86,0,0,1-.37-.34l-.14-.15Z"/><path class="cls-6" d="M28.17,17.78,27.9,17l.12.82.11.11Z"/><path d="M28.13,18,28,17.84,27.89,17c.1.26.28.75.29.76l-.05.18ZM27.89,17l.13.82.11.1,0-.16s0-.05-.28-.76Z"/><path class="cls-6" d="M28.34,17.16c-.08.26-.23.67-.29.93-.14-.23-.4-.57-.55-.77a4.55,4.55,0,0,0,.51.48,6.42,6.42,0,0,0,.33-.64Z"/><path d="M28.05,18.1h0c-.15-.23-.4-.56-.56-.77l.16.14a2.77,2.77,0,0,0,.36.34,4,4,0,0,0,.22-.42l.11-.22-.07.23a6.63,6.63,0,0,0-.21.7Zm-.56-.78c.16.2.41.53.56.76.05-.2.14-.46.22-.7l.07-.22-.1.22a2.73,2.73,0,0,1-.23.42,2.67,2.67,0,0,1-.37-.33l-.15-.15Z"/><path class="cls-6" d="M28.17,17.91s-.35-.71-.35-.71L28,18l.12.09Z"/><path d="M28.15,18.09,28,18l-.21-.8.37.71,0,.18Zm-.34-.89L28,18l.12.08,0-.16-.36-.71Z"/><path class="cls-6" d="M28.32,17.23c-.06.27-.16.69-.19,1-.17-.21-.46-.5-.63-.69a5,5,0,0,0,.56.41,6.85,6.85,0,0,0,.26-.68Z"/><path d="M28.14,18.2h0a8.48,8.48,0,0,0-.58-.63l-.06-.06.17.11a3.07,3.07,0,0,0,.4.29c.06-.12.11-.29.17-.45a2.25,2.25,0,0,0,.08-.24l0,.24c-.05.24-.11.53-.13.73Zm-.65-.69.06,0a8.36,8.36,0,0,1,.58.62,5.66,5.66,0,0,1,.14-.72l0-.24c0,.08,0,.16-.07.25a3.08,3.08,0,0,1-.18.44,2.73,2.73,0,0,1-.41-.28l-.16-.12Z"/><path class="cls-6" d="M28.2,18s-.19-.8-.19-.8l0,.83.1.12Z"/><path d="M28.14,18.19,28,18.06l0-.83c.07.26.19.78.2.79l-.06.17Zm-.14-1,0,.83.1.11.05-.14s0-.07-.19-.8Z"/><path class="cls-6" d="M28.32,17.31c0,.28-.09.71-.09,1-.19-.19-.51-.44-.7-.6a6,6,0,0,0,.6.33c.08-.2.13-.5.19-.72Z"/><path d="M28.23,18.31h0c-.18-.18-.47-.41-.66-.57h0a7.72,7.72,0,0,1,.66.56c0-.21,0-.5.07-.76l0-.22-.06.25a3.9,3.9,0,0,1-.13.47,2.34,2.34,0,0,1-.44-.23l-.08-.05.09,0a2,2,0,0,0,.43.23c0-.12.08-.29.12-.46a1.82,1.82,0,0,1,.07-.25l0,.23a7.4,7.4,0,0,0-.07.76Z"/><polygon class="cls-6" points="28.21 18.09 27.7 17.51 28.08 18.21 28.22 18.25 28.21 18.09"/><path d="M28.23,18.26l-.15-.05-.38-.7.51.57,0,.18Zm-.53-.75.39.69.13.05,0-.16h0l-.5-.58Z"/><path class="cls-6" d="M28.33,17.41c0,.28-.09.71-.1,1-.18-.19-.5-.45-.69-.61a3.93,3.93,0,0,0,.59.33,6.62,6.62,0,0,0,.2-.71Z"/><path d="M28.24,18.41h0c-.18-.18-.47-.42-.66-.58h0c.22.18.49.4.66.57a6.64,6.64,0,0,1,.07-.73l0-.25c0,.07,0,.16-.05.24a4.09,4.09,0,0,1-.13.48,4.74,4.74,0,0,1-.44-.23l-.08,0,.08,0a3.74,3.74,0,0,0,.43.23,3.9,3.9,0,0,0,.13-.47l.06-.24v.25a7,7,0,0,0-.07.74Z"/><path class="cls-6" d="M28.26,18.22l-.38-.7.24.78.13.09Z"/><path d="M28.25,18.4l-.13-.09-.25-.79c.11.19.38.68.4.7l0,.18Zm-.38-.88.25.78.12.08,0-.16s0,0-.39-.7Z"/><path class="cls-6" d="M28.35,17.52c0,.29-.06.72-.05,1a8.79,8.79,0,0,0-.72-.56,4.21,4.21,0,0,0,.61.29c.07-.2.11-.51.16-.73Z"/><path d="M28.3,18.53h0c-.19-.17-.49-.39-.69-.54h0a6.7,6.7,0,0,1,.68.52c0-.21,0-.5,0-.74l0-.25c0,.08,0,.17,0,.26a4,4,0,0,1-.12.47,2.09,2.09,0,0,1-.44-.2l-.08,0,.08,0a2.88,2.88,0,0,0,.44.21c0-.13.07-.31.11-.47a2,2,0,0,1,.05-.26v.25c0,.25,0,.54,0,.75Z"/><path class="cls-6" d="M28.31,18.35l-.48-.61.35.72.14.06Z"/><path d="M28.32,18.52l-.14-.06-.35-.72c.17.2.47.59.49.6v.18Zm-.49-.78.36.72.12.05v-.16h0l-.48-.61Z"/><path class="cls-6" d="M28.36,17.65c0,.29-.06.72-.05,1-.2-.18-.52-.41-.72-.56a4.21,4.21,0,0,0,.61.29c.07-.2.11-.51.16-.73Z"/><path d="M28.31,18.66h0c-.2-.17-.53-.41-.73-.55l.18.08a2.76,2.76,0,0,0,.44.2c0-.13.07-.31.11-.48s0-.17,0-.25v.23c0,.25,0,.56,0,.77Zm-.73-.56a5.2,5.2,0,0,1,.72.54c0-.21,0-.51,0-.76v-.23a1.18,1.18,0,0,1,0,.25,2.84,2.84,0,0,1-.11.48,2.66,2.66,0,0,1-.44-.19l-.18-.09Z"/><path class="cls-6" d="M28.36,18.45s-.34-.73-.34-.73l.19.8.12.1Z"/><path d="M28.33,18.62l-.13-.1-.19-.8c.12.24.34.71.35.73l0,.17Zm-.32-.9.2.8.11.09,0-.16L28,17.72Z"/><path class="cls-6" d="M28.37,17.74c0,.28,0,.72,0,1-.21-.14-.55-.33-.76-.45a4.15,4.15,0,0,0,.63.2c0-.2.06-.52.09-.74Z"/><path d="M28.42,18.74h0c-.2-.14-.52-.32-.74-.44h0a7,7,0,0,1,.73.42c0-.2,0-.49,0-.74v-.24c0,.08,0,.17,0,.26a3.4,3.4,0,0,1-.07.49,2.6,2.6,0,0,1-.46-.14l-.09,0,.1,0a2.52,2.52,0,0,0,.45.14c0-.13,0-.31.06-.48l0-.26V18c0,.26,0,.55,0,.75Z"/><path class="cls-6" d="M28.42,18.42S27.8,18,27.8,18l.52.58h.15Z"/><path d="M28.47,18.59h-.15L27.8,18l.62.42,0,.17ZM27.8,18l.53.57h.13l-.05-.16h0L27.8,18Z"/><path class="cls-6" d="M28.39,17.77c0,.28.05.72.1,1a7.69,7.69,0,0,0-.8-.42,6.43,6.43,0,0,0,.65.18c0-.21,0-.52.05-.75Z"/><path d="M28.49,18.77h0c-.2-.13-.53-.29-.75-.4h0a8.32,8.32,0,0,1,.74.39c0-.21-.06-.51-.08-.76v-.22a2.26,2.26,0,0,1,0,.25,3.75,3.75,0,0,1,0,.5,2.5,2.5,0,0,1-.47-.12l-.07,0,.08,0a2.42,2.42,0,0,0,.46.12,3.58,3.58,0,0,0,0-.49c0-.09,0-.18,0-.25l0,.22c0,.26,0,.56.08.77Z"/><path class="cls-6" d="M28.48,18.58,28,18l.39.71.14.05Z"/><path d="M28.5,18.75l-.14-.05L28,18l.52.58,0,.18ZM28,18l.4.7.13,0v-.16h0A5.93,5.93,0,0,1,28,18Z"/><path class="cls-6" d="M28.43,17.88c0,.28.08.71.14,1a8.41,8.41,0,0,0-.81-.37,5.87,5.87,0,0,0,.65.14,6.21,6.21,0,0,0,0-.75Z"/><path d="M28.58,18.87h0c-.21-.12-.55-.27-.78-.37h0c.25.1.56.24.77.35a7.28,7.28,0,0,1-.11-.76l0-.21a2,2,0,0,1,0,.25,3.86,3.86,0,0,1,0,.5,2.07,2.07,0,0,1-.46-.09l-.1,0,.1,0a2.23,2.23,0,0,0,.45.09,3.62,3.62,0,0,0,0-.49v-.25l0,.2a7.58,7.58,0,0,0,.12.78Z"/><path class="cls-6" d="M28.58,18.68,28,18.25l.52.58h.14Z"/><path d="M28.64,18.84h-.15L28,18.25c.21.14.6.42.62.42l.05.17ZM28,18.25l.52.58h.14l-.05-.15h0L28,18.25Z"/><path class="cls-6" d="M28.45,18c.06.27.13.71.21,1a8.42,8.42,0,0,0-.83-.3,3.84,3.84,0,0,0,.65.08,6.27,6.27,0,0,0,0-.75Z"/><path d="M28.66,19h0c-.22-.1-.56-.21-.79-.29h0c.26.08.58.19.79.28-.06-.2-.11-.48-.16-.73l0-.23a2.11,2.11,0,0,1,0,.26,2.79,2.79,0,0,1,0,.49A2.34,2.34,0,0,1,28,18.7h0a2.45,2.45,0,0,0,.43.06,1.33,1.33,0,0,0,0-.49c0-.09,0-.18,0-.26l.05.23c.05.25.1.54.16.74Z"/><path class="cls-6" d="M28.65,18.76l-.5-.6.37.72.14.05Z"/><path d="M28.67,18.94l-.15-.06-.38-.71c.18.19.5.58.51.59l0,.18Zm-.53-.77.39.71.13.05v-.17h0l-.51-.59Z"/><path class="cls-6" d="M28.49,18.07c.08.27.19.69.29.95a6.87,6.87,0,0,0-.85-.19,4.8,4.8,0,0,0,.66,0c0-.22-.07-.52-.1-.75Z"/><path d="M28.78,19h0c-.24-.07-.6-.14-.83-.18h0a5.68,5.68,0,0,1,.82.17c-.07-.19-.15-.46-.22-.7l-.07-.24a2,2,0,0,1,.05.26,3.11,3.11,0,0,1,.06.49,2.36,2.36,0,0,1-.47,0h0a3.37,3.37,0,0,0,.46,0,3.11,3.11,0,0,0-.06-.49c0-.09,0-.18,0-.26l.08.24c.07.24.15.52.22.71Z"/><path class="cls-6" d="M28.68,18.76,28,18.61l.67.34.14-.05Z"/><path d="M28.64,19,28,18.62l.71.14.1.13-.14.06ZM28,18.62l.67.32.14-.05-.11-.12-.7-.15Z"/><path class="cls-6" d="M28.53,18.16c.08.27.19.69.29.94-.24-.07-.61-.14-.85-.19a4.84,4.84,0,0,0,.66,0,6.42,6.42,0,0,0-.1-.75Z"/><path d="M28.83,19.11h0c-.22-.07-.56-.14-.8-.19h0a6,6,0,0,1,.78.18c-.07-.2-.15-.48-.22-.72l-.06-.22a1.64,1.64,0,0,1,0,.25,3.09,3.09,0,0,1,.06.5,1.8,1.8,0,0,1-.47,0h.24l.23,0c0-.14,0-.32-.06-.49s0-.18,0-.25l.07.22c.07.24.15.53.23.72Z"/><path class="cls-6" d="M28.79,18.84l-.67-.33.6.49h.15Z"/><path d="M28.72,19l-.6-.49.67.31.08.16-.15,0Zm-.6-.49.6.48h.15l-.08-.15h0l-.67-.32Z"/><path class="cls-6" d="M28.5,18.2c.13.25.33.64.48.86a8.38,8.38,0,0,0-.87,0c.2-.05.47-.09.64-.15-.05-.22-.18-.5-.25-.72Z"/><path d="M28.11,19.07h0l.18,0a3.37,3.37,0,0,0,.46-.12,4.51,4.51,0,0,0-.17-.46q0-.14-.09-.24l.12.2c.12.22.26.48.37.65h-.87Zm.38-.86a1.6,1.6,0,0,1,.1.23,2.91,2.91,0,0,1,.16.47,1.84,1.84,0,0,1-.45.12l-.13,0a7.3,7.3,0,0,1,.81,0,6.23,6.23,0,0,1-.38-.65l-.11-.2Z"/><path class="cls-6" d="M28.9,18.91s-.7-.19-.7-.19l.66.37.14,0Z"/><path d="M28.86,19.1h0l-.66-.38.7.19.1.14-.14.05Zm-.66-.38.66.37.13,0-.09-.13-.7-.2Z"/><path class="cls-6" d="M28.57,18.31c.14.24.33.63.48.85-.24,0-.63,0-.86,0a4,4,0,0,0,.64-.15,6.77,6.77,0,0,0-.26-.71Z"/><path d="M28.19,19.18h0l.19,0a2.44,2.44,0,0,0,.45-.12c0-.13-.11-.3-.17-.47a1.36,1.36,0,0,1-.09-.23l.13.22a5.88,5.88,0,0,0,.36.63H28.8l-.59,0h0Zm.38-.87.09.23a2.79,2.79,0,0,1,.17.48,2.44,2.44,0,0,1-.45.12l-.14,0a7.36,7.36,0,0,1,.81,0c-.11-.16-.24-.41-.36-.62l-.12-.23Z"/><path class="cls-6" d="M29,19l-.65-.39.57.55h.14Z"/><path d="M29.06,19.13h-.15l-.58-.55L29,19l.07.16Zm-.73-.55.58.54h.14L29,19h0l-.65-.39Z"/><path class="cls-6" d="M28.62,18.37c.16.23.39.59.56.8a8.27,8.27,0,0,0-.85.12,4.31,4.31,0,0,0,.61-.24,5.21,5.21,0,0,0-.32-.68Z"/><path d="M28.34,19.29h0l.18-.07a2.57,2.57,0,0,0,.43-.17,3.48,3.48,0,0,0-.21-.45l-.11-.23.14.19a6.76,6.76,0,0,0,.43.6l-.83.13h0Zm.28-.92.12.23a3.58,3.58,0,0,1,.21.45,2.24,2.24,0,0,1-.44.18l-.12.05c.23,0,.57-.1.79-.12a5.55,5.55,0,0,1-.43-.6l-.13-.19Z"/><path class="cls-6" d="M29,19l-.71,0,.7.21.12-.08Z"/><path d="M29,19.22l-.7-.21H29c-.16,0-.69,0-.69,0l.7.19.12-.07,0,0,0,0-.13.08Z"/><polygon class="cls-6" points="29.45 15.61 29.95 15.53 29.45 15.54 29.36 15.58 29.45 15.61"/><path d="M29.44,15.62l-.08,0,.09-.06H30l-.5.09Zm.51-.1-.5,0-.09.05.09,0,.5-.09Z"/><path class="cls-6" d="M29.72,15.72c-.14,0-.37-.12-.52-.15l.55-.25c-.11.07-.28.16-.37.23a3.59,3.59,0,0,0,.34.17Z"/><path d="M29.72,15.72l-.13,0-.39-.11.54-.25h0a5.12,5.12,0,0,1-.53.25l.38.1.07,0-.05,0-.23-.11a2,2,0,0,1,.26-.18l.1-.06-.1.07-.25.17.22.1.12.06Z"/><polygon class="cls-6" points="29.42 15.63 29.91 15.49 29.41 15.56 29.33 15.61 29.42 15.63"/><path d="M29.42,15.63h-.09l.07-.07.51-.06s-.47.14-.48.14Zm.49-.14-.5.07-.08,0h.09l.49-.13Z"/><path class="cls-6" d="M29.75,15.76l-.61-.06c.13-.11.31-.3.42-.41a2.43,2.43,0,0,0-.24.35,4.43,4.43,0,0,0,.43.12Z"/><path d="M29.75,15.76l-.15,0-.46,0c.13-.12.3-.31.41-.42h0a5.4,5.4,0,0,1-.41.42,2.48,2.48,0,0,1,.46,0h.08l-.09,0a1.5,1.5,0,0,1-.27-.07,1.08,1.08,0,0,1,.16-.26l.07-.1-.07.11a1.75,1.75,0,0,0-.16.25l.28.06.15,0Z"/><polygon class="cls-6" points="29.24 15.66 29.75 15.61 29.25 15.59 29.16 15.63 29.24 15.66"/><path d="M29.24,15.67l-.08,0,.09,0h.5l-.51.07Z"/><path class="cls-6" d="M29.62,15.77l-.55-.1c.15-.07.37-.2.5-.27a3,3,0,0,0-.32.24,3.19,3.19,0,0,0,.37.13Z"/><path d="M29.62,15.78l-.14,0-.41-.07.49-.28h0c-.14.09-.35.21-.49.28a2.25,2.25,0,0,1,.41.06l.07,0-.06,0-.25-.09a1.54,1.54,0,0,1,.23-.18l.08-.07-.08.07-.22.18.25.08.12,0Z"/><polygon class="cls-6" points="29.2 15.66 29.65 15.46 29.15 15.59 29.09 15.65 29.2 15.66"/><path d="M29.2,15.66h-.1l0-.07.49-.13s-.43.19-.44.2Zm.44-.2-.49.14,0,.06h.1l.44-.19Z"/><path class="cls-6" d="M29.6,15.83l-.45-.18c.09-.09.24-.26.32-.36a2.79,2.79,0,0,0-.19.33c.09.07.23.15.32.21Z"/><path d="M29.6,15.84l-.09-.05-.37-.14c.1-.09.23-.25.32-.35h0a3.66,3.66,0,0,1-.31.35,2.4,2.4,0,0,1,.36.14h0l-.06,0a1.27,1.27,0,0,1-.21-.15,1.93,1.93,0,0,1,.13-.24l0-.06,0,.07a2,2,0,0,0-.14.23,2.11,2.11,0,0,0,.22.14l.11.07Z"/><polygon class="cls-6" points="29.22 15.69 29.57 15.54 29.19 15.59 29.14 15.66 29.22 15.69"/><path d="M29.22,15.7l-.08,0,.05-.07.38-.05-.34.15Zm.35-.16-.38.06,0,.06.07,0,.35-.15Z"/><path class="cls-6" d="M28.93,19h-.72l.73.18.12-.08Z"/><path d="M28.94,19.15,28.2,19h.73l.13.11-.12.08Zm0-.18h-.72l.73.17.12-.07-.13-.1Z"/><path class="cls-6" d="M29.06,19l-.74-.17.71.35.14-.05Z"/><path d="M29,19.19h0l-.71-.35.74.17.11.13-.14.05Zm-.71-.35.71.34.14,0L29.06,19h0l-.74-.17Z"/><path class="cls-6" d="M29.18,19.06l-.73,0,.73.22.13-.07Z"/><path d="M29.18,19.25,28.45,19s.64,0,.72,0l.14.11-.13.08ZM28.45,19l.73.21.12-.07-.12-.11-.73,0Z"/><path class="cls-6" d="M28.72,18.54c.19.21.47.55.67.73-.24,0-.61.14-.84.2a5.22,5.22,0,0,0,.58-.29c-.09-.2-.29-.44-.41-.64Z"/><path d="M28.55,19.47h0l.17-.07a2.22,2.22,0,0,0,.41-.22,3.58,3.58,0,0,0-.27-.41,1.91,1.91,0,0,0-.15-.21l.16.15a7.71,7.71,0,0,0,.52.57c-.23,0-.58.13-.81.19h0Zm.16-.92.16.2c.1.15.2.3.27.43a2.73,2.73,0,0,1-.42.22l-.12.05a7.49,7.49,0,0,1,.79-.18,7.3,7.3,0,0,1-.53-.56l-.15-.16Z"/><path class="cls-6" d="M29.28,19.1l-.73-.24.69.41.14,0Z"/><path d="M29.24,19.27h0l-.69-.41.73.23.11.14-.15,0Zm-.69-.41.69.4.14,0-.1-.13h0l-.73-.24Z"/><path class="cls-6" d="M28.79,18.59c.2.19.51.49.73.66a6.31,6.31,0,0,0-.8.3,3.66,3.66,0,0,0,.54-.37c-.12-.18-.33-.41-.47-.59Z"/><path d="M28.72,19.55h0l.15-.09a2.5,2.5,0,0,0,.38-.27,4.12,4.12,0,0,0-.3-.39c-.06-.07-.12-.13-.17-.2l.19.16c.18.17.39.37.55.49-.23.08-.57.22-.78.31h0Zm.06-1,.18.2a3.15,3.15,0,0,1,.3.39,1.61,1.61,0,0,1-.38.27l-.11.07a6.77,6.77,0,0,1,.75-.28,5.56,5.56,0,0,1-.56-.48l-.18-.17Z"/><path class="cls-6" d="M29.34,19.14l-.69.14.73,0,.1-.1Z"/><path d="M29.38,19.33h0l-.73,0,.69-.14.14.08-.1.11Zm0-.18-.69.13.73,0,.1-.1-.14-.07Z"/><path class="cls-6" d="M29.2,19.1l-.73,0,.75.13.11-.09Z"/><path d="M29.22,19.29l-.75-.13.72-.07.15.1-.12.1Zm0-.19-.73.06.75.12.11-.09-.13-.09Z"/><path class="cls-6" d="M29.33,19.14,28.58,19l.73.29.14,0Z"/><path d="M29.31,19.32h0l-.73-.3s.72.11.75.11l.12.13-.14.06Zm-.73-.3.73.29.14-.06-.12-.11h0L28.58,19Z"/><path class="cls-6" d="M29.45,19.18h-.73l.75.17.12-.08Z"/><path d="M29.47,19.36l-.75-.17.73,0,.14.11-.12.08Zm0-.18h-.73l.75.16.12-.07-.14-.1Z"/><path class="cls-6" d="M29,18.69c.21.2.52.51.73.68-.24.06-.6.18-.83.26a5,5,0,0,0,.57-.33c-.12-.19-.33-.42-.47-.61Z"/><path d="M28.86,19.63h0l.17-.09a1.62,1.62,0,0,0,.39-.24,4.12,4.12,0,0,0-.3-.39L29,18.7l.18.16c.18.18.39.38.55.51-.24.06-.58.18-.81.25h0ZM29,18.7l.17.19a3.26,3.26,0,0,1,.3.41,2.81,2.81,0,0,1-.4.24l-.12.07a7.75,7.75,0,0,1,.78-.24c-.16-.12-.37-.33-.56-.51L29,18.7Z"/><path class="cls-6" d="M29.56,19.21,28.81,19l.72.36.14,0Z"/><path d="M29.53,19.38,28.81,19l.75.18.11.13-.14.05ZM28.81,19l.72.35.14,0-.12-.12h0L28.81,19Z"/><path class="cls-6" d="M29,18.74c.22.17.56.45.78.6a6.76,6.76,0,0,0-.77.36,4.35,4.35,0,0,0,.51-.41c-.13-.17-.36-.38-.52-.55Z"/><path d="M29,19.7h0l.15-.11a4.1,4.1,0,0,0,.36-.29c-.09-.11-.22-.24-.34-.37a1.53,1.53,0,0,1-.18-.18l.2.15c.19.15.42.34.59.45-.22.08-.53.24-.74.34l0,0Zm0-1a1.53,1.53,0,0,1,.18.18,2.29,2.29,0,0,1,.34.37,1.9,1.9,0,0,1-.36.3l-.11.08a8,8,0,0,1,.73-.34,6,6,0,0,1-.59-.44L29,18.74Z"/><path class="cls-6" d="M29.62,19.25l-.68.18h.73l.1-.11Z"/><path d="M28.94,19.44h0l.68-.19.15.08-.09.11Zm.68-.19s-.07,0-.65.18h.7l.09-.11-.14-.07Z"/><polygon class="cls-8" points="30.78 18.31 30 17.77 29.22 18.31 29.51 17.45 28.83 16.91 29.71 16.91 30 16.05 30.29 16.91 31.17 16.91 30.49 17.45 30.78 18.31"/><path d="M30.79,18.32,30,17.78l-.77.54.28-.87-.68-.53h.88l.29-.86.3.86h.87l-.68.55.3.86ZM30,16.05l-.29.87h-.88l.69.53-.29.86.77-.54.77.53-.29-.85.69-.54h-.88L30,16.05Z"/><path class="cls-9" d="M32.9,18.18l.26.1.41-.08,0,.08-.22,0-.12,0,.09.09.13.17,0,.08-.26-.33-.25-.1Z"/><path class="cls-9" d="M33.61,17.22v.07l-.36,0a.42.42,0,0,1-.16,0,.21.21,0,0,1-.1-.06.21.21,0,0,1,0-.12A.25.25,0,0,1,33,17a.18.18,0,0,1,.08-.09.57.57,0,0,1,.16,0l.36,0v.07l-.36,0c-.06,0-.1,0-.12,0a.1.1,0,0,0-.06.05.19.19,0,0,0,0,.08c0,.06,0,.09,0,.11a.27.27,0,0,0,.17,0Z"/><path class="cls-9" d="M33.1,16.48h.08l0,.23-.23.05a.28.28,0,0,1-.09-.1.37.37,0,0,1,0-.11.26.26,0,0,1,0-.15.38.38,0,0,1,.09-.13.44.44,0,0,1,.16-.06.28.28,0,0,1,.18,0,.21.21,0,0,1,.13.07.23.23,0,0,1,.07.14.21.21,0,0,1-.05.2l-.09.06,0-.06.07-.05,0-.06a.22.22,0,0,0,0-.08l0-.08-.06-.05-.07,0h-.13l-.13.05a.18.18,0,0,0-.07.09.45.45,0,0,0,0,.11.36.36,0,0,0,0,.09.17.17,0,0,0,.06.06l.12,0Z"/><polygon class="cls-9" points="30.45 14.49 30.56 13.87 30.64 13.88 30.54 14.43 30.81 14.47 30.8 14.55 30.45 14.49"/><polygon class="cls-9" points="29.84 14.45 29.84 13.81 30.24 13.81 30.24 13.89 29.91 13.89 29.91 14.08 30.22 14.08 30.22 14.16 29.91 14.16 29.91 14.37 30.26 14.37 30.26 14.45 29.84 14.45"/><path class="cls-9" d="M28.09,14.84l.07,0a.3.3,0,0,1,0,.18.26.26,0,0,1-.08.13.31.31,0,0,1-.14.07.25.25,0,0,1-.14,0,.35.35,0,0,1-.13-.11.3.3,0,0,1-.09-.15.2.2,0,0,1,0-.15.28.28,0,0,1,.08-.12.24.24,0,0,1,.13,0,.27.27,0,0,1,.15,0l0,.06a.25.25,0,0,0-.11,0,.18.18,0,0,0-.09,0,.21.21,0,0,0-.06.1.23.23,0,0,0,0,.11.33.33,0,0,0,.06.1l.11.1a.22.22,0,0,0,.11,0,.18.18,0,0,0,.09,0,.14.14,0,0,0,.05-.1.17.17,0,0,0,0-.13Z"/><polygon class="cls-9" points="27.82 15.4 27.35 14.98 27.41 14.92 27.87 15.34 27.82 15.4"/><polygon class="cls-9" points="27.52 15.76 27.02 15.37 27.07 15.31 27.51 15.65 27.68 15.44 27.73 15.48 27.52 15.76"/><path class="cls-9" d="M26.58,16.13l0-.07.34.14a.32.32,0,0,1,.13.07.21.21,0,0,1,.06.1.16.16,0,0,1,0,.13.18.18,0,0,1-.07.11.2.2,0,0,1-.11,0l-.15,0-.34-.14,0-.07.34.14.12,0,.07,0a.18.18,0,0,0,.05-.07.17.17,0,0,0,0-.12.27.27,0,0,0-.14-.1Z"/><polygon class="cls-9" points="26.95 17.66 26.32 17.66 26.32 17.26 26.39 17.26 26.39 17.59 26.59 17.59 26.58 17.28 26.66 17.28 26.66 17.59 26.88 17.59 26.87 17.24 26.95 17.24 26.95 17.66"/><path class="cls-9" d="M29.31,14.54l-.13-.62.19,0h.1a.12.12,0,0,1,.09,0,.2.2,0,0,1,.09.09.58.58,0,0,1,.05.14.62.62,0,0,1,0,.13.3.3,0,0,1,0,.1s0,.05,0,.06a.1.1,0,0,1-.06.05l-.08,0Zm.06-.09.11,0,.09,0,0-.05,0-.08a.62.62,0,0,0,0-.13.64.64,0,0,0-.06-.14.14.14,0,0,0-.09-.05h-.09l-.12,0Z"/><path class="cls-9" d="M31.35,14.79l.29-.56.19.1.07,0a.13.13,0,0,1,.05.06.08.08,0,0,1,0,.07.29.29,0,0,1,0,.09.21.21,0,0,1-.11.1.19.19,0,0,1-.17,0l-.12-.07-.12.23Zm.22-.26.13.06a.16.16,0,0,0,.1,0,.12.12,0,0,0,.07-.07.07.07,0,0,0,0-.06.11.11,0,0,0,0-.06l-.06,0-.13-.06Z"/><path class="cls-9" d="M31.67,15l.59-.32.06,0-.26.62L32,15.25l.08-.19-.17-.15-.18.1Zm.3-.08.14.13.07-.17a.81.81,0,0,1,.06-.13l-.1.07Z"/><path class="cls-9" d="M32.13,15.38l.5-.39.15.2a.19.19,0,0,1,0,.1.1.1,0,0,1,0,.09.13.13,0,0,1-.06.07.15.15,0,0,1-.11,0,.17.17,0,0,1-.12-.06v.06a.22.22,0,0,1,0,.1l-.07.18-.06-.07.06-.14a.69.69,0,0,0,0-.1.43.43,0,0,1,0-.05s0,0,0,0l0,0-.06-.07-.22.17Zm.32-.16.1.13.05.05a.07.07,0,0,0,.06,0s0,0,.06,0,0,0,0-.06a.12.12,0,0,0,0-.09l-.1-.14Z"/><path class="cls-9" d="M32.46,15.81l.66-.12,0,.07-.44.51,0-.08.13-.15-.11-.2-.2,0Zm.31,0,.09.17.13-.14.09-.09-.12,0Z"/><path class="cls-9" d="M33,17.45l.6.28v.07L33,18v-.09l.2,0,0-.23L33,17.52Zm.24.18,0,.19.18,0,.14,0-.12-.05Z"/><path class="cls-9" d="M27.05,18.24l-.62.14-.05-.25a.49.49,0,0,1,0-.11.12.12,0,0,1,.05-.07.14.14,0,0,1,.08-.05.23.23,0,0,1,.12,0,.2.2,0,0,1,.09.11.08.08,0,0,1,0-.05l.07-.08.14-.13,0,.09-.11.1a.45.45,0,0,0-.07.07l0,.05v.07l0,.09.27-.06Zm-.36,0,0-.15a.34.34,0,0,0,0-.08s0,0-.05,0a.06.06,0,0,0-.06,0,.07.07,0,0,0-.06,0s0,.05,0,.1l0,.17Z"/><path class="cls-9" d="M27,17.1,26.34,17l0-.21s0-.06,0-.08a.09.09,0,0,1,0-.07l.07,0h.08a.23.23,0,0,1,.13.06.22.22,0,0,1,0,.17l0,.14L27,17Zm-.32-.1v-.15a.11.11,0,0,0,0-.1.12.12,0,0,0-.08,0h-.07a.1.1,0,0,0,0,.05s0,0,0,.06l0,.15Z"/><path class="cls-9" d="M27.24,16.17l-.53-.36.12-.17a.15.15,0,0,1,.07-.07.08.08,0,0,1,.08,0l.09,0,.05.05a.11.11,0,0,1,0,.08l.09,0a.17.17,0,0,1,.1,0l.06.06a.25.25,0,0,1,0,.07s0,0,0,.07a.59.59,0,0,1,0,.08ZM27,15.9l.07-.1,0-.06a.06.06,0,0,0,0-.06l0,0-.05,0a.06.06,0,0,0-.05,0l-.05.06-.07.09Zm.25.16.07-.11s0,0,0,0v0s0,0,0,0l0,0a.07.07,0,0,0-.06,0,.07.07,0,0,0-.06,0s0,0-.05.06l-.07.11Z"/><path class="cls-9" d="M28.28,15l-.16-.65.07,0,.53.42-.07,0-.16-.13-.19.13,0,.19Zm0-.3.16-.1-.14-.12-.11-.09a.56.56,0,0,1,0,.12Z"/></g></g></g></g></g></svg>