<svg xmlns="http://www.w3.org/2000/svg" xmlns:xlink="http://www.w3.org/1999/xlink" viewBox="0 0 60 35"><defs><style>.cls-1{fill:none;}.cls-2{clip-path:url(#clip-path);}.cls-3{fill:#d80031;}.cls-4{fill:#292c2f;}.cls-5,.cls-7{fill:#fff;}.cls-6{fill:#2f3c85;}.cls-7{fill-rule:evenodd;}</style><clipPath id="clip-path"><rect class="cls-1" width="60" height="35"/></clipPath></defs><title>Puerto Rico</title><g id="Layer_2" data-name="Layer 2"><g id="Stream"><g id="Puerto_Rico" data-name="Puerto Rico"><g class="cls-2"><rect class="cls-3" width="60" height="35"/><path class="cls-4" d="M0,24.52H0Zm0-14H0Z"/><path class="cls-5" d="M0,28H60V21H0ZM0,14H60V7H0Z"/><polygon class="cls-6" points="0 0 0 35 30.26 17.53 0 0"/><polygon class="cls-7" points="10.1 11.67 8.3 17.19 11.06 18.09 10.1 11.67"/><polygon class="cls-7" points="10.1 11.67 11.86 17.19 9.09 18.09 10.1 11.67"/><polygon class="cls-7" points="15.64 15.72 9.82 15.72 9.82 18.6 15.64 15.72"/><polygon class="cls-7" points="15.64 15.72 10.9 19.11 9.2 16.8 15.64 15.72"/><polygon class="cls-7" points="4.51 15.72 9.26 19.11 10.95 16.8 4.51 15.72"/><polygon class="cls-7" points="4.51 15.72 10.39 15.72 10.39 18.6 4.51 15.72"/><polygon class="cls-7" points="13.49 22.21 11.68 16.68 8.92 17.58 13.49 22.21"/><polygon class="cls-7" points="13.49 22.21 8.81 18.77 10.5 16.46 13.49 22.21"/><polygon class="cls-7" points="6.66 22.21 11.35 18.77 9.65 16.46 6.66 22.21"/><polygon class="cls-7" points="6.66 22.21 8.47 16.68 11.23 17.58 6.66 22.21"/></g></g></g></g></svg>