<svg xmlns="http://www.w3.org/2000/svg" xmlns:xlink="http://www.w3.org/1999/xlink" viewBox="0 0 60 35"><defs><style>.cls-1{fill:none;}.cls-2{clip-path:url(#clip-path);}.cls-3{fill:#fff;}.cls-4{fill:#223e84;}.cls-5{fill:#bc0030;}.cls-6{clip-path:url(#clip-path-4);}.cls-7{clip-path:url(#clip-path-5);}.cls-8{clip-path:url(#clip-path-6);}.cls-9{clip-path:url(#clip-path-7);}.cls-10{clip-path:url(#clip-path-8);}.cls-11{clip-path:url(#clip-path-9);}.cls-12{clip-path:url(#clip-path-10);}.cls-13{fill:#f5cd28;}.cls-14{fill:#272015;}.cls-15{fill:#999396;}.cls-16{fill:#347c63;}.cls-17{fill:#1a4104;}.cls-18{fill:#1a4204;}.cls-19{fill:#c0003b;}.cls-20{clip-path:url(#clip-path-11);}.cls-21{clip-path:url(#clip-path-12);}.cls-22{clip-path:url(#clip-path-13);}.cls-23{clip-path:url(#clip-path-14);}.cls-24{clip-path:url(#clip-path-15);}</style><clipPath id="clip-path"><rect class="cls-1" width="60" height="35"/></clipPath><clipPath id="clip-path-4"><rect class="cls-1" x="32.63" y="13.12" width="1.38" height="1.53"/></clipPath><clipPath id="clip-path-5"><rect class="cls-1" x="32.2" y="12.86" width="1.55" height="0.99"/></clipPath><clipPath id="clip-path-6"><rect class="cls-1" x="30.58" y="12.51" width="2.74" height="1.14"/></clipPath><clipPath id="clip-path-7"><rect class="cls-1" x="25.99" y="13.11" width="1.38" height="1.53"/></clipPath><clipPath id="clip-path-8"><rect class="cls-1" x="26.26" y="12.85" width="1.55" height="0.99"/></clipPath><clipPath id="clip-path-9"><rect class="cls-1" x="26.69" y="12.5" width="2.74" height="1.14"/></clipPath><clipPath id="clip-path-10"><rect class="cls-1" x="28.72" y="12.06" width="2.57" height="0.9"/></clipPath><clipPath id="clip-path-11"><rect class="cls-1" x="32.62" y="20.49" width="1.49" height="0.8"/></clipPath><clipPath id="clip-path-12"><rect class="cls-1" x="31.81" y="20.25" width="1.65" height="0.62"/></clipPath><clipPath id="clip-path-13"><rect class="cls-1" x="25.91" y="20.49" width="1.49" height="0.8"/></clipPath><clipPath id="clip-path-14"><rect class="cls-1" x="26.57" y="20.25" width="1.65" height="0.62"/></clipPath><clipPath id="clip-path-15"><rect class="cls-1" x="27.27" y="19.61" width="5.46" height="1.1"/></clipPath></defs><title>Republica Dominicana</title><g id="Layer_2" data-name="Layer 2"><g id="Stream"><g id="Republica_Dominicana" data-name="Republica Dominicana"><g class="cls-2"><g class="cls-2"><rect class="cls-3" width="60" height="35"/><rect class="cls-4" width="25.71" height="13.45"/><rect class="cls-5" y="21.5" width="25.71" height="13.5"/><rect class="cls-4" x="34.29" y="21.5" width="25.71" height="13.5"/><rect class="cls-5" x="34.29" width="25.71" height="13.45"/><g class="cls-2"><path d="M34.12,14.89c0-.28-.17-.37-.18-.37s.23.05.24.37Z"/><path d="M34,14.91c0-.28-.17-.37-.18-.37s.23.05.24.37Z"/><path d="M33.93,14.92a.44.44,0,0,0-.18-.38s.23.06.24.38Z"/><path d="M33.84,15a.42.42,0,0,0-.18-.37c0-.05.22.05.24.37Z"/><path d="M33.74,15a.43.43,0,0,0-.18-.38s.23.06.24.37Z"/><path d="M33.65,15a.42.42,0,0,0-.18-.37c0-.05.22.05.24.37Z"/><g class="cls-6"><path class="cls-4" d="M34,14.5a3,3,0,0,0-.54-1.11,4.14,4.14,0,0,0-.68-.27l-.17.39s.53.25.64.48a3.7,3.7,0,0,1,.19.67l.31-.13c.08,0,.25,0,.25,0Z"/></g><path d="M33.43,14.7v0a3.44,3.44,0,0,0-.19-.65c-.11-.23-.61-.47-.62-.48l.16-.42a2.64,2.64,0,0,1,.72.26,3.08,3.08,0,0,1,.55,1.12s0,0-.11,0l-.16,0-.31.13Zm-.76-1.18a1.28,1.28,0,0,1,.62.46,2.87,2.87,0,0,1,.19.64l.28-.12.18,0a2.69,2.69,0,0,0-.48-1.06,3.27,3.27,0,0,0-.66-.27l-.14.37Z"/><g class="cls-7"><path class="cls-4" d="M33.75,13.85a2.2,2.2,0,0,0-.9-.16c-.2,0-.61-.15-.65-.25s.35-.58.35-.58l.28.29c.17.18.6,0,.75.34Z"/></g><path d="M33.75,13.89h0a1.59,1.59,0,0,0-.62-.14h-.27c-.44-.11-.64-.19-.67-.28s.23-.46.35-.61l.33.28a.54.54,0,0,0,.3.1.52.52,0,0,1,.47.26l.16.35s0,0,0,0a0,0,0,0,1,0,0Zm-.64-.22a1.45,1.45,0,0,1,.56.11l-.12-.27c-.08-.17-.24-.19-.41-.22a.49.49,0,0,1-.34-.12l-.27-.28a2.48,2.48,0,0,0-.29.53s.11.11.61.23a.32.32,0,0,0,.13,0Z"/><path d="M33.11,13.69a1.35,1.35,0,0,1-.49-.18l-.22-.09c-.13,0-.18,0-.18,0s0-.14.19-.09a1.56,1.56,0,0,1,.24.1c.14.07.45.22.49.17l0,0a.11.11,0,0,1-.08,0Z"/><g class="cls-8"><path class="cls-4" d="M30.73,12.54a6.06,6.06,0,0,1,1.48.05c.7.12,1.1.37,1.11.53a.76.76,0,0,1-.16.53s0-.13-.17-.18a10.73,10.73,0,0,0-1.18-.32c-.21,0-.82,0-.91,0s-.32-.05-.32-.16a2.06,2.06,0,0,1,.15-.46Z"/></g><path d="M33.14,13.68l0,0A.17.17,0,0,0,33,13.5l-.17-.05a7.71,7.71,0,0,0-1-.27H30.9s-.35,0-.35-.19a2.51,2.51,0,0,1,.15-.48,4.68,4.68,0,0,1,.62,0,4.78,4.78,0,0,1,.9.08c.7.12,1.12.38,1.13.55a1,1,0,0,1-.16.56Zm-1.44-.56h.11a7.89,7.89,0,0,1,1,.27l.16,0a.23.23,0,0,1,.18.16,1.1,1.1,0,0,0,.12-.48c0-.14-.39-.38-1.08-.5a4.74,4.74,0,0,0-.89-.08,5,5,0,0,0-.55,0,1.17,1.17,0,0,0-.16.43c0,.07.17.12.29.13h.8Z"/><path d="M31.09,13.08h0A.5.5,0,0,1,30.9,13a.21.21,0,0,0-.15,0c-.09,0-.11.06-.11.06s0-.11.1-.12a.34.34,0,0,1,.18,0l.14,0h.09V13h.05v0l0,.08-.08,0Z"/><path d="M25.89,14.88h-.06a.46.46,0,0,1,.21-.42c0,.06-.14.15-.15.43Z"/><path d="M26,14.9h-.06a.47.47,0,0,1,.21-.43c0,.06-.14.15-.15.43Z"/><path d="M26.08,14.91H26a.46.46,0,0,1,.21-.42s-.14.14-.15.43Z"/><path d="M26.17,14.94h-.06a.52.52,0,0,1,.21-.43c0,.06-.14.15-.15.43Z"/><path d="M26.27,15h-.06a.52.52,0,0,1,.21-.43c0,.06-.14.15-.15.43Z"/><path d="M26.36,15H26.3a.49.49,0,0,1,.22-.43c0,.06-.15.15-.16.43Z"/><g class="cls-9"><path class="cls-4" d="M26,14.49a3.18,3.18,0,0,1,.54-1.12,5,5,0,0,1,.67-.26l.18.38s-.53.26-.64.49a3.68,3.68,0,0,0-.19.66l-.31-.12c-.08,0-.25,0-.25,0Z"/></g><path d="M26.58,14.69l0,0-.31-.12a.41.41,0,0,0-.16,0c-.07,0-.11,0-.11,0a3.15,3.15,0,0,1,.54-1.12,3.12,3.12,0,0,1,.7-.29l.2.4s-.52.29-.63.51a3.46,3.46,0,0,0-.19.66v0Zm-.41-.21h.08l.28.11a2.82,2.82,0,0,1,.19-.63c.11-.24.62-.49.64-.5l-.18-.35a5.13,5.13,0,0,0-.62.27A3.2,3.2,0,0,0,26,14.5a.44.44,0,0,1,.15,0Z"/><g class="cls-10"><path class="cls-4" d="M26.26,13.83a2.31,2.31,0,0,1,.9-.15c.2,0,.61-.16.65-.26s-.35-.57-.35-.57l-.28.28c-.18.19-.6,0-.75.35Z"/></g><path d="M26.26,13.87h0a0,0,0,0,1,0,0l.16-.36a.51.51,0,0,1,.47-.25.54.54,0,0,0,.3-.1l.27-.29c.18.15.45.51.41.62s-.23.16-.67.27a.32.32,0,0,1-.13,0H26.9a1.42,1.42,0,0,0-.62.14Zm1.17-1-.22.29a.54.54,0,0,1-.34.12c-.17,0-.33,0-.41.21l-.12.27a1.67,1.67,0,0,1,.56-.11H27a.44.44,0,0,0,.18,0c.49-.12.61-.19.62-.23a1.79,1.79,0,0,0-.34-.54Z"/><path d="M26.9,13.68a.1.1,0,0,1-.08,0l.05,0c0,.05.34-.09.49-.16a1.24,1.24,0,0,1,.24-.1c.17-.06.24,0,.24.05s-.07,0-.14,0h-.09l-.22.1a1.66,1.66,0,0,1-.49.18Z"/><g class="cls-11"><path class="cls-4" d="M29.28,12.52a6.67,6.67,0,0,0-1.48.05c-.7.12-1.1.37-1.11.53a.8.8,0,0,0,.16.54s0-.14.17-.19a10.72,10.72,0,0,1,1.18-.31c.21,0,.82,0,.91,0s.32-.06.32-.17a2.25,2.25,0,0,0-.15-.46Z"/></g><path d="M26.85,13.67l0,0a.88.88,0,0,1-.16-.55c0-.18.43-.44,1.13-.56a5.88,5.88,0,0,1,.9-.07l.55,0a1.05,1.05,0,0,1,.22.49c0,.16-.33.2-.35.2H28.2a7.49,7.49,0,0,0-1,.27l-.15,0a.17.17,0,0,0-.14.14l0,.05Zm1.84-1.14a5.74,5.74,0,0,0-.89.07c-.69.12-1.07.37-1.08.5a1,1,0,0,0,.12.48.25.25,0,0,1,.18-.16l.14,0a8.08,8.08,0,0,1,1-.27H29c.19,0,.36-.07.36-.14a1.73,1.73,0,0,0-.15-.44c-.1,0-.3,0-.56,0Z"/><path d="M28.92,13.06c-.1,0-.11-.06-.11-.09l.05,0v0s0,0,.08,0a.33.33,0,0,0,.14,0,.26.26,0,0,1,.18-.05c.13,0,.15.11.15.12s-.07,0-.16-.06a.42.42,0,0,0-.15,0,.34.34,0,0,1-.16.05Z"/><g class="cls-12"><path class="cls-4" d="M30,12.07c-.95,0-1.21.14-1.25.31a1.69,1.69,0,0,0,.11.58s.16-.3,1.15-.29,1.19.27,1.19.27a2.85,2.85,0,0,0,.12-.57c0-.15-.42-.31-1.32-.3Z"/></g><path d="M28.83,13l0-.07a1.6,1.6,0,0,1-.11-.6c0-.15.22-.32,1.28-.33.81,0,1.33.13,1.35.33a3,3,0,0,1-.12.58h0A2.27,2.27,0,0,0,30,12.7h0c-1,0-1.12.28-1.12.28l0,.06Zm1.12-.4c.92,0,1.19.22,1.24.27s.08-.42.08-.54-.35-.27-1.26-.27-1.2.1-1.25.29a1.25,1.25,0,0,0,.09.51,1.62,1.62,0,0,1,1.1-.26Z"/><polygon class="cls-13" points="31.3 13.01 31.34 12.62 31.38 12.62 31.35 12.97 31.49 12.98 31.49 13.03 31.3 13.01"/><polygon class="cls-13" points="31.54 13.03 31.58 12.64 31.62 12.64 31.58 13.04 31.54 13.03"/><polygon class="cls-13" points="31.91 13.06 31.97 12.67 32.18 12.7 32.17 12.74 32 12.72 31.98 12.84 32.14 12.86 32.14 12.91 31.98 12.88 31.95 13.02 32.13 13.04 32.12 13.09 31.91 13.06"/><polygon class="cls-13" points="32.52 13.2 32.64 12.87 32.55 12.84 32.56 12.8 32.78 12.87 32.77 12.92 32.68 12.89 32.56 13.22 32.52 13.2"/><path class="cls-13" d="M31.69,13h.12l0,0s0,0,0,0a.08.08,0,0,0,0,0,0,0,0,0,0,0,0H31.7Zm0-.18h.1s0,0,0,0a0,0,0,0,0,0,0v0l0,0h-.1Zm-.06.22,0-.39h.17a.08.08,0,0,1,0,0,.13.13,0,0,1,0,.06v0a.08.08,0,0,1,0,0,.08.08,0,0,1,0,0s0,0,0,.06,0,0,0,.05l0,0a.05.05,0,0,1,0,0h-.15Z"/><path class="cls-13" d="M32.28,12.9l.08,0h0l0,0,0,0v-.05s0,0,0,0l-.09,0Zm-.1.2.11-.38.13,0,0,0a.08.08,0,0,1,0,.05s0,0,0,.06,0,0,0,.06a.08.08,0,0,1-.07,0v0a.14.14,0,0,1,0,.06l0,.12h0v-.09a.35.35,0,0,0,0-.06v0l0,0h0l0,0-.05.17Z"/><path class="cls-13" d="M33,13.34l.06,0h.07s0,0,0,0a.43.43,0,0,0,0-.07.18.18,0,0,0,0-.1.07.07,0,0,0,0-.05l0,0-.06,0Zm-.06,0,.14-.37.1,0,0,0a.05.05,0,0,1,0,0,.11.11,0,0,1,0,.08.29.29,0,0,1,0,.09l0,.07,0,.05,0,0H33Z"/><path class="cls-13" d="M32.77,13.12l.1,0V13l0,.07Zm-.13.13.24-.34,0,0,0,.41h0V13.2l-.11,0-.07.1Z"/><polygon class="cls-13" points="29.88 12.59 29.88 12.24 29.77 12.24 29.77 12.2 30.03 12.2 30.03 12.24 29.92 12.24 29.92 12.59 29.88 12.59"/><polygon class="cls-13" points="30.43 12.59 30.44 12.2 30.49 12.2 30.47 12.59 30.43 12.59"/><path class="cls-13" d="M29.22,12.44l.08,0a.06.06,0,0,0,.06,0s0,0,0-.05a.05.05,0,0,0,0,0s0,0,0,0h0l-.08,0Zm0,.21-.07-.39.12,0h.09l0,0s0,0,0,.05a.28.28,0,0,1,0,.09.19.19,0,0,1-.09.05h-.08l0,.16Z"/><path class="cls-13" d="M29.54,12.42h.11l0-.11,0-.08s0,0,0,.08Zm-.08.17.09-.4h.05l.17.38h-.05l0-.11h-.14l0,.12Z"/><path class="cls-13" d="M30.12,12.37h.14l0,0s0,0,0,0a.06.06,0,0,0,0,0l-.06,0h-.1Zm0,.22V12.2h.21a0,0,0,0,1,0,0,.14.14,0,0,1,0,.06.19.19,0,0,1,0,.08.15.15,0,0,1-.07,0l0,0,0,.05.05.11h-.05l0-.08a.09.09,0,0,1,0,0s0,0,0,0h-.09v.17Z"/><path class="cls-13" d="M30.68,12.46l.11,0,0-.12a.19.19,0,0,0,0-.08.11.11,0,0,1,0,.07Zm-.13.14.2-.36h.05l.06.42h-.05l0-.13-.13,0-.06.11Z"/><polygon class="cls-13" points="27.62 13.15 27.56 12.75 27.61 12.75 27.67 13.14 27.62 13.15"/><path class="cls-13" d="M28.08,12.93h0s0,0,0,.05l0,0h.09l0,0a0,0,0,0,0,0,0v0l0,0-.06,0-.06,0,0,0s0,0,0-.05a.13.13,0,0,1,0-.06l0,0,.06,0h.06a.1.1,0,0,1,.05,0,.14.14,0,0,1,0,.06h0a.06.06,0,0,0,0-.06h-.06l-.05,0a.08.08,0,0,0,0,0,.05.05,0,0,0,0,0l.07,0,.07,0a.1.1,0,0,1,0,0,.08.08,0,0,1,0,.05.13.13,0,0,1,0,.06.1.1,0,0,1,0,0l-.06,0h-.08a.1.1,0,0,1-.05,0s0-.05,0-.07Z"/><path class="cls-13" d="M27.7,12.91a.26.26,0,0,1,0-.16.16.16,0,0,1,.11-.07.11.11,0,0,1,.08,0l.07.07a.3.3,0,0,1,0,.1A.37.37,0,0,1,28,13a.2.2,0,0,1,0,.08l-.08,0a.15.15,0,0,1-.09,0s-.05,0-.07-.06l0-.1Zm.05,0a.13.13,0,0,0,.05.11.07.07,0,0,0,.08,0A.1.1,0,0,0,28,13a.23.23,0,0,0,0-.12.11.11,0,0,0,0-.08.07.07,0,0,0,0,0,.07.07,0,0,0-.06,0,.14.14,0,0,0-.08,0,.18.18,0,0,0,0,.13Z"/><path class="cls-13" d="M27.34,13.19l.06,0,.05,0a0,0,0,0,0,0,0,.13.13,0,0,0,0-.06.17.17,0,0,0,0-.07.36.36,0,0,0,0-.09l-.05,0h-.06l-.07,0Zm0,.06-.12-.38.11,0h.11a.34.34,0,0,1,.06.06l0,.08s0,.06,0,.08,0,0,0,.06a.08.08,0,0,1,0,.05l0,0,0,0Z"/><path class="cls-3" d="M27.25,13.92l.5.49v3.93a.74.74,0,0,0,.67.66h.84a.93.93,0,0,1,.76.41.9.9,0,0,1,.75-.41h.91a.72.72,0,0,0,.6-.67V14.41l.51-.49Z"/><path d="M30,19.46l0,0a.92.92,0,0,0-.73-.39h-.84a.77.77,0,0,1-.7-.69V14.41l-.5-.47,5.57,0-.48.54v3.91a.75.75,0,0,1-.2.48.62.62,0,0,1-.42.22h-.92a.94.94,0,0,0-.73.39l0,0Zm2.75-5.56-5.52,0,.52.44v3.95a.7.7,0,0,0,.64.63h.84a1,1,0,0,1,.76.38.93.93,0,0,1,.74-.38h.93a.55.55,0,0,0,.37-.2.64.64,0,0,0,.2-.44V14.41l.51-.51Z"/><polygon class="cls-5" points="30.44 13.92 30.44 16.21 32.28 16.21 32.28 14.41 32.79 13.92 30.44 13.92"/><path d="M32.3,16.23H30.44l0-2.31,2.37,0-.49.53v1.8Zm.48-2.32-2.34,0,0,2.27,1.81,0V14.41l.51-.5Z"/><polygon class="cls-4" points="27.25 13.92 29.6 13.92 29.6 16.21 27.75 16.21 27.75 14.41 27.25 13.92"/><path d="M29.62,16.23H27.75l0-1.82-.5-.48,2.37,0,0,2.33Zm0-2.31-2.33,0,.51.46v1.81l1.81,0V13.92Z"/><path class="cls-5" d="M27.75,17H29.6v2L29.43,19h-1a.72.72,0,0,1-.67-.66Z"/><path d="M29.62,19.11l-.2-.1h-1a.73.73,0,0,1-.69-.68V17l1.87,0,0,2.1Zm0-2.08-1.83,0,0,1.29a.7.7,0,0,0,.65.64h1l.15.07V17Z"/><path class="cls-4" d="M32.28,17H30.44v2l.17-.08h1a.71.71,0,0,0,.67-.66Z"/><path d="M30.42,19.11V17l1.86,0,0,1.33a.73.73,0,0,1-.69.68h-1l-.19.09ZM32.27,17l-1.83,0,0,2L30.6,19h1a.7.7,0,0,0,.66-.64V17Z"/><path d="M30,19.46l0,0a.92.92,0,0,0-.73-.39h-.84a.77.77,0,0,1-.7-.69V14.41l-.5-.47,5.57,0-.48.54v3.91a.75.75,0,0,1-.2.48.62.62,0,0,1-.42.22h-.92a.94.94,0,0,0-.73.39l0,0Zm2.75-5.56-5.52,0,.52.44v3.95a.7.7,0,0,0,.64.63h.84a1,1,0,0,1,.76.38.93.93,0,0,1,.74-.38h.93a.55.55,0,0,0,.37-.2.64.64,0,0,0,.2-.44V14.41l.51-.51Z"/><polygon class="cls-13" points="29.93 15.23 29.93 15.88 30.1 15.88 30.1 15.23 30.27 15.23 30.27 15.07 30.1 15.07 30.1 14.9 29.93 14.9 29.93 15.07 29.77 15.07 29.77 15.23 29.93 15.23"/><path d="M30.13,15.92h-.2l0-.69-.13,0,0-.19.19,0,0-.14.2,0,0,.2.14,0,0,.19-.2,0,0,.66Zm-.2-.72,0,.69.11,0v-.63l.2,0,0-.13-.14,0,0-.2-.14,0,0,.14-.19,0,0,.13.13,0Z"/><polygon class="cls-14" points="30.07 16.08 28.74 14.31 28.83 14.24 30.16 16.01 30.07 16.08 30.07 16.08"/><polygon class="cls-13" points="28.73 14.31 28.59 14.01 28.86 14.24 28.73 14.31"/><path class="cls-5" d="M29.48,15.59s-.17.68-.17.68a3.15,3.15,0,0,0,.52.05,4.1,4.1,0,0,0-.1-.48,2,2,0,0,1-.25-.25Z"/><path class="cls-3" d="M29,15.14,29,16s.6.53.59.46-.05-.9-.05-.9Z"/><path class="cls-4" d="M28.54,14.61l0,1A4.48,4.48,0,0,0,29,16s.05-.79.05-.79Z"/><polygon points="28.53 15.43 28.5 14.6 28.56 14.6 28.53 15.43 28.53 15.43"/><polygon class="cls-14" points="30 16.14 28.43 14.57 28.51 14.49 30.08 16.06 30 16.14 30 16.14"/><polygon class="cls-13" points="28.42 14.57 28.24 14.29 28.54 14.48 28.42 14.57"/><path class="cls-3" d="M28.25,14.9v2.46a.87.87,0,0,0,.84.82,5.88,5.88,0,0,0,.84-.17v-1.8Z"/><path d="M29.06,18.21a.91.91,0,0,1-.84-.85V14.9L30,16.19V18a3.47,3.47,0,0,1-.86.2Zm-.83-3.28.05,2.43a.85.85,0,0,0,.78.79v0l0,0a7.39,7.39,0,0,0,.84-.16l0-1.78-1.67-1.28Z"/><path class="cls-5" d="M28.25,16.87v.49a.87.87,0,0,0,.84.82,5.88,5.88,0,0,0,.84-.17c-.33-.16-1.17.33-1.17-1a.65.65,0,0,1-.51-.16Z"/><path class="cls-4" d="M28.78,15.29l0,1.41a1.89,1.89,0,0,1-.51-.16V14.9Z"/><path class="cls-5" d="M29.24,15.69v1.1a.71.71,0,0,1,.32.05l.38.16v-.79Z"/><path class="cls-4" d="M29.89,17.36a3.24,3.24,0,0,0-.46-.19.93.93,0,0,0-.21,0,1.5,1.5,0,0,0,0,.26c0,.1.16.15.21.15l.47-.05Z"/><path d="M29.06,18.21a.91.91,0,0,1-.84-.85V14.9L30,16.19V18a3.47,3.47,0,0,1-.86.2Zm-.83-3.28.05,2.43a.85.85,0,0,0,.78.79v0l0,0a7.39,7.39,0,0,0,.84-.16l0-1.78-1.67-1.28Z"/><polygon class="cls-14" points="29.92 16.25 28.17 14.87 28.24 14.78 29.99 16.16 29.92 16.25 29.92 16.25"/><polygon class="cls-13" points="28.16 14.87 27.95 14.61 28.27 14.76 28.16 14.87"/><polygon class="cls-14" points="29.98 16.05 29.9 15.98 31.23 14.21 31.32 14.28 29.98 16.05 29.98 16.05"/><polygon class="cls-13" points="31.33 14.28 31.48 13.98 31.21 14.21 31.33 14.28"/><path class="cls-5" d="M30.58,15.56s.17.68.17.68a3.15,3.15,0,0,1-.52.05,4.1,4.1,0,0,1,.1-.48,2,2,0,0,0,.25-.25Z"/><path class="cls-3" d="M31,15.11l.09.89s-.6.53-.59.46.05-.9.05-.9Z"/><path class="cls-4" d="M31.52,14.58l0,1A6.14,6.14,0,0,1,31,16s-.05-.8-.05-.8Z"/><polygon points="31.59 15.4 31.5 14.57 31.56 14.57 31.59 15.4 31.59 15.4"/><polygon class="cls-14" points="30.06 16.11 29.98 16.03 31.55 14.46 31.63 14.54 30.06 16.11 30.06 16.11"/><polygon class="cls-13" points="31.64 14.54 31.82 14.26 31.52 14.45 31.64 14.54"/><path class="cls-3" d="M31.81,14.87v2.46a.87.87,0,0,1-.84.82,5.88,5.88,0,0,1-.84-.17v-1.8Z"/><path d="M31,18.18h0a6.53,6.53,0,0,1-.85-.17l0-1.83,1.69-1.33.05,2.48a.91.91,0,0,1-.84.85Zm-.83-.2c.06,0,.5.12.8.14l0,0v0a.85.85,0,0,0,.78-.79V14.87l-1.63,1.34V18Z"/><path class="cls-5" d="M31.81,16.84v.49a.87.87,0,0,1-.84.82,5.88,5.88,0,0,1-.84-.17c.33-.16,1.17.33,1.17-1a.65.65,0,0,0,.51-.16Z"/><path class="cls-4" d="M31.28,15.26l0,1.42a1.91,1.91,0,0,0,.51-.17V14.87Z"/><path class="cls-5" d="M30.82,15.66v1.1a.66.66,0,0,0-.32.06l-.38.15v-.79Z"/><path class="cls-4" d="M30.17,17.33a3.24,3.24,0,0,1,.46-.19.93.93,0,0,1,.21,0,1.5,1.5,0,0,1,0,.26c0,.1-.16.15-.21.15l-.47,0Z"/><path d="M31,18.18h0a6.53,6.53,0,0,1-.85-.17l0-1.83,1.69-1.33.05,2.48a.91.91,0,0,1-.84.85Zm-.83-.2c.06,0,.5.12.8.14l0,0v0a.85.85,0,0,0,.78-.79V14.87l-1.63,1.34V18Z"/><polygon class="cls-14" points="30.14 16.22 30.07 16.14 31.82 14.75 31.89 14.84 30.14 16.22 30.14 16.22"/><polygon class="cls-13" points="31.9 14.84 32.11 14.58 31.8 14.73 31.9 14.84"/><path class="cls-5" d="M30.31,17.92s.18.23.22.19-.09-.38-.14-.56a2.32,2.32,0,0,1-.15-.64c0-.27-.18,0-.18,0Z"/><path d="M30.51,18.14c-.05,0-.12-.07-.21-.18l-.27-1c0-.06.1-.17.16-.17s.08.1.08.14a1.35,1.35,0,0,0,.1.47,1.42,1.42,0,0,1,.05.16l.06.19c.08.25.1.36.07.4Zm-.32-1.32a.38.38,0,0,0-.1.13l.25,1a.79.79,0,0,0,.17.16,1.88,1.88,0,0,0-.09-.33c0-.07,0-.14-.06-.19a1,1,0,0,0-.05-.16,1.7,1.7,0,0,1-.1-.49.66.66,0,0,0,0-.09Z"/><path class="cls-5" d="M30.17,18.46h.32s-.1-.42-.13-.67a7.89,7.89,0,0,0-.3-1Z"/><path d="M30.53,18.5h-.36L30,16.81a3.41,3.41,0,0,1,.36,1c0,.24.13.66.13.66v0ZM30,16.82l.17,1.63h.25c0-.1-.1-.43-.12-.64a8.18,8.18,0,0,0-.3-1Z"/><path class="cls-3" d="M29.94,16.73a3.13,3.13,0,0,0-.46,1.08,1.15,1.15,0,0,0,.28.7c.08.12.26.49.26.49a2.83,2.83,0,0,0,.24-.57c0-.16-.08-.84-.05-1.1a7.17,7.17,0,0,1,.23-.88Z"/><path d="M30,19.07,30,19s-.18-.37-.25-.49l0-.06a1.1,1.1,0,0,1-.24-.66,2.76,2.76,0,0,1,.45-1.07l.52-.32s-.15.66-.18.92a3.08,3.08,0,0,0,0,.65,4.43,4.43,0,0,1,0,.45A2.81,2.81,0,0,1,30,19l0,.05Zm.39-2.63-.46.32a2.68,2.68,0,0,0-.44,1,1,1,0,0,0,.23.62l.05.07a4.53,4.53,0,0,1,.23.44,2.75,2.75,0,0,0,.21-.51,4.27,4.27,0,0,0,0-.44,3.15,3.15,0,0,1,0-.66,7.13,7.13,0,0,1,.23-.89Z"/><path class="cls-4" d="M29.94,16.73a3.13,3.13,0,0,0-.46,1.08,1.15,1.15,0,0,0,.28.7c0-.23,0-.44,0-.74a1.88,1.88,0,0,1,.54-1.23Z"/><path class="cls-5" d="M30.12,16.53a5.57,5.57,0,0,0-.18.89c0,.18.07.61.09,1A4.11,4.11,0,0,1,30,19a2.83,2.83,0,0,0,.24-.57c0-.16-.08-.84-.05-1.1a7.17,7.17,0,0,1,.23-.88Z"/><path d="M30,19.07,30,19s-.18-.37-.25-.49l0-.06a1.1,1.1,0,0,1-.24-.66,2.76,2.76,0,0,1,.45-1.07l.52-.32s-.15.66-.18.92a3.08,3.08,0,0,0,0,.65,4.43,4.43,0,0,1,0,.45A2.81,2.81,0,0,1,30,19l0,.05Zm.39-2.63-.46.32a2.68,2.68,0,0,0-.44,1,1,1,0,0,0,.23.62l.05.07a4.53,4.53,0,0,1,.23.44,2.75,2.75,0,0,0,.21-.51,4.27,4.27,0,0,0,0-.44,3.15,3.15,0,0,1,0-.66,7.13,7.13,0,0,1,.23-.89Z"/><path class="cls-5" d="M29.87,16.57c-.11.09,0,.29,0,.29a.3.3,0,0,1,.22-.08c.14,0,.23.22.23.22a.27.27,0,0,0,.1-.2c0-.14-.28-.29-.52-.23Z"/><path d="M30.28,17.05l0,0s-.08-.2-.21-.21h0a.25.25,0,0,0-.19.07.24.24,0,0,1,0-.33.49.49,0,0,1,.52.13.13.13,0,0,1,.05.12.37.37,0,0,1-.11.23l0,0Zm-.24-.3c.13,0,.22.14.26.2a.23.23,0,0,0,.06-.15.08.08,0,0,0,0-.08.51.51,0,0,0-.45-.12c-.06,0,0,.17,0,.22a.22.22,0,0,1,.18-.07Z"/><path d="M29.55,16l.29.75.21-.09a.42.42,0,0,1,.19,0l.2-.1a1.11,1.11,0,0,1,.21,0l0,0A7.65,7.65,0,0,0,29.56,16Z"/><path d="M29.83,16.81,29.52,16l0-.09h0a7.52,7.52,0,0,1,1.14.55l0,0,0,.06s-.16,0-.23,0l-.2.1h-.18l-.22.09ZM29.57,16l.29.73.19-.07a.48.48,0,0,1,.19,0l.19-.09a.77.77,0,0,1,.22,0A9.22,9.22,0,0,0,29.57,16Z"/><path class="cls-3" d="M29.57,16l.29.75a1.4,1.4,0,0,1,.22-.08.38.38,0,0,1,.18,0,1.78,1.78,0,0,1,.2-.1.75.75,0,0,1,.21,0l-.29-.82a1.23,1.23,0,0,0-.21,0,.85.85,0,0,0-.17.12.65.65,0,0,0-.23,0,.53.53,0,0,0-.2.11Z"/><path d="M29.85,16.74,29.54,16a.48.48,0,0,1,.22-.15l.14,0H30a1.28,1.28,0,0,1,.18-.12,1.12,1.12,0,0,1,.22,0l.32.84s-.16,0-.23.07l-.19.09h-.09a.15.15,0,0,0-.1,0,1.15,1.15,0,0,0-.21.08Zm.51-1.06-.18.05a.64.64,0,0,0-.16.12H29.9l-.12,0a.54.54,0,0,0-.19.1l.29.69.19-.07a.43.43,0,0,1,.19,0,.78.78,0,0,1,.19-.1.8.8,0,0,1,.22,0l-.31-.77Z"/><polygon class="cls-15" points="30.29 16.6 29.98 15.83 30.02 15.82 30.29 16.6 30.29 16.6"/><path class="cls-15" d="M29.63,16l0,0a.58.58,0,0,1,.42-.12,1,1,0,0,0-.39.14Z"/><path class="cls-15" d="M29.66,16.11l0,0a.59.59,0,0,1,.42-.12.84.84,0,0,0-.39.15Z"/><path class="cls-15" d="M29.69,16.21l0,0a.58.58,0,0,1,.42-.12.84.84,0,0,0-.39.15Z"/><path class="cls-15" d="M29.72,16.31l0,0a.62.62,0,0,1,.42-.11.83.83,0,0,0-.39.14Z"/><path class="cls-15" d="M29.77,16.42l0,0a.61.61,0,0,1,.42-.12.88.88,0,0,0-.4.15Z"/><path class="cls-15" d="M29.8,16.52l0,0a.61.61,0,0,1,.42-.11.87.87,0,0,0-.4.14Z"/><path class="cls-15" d="M29.85,16.62l0,0a.63.63,0,0,1,.42-.12.8.8,0,0,0-.39.15Z"/><path class="cls-15" d="M30,15.9l0,0a.53.53,0,0,1,.38-.16,1,1,0,0,0-.36.18Z"/><path class="cls-15" d="M30.07,16l0,0a.56.56,0,0,1,.39-.17.83.83,0,0,0-.36.19Z"/><path class="cls-15" d="M30.1,16.1l0,0a.54.54,0,0,1,.39-.17.78.78,0,0,0-.36.19Z"/><path class="cls-15" d="M30.14,16.21l0,0a.58.58,0,0,1,.39-.16.87.87,0,0,0-.37.19Z"/><path class="cls-15" d="M30.17,16.31l0,0a.53.53,0,0,1,.39-.16.68.68,0,0,0-.36.18Z"/><path class="cls-15" d="M30.22,16.4l0,0a.53.53,0,0,1,.39-.16.87.87,0,0,0-.36.18Z"/><path class="cls-15" d="M30.25,16.5l0,0a.51.51,0,0,1,.38-.16.77.77,0,0,0-.36.18Z"/><path d="M29.85,16.74,29.54,16a.48.48,0,0,1,.22-.15l.14,0H30a1.28,1.28,0,0,1,.18-.12,1.12,1.12,0,0,1,.22,0l.32.84s-.16,0-.23.07l-.19.09h-.09a.15.15,0,0,0-.1,0,1.15,1.15,0,0,0-.21.08Zm.51-1.06-.18.05a.64.64,0,0,0-.16.12H29.9l-.12,0a.54.54,0,0,0-.19.1l.29.69.19-.07a.43.43,0,0,1,.19,0,.78.78,0,0,1,.19-.1.8.8,0,0,1,.22,0l-.31-.77Z"/><path class="cls-16" d="M29,21.14a5.35,5.35,0,0,0,.68-.46c.22-.2.42-.45.66-.69s.36-.17.48-.45a1.24,1.24,0,0,0,.06-.66c.09,0,.12.09.17.19s.12-.33.12-.22a3.57,3.57,0,0,0,0,.39c0-.06.21-.44.21-.44s-.08.53-.06.47a3.11,3.11,0,0,1,.22-.33v.33a1.94,1.94,0,0,0,.18-.41s.12.23.16.17.08-.41.14-.37.1.22.1.22a6.94,6.94,0,0,1,0-1.12l.2.06v-.43l.18.57a2.25,2.25,0,0,0-.06-.53,3.27,3.27,0,0,1-.08-.35s.21.29.24.35a2.12,2.12,0,0,0-.2-.57s-.22.22-.18.2.14-.45.2-.45.18.31.16.28l-.12-.67.16.29a.57.57,0,0,0,0-.27,1.31,1.31,0,0,1-.06-.26s.12.16.1.12a2,2,0,0,1,0-.35l.1.22.1.15V16l.1.09s-.22-.48-.32-.5-.24.16-.24.16.18-.31.24-.31h.08l-.06-.33s.4.54.38.46-.18-.45-.2-.58-.08-.37-.08-.37l.18.25c0,.06.16.29.16.25s0-.48,0-.48l.2.43.18-.51.1.49s.08-.24.1-.34.08-.09.08-.09,0,.41,0,.45,0,.25,0,.25l.22-.45c0-.08.2-.14.2-.14s-.08.18-.1.24a2.92,2.92,0,0,0-.2.51s.2-.24.3-.24.28.26.24.28-.2-.08-.26-.08-.54.53-.46.51a2,2,0,0,0,.36-.32s-.1.24-.06.22l.34-.2S33.89,16,34,16a1.62,1.62,0,0,0,.3-.11l-.3.37a1.26,1.26,0,0,1,.33-.16,1,1,0,0,1,.25.06,2.55,2.55,0,0,0-.34,0s-.34.45-.26.41a1.39,1.39,0,0,0,.24-.22l-.1.26.42-.26-.58.61s.4-.31.46-.29a2.88,2.88,0,0,1,.35.33,4.14,4.14,0,0,0-.41-.18,3.15,3.15,0,0,0-.5.65,2.14,2.14,0,0,1,.44-.2c.08,0,.22.36.18.36s-.22-.1-.26-.1a5.65,5.65,0,0,0-.5.27l.44-.08a2.22,2.22,0,0,0,.38,0,3.16,3.16,0,0,1,.31-.11,3.48,3.48,0,0,0-.36.24.78.78,0,0,1-.33.13l.38,0-.65.21-.28.13H34c.08,0,.46.06.46.06l-.56.08a.34.34,0,0,0-.14,0l.54.06-.36.06.32.11a1.75,1.75,0,0,1,.24.15s-.46-.1-.56-.1l-.25,0a.78.78,0,0,1,.26.06A.18.18,0,0,1,34,19l-.26,0a1.63,1.63,0,0,0,.24.16.38.38,0,0,1,.12.08l-.4,0,.34.25s-.36-.07-.42-.07h-.06a1.42,1.42,0,0,1,.22.19l.08.14a1.57,1.57,0,0,1-.24-.08.91.91,0,0,0-.22-.06l.18.2-.3-.06.16.23-.3-.09s.14.07.14.13-.06.33-.1.3-.06-.2-.1-.26a.41.41,0,0,0-.1-.1,1,1,0,0,0-.21-.06s.24.18.27.22l-.38,0s.36.18.3.18L30.88,20c-.12,0-.7.66-.82.72s-.4.39-.52.41a1.25,1.25,0,0,0-.28.1Z"/><path class="cls-17" d="M29.26,21.3,29,21.17c0-.07.46-.33.67-.52a4.25,4.25,0,0,0,.36-.37l.3-.31a1,1,0,0,1,.25-.18.5.5,0,0,0,.23-.26.83.83,0,0,0,.06-.45c0-.06,0-.12,0-.2s.17.05.21.14a.54.54,0,0,1,0-.1c0-.1.05-.12.08-.12a3.3,3.3,0,0,1,0,.43,2.18,2.18,0,0,1,.16-.44h0s0,0,0,0a2,2,0,0,1,0,.36,1.5,1.5,0,0,1,.16-.28l.05.3c0-.08.1-.24.13-.37s.09,0,.13.08,0,.08.05.08,0-.08,0-.14.05-.24.11-.24.13.21.14.24a3.45,3.45,0,0,1,0-1.13l.24.05,0-.4s.13.24.19.41c0-.13,0-.3-.07-.36a3.26,3.26,0,0,1-.08-.36s.19.17.26.28c-.07-.13-.17-.44-.2-.47l-.12.13a.18.18,0,0,1,0-.16c.07-.2.1-.28.15-.28s.18.26.18.28h0a2.55,2.55,0,0,1-.18-.22,1.23,1.23,0,0,0-.1.24h0s.06-.06.08-.06.23.6.23.6a1.15,1.15,0,0,1-.23-.25c0,.08.05.18.07.24a3.06,3.06,0,0,1,.06.56,2.76,2.76,0,0,1-.24-.58l.06.42-.24,0c0,.05,0,.6,0,1.09-.08-.06-.11-.17-.15-.19l0,.19a.59.59,0,0,1-.05.17c-.07,0-.1,0-.14-.09a.28.28,0,0,0,0-.08.94.94,0,0,1-.15.4v0s0,0,0,0l0-.3a1.76,1.76,0,0,1-.17.34c-.05,0-.06,0,0-.31a3.15,3.15,0,0,1-.13.29s-.06,0-.06-.3c0,.11-.06.14-.09.14s-.11-.19-.17-.19a.32.32,0,0,1,0,.16.85.85,0,0,1-.07.48.49.49,0,0,1-.25.29,1.21,1.21,0,0,0-.24.17c-.1.11-.2.21-.29.32s-.24.26-.37.37a4.66,4.66,0,0,1-.69.47l.21.06a1.06,1.06,0,0,1,.28-.1.9.9,0,0,0,.28-.22,1,1,0,0,1,.23-.18l.32-.3c.27-.27.44-.43.51-.43l1.33.1.72,0L32.68,20H33a.47.47,0,0,1-.09-.06.69.69,0,0,1-.14-.12.3.3,0,0,1,.24,0,.36.36,0,0,1,.12.1s0,.09,0,.14a.43.43,0,0,0,0,.11,1.46,1.46,0,0,0,.05-.27s-.06-.08-.12-.11h0a.15.15,0,0,1,.11,0l.21,0-.19-.18h.33l-.21-.15s.17,0,.25,0a.64.64,0,0,0,.18.06l-.05-.07a1.37,1.37,0,0,0-.22-.19l-.07-.05h.15l.43.07-.37-.2h.34l0,0a2.22,2.22,0,0,1-.25-.16L34,19l0,0a.69.69,0,0,0-.25-.06c0-.06.15-.08.25-.08a3.39,3.39,0,0,1,.43.07l-.12-.06-.32-.11H34l.31-.1h-.54c0-.06.08-.11.14-.11l.4-.06-.3,0h-.43v-.06h0v0l.23-.11.66-.21h0c0,.06-.52.22-.65.26l-.16.08H34c.08,0,.47.06.47.06s-.51.14-.57.14a.22.22,0,0,0-.12.05h.53l-.31.1a2.56,2.56,0,0,1,.27.07c.07,0,.23.14.25.15a4.14,4.14,0,0,1-.58,0h0s0,0,.07,0a.22.22,0,0,1,.1.08l-.29,0h0c.09,0,.21.09.25.1a.32.32,0,0,1,.13.09h0s0,0-.06,0h-.34l.36.2a2.43,2.43,0,0,1-.42,0,.75.75,0,0,1,.17.14,1.23,1.23,0,0,1,.08.15.42.42,0,0,1-.28,0,.88.88,0,0,0-.21-.06l.2.15H33.3l.2.19-.22,0a.13.13,0,0,1,.06.09s0,.33-.12.33a.24.24,0,0,1-.09-.15.55.55,0,0,0,0-.12.32.32,0,0,0-.1-.09h0l-.09,0,.06,0a1.1,1.1,0,0,1,.14.12h-.41c.35.11.34.13.34.15a4.27,4.27,0,0,1-.82,0l-1.33-.1a2.67,2.67,0,0,0-.47.42,2,2,0,0,1-.34.3,1.26,1.26,0,0,0-.21.18,1,1,0,0,1-.31.23,1.5,1.5,0,0,0-.28.1ZM34.11,18c0-.06.2-.09.32-.18l.13-.1-.05,0a.58.58,0,0,1-.24,0h-.15l-.44.08h0l0,0a1.82,1.82,0,0,1,.45-.29.61.61,0,0,1,.15.05l.11,0s-.13-.28-.18-.29a2,2,0,0,0-.36.16l-.06,0c-.06-.08.41-.71.48-.71a3.08,3.08,0,0,1,.42.18c-.17-.1-.33-.26-.36-.27a2.44,2.44,0,0,0-.44.28h0a.69.69,0,0,1,.12-.14l.42-.51-.38.3,0-.21a.77.77,0,0,1-.18.18c-.07-.09.19-.45.23-.47l.21,0h-.11a1.07,1.07,0,0,0-.31.15h0s0,0,0-.06l.18-.29a.6.6,0,0,1-.25.11s0-.06.16-.26l-.1.07s-.07,0,0-.19a.77.77,0,0,1-.3.28c-.05-.1.38-.56.45-.56a.43.43,0,0,1,.14,0l.11,0s-.16-.22-.23-.22-.13.09-.19.15-.08.09-.11.09,0-.1.12-.42a.58.58,0,0,0,0-.13l.09-.2s-.11.08-.13.12l-.22.45c-.06,0,0-.23,0-.26s0-.29,0-.4,0,0,0,0-.1.34-.1.34v0s0,0,0,0l-.14-.44-.12.52-.22-.37a2.61,2.61,0,0,1,0,.41c-.05,0-.06,0-.15-.13l-.06-.1-.11-.15a1.2,1.2,0,0,1,.06.24,2,2,0,0,0,.14.41c0,.08.05.15.06.18s-.08,0-.43-.45l.11.31-.11,0s-.06.05-.1.12a.11.11,0,0,1,.08,0c.13,0,.32.4.37.52l-.15,0h0l0,0,.15.07c-.15-.19-.29-.44-.35-.45h0c-.08,0-.17.11-.21.15h0a.09.09,0,0,1,0-.09c0-.14.14-.26.19-.26h.08l-.09-.3a3.45,3.45,0,0,1,.34.36.14.14,0,0,0,0-.06,2,2,0,0,1-.14-.42c0-.13-.08-.37-.08-.37h0s0,0,0,.05l.18.17a.64.64,0,0,0,.06.11l.07.13a3.2,3.2,0,0,1-.05-.45h0s0,0,0,0l.23.36.12-.5.14.43c0-.08,0-.21.06-.27s.11-.12.11-.12a2.55,2.55,0,0,1,0,.48.39.39,0,0,1,0,.09,2.25,2.25,0,0,1,.14-.3.36.36,0,0,1,.21-.15s0,.21-.06.27a.61.61,0,0,1-.06.13l-.12.29,0,0c.07-.08.16-.17.23-.17s.26.2.28.28l-.05.06-.13,0-.12,0a2.82,2.82,0,0,0-.44.47s.21-.21.32-.33a.59.59,0,0,1,0,.23,1.7,1.7,0,0,1,.31-.21h0s0,.05-.06.08S34,16,34,16a1.11,1.11,0,0,1,.26-.14v0l-.19.3a.55.55,0,0,1,.25-.13,1.41,1.41,0,0,1,.27.06h-.06l-.28.08a1.7,1.7,0,0,0-.26.38,2.31,2.31,0,0,1,.2-.24v0s0,0,0,.06l0,.21.38-.29-.43.51a.8.8,0,0,1,.32-.2,1.66,1.66,0,0,1,.37.34,2.62,2.62,0,0,1-.43-.13s-.33.39-.44.55a1.55,1.55,0,0,1,.38-.16c.1,0,.22.31.22.37a.15.15,0,0,1-.18,0l-.12,0s-.21.11-.37.2l.31-.07h.16a.62.62,0,0,0,.21,0l.31-.12s-.21.2-.33.29a.88.88,0,0,1-.34.14Zm-1.45-1.21-.16-.6.19.24a.82.82,0,0,0,0-.21A1.31,1.31,0,0,1,32.6,16s.08,0,.11.06a1.51,1.51,0,0,1,0-.3c.06,0,.14.17.16.21l.09.14v0c-.06,0-.13-.09-.15-.13l-.11-.23a1.65,1.65,0,0,1,.06.33s0,0-.09,0l0,.15a.67.67,0,0,1,0,.29l-.22-.29.16.59Z"/><path class="cls-17" d="M30.93,19.71l-.05,0a2.13,2.13,0,0,0,.28-.33.48.48,0,0,0,0-.12c.06,0,.05.07,0,.15a3.62,3.62,0,0,1-.29.34Z"/><path class="cls-17" d="M31.05,19.75l0-.05a1.15,1.15,0,0,0,.33-.47s-.08.38-.3.52Z"/><path class="cls-17" d="M31.42,19.61l0-.05a.7.7,0,0,0,.18-.31c.06,0,0,.29-.14.36Z"/><path class="cls-17" d="M31.47,19.77l0-.05a1,1,0,0,0,.37-.75.76.76,0,0,1-.34.8Z"/><path class="cls-17" d="M31.72,19.78l0-.05a1.6,1.6,0,0,0,.37-1,1.2,1.2,0,0,1-.33,1Z"/><path class="cls-17" d="M31.84,19.84l0-.06c.3-.16.31-.89.31-1l.06-.05c0,.19,0,.91-.34,1.09Z"/><path class="cls-17" d="M32.33,19.31a2.43,2.43,0,0,0-.15-.79c.07,0,.2.33.21.79Z"/><path class="cls-17" d="M32.5,19.14h-.06a1.73,1.73,0,0,0-.18-.83c.05,0,.25.31.24.83Z"/><path class="cls-17" d="M32.54,19.11h-.06c.11-1.12-.12-1.24-.13-1.25s.31.1.19,1.26Z"/><path class="cls-17" d="M32.71,18.61h-.06c0-.48-.09-.66-.1-.66s.2.16.16.66Z"/><path class="cls-17" d="M32.87,18.28h-.06a1.8,1.8,0,0,0-.17-.82h0a1.15,1.15,0,0,1,.23.83Z"/><path class="cls-17" d="M32.88,18.94l0-.05c.44-.29.75-.42.87-.38a3.58,3.58,0,0,0-.84.43Z"/><path class="cls-17" d="M32.67,19.36l0-.05c.9-.62,1.09-.49,1.11-.47a2.36,2.36,0,0,0-1.08.52Z"/><path class="cls-17" d="M33.74,19.16a2.62,2.62,0,0,0-.6,0v-.06c.36,0,.58,0,.63.06Z"/><path class="cls-17" d="M33.4,19.51a1.37,1.37,0,0,0-.48,0v-.06a.77.77,0,0,1,.5.07s0,0,0,0Z"/><path class="cls-17" d="M33.18,17.82l0,0c.61-.7.74-.76.76-.76s-.12.12-.71.8Z"/><path class="cls-17" d="M33.15,18l0-.05.69-.47c0,.05,0,.1-.66.52Z"/><path class="cls-17" d="M33.09,18.33l0,0c.46-.45.67-.48.67-.48s-.19.09-.63.52Z"/><path class="cls-17" d="M33.09,18.53l0-.05c.8-.63,1.14-.51,1.16-.5a2.2,2.2,0,0,0-1.12.55Z"/><path class="cls-17" d="M33,18.72l0,0a1.74,1.74,0,0,1,.59-.29l.09,0a2.31,2.31,0,0,0-.65.31Z"/><path class="cls-17" d="M33.37,16.16c-.15-.73-.24-1-.24-1s.15.3.3,1Z"/><path class="cls-17" d="M33.47,16.18c-.06,0,0-.34,0-.41a1.63,1.63,0,0,0-.2-.71l0,0a1.78,1.78,0,0,1,.21.75c0,.07-.1.4-.1.4Z"/><path class="cls-17" d="M33.62,15.37c-.06,0-.1-.12-.07-.47h.06a1.07,1.07,0,0,0,0,.47Z"/><path class="cls-17" d="M33.59,15.79l-.05,0a4.13,4.13,0,0,0,.21-.53s-.06.39-.16.56Z"/><path class="cls-17" d="M33.36,16.61a2.4,2.4,0,0,1,.16-.4c.1-.24.23-.55.32-.78l.06,0c-.09.23-.22.55-.33.79s-.13.32-.14.34l-.07,0Z"/><path class="cls-17" d="M33.38,17l-.06,0a4.56,4.56,0,0,1,.62-1A10,10,0,0,1,33.38,17Z"/><path class="cls-17" d="M33.4,17.18l0,0a7.62,7.62,0,0,0,.6-.91s0,.21-.55.94Z"/><path class="cls-17" d="M33.3,17.51l0,0c.6-.77.83-.85.84-.86s-.21.15-.8.89Z"/><path class="cls-17" d="M33,17.91a2.34,2.34,0,0,0-.34-1c.07,0,.32.35.4,1Z"/><path class="cls-17" d="M33.05,17.56a6.42,6.42,0,0,0-.39-1l.05,0a2.52,2.52,0,0,1,.34,1.06Z"/><path class="cls-17" d="M33.12,17.29a3.21,3.21,0,0,0-.42-1.18l0,0a1.86,1.86,0,0,1,.37,1.21Z"/><path class="cls-17" d="M33.2,17.52a3.05,3.05,0,0,0-.3-1.39l.05,0a2.06,2.06,0,0,1,.25,1.41Z"/><path class="cls-17" d="M33.3,17c-.06,0,0-.28-.28-.86l.06,0a2.28,2.28,0,0,1,.22.89Z"/><path class="cls-17" d="M33.35,16.42a1.52,1.52,0,0,0-.59-1l0,0c.7.65.56,1,.55,1Z"/><path class="cls-17" d="M32.74,19.18c-.05,0,0-.27,0-.36a1.25,1.25,0,0,1,0-.15l-.17.4-.05,0c.24-.55.27-.65.27-.65a0,0,0,0,1,0,0s0,0,0,0a2.05,2.05,0,0,1,0,.37,1.88,1.88,0,0,1-.1.36Z"/><path class="cls-17" d="M33.11,19.77a2.39,2.39,0,0,0-1-.17v-.06a1.73,1.73,0,0,1,1,.22Z"/><path class="cls-17" d="M32.77,19.83c-.12,0-.36,0-.72-.07V19.7a5.3,5.3,0,0,1,.78.11s0,0-.07,0Z"/><path class="cls-17" d="M33.28,19.65c-.13,0-.79-.25-1-.26v-.06a7.43,7.43,0,0,1,1.05.31Z"/><path class="cls-18" d="M31.05,19.45c-.05,0,0-.06,0-.15a1.12,1.12,0,0,0,0-.27h.06a.73.73,0,0,1,0,.29.84.84,0,0,1-.06.13Z"/><path class="cls-16" d="M30.76,21.29A11.64,11.64,0,0,1,29.25,20c-.16,0-1.75.23-1.74.19a1.53,1.53,0,0,1,.12-.4c.08-.11.27-.23.24-.23h-.43a1.25,1.25,0,0,1-.26.25c-.07,0-.4.06-.48.1s-.21.18-.21.18,0-.16,0-.2a.38.38,0,0,1,.06-.14,1.8,1.8,0,0,1-.33,0s.06-.11.12-.19a.57.57,0,0,1,.24-.19l.21,0-.18-.09a1.1,1.1,0,0,1,.23-.09l.22,0s-.13-.15-.13-.21-.14.22-.24.25a2.13,2.13,0,0,1-.42.06c-.11,0-.26.16-.26.16a.88.88,0,0,1,0-.22.17.17,0,0,1,.08-.09l-.17,0s.05-.22.06-.25l.09-.16a.68.68,0,0,1-.15-.15,1.22,1.22,0,0,1-.07-.2h.31a1,1,0,0,1,.27.09.62.62,0,0,1-.07-.16c0-.05-.06-.15,0-.15a1.73,1.73,0,0,1,.24.13s-.06-.28-.15-.33-.5-.14-.57-.24a2.68,2.68,0,0,1-.21-.55.24.24,0,0,0-.12-.13h.24l-.05-.24a.74.74,0,0,1,0-.22s.11.18.17.18.15.1.15.1v-.1l.18.23a.59.59,0,0,1,0-.19.41.41,0,0,1,.1-.06s0,.11,0,.14a1.1,1.1,0,0,1,.11.29s0,.52,0,.57a3.43,3.43,0,0,0,.18.38v-.35c0-.09-.11-.28-.09-.35s0-.19,0-.19.09.16.12.17a1.11,1.11,0,0,1,.12.18l.1-.19a1.39,1.39,0,0,1-.28-.3,2,2,0,0,1-.06-.27,1.34,1.34,0,0,1-.24-.15c-.06-.06-.3-.47-.3-.47h.09a1,1,0,0,1-.09-.27c0-.09,0-.27,0-.27a1.11,1.11,0,0,1,.11.11s.13,0,.13,0a2.13,2.13,0,0,1-.18-.56,1.18,1.18,0,0,1,.24-.46l.12.19.24-.35a.89.89,0,0,1,.11.2V15L27,15a.3.3,0,0,1,.1.05.7.7,0,0,0-.16.09c-.05,0-.09.24-.14.25a1.54,1.54,0,0,0-.28.19c-.05,0-.09.31-.09.31a1.19,1.19,0,0,1,.16.27,2.12,2.12,0,0,1,0,.27s.08.08.14.07a.14.14,0,0,0,.1-.16c0-.06-.18-.21-.19-.28a4.7,4.7,0,0,1,0-.55l.24.13a.86.86,0,0,0,.17-.21,2.17,2.17,0,0,0,.07-.27l.11.3s.07-.13.14-.16l.23-.11a1.67,1.67,0,0,0-.06.2,4.07,4.07,0,0,1,0,.6c0,.06-.42.42-.45.45a.8.8,0,0,0,0,.25l.28-.25s0,.13,0,.21a.58.58,0,0,1,0,.14.93.93,0,0,0,.19-.07c.05,0,.14,0,.14,0a.59.59,0,0,1-.07.14s-.14.31-.18.35-.32.15-.35.19-.25.3-.31.38a.61.61,0,0,0-.06.27,1.19,1.19,0,0,1,.16-.33,2.05,2.05,0,0,0,.26-.26l0,.22a.88.88,0,0,1,.23-.13l.37-.09s-.21.18-.21.22,0,.28-.11.34-.43.27-.46.29-.06.13-.06.17a.22.22,0,0,0,.05.11.45.45,0,0,1,.1-.16.29.29,0,0,0,.05-.19.88.88,0,0,1,.15.19,2,2,0,0,1,0,.43.75.75,0,0,0,0,.3s.16.19.2.19-.18-.38-.16-.56a2.21,2.21,0,0,1,.19-.38c0-.09,0-.17,0-.17a1,1,0,0,1,.16.22.5.5,0,0,1,.15-.14s.12.31.15.38a1.28,1.28,0,0,1,.17-.22.72.72,0,0,1,.12.4.54.54,0,0,1-.2.31L28,19.3a1.37,1.37,0,0,0,.26.08.48.48,0,0,1,.15,0l-.33.1a1.88,1.88,0,0,0,.41,0,.68.68,0,0,0-.05-.28,1,1,0,0,1-.06-.19,1.13,1.13,0,0,0,.2,0c.06,0,.16,0,.16,0s-.12-.26-.09-.26.42.35.42.29a2.19,2.19,0,0,1,.17-.37l.16.31a1.61,1.61,0,0,1,0,.26.59.59,0,0,1-.11.25,2.85,2.85,0,0,0,.35.44,5.61,5.61,0,0,0,.88.84l.38.21Z"/><path class="cls-17" d="M30.77,21.31h0a4.78,4.78,0,0,1-1.15-.94,1.53,1.53,0,0,0-.36-.32,9.24,9.24,0,0,0-1,.11l-.67.08,0,0v-.07a1.1,1.1,0,0,1,.1-.34,1.19,1.19,0,0,1,.2-.19h-.37a1.17,1.17,0,0,1-.25.25l-.2,0a1.81,1.81,0,0,0-.28.06,1.47,1.47,0,0,0-.2.17s-.07-.17-.07-.21a.31.31,0,0,1,.06-.13.82.82,0,0,1-.24,0h-.05a1.82,1.82,0,0,1,.31,0c0,.06,0,.12,0,.15a1.13,1.13,0,0,0,0,.18.75.75,0,0,1,.18-.17,1.1,1.1,0,0,1,.3-.07l.18,0a1.48,1.48,0,0,0,.25-.25l.45,0h0l0,.07a.77.77,0,0,0-.18.18,1.07,1.07,0,0,0-.11.33,1.8,1.8,0,0,0,.66,0c.39-.05.84-.11,1-.11s.24.14.43.33a4.64,4.64,0,0,0,1.13.93l.15-.2-.12,0-.25-.14a3.23,3.23,0,0,1-.71-.66L29.66,20a2.56,2.56,0,0,1-.35-.44s.1-.16.1-.26a1.14,1.14,0,0,0,0-.25,2.86,2.86,0,0,0-.16-.31c0,.12-.13.32-.13.36s-.13,0-.29-.16l-.15-.12a.45.45,0,0,1,.07.14.36.36,0,0,1,0,.11v0l-.08,0h-.1a.8.8,0,0,1-.18,0,1.16,1.16,0,0,0,.06.16.74.74,0,0,1,.05.29v0h-.08c-.12,0-.35,0-.35,0h0s0,0,0,0l.26-.11-.12,0a2,2,0,0,1-.27-.07s.07-.06.16-.12a.53.53,0,0,0,.19-.29.74.74,0,0,0-.12-.39,1.54,1.54,0,0,1-.14.22c-.06-.1-.15-.34-.18-.38l-.11.14-.17-.2a.56.56,0,0,1,0,.15.41.41,0,0,1-.06.11.89.89,0,0,0-.12.26,1.21,1.21,0,0,0,.12.43c0,.1,0,.12,0,.13s-.21-.16-.23-.18a.81.81,0,0,1,0-.31,2,2,0,0,0,0-.43.57.57,0,0,0-.13-.16.17.17,0,0,1,0,.17.72.72,0,0,0-.1.15s-.08-.06-.08-.11,0-.17.07-.19a4.67,4.67,0,0,0,.46-.29c.07-.05.1-.27.1-.32s.15-.18.22-.23l-.36.12a.85.85,0,0,0-.22.13l-.07-.22a1,1,0,0,1-.23.26,1.29,1.29,0,0,0-.16.31s0-.19,0-.28l.21-.25.11-.13a.59.59,0,0,1,.19-.11l.15-.08a1,1,0,0,0,.1-.19l.08-.16a.61.61,0,0,0,.07-.14s-.05,0-.08,0a1.25,1.25,0,0,1-.22.08s0-.09,0-.16l-.05-.2-.25.25a.41.41,0,0,1,0-.27c.29-.28.43-.42.45-.45a2.54,2.54,0,0,0,0-.56,1.6,1.6,0,0,1,.05-.21.68.68,0,0,1-.19.11.49.49,0,0,0-.14.15l-.12-.28a.71.71,0,0,1-.06.25.68.68,0,0,1-.17.21l-.26-.13c0,.12,0,.48,0,.54s.05.09.1.15a.61.61,0,0,1,.09.12.15.15,0,0,1,0,.11.19.19,0,0,1-.1.08.2.2,0,0,1-.15-.08s0-.2,0-.27a1.07,1.07,0,0,0-.16-.27,1,1,0,0,1,.09-.33,1.68,1.68,0,0,1,.29-.2s0-.07.07-.12a.44.44,0,0,1,.06-.12.56.56,0,0,1,.17-.09L27,15l-.19,0v-.21a.89.89,0,0,0-.1-.19l-.21.35-.15-.19s-.21.31-.21.45a2.17,2.17,0,0,0,.18.55.16.16,0,0,1-.17,0,.37.37,0,0,0-.09-.09.9.9,0,0,1,0,.24,1.29,1.29,0,0,0,.08.27l-.1,0c.1.12.26.39.31.44a2,2,0,0,0,.23.14s0,.2.07.29a1.24,1.24,0,0,0,.28.28l-.1.22-.14-.17s-.08-.1-.11-.15,0,.1,0,.15a.31.31,0,0,0,0,.17.74.74,0,0,1,0,.18v.35a1.49,1.49,0,0,1-.21-.38s0-.16,0-.29,0-.26,0-.28-.09-.25-.1-.29a.93.93,0,0,1,0-.13s-.05.05-.07.07,0,.1,0,.17L26,16.73l0,.09c-.07,0-.13-.08-.17-.08s-.14-.11-.17-.17a1.09,1.09,0,0,0,0,.19l0,.23-.22,0a.22.22,0,0,1,.1.11l0,.09a4.45,4.45,0,0,0,.18.46,1,1,0,0,0,.36.15l.21.08c.09.06.15.34.15.35s-.23-.11-.25-.11a.26.26,0,0,1,.05.13.61.61,0,0,0,.07.15c-.08,0-.23-.06-.29-.06h-.3s.05.13.08.18a.57.57,0,0,0,.14.13s-.07.16-.08.19,0,.16-.06.24l.15,0s-.05.07-.06.12a.49.49,0,0,0,0,.2.35.35,0,0,1,.24-.17,1.93,1.93,0,0,0,.41-.06c.06,0,.13-.12.17-.18s.06-.07.07-.07a1,1,0,0,0,.15.21s-.19.08-.23.08a.84.84,0,0,0-.22.09l.18,0-.21.09a.44.44,0,0,0-.23.19.27.27,0,0,0-.06.1s0,.08-.07.09h0a.21.21,0,0,0,.06-.1l.07-.11a.45.45,0,0,1,.25-.19l.21-.06-.19,0a.47.47,0,0,1,.24-.13l.22,0s-.13-.1-.15-.16a.05.05,0,0,1,0,0c-.05.08-.12.18-.19.2a2.13,2.13,0,0,1-.42.06c-.08,0-.2.11-.24.15a.33.33,0,0,1-.07-.23.17.17,0,0,1,.09-.1l-.16.05a.78.78,0,0,1,.05-.28.83.83,0,0,1,.09-.16s-.12-.07-.15-.13-.08-.21-.08-.21l.33,0a.81.81,0,0,1,.25.08.21.21,0,0,1-.07-.13l0-.16c.06,0,.21.09.28.13s-.1-.26-.17-.31l-.2-.07a.9.9,0,0,1-.38-.17,1.93,1.93,0,0,1-.18-.47l0-.09a.25.25,0,0,0-.11-.12h0s0,0,0,0l.21,0-.07-.21a.46.46,0,0,1,0-.23c.07.06.14.16.18.16s.15.1.16.11l0-.09.21.21a.23.23,0,0,1,0-.18l.11-.06a.48.48,0,0,1,.06.14,1.72,1.72,0,0,1,.11.3s0,.15,0,.28,0,.27,0,.29a3.54,3.54,0,0,0,.17.37l0-.34a.71.71,0,0,0-.05-.16.58.58,0,0,1,0-.2l0-.19c.07.07.13.16.14.16a.64.64,0,0,1,.13.19l.07-.19s-.25-.19-.28-.28a2.07,2.07,0,0,1-.06-.28.71.71,0,0,1-.24-.14,4,4,0,0,1-.3-.47l.1,0a.58.58,0,0,1-.1-.26c0-.09,0-.27,0-.27h0a.22.22,0,0,1,.14.1l.12,0a1.42,1.42,0,0,1-.2-.54,1.17,1.17,0,0,1,.25-.47l.15.19.21-.35a.36.36,0,0,1,.13.21V15S27,15,27,15a.24.24,0,0,1,.11.06s-.12.08-.16.12,0,.06-.06.11-.05.13-.08.14a1.47,1.47,0,0,0-.28.18.85.85,0,0,0-.08.3h0a1.73,1.73,0,0,1,.16.27c0,.07,0,.27,0,.27s.06.05.1.05a.11.11,0,0,0,.09-.06.12.12,0,0,0,0-.08s0-.06-.08-.11a.57.57,0,0,1-.11-.16,4.94,4.94,0,0,1,0-.56l.27.11s.11-.13.14-.19a2.72,2.72,0,0,0,.07-.28h0v0l.12.26a.21.21,0,0,1,.13-.15l.22-.12a1.23,1.23,0,0,1,0,.22,2.46,2.46,0,0,1,0,.61,5.18,5.18,0,0,1-.42.42.43.43,0,0,0-.06.27l.26-.26s.06.14.07.21a.69.69,0,0,1,0,.15s.13-.06.16-.09a.26.26,0,0,1,.16,0,.4.4,0,0,1-.07.18.58.58,0,0,0-.07.14,1.65,1.65,0,0,1-.11.21l-.17.09-.17.09-.12.14-.2.24a.43.43,0,0,0-.05.16.6.6,0,0,1,.13-.24c.07-.06.25-.26.25-.26l.08.22s.14-.12.2-.14l.38-.09c-.08.12-.19.22-.19.24s0,.29-.11.35l-.34.22a.33.33,0,0,1,.16.17,1.5,1.5,0,0,1,0,.39v0a.66.66,0,0,1,.12-.28l.06-.1a.6.6,0,0,0,0-.18s.17.15.2.22a.19.19,0,0,1,.12-.14,1.13,1.13,0,0,1,.17.39.46.46,0,0,1,.15-.23.64.64,0,0,1,.15.42.61.61,0,0,1-.21.31.93.93,0,0,1-.17.09c.06,0,.22,0,.26,0a.49.49,0,0,1,.16,0h0l-.26.1c.07,0,.21,0,.3,0a.38.38,0,0,0,0-.26.53.53,0,0,1-.06-.2s.15,0,.21,0h.1s0-.06,0-.1-.07-.15-.06-.17.06,0,.19.11a2.71,2.71,0,0,0,.25.18c0-.05.13-.32.15-.37s.18.27.2.32a1.18,1.18,0,0,1,0,.26.53.53,0,0,1-.11.26h0a4.05,4.05,0,0,0,.34.41l.17.19a3.47,3.47,0,0,0,.71.66l.25.14.12.06-.16.26Zm-3.39-2.46v0a.49.49,0,0,0,0,.27.93.93,0,0,0,.16.18l0-.08a1.33,1.33,0,0,1-.12-.42Zm-.2-.56-.11.07s-.05.1-.05.15a.19.19,0,0,0,0,.08.31.31,0,0,1,.09-.15.21.21,0,0,0,0-.15Z"/><path class="cls-17" d="M26,19l0,0a.32.32,0,0,1,.22-.1l.1,0,.25-.13s-.15.12-.23.16l-.12,0A.26.26,0,0,0,26,19Z"/><path class="cls-17" d="M26.14,19.09s.18-.08.25-.13.07-.07.12-.13a1.38,1.38,0,0,1,.29-.3l0,0a1.28,1.28,0,0,0-.28.29.72.72,0,0,1-.13.15,1.38,1.38,0,0,1-.27.09Z"/><path class="cls-17" d="M26.18,19.16v0a.77.77,0,0,0,.3-.06,1.82,1.82,0,0,1,.17-.14s-.09.1-.14.16a.82.82,0,0,1-.33.08Z"/><path class="cls-1" d="M27.24,18.53v0Z"/><path class="cls-17" d="M26.45,19.69v0a2.92,2.92,0,0,0,.58-.12c0,.06-.49.15-.57.16Z"/><path class="cls-17" d="M26.71,19.85h0v0a.88.88,0,0,0,.57-.29.71.71,0,0,1-.55.33Z"/><path class="cls-17" d="M27.39,19.52a1.42,1.42,0,0,1-.61-.11l0,0a2.41,2.41,0,0,0,1.19.07,1.64,1.64,0,0,1-.6.08Z"/><path class="cls-17" d="M27.71,19.31a4,4,0,0,1,0-.59h0c0,.59-.06.59-.07.59Z"/><path class="cls-1" d="M27.59,19a1.92,1.92,0,0,1,0-.21Z"/><path class="cls-1" d="M27.66,18.51s0,.21,0,.21Z"/><path class="cls-17" d="M27.93,19.19h0a.67.67,0,0,0,.07-.27s0,.14,0,.28Z"/><path class="cls-1" d="M27.9,18.84v0Z"/><path class="cls-1" d="M28.15,18.94c-.06.14-.09.14-.09.14Z"/><path class="cls-17" d="M28.91,19.48c-.05,0-.31-.25-.48-.34l0,0a3.15,3.15,0,0,1,.47.37Z"/><path class="cls-17" d="M29.08,19.38s-.17-.17-.31-.25l0,0a.93.93,0,0,1,.29.28Z"/><path class="cls-17" d="M29.14,19.63s.11-.25-.07-.45l0,0a.38.38,0,0,1,0,.47Z"/><path class="cls-1" d="M29.29,19l0,.35Z"/><path class="cls-17" d="M26.06,17.67a.35.35,0,0,1-.18-.14.24.24,0,0,1-.05-.13.32.32,0,0,0,0-.09.45.45,0,0,0-.29-.24v0a.44.44,0,0,1,.29.22.28.28,0,0,1,.06.13.19.19,0,0,0,0,.12l.16.16Z"/><path class="cls-17" d="M26.38,17.91s-.09-.12-.13-.17h0l-.11-.06a.38.38,0,0,1-.12-.19l0-.07v-.08c0-.1,0-.27-.27-.3v0c.32,0,.31.23.31.33a.84.84,0,0,0,0,.14.63.63,0,0,0,.1.17.22.22,0,0,1,.13.06.84.84,0,0,1,.11.2Z"/><path class="cls-17" d="M25.88,17.05s0-.1-.09-.19l-.12-.11,0,0s0,0,.13.12a.24.24,0,0,1,.06.21Z"/><path class="cls-17" d="M26.16,17.32a.41.41,0,0,1-.09-.43h0a.55.55,0,0,0,.05.42Z"/><path class="cls-17" d="M26.27,17.37s.09-.27-.07-.39l0,0c.19.14.05.42.05.42Z"/><path class="cls-1" d="M26.24,17.49l0,.22Z"/><path class="cls-1" d="M26.72,16.85a.28.28,0,0,1,.13.22Z"/><path class="cls-17" d="M26.94,18.07s0,0,0-.14a1.82,1.82,0,0,0,.17-.39l0,0s-.11.29-.18.4-.08.1-.08.11Z"/><path class="cls-17" d="M26.91,18.37h0c.1-.35.29-.42.3-.42s-.17.1-.27.43Z"/><path class="cls-17" d="M27.08,18.11v0a1.37,1.37,0,0,0,.54-.48,1,1,0,0,1-.53.52Z"/><path class="cls-17" d="M26,18.76l0,0a.61.61,0,0,1,.38-.12h.11a.41.41,0,0,0,.21-.14s-.05.13-.2.17a.34.34,0,0,1-.13,0c-.06,0-.13,0-.35.11Z"/><path class="cls-17" d="M26.35,18.56c-.06,0-.33-.14-.51-.1v0a1,1,0,0,1,.54.14Z"/><path class="cls-17" d="M26.64,18.47s-.09-.2-.34-.23v0a.37.37,0,0,1,.34.27Z"/><path class="cls-17" d="M27.19,19.34a1.25,1.25,0,0,0-.55,0v0c.5,0,.56,0,.56.06Z"/><path class="cls-1" d="M27.05,18.86c0-.19,0-.23,0-.23Z"/><path class="cls-17" d="M26.93,17.68l0,0a3.45,3.45,0,0,1,.47-.63s-.21.26-.43.65Z"/><path class="cls-17" d="M27.36,17.2l0,0a2.5,2.5,0,0,0,.36-.43,1.33,1.33,0,0,1-.33.46Z"/><path class="cls-17" d="M27,17.17c0-.17,0-.29,0-.38a.52.52,0,0,1,0-.36.85.85,0,0,1,.2-.22c.06-.06.11-.1.12-.14a1.07,1.07,0,0,0,.1-.4.54.54,0,0,1,.16-.34s-.12.17-.12.34a1.06,1.06,0,0,1-.08.35.44.44,0,0,1-.15.21,1,1,0,0,0-.19.22c-.06.1-.05.16,0,.34s0,.21,0,.38Z"/><path class="cls-17" d="M27,16.86a.84.84,0,0,1-.1-.47.44.44,0,0,1,.1-.12.78.78,0,0,0,.26-.79h0a.83.83,0,0,1-.27.83.35.35,0,0,0-.09.1,1.59,1.59,0,0,0,.06.46Z"/><path class="cls-17" d="M26.53,16.58c-.05,0-.25-.2-.5-.37l0,0a4.71,4.71,0,0,1,.48.39Z"/><path class="cls-17" d="M26.6,16.41a.69.69,0,0,1-.2-.07.59.59,0,0,1-.14-.06l-.11-.05v0a.28.28,0,0,1,.12,0l.14.07.21.09Z"/><path class="cls-17" d="M26.45,16.26s0-.08-.08-.16L26.28,16a.56.56,0,0,1-.24-.32h0a.52.52,0,0,0,.22.3l.1.1a.23.23,0,0,1,.05.18Z"/><path class="cls-1" d="M26.91,18.94v0Z"/><path class="cls-17" d="M26.86,16.18a3.86,3.86,0,0,1,0-.54s0,.31,0,.54Z"/><path class="cls-17" d="M27,16.1s.09-.26.09-.55h0a1.34,1.34,0,0,1-.12.55Z"/><path class="cls-17" d="M26.86,16.08a.89.89,0,0,1-.07-.23.51.51,0,0,0,0-.09.29.29,0,0,0-.05-.14s.06,0,.09.13,0,.07,0,.1a1,1,0,0,0,.07.22Z"/><path class="cls-17" d="M26.42,15.77h0a1.07,1.07,0,0,1,.11-.46.22.22,0,0,0,0-.13,1.83,1.83,0,0,0-.06-.21s.06.06.1.2a.24.24,0,0,1,0,.16,1,1,0,0,0-.1.44Z"/><path class="cls-17" d="M26.55,15.25s.1-.21.26-.29l0,0a.78.78,0,0,0-.28.25Z"/><path class="cls-17" d="M26.49,15.57h0a1.26,1.26,0,0,1,.27-.42.29.29,0,0,1,.23-.05s-.12,0-.2.08a1.25,1.25,0,0,0-.27.4Z"/><path class="cls-1" d="M26.33,15a.63.63,0,0,0,0,.28Z"/><path class="cls-17" d="M26.54,15.14l0,0a1.38,1.38,0,0,0,.14-.48.69.69,0,0,1-.11.5Z"/><path class="cls-17" d="M27.17,17.19h0a2.44,2.44,0,0,1,.21-.67s-.14.38-.17.68Z"/><path class="cls-19" d="M26.41,15.74a.11.11,0,0,0-.1-.11.11.11,0,0,0,0,.22.11.11,0,0,0,.1-.11Z"/><path class="cls-17" d="M26.31,15.87a.12.12,0,0,1-.11-.13.11.11,0,0,1,.22,0,.12.12,0,0,1-.11.13Z"/><path class="cls-19" d="M26.57,15.89a.11.11,0,0,0-.1-.11.11.11,0,0,0,0,.22.11.11,0,0,0,.1-.11Z"/><path class="cls-17" d="M26.47,16a.12.12,0,0,1-.11-.13.11.11,0,0,1,.22,0,.12.12,0,0,1-.11.13Z"/><path class="cls-19" d="M26.92,16.67a.1.1,0,0,0-.09-.11.11.11,0,0,0,0,.22.1.1,0,0,0,.09-.11Z"/><path class="cls-17" d="M26.83,16.79a.11.11,0,0,1-.11-.12.11.11,0,0,1,.22,0,.11.11,0,0,1-.11.12Z"/><path class="cls-19" d="M27.12,16.78a.1.1,0,1,0-.1.11.11.11,0,0,0,.1-.11Z"/><path class="cls-17" d="M27,16.91a.12.12,0,0,1-.11-.13.11.11,0,0,1,.22,0,.12.12,0,0,1-.11.13Z"/><path class="cls-19" d="M26.42,17.92a.11.11,0,0,0-.1-.11.1.1,0,0,0-.09.11.09.09,0,0,0,.09.1.1.1,0,0,0,.1-.1Z"/><path class="cls-17" d="M26.32,18a.11.11,0,0,1-.11-.12.12.12,0,0,1,.23,0,.12.12,0,0,1-.12.12Z"/><path class="cls-19" d="M26.88,18.15a.09.09,0,0,0-.09-.1.09.09,0,0,0-.1.1.1.1,0,1,0,.19,0Z"/><path class="cls-17" d="M26.79,18.28a.12.12,0,0,1-.12-.13.12.12,0,0,1,.23,0,.12.12,0,0,1-.11.13Z"/><path class="cls-19" d="M27.16,19.08a.11.11,0,0,0-.1-.11.11.11,0,0,0,0,.22.11.11,0,0,0,.1-.11Z"/><path class="cls-17" d="M27.06,19.21a.12.12,0,0,1-.11-.13.12.12,0,0,1,.23,0,.12.12,0,0,1-.12.13Z"/><path class="cls-19" d="M27.66,19.34a.11.11,0,0,0-.1-.11.11.11,0,0,0,0,.22.11.11,0,0,0,.1-.11Z"/><path class="cls-17" d="M27.56,19.47a.12.12,0,0,1-.11-.13.11.11,0,0,1,.22,0,.12.12,0,0,1-.11.13Z"/><path class="cls-19" d="M27.91,19.33a.1.1,0,1,0-.1.11.1.1,0,0,0,.1-.11Z"/><path class="cls-17" d="M27.81,19.46a.12.12,0,0,1-.11-.13.12.12,0,0,1,.23,0,.12.12,0,0,1-.12.13Z"/><path class="cls-19" d="M28.69,19.51a.1.1,0,0,0-.09-.11.11.11,0,0,0-.1.11.1.1,0,0,0,.1.1.09.09,0,0,0,.09-.1Z"/><path class="cls-17" d="M28.6,19.63a.11.11,0,0,1-.11-.12.11.11,0,0,1,.22,0,.11.11,0,0,1-.11.12Z"/><path class="cls-1" d="M34.24,21c-.12-.2-.2-.22-.2-.22Z"/><path class="cls-1" d="M34.2,21.08c-.12-.2-.2-.22-.2-.22Z"/><path class="cls-1" d="M34.14,21.13c-.12-.19-.2-.21-.2-.21Z"/><path class="cls-1" d="M34.1,21.2C34,21,33.9,21,33.9,21Z"/><path class="cls-1" d="M34,21.25c-.12-.19-.2-.21-.2-.21Z"/><path class="cls-1" d="M34,21.32c-.12-.2-.2-.22-.2-.22Z"/><path class="cls-1" d="M33.94,21.37c-.12-.2-.2-.22-.2-.22Z"/><path class="cls-1" d="M33.9,21.44c-.12-.2-.2-.22-.2-.22Z"/><path class="cls-1" d="M33.85,21.49c-.12-.2-.2-.22-.2-.22Z"/><g class="cls-20"><path class="cls-5" d="M34.11,20.84a1.06,1.06,0,0,0-.81-.2.44.44,0,0,0-.44-.13c-.15.06-.24.38-.24.42s.16.16.29.17h.53c.1,0,.24.18.24.18a2.72,2.72,0,0,1,.43-.45Z"/></g><path d="M33.68,21.34l0,0s-.15-.16-.22-.17h-.53c-.14,0-.32-.08-.32-.19s.09-.38.26-.45a.52.52,0,0,1,.47.13h.22a.78.78,0,0,1,.59.22c-.13.12-.42.49-.42.49l0,0ZM33,20.52h-.09c-.13.06-.22.36-.22.4s.13.13.26.14h.27l.26,0c.09,0,.19.1.24.15a2.09,2.09,0,0,1,.42-.42,1,1,0,0,0-.56-.16h-.26a.52.52,0,0,0-.32-.14Z"/><g class="cls-21"><path class="cls-5" d="M33.27,20.82c0-.14-.1-.22-.19-.2s-.62.24-.81.25-.46-.17-.46-.27.42-.26.42-.26l.29.09a1.86,1.86,0,0,1,.59-.18c.22,0,.35.14.34.25a.78.78,0,0,1-.18.32Z"/></g><path d="M32.25,20.9a.66.66,0,0,1-.3-.1c-.05,0-.17-.12-.17-.2s.34-.25.44-.29l.31.09a1.69,1.69,0,0,1,.58-.18.41.41,0,0,1,.31.13.16.16,0,0,1,.06.15c0,.09-.16.35-.21.35s-.1-.21-.16-.21l-.27.09a3.12,3.12,0,0,1-.57.17Zm0-.53c-.18.07-.38.18-.38.23s0,.09.14.15a.71.71,0,0,0,.27.09v0l0,0a3.24,3.24,0,0,0,.55-.17l.25-.08a.21.21,0,0,1,.23.21c0-.07.11-.23.12-.3a.12.12,0,0,0,0-.11.35.35,0,0,0-.27-.1,2.05,2.05,0,0,0-.58.17l-.31-.09Z"/><path d="M33.09,20.94h0l-.26,0c-.08,0-.12,0-.16,0s0-.12.08-.12l.09,0,.25,0c.19,0,.2-.09.2-.12h.06a.2.2,0,0,1-.23.17Z"/><path d="M25.81,21l0,0c.12-.2.2-.22.21-.23s0,.09-.16.26Z"/><path d="M25.85,21.09l-.05,0c.12-.2.2-.23.21-.23s-.05.08-.16.26Z"/><path d="M25.91,21.15l-.05,0c.12-.2.21-.23.22-.23s-.06.08-.17.26Z"/><path d="M26,21.22l-.05,0c.12-.2.21-.23.21-.23s-.05.08-.16.26Z"/><path d="M26,21.27l-.05,0c.12-.2.21-.23.22-.23s-.06.08-.17.26Z"/><path d="M26.05,21.34l-.05,0c.12-.2.21-.22.21-.22s-.05.08-.16.26Z"/><path d="M26.11,21.38l-.05,0c.12-.2.21-.22.22-.22s-.06.08-.17.25Z"/><path d="M26.15,21.45l0,0a.6.6,0,0,1,.21-.23c0,.06,0,.09-.16.26Z"/><path d="M26.2,21.5l-.05,0c.12-.2.21-.23.22-.23s-.06.08-.17.26Z"/><g class="cls-22"><path class="cls-5" d="M25.91,20.84a1.06,1.06,0,0,1,.81-.2.47.47,0,0,1,.45-.13c.15.06.23.38.23.42s-.16.16-.29.17h-.53c-.1,0-.24.18-.24.18a2.72,2.72,0,0,0-.43-.45Z"/></g><path d="M26.34,21.34l0,0a2.63,2.63,0,0,0-.42-.44.68.68,0,0,1,.58-.27h.18a.66.66,0,0,1,.52-.13c.16.07.25.4.25.45s-.18.19-.31.19h-.53c-.08,0-.19.13-.22.17l0,0Zm.14-.68a.77.77,0,0,0-.55.2c.12,0,.34.3.41.38s.15-.15.24-.15l.26,0h.27c.14,0,.26-.08.26-.14s-.08-.34-.21-.4a.52.52,0,0,0-.42.13h-.26Z"/><g class="cls-23"><path class="cls-5" d="M26.75,20.82c0-.14.1-.22.19-.2s.63.24.82.25.46-.17.46-.27-.42-.26-.42-.26l-.3.09a1.86,1.86,0,0,0-.59-.18c-.22,0-.35.14-.34.25a.78.78,0,0,0,.18.32Z"/></g><path d="M27.77,20.9h0a3.05,3.05,0,0,1-.56-.17l-.25-.08c-.08,0-.16.05-.16.17s-.23-.23-.24-.32a.22.22,0,0,1,.06-.15.42.42,0,0,1,.31-.13,2.15,2.15,0,0,1,.61.18l.27-.09c.12,0,.46.17.46.29s-.3.3-.48.3Zm-.85-.32.29.09a3,3,0,0,0,.55.17v0c.16,0,.42-.16.42-.24s-.21-.16-.4-.23l-.28.09a2.39,2.39,0,0,0-.6-.17.33.33,0,0,0-.26.1.16.16,0,0,0,0,.11,1,1,0,0,0,.17.3.16.16,0,0,1,.15-.22Z"/><path d="M26.93,20.94a.2.2,0,0,1-.23-.17h.06c0,.09.08.13.2.12l.25,0,.09,0c.05,0,.11.06.13.08a.31.31,0,0,1-.13,0l-.08,0-.25,0Z"/><g class="cls-24"><path class="cls-5" d="M30.05,19.61c-2,0-2.76.33-2.77.61a.48.48,0,0,0,.37.48c.13,0,.45-.16.44-.23s-.06-.07,0-.09a9.17,9.17,0,0,1,2-.16,7.18,7.18,0,0,1,2,.16c0,.05-.09.08-.16.15.28,0,.35.15.48.16a.48.48,0,0,0,.39-.45c0-.29-.82-.59-2.68-.63Z"/></g><path d="M27.65,20.73a.38.38,0,0,1-.25-.13.53.53,0,0,1-.15-.39c0-.3.79-.63,2.49-.63h.31a4.91,4.91,0,0,1,2.64.5.21.21,0,0,1,.07.16.52.52,0,0,1-.41.48h0a.34.34,0,0,1-.16-.07.48.48,0,0,0-.27-.09h-.07v0l.09-.07.06-.05a8.89,8.89,0,0,0-1.93-.14,9,9,0,0,0-2,.16l0,0v.09a.89.89,0,0,1-.45.21Zm2.09-1.09c-1.76,0-2.43.35-2.43.58a.43.43,0,0,0,.14.34.29.29,0,0,0,.2.11.75.75,0,0,0,.41-.2s0,0,0-.06a5.73,5.73,0,0,1,2-.22,5.87,5.87,0,0,1,2,.19c0,.05,0,.08-.08.11l-.09.06a.38.38,0,0,1,.34.05.34.34,0,0,0,.12.06h0a.45.45,0,0,0,.36-.43.21.21,0,0,0-.05-.11c-.1-.1-.57-.43-2.6-.48Z"/><polygon class="cls-13" points="27.92 20.27 27.82 19.96 28 19.9 28.01 19.94 27.86 19.99 27.89 20.08 28.04 20.04 28.05 20.07 27.91 20.12 27.95 20.22 28.1 20.17 28.11 20.21 27.92 20.27"/><path class="cls-13" d="M28.55,19.81h0l0,.2a.19.19,0,0,1,0,.08s0,0,0,.05l-.06,0h-.07l0,0a.2.2,0,0,1,0-.09l0-.19h0l0,.19s0,.05,0,.06,0,0,0,0h0a.06.06,0,0,0,.06,0s0,0,0-.08Z"/><polygon class="cls-13" points="28.95 20.1 28.95 19.78 28.98 19.78 28.98 20.06 29.11 20.06 29.11 20.1 28.95 20.1"/><rect class="cls-13" x="29.18" y="19.77" width="0.04" height="0.34"/><path class="cls-13" d="M29.48,20h0s0,.07,0,.08a.06.06,0,0,1-.06,0s-.05,0-.06,0,0,0,0-.06a.31.31,0,0,1,0-.1.28.28,0,0,1,0-.09.15.15,0,0,1,0-.06l.06,0a.08.08,0,0,1,.06,0,.2.2,0,0,1,0,.08h0l0-.06h0a.06.06,0,0,0-.05,0,.08.08,0,0,0,0,.05.13.13,0,0,0,0,.06.19.19,0,0,0,0,.08s0,0,0,0l0,0s0,0,0,0,0,0,0-.06Z"/><path class="cls-13" d="M30.57,20.09v-.31h.06l.07.22a.43.43,0,0,0,0,.05.17.17,0,0,1,0-.05l.07-.22h.05v.31h0v-.26l-.08.26h0l-.08-.26v.26Z"/><rect class="cls-13" x="30.91" y="19.79" width="0.04" height="0.32"/><polygon class="cls-13" points="31.02 20.11 31.02 19.79 31.05 19.79 31.18 20.05 31.18 19.79 31.21 19.79 31.21 20.11 31.17 20.11 31.05 19.86 31.05 20.11 31.02 20.11"/><rect class="cls-13" x="31.3" y="19.81" width="0.04" height="0.31"/><path class="cls-13" d="M31.58,20.05l0,0a.2.2,0,0,1,0,.08l-.08,0a.07.07,0,0,1-.06,0,.16.16,0,0,1,0-.07V20a.2.2,0,0,1,0-.09.17.17,0,0,1,.06-.06.07.07,0,0,1,.06,0,.06.06,0,0,1,.06,0,.1.1,0,0,1,0,.08h0a.08.08,0,0,0,0-.05s0,0,0,0l-.06,0,0,.05s0,0,0,.06a.19.19,0,0,0,0,.08.08.08,0,0,0,0,.05l0,0a.07.07,0,0,0,.06,0,.16.16,0,0,0,0-.06Z"/><polygon class="cls-13" points="31.9 20.24 31.98 19.9 32.01 19.91 32.09 20.21 32.15 19.94 32.18 19.95 32.11 20.29 32.08 20.28 31.99 19.98 31.94 20.25 31.9 20.24"/><path class="cls-13" d="M27.67,20.38l-.13-.31.11-.05h.05a0,0,0,0,1,0,0l0,0a.13.13,0,0,1,0,.06.1.1,0,0,1,0,.05h0l0,0,.08.07h-.05l-.05-.05-.05,0h-.06l0,0,.06.14Zm0-.19.07,0,0,0a0,0,0,0,0,0,0v0l0,0s0,0-.05,0l-.07,0Z"/><path class="cls-13" d="M28.17,20.19l-.07-.32.1,0h0s0,0,0,0l0,0s0,0,0,0a.22.22,0,0,1,0,.08s0,0-.07,0l-.07,0,0,.13Zm0-.17.07,0,.05,0a0,0,0,0,0,0-.05s0,0,0,0l0,0h-.11Z"/><path class="cls-13" d="M28.69,20.13l0-.33h.15l0,0a.06.06,0,0,1,0,0v0l0,0,0,0s0,0,0,.05,0,0,0,0a.05.05,0,0,1,0,0h-.16Zm0-.19h.09l0,0v0a0,0,0,0,0,0,0s0,0,0,0H28.7Zm0,.15h.1l0,0v0a0,0,0,0,0,0,0l0,0h-.1Z"/><path class="cls-13" d="M29.55,20.1l.1-.34h0l.11.34h0l0-.1h-.11l0,.1Zm.08-.14h.09l0-.09a.31.31,0,0,1,0-.08.14.14,0,0,1,0,.07Z"/><path class="cls-13" d="M30,20.1v-.33h.14l0,0,0,.06a.19.19,0,0,1,0,.08.15.15,0,0,1,0,.07s0,0,0,.05l0,0H30Zm0,0h.12a.08.08,0,0,0,0-.05s0,0,0-.06a.19.19,0,0,0,0-.08.08.08,0,0,0,0,0H30Z"/><path class="cls-13" d="M30.29,19.93a.25.25,0,0,1,0-.13.1.1,0,0,1,.08-.05l.06,0a.16.16,0,0,1,0,.07.28.28,0,0,1,0,.09.25.25,0,0,1,0,.09.43.43,0,0,1,0,.07l-.06,0a.09.09,0,0,1-.06,0,.09.09,0,0,1,0-.06.28.28,0,0,1,0-.09Zm0,0a.22.22,0,0,0,0,.1.06.06,0,0,0,.12,0,.25.25,0,0,0,0-.1.15.15,0,0,0,0-.07l0-.05a.05.05,0,0,0,0,0,.09.09,0,0,0-.06,0,.31.31,0,0,0,0,.11Z"/><path class="cls-13" d="M31.62,20.17l.17-.32h0l0,.36h-.05V20.1l-.12,0-.05.1Zm.1-.13.09,0v-.17l0,.06Z"/><path class="cls-13" d="M32.14,20.29l.23-.27,0,0,0,.36h0v-.11l-.1-.05-.06.08Zm.13-.09.08,0v-.1s0-.06,0-.08a.21.21,0,0,1,0,.06Z"/><path class="cls-5" d="M31,20.57a.58.58,0,0,0-.49,0v.22a.68.68,0,0,1,.21,0l.2.1Z"/><path d="M30.9,20.93l-.23-.12a.71.71,0,0,0-.2,0l0-.25a.56.56,0,0,1,.53,0l-.06.39Zm-.34-.19a.27.27,0,0,1,.13,0l.17.08.06-.27a1.93,1.93,0,0,0-.44,0l0,.18s0,0,.06,0Z"/><path class="cls-5" d="M29.08,20.59a.54.54,0,0,1,.49,0v.21a.68.68,0,0,0-.21,0l-.2.1Z"/><path d="M29.13,20.94l-.08-.35a.55.55,0,0,1,.54-.06v.24c-.07,0-.18,0-.23.06l-.23.11Zm.26-.39a.89.89,0,0,0-.3.06l.08.25.17-.08a.53.53,0,0,1,.22,0l0-.18s-.06,0-.15,0Z"/><path class="cls-5" d="M29.83,20.51v.32a.25.25,0,0,0,.17,0,.37.37,0,0,0,.17,0V20.5a.51.51,0,0,0-.19,0,.3.3,0,0,0-.15,0Z"/><path d="M30,20.9c-.09,0-.17,0-.19-.06v-.33a.27.27,0,0,1,.18-.07l.2,0,0,.36a.27.27,0,0,1-.2.07Zm-.13-.08.29,0,0-.29s-.07,0-.13,0-.15,0-.16,0v.29Z"/><path class="cls-5" d="M30.17,20.85c0,.08.41,0,.42,0a1.09,1.09,0,0,0,0-.19h-.42Z"/><path d="M30.35,20.93h0c-.06,0-.17,0-.2-.07v-.22l.45,0s0,.14,0,.22-.18.1-.27.1Zm.21-.29-.39,0,0,.18a1.08,1.08,0,0,0,.36,0,1,1,0,0,0,0-.18Z"/><path class="cls-5" d="M30.17,20.5a.69.69,0,0,1,.28-.06.23.23,0,0,1,.15.07l0,.28a.21.21,0,0,0-.15-.07.67.67,0,0,0-.26.09Z"/><path d="M30.14,20.86V20.5a.58.58,0,0,1,.29-.09.33.33,0,0,1,.2.08l0,.3c-.06,0-.13,0-.17,0a.54.54,0,0,0-.25.09l-.05,0Zm.29-.17a.26.26,0,0,1,.18.09l0-.27a.4.4,0,0,0-.12,0,.9.9,0,0,0-.27.06l0,.23a.78.78,0,0,1,.23-.07Z"/><path class="cls-5" d="M29.83,20.85c0,.09-.4.06-.41,0a1.88,1.88,0,0,1,0-.19h.42Z"/><path d="M29.65,20.93c-.09,0-.25,0-.26-.1a1.88,1.88,0,0,1,0-.19l.45,0,0,.24c0,.08-.15.08-.21.08Zm-.22-.26a.67.67,0,0,1,0,.16.66.66,0,0,0,.37,0v-.2l-.37,0Z"/><path class="cls-5" d="M29.83,20.5a.9.9,0,0,0-.28-.06.23.23,0,0,0-.15.07l0,.29a.2.2,0,0,1,.15-.07.51.51,0,0,1,.26.09Z"/><path d="M29.86,20.87l0,0a.57.57,0,0,0-.25-.08h0a.17.17,0,0,0-.12,0l-.08-.29a.21.21,0,0,1,.18-.1.7.7,0,0,1,.29.06l0,.39Zm-.29-.17a.45.45,0,0,1,.23.07V20.5l-.22,0a.32.32,0,0,0-.16.06l0,.23s.07-.06.12-.06Z"/></g></g></g></g></g></g></svg>