<svg xmlns="http://www.w3.org/2000/svg" xmlns:xlink="http://www.w3.org/1999/xlink" viewBox="0 0 60 35"><defs><style>.cls-1{fill:none;}.cls-2{clip-path:url(#clip-path);}.cls-3{fill:#fff;}.cls-4{fill:#3e73b7;}.cls-5{fill:#eac126;}.cls-5,.cls-7{fill-rule:evenodd;}.cls-6,.cls-7{fill:#292c2f;}</style><clipPath id="clip-path"><rect class="cls-1" width="60" height="35"/></clipPath></defs><title>Uruguay</title><g id="Layer_2" data-name="Layer 2"><g id="Stream"><g id="Uruguay"><g class="cls-2"><rect class="cls-3" width="60" height="35"/><path class="cls-4" d="M0,31.11H60V27.22H0Zm0-7.78H60V19.44H0Zm19.45-7.77H60V11.67H19.45Zm0-7.78H60V3.89H19.45Z"/><g class="cls-2"><path class="cls-5" d="M9.75,9.75l.17,2.88c-2.65,1.91-1,3-2.93,3.66C8.29,15,6.6,15,8.06,12.06"/><path class="cls-6" d="M9.81,9.75,10,12.63H9.87L9.64,9.75ZM10,12.63h0v0l-.06,0Zm0,0a3.84,3.84,0,0,0-1.75,2.37H8.06a4,4,0,0,1,1.81-2.48ZM8.23,15.05a1.46,1.46,0,0,1-1.18,1.29L7,16.23a1.31,1.31,0,0,0,1.07-1.18ZM7.05,16.34l-.29.12.17-.17H7Zm-.12-.05c.57-.62.57-1,.46-1.41h.16a1.42,1.42,0,0,1-.5,1.46Zm.46-1.41A4.21,4.21,0,0,1,8,12.06l.11.06a4,4,0,0,0-.57,2.76Z"/><path class="cls-6" d="M8.85,12A6.33,6.33,0,0,0,8,14.77l-.17-.06a7.74,7.74,0,0,1,1-2.82ZM8,14.77c-.11.73-.23,1.29-.9,1.57L7,16.23c.62-.28.68-.79.79-1.52Z"/><path class="cls-5" d="M9.75,9.75,9.53,6.82c2.65-1.92,1-3,2.93-3.66-1.24,1.35.39,1.35-1.07,4.22"/><path class="cls-6" d="M9.64,9.75,9.47,6.88l.11-.06.23,2.93ZM9.47,6.88V6.82h.06Zm0-.06A3.52,3.52,0,0,0,11.22,4.4l.17,0A3.93,3.93,0,0,1,9.58,6.88ZM11.22,4.4A1.52,1.52,0,0,1,12.4,3.1l.06.11a1.34,1.34,0,0,0-1.07,1.24ZM12.4,3.1,12.68,3l-.16.17-.06,0Zm.12.11c-.57.62-.57.91-.46,1.36l-.16,0a1.52,1.52,0,0,1,.5-1.52Zm-.46,1.36a4.39,4.39,0,0,1-.62,2.87l-.11-.06a4,4,0,0,0,.57-2.76Z"/><path class="cls-6" d="M10.6,7.5a7.75,7.75,0,0,0,1-2.77h.11a7.34,7.34,0,0,1-1,2.82Zm1-2.77c.11-.78.17-1.29.84-1.63l.06.11c-.62.29-.68.79-.79,1.52Z"/><path class="cls-5" d="M9.75,9.75l-2.93.17C4.9,7.27,3.78,8.9,3.16,7c1.35,1.29,1.29-.34,4.23,1.07"/><path class="cls-6" d="M9.75,9.81,6.82,10V9.86L9.7,9.69ZM6.82,10h0l-.06,0,.06-.06Zm-.06,0A3.53,3.53,0,0,0,4.4,8.23V8.12a3.6,3.6,0,0,1,2.48,1.8ZM4.4,8.23A1.52,1.52,0,0,1,3.1,7.05L3.21,7A1.51,1.51,0,0,0,4.4,8.12ZM3.1,7.05,3,6.82,3.21,7h0ZM3.21,7a1.34,1.34,0,0,0,1.36.45l0,.11a1.52,1.52,0,0,1-1.52-.5Zm1.36.45A3.92,3.92,0,0,1,7.44,8l-.11.12a4.21,4.21,0,0,0-2.71-.57Z"/><path class="cls-6" d="M7.5,8.9A6.68,6.68,0,0,0,4.74,8V7.78a6.8,6.8,0,0,1,2.81,1ZM4.74,8c-.79-.12-1.3-.23-1.64-.9L3.21,7c.29.62.79.73,1.53.79Z"/><path class="cls-5" d="M9.75,9.75l2.88-.23c1.92,2.65,3,1.08,3.66,2.94-1.35-1.24-1.29.39-4.23-1.08"/><path class="cls-6" d="M9.7,9.69l2.93-.22v.11l-2.88.23Zm2.93-.22h0l0,0Zm0,0a3.69,3.69,0,0,0,2.37,1.8v.11a3.81,3.81,0,0,1-2.48-1.8Zm2.37,1.8a1.39,1.39,0,0,1,1.3,1.19h-.11a1.35,1.35,0,0,0-1.19-1.08Zm1.3,1.19.11.22-.22-.17.05,0Zm-.11,0a1.32,1.32,0,0,0-1.36-.45L14.83,12a1.38,1.38,0,0,1,1.52.45Zm-1.36-.45a4.22,4.22,0,0,1-2.82-.62l.06-.11a4,4,0,0,0,2.71.62Z"/><path class="cls-6" d="M12,10.6a7.58,7.58,0,0,0,2.82,1l-.06.12a7,7,0,0,1-2.81-1Zm2.82,1c.73.12,1.24.17,1.58.91l-.11,0c-.28-.67-.79-.73-1.53-.84Z"/><path class="cls-5" d="M9.75,9.75,7.84,12c-3.27-.57-2.94,1.41-4.68.51,1.86-.06.67-1.19,3.72-2.26"/><path class="cls-6" d="M9.75,9.75,7.89,12l-.11-.06L9.7,9.69ZM7.89,12l0,.05V12Zm0,.05a3.61,3.61,0,0,0-2.94.46l-.11-.12a3.83,3.83,0,0,1,3.05-.5Zm-2.94.46a1.57,1.57,0,0,1-1.8,0l.06-.11a1.38,1.38,0,0,0,1.63-.06Zm-1.8,0-.22-.11h.28v.06Zm.06-.11a1.33,1.33,0,0,0,1.29-.68l.12.12a1.4,1.4,0,0,1-1.41.67Zm1.29-.68a4.33,4.33,0,0,1,2.43-1.58l0,.12a3.79,3.79,0,0,0-2.36,1.58Z"/><path class="cls-6" d="M7.55,10.71A7.35,7.35,0,0,0,4.9,12l-.05-.11A7.1,7.1,0,0,1,7.5,10.6ZM4.9,12c-.62.46-1,.79-1.74.51V12.4c.67.23,1.07-.06,1.69-.51Z"/><path class="cls-5" d="M9.75,9.75l1.86-2.2c3.27.51,2.94-1.46,4.68-.56-1.86.06-.67,1.24-3.72,2.25"/><path class="cls-6" d="M9.7,9.69,11.56,7.5l.11.11L9.75,9.75ZM11.56,7.5h0v0Zm0,0a3.87,3.87,0,0,0,2.94-.45l.11.11a3.92,3.92,0,0,1-3.05.45Zm2.94-.45a1.57,1.57,0,0,1,1.8-.12l-.06.12a1.37,1.37,0,0,0-1.63.11Zm1.8-.12.22.12-.28,0V7Zm-.06.17A1.31,1.31,0,0,0,15,7.72l-.12,0a1.58,1.58,0,0,1,1.41-.74ZM15,7.72A4.28,4.28,0,0,1,12.57,9.3l-.05-.11a3.88,3.88,0,0,0,2.36-1.52Z"/><path class="cls-6" d="M11.9,8.74a5.9,5.9,0,0,0,2.65-1.3l0,.11A6.19,6.19,0,0,1,12,8.9Zm2.65-1.3c.62-.45,1.07-.73,1.74-.51v.12c-.67-.23-1.07.11-1.69.5Z"/><path class="cls-5" d="M9.75,9.75,7.55,7.83C8.06,4.57,6.09,4.9,7,3.16,7.05,5,8.23,3.83,9.25,6.88"/><path class="cls-6" d="M9.7,9.81,7.5,7.89l.11-.11L9.75,9.69ZM7.5,7.89h0V7.83h0Zm0-.06A4.17,4.17,0,0,0,7.05,4.9l.11-.05a4,4,0,0,1,.45,3ZM7.05,4.9a1.39,1.39,0,0,1-.12-1.74l.12,0a1.41,1.41,0,0,0,.11,1.64ZM6.93,3.16l.12-.23v.23H6.93Zm.12,0a1.33,1.33,0,0,0,.67,1.29l0,.12a1.52,1.52,0,0,1-.74-1.41Zm.67,1.29A4.28,4.28,0,0,1,9.3,6.88l-.11,0A4.34,4.34,0,0,0,7.67,4.57Z"/><path class="cls-6" d="M8.74,7.55A5.8,5.8,0,0,0,7.44,4.9l.11-.05a6.13,6.13,0,0,1,1.36,2.7ZM7.44,4.9c-.45-.62-.73-1-.51-1.74h.12c-.23.67,0,1.07.5,1.69Z"/><path class="cls-5" d="M9.75,9.75l2.15,1.86c-.51,3.27,1.46,2.93.56,4.68-.06-1.8-1.24-.62-2.26-3.72"/><path class="cls-6" d="M9.75,9.69,12,11.55l0,.12L9.7,9.81ZM12,11.55l.06.06-.06.06,0-.06Zm0,.12a4.25,4.25,0,0,0,.45,2.93l-.11.05a4.17,4.17,0,0,1-.45-3Zm.45,2.93a1.39,1.39,0,0,1,.12,1.74l-.12-.05a1.4,1.4,0,0,0-.11-1.64Zm.12,1.74-.12.23v-.28h.06Zm-.12-.05a1.4,1.4,0,0,0-.67-1.3l0-.05a1.4,1.4,0,0,1,.74,1.35ZM11.73,15c-.45-.28-1-.73-1.58-2.42h.11a4.68,4.68,0,0,0,1.52,2.37Z"/><path class="cls-6" d="M10.71,11.89A6.34,6.34,0,0,0,12,14.54l-.11.11A6.21,6.21,0,0,1,10.6,12ZM12,14.54a1.85,1.85,0,0,1,.51,1.8l-.12-.05c.23-.68-.05-1.07-.5-1.64Z"/><polyline class="cls-5" points="9.75 9.75 10.99 9.75 9.75 16.85 8.46 9.75 9.75 9.75 9.75 16.85"/><path class="cls-6" d="M9.75,9.69H11v.12H9.75Zm1.24,0h.12v.06H11Zm.12.06-1.3,7.1H9.64l1.3-7.1Zm-1.3,7.1-.06.34-.11-.34h.17Zm-.17,0-1.3-7.1h.17l1.3,7.1ZM8.34,9.69h.12v.06H8.34Zm.12,0H9.75v.12H8.46Zm1.29,0h.06v.06H9.75Zm.06,7.16H9.64V9.75h.17Z"/><polyline class="cls-5" points="9.75 9.75 8.46 9.75 9.75 2.59 10.99 9.75 9.75 9.75 9.75 2.59"/><path class="cls-6" d="M9.75,9.81H8.46V9.69H9.75Zm-1.29,0H8.34V9.75h.12Zm-.12-.06,1.3-7.16.17.06-1.3,7.1Zm1.3-7.16.11-.34.06.34H9.64Zm.17,0,1.3,7.16h-.17l-1.3-7.1Zm1.3,7.22H11V9.75h.12Zm-.12,0H9.75V9.69H11Zm-1.24,0H9.64V9.75h.11ZM9.64,2.59h.17V9.75H9.64Z"/><polyline class="cls-5" points="9.75 9.75 9.75 11.05 2.59 9.75 9.75 8.45 9.75 9.75 2.59 9.75"/><path class="cls-6" d="M9.81,11.05H9.64V9.75h.17Zm0,0v0H9.7l.05,0Zm-.11,0L2.59,9.81l.06-.12L9.75,11ZM2.59,9.81l-.34-.06.34-.06v.12Zm0-.12L9.7,8.4l.05.11-7.1,1.3ZM9.7,8.4l.11-.06v.11H9.75Zm.11,1.35H9.64V8.45h.17Zm0,.06H9.75V9.75h.06Zm-.06,0H2.59V9.69H9.75Z"/><polyline class="cls-5" points="9.75 9.75 9.75 8.45 16.86 9.75 9.75 11.05 9.75 9.75 16.86 9.75"/><path class="cls-6" d="M9.64,8.45h.17v1.3H9.64Zm0,0V8.34l.11.06v0Zm.11,0,7.11,1.29-.06.12L9.7,8.51Zm7.11,1.29.34.06-.34.06V9.69Zm0,.12L9.75,11.1,9.7,11l7.1-1.3ZM9.75,11.1H9.64v0h.11ZM9.64,9.75h.17v1.3H9.64Zm0-.06h.11v.06H9.64Zm.11,0h7.11v.12H9.75Z"/><polyline class="cls-5" points="9.75 9.75 10.65 10.65 4.68 14.77 8.79 8.79 9.75 9.75 4.68 14.77"/><path class="cls-6" d="M9.75,9.69l1,.91-.11.11-.9-.9Zm1,.91.06.05-.11.06v-.06Zm-.05.11L4.74,14.82l-.06-.11L10.6,10.6ZM4.74,14.82l-.29.23.17-.34.06.06Zm-.12-.11L8.74,8.79l.11.06-4.11,6ZM8.74,8.79l.06,0,0,0H8.74Zm.11,0,.9.9-.05.12-1-1Zm.9.9.06.06-.06.06V9.69Zm0,.12-5,5-.06-.11,5-5Z"/><polyline class="cls-5" points="9.75 9.75 8.79 8.79 14.77 4.68 10.65 10.65 9.75 9.75 14.77 4.68"/><path class="cls-6" d="M9.7,9.81l-1-1,.11-.06.9.9Zm-1-1V8.79H8.8Zm.06-.06,5.91-4.17.06.11L8.85,8.85Zm5.91-4.17L15,4.45l-.17.28-.06-.05Zm.12.11-4.12,6-.11-.11,4.11-5.92Zm-4.12,6-.05,0-.06,0,.06-.06Zm-.11,0-.9-.9.05-.12,1,.91Zm-.9-.9-.06-.06.06-.06.05.06Zm0-.12,5-5,.12.05L9.75,9.81Z"/><polyline class="cls-5" points="9.75 9.75 8.79 10.65 4.68 4.68 10.65 8.79 9.75 9.75 4.68 4.68"/><path class="cls-6" d="M9.75,9.81l-.9.9-.11-.11,1-.91Zm-.9.9,0,0-.06,0,.06-.06Zm-.11,0-4.12-6,.12-.05L8.85,10.6Zm-4.12-6-.17-.28.29.17-.06.06Zm.12-.11,5.92,4.17-.06.06L4.68,4.73Zm5.92,4.17h.11l-.06.06Zm.05.06-1,1L9.7,9.69l.9-.9Zm-1,1H9.7l.05-.06Zm-.05,0-5-5.08.06-.05,5,5Z"/><polyline class="cls-5" points="9.75 9.75 10.65 8.79 14.77 14.77 8.79 10.65 9.75 9.75 14.77 14.77"/><path class="cls-6" d="M9.7,9.69l.9-.9.11.06-1,1Zm.9-.9.06,0,.05,0H10.6Zm.11,0,4.12,5.92-.12.11-4.11-6Zm4.12,5.92.17.34-.29-.23.06-.05Zm-.12.11L8.8,10.71l0-.11,5.92,4.11ZM8.8,10.71l-.06-.06V10.6l.06.05Zm-.06-.11,1-.91.05.12-.9.9Zm1-.91.05,0v.11Zm.05,0,5.08,5-.12.11-5-5Z"/><path class="cls-5" d="M12.12,9.75a2.4,2.4,0,0,0-4.79,0,2.4,2.4,0,0,0,4.79,0"/><path class="cls-6" d="M12,9.75a2.07,2.07,0,0,0-.68-1.63L11.44,8a2.44,2.44,0,0,1,.74,1.75Zm-.68-1.63a2.05,2.05,0,0,0-1.58-.68V7.27A2.44,2.44,0,0,1,11.44,8ZM9.75,7.44a2.08,2.08,0,0,0-1.63.68L8,8a2.47,2.47,0,0,1,1.74-.73Zm-1.63.68a2.07,2.07,0,0,0-.68,1.63H7.27A2.44,2.44,0,0,1,8,8ZM7.44,9.75a2.25,2.25,0,0,0,.68,1.63L8,11.44a2.3,2.3,0,0,1-.74-1.69Zm.68,1.63a2.27,2.27,0,0,0,1.63.68v.11A2.47,2.47,0,0,1,8,11.44Zm1.63.68a2.24,2.24,0,0,0,1.58-.68l.11.06a2.44,2.44,0,0,1-1.69.73Zm1.58-.68A2.25,2.25,0,0,0,12,9.75h.17a2.3,2.3,0,0,1-.74,1.69Z"/><path class="cls-7" d="M11.44,8.79c-.11.17-.22-.11-.73-.11S10.09,9,10,8.9s.45-.45.62-.45a1.12,1.12,0,0,1,.84.34"/><path class="cls-7" d="M10.82,9c.17.17.06.45-.11.45s-.45-.28-.28-.45"/><path class="cls-7" d="M10.15,9.19c0-.29.22-.34.56-.34s.51.28.62.34c-.11,0-.28-.23-.62-.23s-.34,0-.56.23"/><path class="cls-7" d="M10.2,9.24c.06-.11.17.12.46.12a.8.8,0,0,0,.5-.17c.12-.12-.22.28-.45.28s-.56-.17-.51-.23"/><path class="cls-7" d="M10.94,9.36c.28-.12.11-.34,0-.4.05.06.22.28,0,.4"/><path class="cls-7" d="M9.75,10.65c.12,0,.17-.05.34-.05s.57.28.79.16c-.51.23-.28.06-1.13.06H9.64"/><path class="cls-7" d="M11,11a2.17,2.17,0,0,0-.28-.39A.52.52,0,0,1,11,11"/><path class="cls-7" d="M9.75,11.16c.51,0,.45-.11,1.13-.4A7.55,7.55,0,0,1,9.75,11H9.64"/><path class="cls-7" d="M9.75,10.37c.12,0,.17-.11.34-.11a.75.75,0,0,1,.51.17c.06,0-.06-.17-.23-.17s-.11-.34-.28-.4c0,.12.06.12.06.23s-.17.11-.23,0c.06.17-.11.17-.17.17"/><path class="cls-7" d="M8,8.79c.11.17.22-.11.73-.11s.62.28.73.22S9,8.45,8.85,8.45A1.12,1.12,0,0,0,8,8.79"/><path class="cls-7" d="M8.63,9c-.17.17-.06.45.11.45S9.19,9.13,9,9"/><path class="cls-7" d="M9.3,9.19c0-.29-.22-.34-.56-.34s-.51.28-.62.34c.17,0,.28-.23.62-.23s.34,0,.56.23"/><path class="cls-7" d="M9.25,9.24c-.06-.11-.17.12-.45.12a.8.8,0,0,1-.51-.17c-.12-.12.22.28.45.28s.56-.17.51-.23"/><path class="cls-7" d="M8.51,9.36c-.28-.12-.11-.34,0-.4,0,.06-.22.28,0,.4"/><path class="cls-7" d="M9.75,10.65c-.17,0-.22-.05-.39-.05s-.56.28-.79.16c.51.23.28.06,1.18.06h.06"/><path class="cls-7" d="M8.46,11a4.8,4.8,0,0,0,.28-.39.76.76,0,0,0-.28.39"/><path class="cls-7" d="M9.75,11.16c-.56,0-.45-.11-1.18-.4A7,7,0,0,0,9.75,11h.06"/><path class="cls-7" d="M9.75,10.37c-.17,0-.22-.11-.39-.11a.75.75,0,0,0-.51.17s.06-.17.23-.17.11-.34.28-.4c0,.12-.06.12-.06.23s.17.11.23,0c-.06.17.11.17.22.17"/><path class="cls-7" d="M9.75,11.38c-.11,0-.39.06,0,.06s.06-.06,0-.06"/></g></g></g></g></g></svg>