<svg xmlns="http://www.w3.org/2000/svg" xmlns:xlink="http://www.w3.org/1999/xlink" viewBox="0 0 60 35"><defs><style>.cls-1{fill:none;}.cls-2{clip-path:url(#clip-path);}.cls-3{fill:#eed12f;}.cls-4{fill:#242ea7;}.cls-5{fill:#bd0034;}.cls-6{fill:#fff;}</style><clipPath id="clip-path"><rect class="cls-1" width="60" height="35"/></clipPath></defs><title>Venezuela</title><g id="Layer_2" data-name="Layer 2"><g id="Stream"><g id="Venezuela"><g class="cls-2"><rect class="cls-3" width="60" height="11.67"/><rect class="cls-4" y="11.67" width="60" height="11.67"/><rect class="cls-5" y="23.33" width="60" height="11.67"/><polygon class="cls-6" points="27.39 15.82 27.85 12.5 29.43 15.46 26.41 13.99 29.72 13.41 27.39 15.82"/><polygon class="cls-6" points="30.57 15.46 32.14 12.5 32.61 15.82 30.28 13.41 33.58 13.99 30.57 15.46"/><polygon class="cls-6" points="24.52 17.25 23.83 13.96 26.32 16.21 22.98 15.86 25.89 14.18 24.52 17.25"/><polygon class="cls-6" points="33.68 16.21 36.17 13.96 35.47 17.25 34.11 14.18 37.02 15.86 33.68 16.21"/><polygon class="cls-6" points="22.32 19.57 20.54 16.72 23.65 17.98 20.4 18.79 22.55 16.22 22.32 19.57"/><polygon class="cls-6" points="36.35 17.98 39.46 16.72 37.68 19.57 37.45 16.22 39.6 18.79 36.35 17.98"/><polygon class="cls-6" points="21.04 22.5 18.4 20.44 21.75 20.55 18.97 22.43 20.12 19.28 21.04 22.5"/><polygon class="cls-6" points="38.25 20.55 41.6 20.44 38.96 22.5 39.88 19.28 41.03 22.43 38.25 20.55"/></g></g></g></g></svg>